<?xml version="1.0" encoding="UTF-8" standalone="no"?>
<!-- Created with Inkscape (http://www.inkscape.org/) -->

<svg
   xmlns:dc="http://purl.org/dc/elements/1.1/"
   xmlns:cc="http://creativecommons.org/ns#"
   xmlns:rdf="http://www.w3.org/1999/02/22-rdf-syntax-ns#"
   xmlns:svg="http://www.w3.org/2000/svg"
   xmlns="http://www.w3.org/2000/svg"
   xmlns:sodipodi="http://sodipodi.sourceforge.net/DTD/sodipodi-0.dtd"
   xmlns:inkscape="http://www.inkscape.org/namespaces/inkscape"
   version="1.1"
   id="svg23289"
   xml:space="preserve"
   width="800"
   height="800"
   viewBox="0 0 800 800"
   sodipodi:docname="eyewear-publicdomainvectors.org.svg"
   inkscape:version="0.92.4 (5da689c313, 2019-01-14)"><metadata
     id="metadata23295"><rdf:RDF><cc:Work
         rdf:about=""><dc:format>image/svg+xml</dc:format><dc:type
           rdf:resource="http://purl.org/dc/dcmitype/StillImage" /><dc:title></dc:title></cc:Work></rdf:RDF></metadata><defs
     id="defs23293"><clipPath
       clipPathUnits="userSpaceOnUse"
       id="clipPath23305"><path
         d="M 0,600 H 600 V 0 H 0 Z"
         id="path23303"
         inkscape:connector-curvature="0" /></clipPath></defs><sodipodi:namedview
     pagecolor="#ffffff"
     bordercolor="#666666"
     borderopacity="1"
     objecttolerance="10"
     gridtolerance="10"
     guidetolerance="10"
     inkscape:pageopacity="0"
     inkscape:pageshadow="2"
     inkscape:window-width="797"
     inkscape:window-height="480"
     id="namedview23291"
     showgrid="false"
     inkscape:zoom="0.295"
     inkscape:cx="400"
     inkscape:cy="400"
     inkscape:window-x="0"
     inkscape:window-y="0"
     inkscape:window-maximized="0"
     inkscape:current-layer="g23297" /><g
     id="g23297"
     inkscape:groupmode="layer"
     inkscape:label="eyewear-publicdomainvectors.org"
     transform="matrix(1.3333333,0,0,-1.3333333,0,800)"><g
       id="g23299"><g
         id="g23301"
         clip-path="url(#clipPath23305)"><path
           d="M -1.107,-0.022 H 599.445 V 600.53 H -1.107 Z"
           style="fill:#577c92;fill-opacity:1;fill-rule:evenodd;stroke:none"
           id="path23307"
           inkscape:connector-curvature="0" /><path
           d="m 89.332,314.564 c -0.543,-10.377 0.592,-21.099 3.06,-31.185 4.873,-19.905 16.762,-43.217 37.945,-49.414 61.768,-18.068 113.568,14.462 135.025,73.046 3.704,10.117 1.54,29.594 -9.259,34.804 -40.012,19.297 -85.933,27.977 -129.293,15.161 -17.391,-5.141 -36.494,-23.575 -37.478,-42.412 m 419.674,0 c -0.984,18.837 -20.088,37.271 -37.48,42.412 -43.36,12.816 -89.281,4.136 -129.292,-15.161 -10.799,-5.21 -12.963,-24.687 -9.258,-34.804 21.456,-58.584 73.255,-91.114 135.024,-73.046 2.854,0.834 5.589,2 8.181,3.459 24.298,13.696 34.193,50.951 32.825,77.14 M 299.17,355.077 c 10.2,0 21.135,6.448 30.132,10.862 68.701,33.7 143.32,35.676 216.577,16.139 10.636,-2.836 12.661,-15.229 13.024,-24.598 1.066,-27.39 -7.061,-59.204 -18.788,-83.801 -15.935,-33.432 -42.771,-63.241 -81.507,-67.336 -69.889,-7.386 -124.058,20.628 -148.92,88.705 -0.944,2.584 -3.282,9.952 -5.406,11.698 -1.197,0.985 -3.498,1.031 -4.943,0.996 l -0.169,-0.003 -0.172,0.003 c -1.445,0.035 -3.747,-0.011 -4.944,-0.996 -2.123,-1.746 -4.462,-9.114 -5.405,-11.698 -24.865,-68.077 -79.031,-96.091 -148.92,-88.705 -11.553,1.222 -22.488,4.811 -32.578,10.546 -22.109,12.563 -38.152,34.174 -48.931,56.79 -11.723,24.597 -19.85,56.411 -18.787,83.801 0.363,9.369 2.389,21.762 13.027,24.598 73.254,19.537 147.871,17.561 216.575,-16.139 8.994,-4.414 19.932,-10.862 30.135,-10.862"
           style="fill:#4b6c80;fill-opacity:1;fill-rule:evenodd;stroke:none"
           id="path23309"
           inkscape:connector-curvature="0" /><path
           d="m 73.981,362.418 c 111.919,-11.825 223.837,-23.652 335.754,-35.479 18.873,-1.994 36.054,-11.94 53.654,-19.038 35.977,-14.506 62.23,-26.914 82.208,-51.921 7.417,-9.289 1.214,-16.235 -11.265,-13.006 -28.299,7.326 -51.87,25.25 -79.597,49.351 -14.394,12.513 -34.628,18.558 -53.653,19.903 -110.186,7.787 -220.374,15.576 -330.561,23.365 1.153,8.94 2.307,17.884 3.46,26.825"
           style="fill:#1e1d1e;fill-opacity:1;fill-rule:evenodd;stroke:none"
           id="path23311"
           inkscape:connector-curvature="0" /><path
           d="m 506.915,287.943 c 11.023,-6.204 20.764,-13.129 29.439,-21.694 -3.729,-6.957 -7.955,-13.676 -12.684,-19.946 -9.211,3.372 -18.008,7.89 -26.74,13.385 4.732,8.621 8.025,18.455 9.985,28.255 m -254.522,55.623 82.856,-8.756 c -2.806,-5.03 -4.04,-11.615 -3.944,-17.651 l -64.451,4.556 c -0.788,8.434 -4.163,16.923 -10.751,20.1 -1.231,0.595 -2.468,1.178 -3.71,1.751 m -178.412,18.852 52.491,-5.546 c -11.16,-3.405 -22.969,-12.236 -30.208,-23.099 l -25.743,1.82 c 1.153,8.94 2.307,17.884 3.46,26.825"
           style="fill:#110f0d;fill-opacity:1;fill-rule:evenodd;stroke:none"
           id="path23313"
           inkscape:connector-curvature="0" /><path
           d="M 516.248,366.788 C 404.33,354.961 292.412,343.136 180.495,331.31 161.621,329.315 144.438,319.367 126.841,312.271 90.862,297.765 64.609,285.357 44.633,260.351 c -7.42,-9.288 -1.216,-16.237 11.265,-13.005 28.298,7.323 51.87,25.247 79.597,49.349 14.394,12.513 34.628,18.558 53.653,19.903 110.185,7.788 220.373,15.576 330.562,23.365 -1.155,8.941 -2.311,17.885 -3.462,26.825"
           style="fill:#1e1d1e;fill-opacity:1;fill-rule:evenodd;stroke:none"
           id="path23315"
           inkscape:connector-curvature="0" /><path
           d="M 362.829,350.577 259.322,339.639 c 4.408,-3.955 6.795,-10.745 7.493,-17.552 l 65.454,4.627 c 1.472,6.602 4.689,12.556 9.965,15.101 6.713,3.237 13.589,6.175 20.595,8.762 m 153.419,16.211 -59.477,-6.284 c 4.945,-0.914 9.869,-2.083 14.755,-3.528 9.604,-2.84 19.727,-9.733 27.037,-18.509 l 21.147,1.496 c -1.155,8.941 -2.311,17.885 -3.462,26.825 M 70.457,252.179 c -4.656,6.875 -8.726,14.134 -12.237,21.5 l -0.338,0.716 c 9.438,8.481 20.083,15.313 32.182,21.551 0.54,-4.251 1.324,-8.462 2.328,-12.567 1.307,-5.338 3.12,-10.921 5.481,-16.354 -9.006,-6.021 -18.018,-11.032 -27.416,-14.846"
           style="fill:#110f0d;fill-opacity:1;fill-rule:evenodd;stroke:none"
           id="path23317"
           inkscape:connector-curvature="0" /><path
           d="m 82.003,322.833 c 1.116,21.357 21.607,42.69 42.59,48.892 45.834,13.547 93.569,4.129 134.425,-15.576 13.929,-6.717 18.093,-29.428 12.865,-43.7 -22.209,-60.636 -76.975,-96.979 -143.74,-77.447 -32.309,9.447 -47.948,53.215 -46.14,87.831 m 433.952,0 c 1.808,-34.616 -13.831,-78.384 -46.139,-87.831 -66.768,-19.532 -121.534,16.811 -143.742,77.447 -5.225,14.272 -1.062,36.983 12.864,43.7 40.857,19.705 88.594,29.123 134.425,15.576 20.984,-6.202 41.476,-27.535 42.592,-48.892 m -216.976,32.992 c -11.781,0 -22.758,6.431 -33.282,11.593 -62.115,30.469 -133.639,36.436 -211.585,15.65 -6.424,-1.712 -7.475,-11.478 -7.727,-17.968 -1.888,-48.633 28.368,-136.826 93.907,-143.751 60.349,-6.381 115.83,13.889 141.453,84.047 4.146,11.36 5.859,17.662 17.234,17.388 11.374,0.274 13.086,-6.028 17.236,-17.388 25.619,-70.158 81.103,-90.428 141.453,-84.047 65.537,6.925 95.794,95.118 93.903,143.751 -0.251,6.49 -1.301,16.256 -7.726,17.968 -77.947,20.786 -149.467,14.819 -211.585,-15.65 -10.524,-5.162 -21.501,-11.593 -33.281,-11.593"
           style="fill:#1e1d1e;fill-opacity:1;fill-rule:evenodd;stroke:none"
           id="path23319"
           inkscape:connector-curvature="0" /><path
           d="m 515.955,322.833 c -1.116,21.357 -21.608,42.69 -42.592,48.892 -45.831,13.547 -93.568,4.129 -134.425,-15.576 -13.926,-6.717 -18.089,-29.428 -12.864,-43.7 22.208,-60.636 76.974,-96.979 143.742,-77.447 32.308,9.447 47.947,53.215 46.139,87.831 m -433.952,0 c 1.116,21.357 21.607,42.69 42.59,48.892 45.834,13.547 93.569,4.129 134.425,-15.576 13.929,-6.717 18.093,-29.428 12.865,-43.7 -22.209,-60.636 -76.975,-96.979 -143.74,-77.447 -32.309,9.447 -47.948,53.215 -46.14,87.831"
           style="fill:#485259;fill-opacity:1;fill-rule:evenodd;stroke:none"
           id="path23321"
           inkscape:connector-curvature="0" /><path
           d="m 119.993,243.835 8.434,13.922 c 3.375,-2.188 7.045,-3.927 11.037,-5.094 6.912,-2.022 13.706,-3.419 20.354,-4.23 l -3.295,-13.598 c -8.747,0.559 -17.769,2.144 -27.011,4.849 -3.4,0.991 -6.572,2.399 -9.519,4.151 m -18.174,18.385 c 2.553,-4.014 5.472,-7.753 8.773,-11.038 l 10.832,12.124 c -3.163,3.006 -5.987,6.429 -8.487,10.118 z m 279.88,-13.173 c 10.589,-6.366 22.242,-10.767 34.709,-12.919 l 3.471,14.315 c -10.625,2.564 -20.597,6.798 -29.749,12.518 z m -20.022,15.586 11.447,11.533 c 3.192,-3.028 6.53,-5.841 10.006,-8.427 l -10.935,-12.235 c -3.665,2.793 -7.177,5.837 -10.518,9.129"
           style="fill:#59646c;fill-opacity:1;fill-rule:evenodd;stroke:none"
           id="path23323"
           inkscape:connector-curvature="0" /><path
           d="m 325.026,335.89 84.709,-8.951 c 18.873,-1.994 36.054,-11.94 53.654,-19.038 18.456,-7.442 34.351,-14.331 48.157,-22.653 -2.794,-9.758 -6.867,-19.069 -12.205,-27.052 -14.609,8.874 -28.946,20.515 -44.606,34.129 -14.394,12.513 -34.628,18.558 -53.653,19.903 l -76.428,5.401 c -1.112,5.734 -0.994,12.204 0.372,18.261 m -222.545,23.517 168.743,-17.831 c 2.428,-6.341 3.287,-13.662 2.608,-20.354 L 84.499,334.604 c 3.404,9.271 9.952,17.983 17.982,24.803"
           style="fill:#313033;fill-opacity:1;fill-rule:evenodd;stroke:none"
           id="path23325"
           inkscape:connector-curvature="0" /><path
           d="m 310.029,318.786 -0.871,-0.061 -19.872,1.404 c 2.222,1.847 5.205,2.764 9.693,2.655 5.47,0.133 8.704,-1.258 11.05,-3.998 m 14.997,17.104 84.709,-8.951 c 1.733,-0.183 3.449,-0.432 5.153,-0.741 l -90.591,-6.403 c -0.705,5.167 -0.468,10.789 0.729,16.095 m -80.757,8.534 26.955,-2.848 c 2.428,-6.341 3.287,-13.661 2.608,-20.354 l -122.284,8.642 c 9.059,3.677 18.327,6.699 28.279,7.75 z"
           style="fill:#252423;fill-opacity:1;fill-rule:evenodd;stroke:none"
           id="path23327"
           inkscape:connector-curvature="0" /><path
           d="M 489.481,363.96 329.384,347.042 c -3.597,-5.955 -5.417,-13.575 -5.482,-20.92 l 187.506,13.254 c -4.735,9.629 -12.716,18.362 -21.927,24.584 M 271.469,340.922 c 2.084,-5.753 2.901,-12.251 2.478,-18.329 l -84.799,-5.995 c -19.025,-1.345 -39.259,-7.39 -53.653,-19.903 -14.335,-12.46 -27.558,-23.268 -40.899,-31.815 -4.628,8.573 -8.002,18.225 -10.111,28.088 12.414,6.873 26.431,12.883 42.356,19.303 17.597,7.096 34.78,17.044 53.654,19.039 z"
           style="fill:#313033;fill-opacity:1;fill-rule:evenodd;stroke:none"
           id="path23329"
           inkscape:connector-curvature="0" /><path
           d="m 511.084,322.579 c -1.036,19.818 -20.777,39.053 -39.104,44.47 -25.422,7.515 -51.712,7.752 -77.205,2.826 19.69,1.811 39.614,0.319 59.034,-5.422 18.324,-5.418 38.067,-24.652 39.101,-44.47 1.416,-27.098 -8.871,-65.083 -33.977,-79.235 -2.742,-1.544 -5.64,-2.78 -8.66,-3.662 -2.935,-0.861 -5.85,-1.606 -8.744,-2.242 8.719,0.563 17.71,2.143 26.916,4.84 3.023,0.881 5.918,2.115 8.659,3.662 25.107,14.148 35.394,52.134 33.98,79.233 M 169.418,234.76 c 44.853,2.408 80.834,32.81 97.884,79.366 4.121,11.246 1.538,31.871 -10.402,37.63 -36.834,17.766 -78.591,26.589 -118.862,18.307 34.496,2.839 69.372,-5.799 100.69,-20.903 11.938,-5.759 14.521,-26.384 10.403,-37.629 -14.679,-40.082 -43.392,-68.191 -79.713,-76.771"
           style="fill:#586269;fill-opacity:1;fill-rule:evenodd;stroke:none"
           id="path23331"
           inkscape:connector-curvature="0" /><path
           d="m 491.36,295.902 c -1.571,-9.118 -4.267,-18.354 -8.174,-26.782 4.031,-2.98 8.04,-5.772 12.053,-8.358 5.358,7.984 9.304,17.372 11.93,27.038 -4.997,2.824 -10.262,5.496 -15.809,8.102 m -246.793,48.491 21.149,-2.236 c 2.913,-6.164 3.882,-13.909 3.209,-20.588 l -17.969,1.269 c 0.051,7.666 -1.952,16.016 -6.389,21.555"
           style="fill:#444347;fill-opacity:1;fill-rule:evenodd;stroke:none"
           id="path23333"
           inkscape:connector-curvature="0" /><path
           d="m 268.925,321.569 c 0.673,6.679 -0.296,14.424 -3.209,20.588 l -21.149,2.234 c 4.437,-5.538 6.44,-13.887 6.389,-21.553 z"
           style="fill:#3b3a3b;fill-opacity:1;fill-rule:evenodd;stroke:none"
           id="path23335"
           inkscape:connector-curvature="0" /><path
           d="m 506.144,339.004 c -5.465,10.037 -14.787,18.786 -24.713,24.105 l -19.25,-2.033 c 9.906,-5.04 19.329,-13.543 25.078,-23.408 z m -237.157,-16.763 -18.085,-1.278 c 0.296,5.783 -0.599,12.14 -2.861,17.485 l 18.439,1.948 c 2.228,-5.623 3,-12.261 2.507,-18.155"
           style="fill:#444347;fill-opacity:1;fill-rule:evenodd;stroke:none"
           id="path23337"
           inkscape:connector-curvature="0" /></g></g></g></svg>