<?xml version="1.0" encoding="UTF-8" standalone="no"?>
<!-- Created with Inkscape (http://www.inkscape.org/) -->

<svg
   xmlns:dc="http://purl.org/dc/elements/1.1/"
   xmlns:cc="http://creativecommons.org/ns#"
   xmlns:rdf="http://www.w3.org/1999/02/22-rdf-syntax-ns#"
   xmlns:svg="http://www.w3.org/2000/svg"
   xmlns="http://www.w3.org/2000/svg"
   xmlns:sodipodi="http://sodipodi.sourceforge.net/DTD/sodipodi-0.dtd"
   xmlns:inkscape="http://www.inkscape.org/namespaces/inkscape"
   version="1.1"
   id="svg18718"
   xml:space="preserve"
   width="800"
   height="800"
   viewBox="0 0 800 800"
   sodipodi:docname="Dog-Silhouette-Color-publicdomainvectors.org.svg"
   inkscape:version="0.92.4 (5da689c313, 2019-01-14)"><metadata
     id="metadata18724"><rdf:RDF><cc:Work
         rdf:about=""><dc:format>image/svg+xml</dc:format><dc:type
           rdf:resource="http://purl.org/dc/dcmitype/StillImage" /><dc:title></dc:title></cc:Work></rdf:RDF></metadata><defs
     id="defs18722"><clipPath
       clipPathUnits="userSpaceOnUse"
       id="clipPath18734"><path
         d="M 0,600 H 600 V 0 H 0 Z"
         id="path18732"
         inkscape:connector-curvature="0" /></clipPath></defs><sodipodi:namedview
     pagecolor="#ffffff"
     bordercolor="#666666"
     borderopacity="1"
     objecttolerance="10"
     gridtolerance="10"
     guidetolerance="10"
     inkscape:pageopacity="0"
     inkscape:pageshadow="2"
     inkscape:window-width="797"
     inkscape:window-height="480"
     id="namedview18720"
     showgrid="false"
     inkscape:zoom="0.295"
     inkscape:cx="400"
     inkscape:cy="400"
     inkscape:window-x="0"
     inkscape:window-y="0"
     inkscape:window-maximized="0"
     inkscape:current-layer="g18726" /><g
     id="g18726"
     inkscape:groupmode="layer"
     inkscape:label="Dog-Silhouette-Color-publicdomainvectors.org"
     transform="matrix(1.3333333,0,0,-1.3333333,0,800)"><g
       id="g18728"><g
         id="g18730"
         clip-path="url(#clipPath18734)"><path
           d="m 483.008,493.636 c 0,0 5.282,3.677 7.266,6.155 1.252,1.559 2.093,3.436 2.796,5.308 l 3.354,8.946 c 0.616,1.646 2.191,2.821 2.797,4.473 0.45,1.236 0.666,2.6 0.559,3.913 -0.155,1.852 -1.596,3.459 -1.677,5.315 -0.113,2.575 1.677,7.545 1.677,7.545 0.447,2.016 -0.97,4.058 -1.96,5.873 -0.282,0.524 -1.118,1.396 -1.118,1.396 -1.569,1.964 0.543,5.088 0,7.55 -0.282,1.303 -1.678,3.631 -1.678,3.631 -0.383,0.842 -1.117,1.571 -1.954,1.96 -2.123,0.975 -6.991,0.553 -6.991,0.553 -4.381,0.355 -8.761,-0.687 -13.137,-1.117 -0.407,-0.04 -0.867,-0.087 -1.357,-0.138 l 4.084,-65.952 c 2.519,1.421 5.137,2.726 7.339,4.589"
           style="fill:#f14a1c;fill-opacity:1;fill-rule:nonzero;stroke:none"
           id="path18736"
           inkscape:connector-curvature="0" /><path
           d="m 422.763,272.96 c 2.426,2.897 4.481,6.159 6.01,9.616 1.406,3.186 2.796,10.064 2.796,10.064 1.472,5.298 -0.467,10.992 -0.558,16.492 -0.145,8.293 0,24.882 0,24.882 0,0.785 0.043,1.567 0.117,2.345 l -35.246,-55.843 z"
           style="fill:#fadd32;fill-opacity:1;fill-rule:nonzero;stroke:none"
           id="path18738"
           inkscape:connector-curvature="0" /><path
           d="m 369.708,179.36 c 0.349,-5.061 0.636,-11.964 0.636,-11.964 0.073,-1.231 0.125,-2.461 0.168,-3.693 l 28.678,-0.996 c -0.228,10.551 0.787,25.38 0.787,25.38 0.118,6.155 0.293,12.343 1.118,18.446 0.605,4.442 2.021,8.73 2.797,13.142 0,0 1.091,6.339 1.676,9.505 0.538,2.897 1.277,5.75 1.677,8.668 0.473,3.426 0.128,6.961 0.841,10.34 0.529,2.509 2.515,7.269 2.515,7.269 0.501,1.451 1.175,2.829 1.942,4.164 l -16.661,20.895 z"
           style="fill:#ede381;fill-opacity:1;fill-rule:nonzero;stroke:none"
           id="path18740"
           inkscape:connector-curvature="0" /><path
           d="m 412.543,259.621 c 1.177,2.044 2.574,3.982 3.93,5.9 1.831,2.596 6.15,7.268 6.15,7.268 0.048,0.057 0.093,0.114 0.14,0.171 l -26.881,7.556 z"
           style="fill:#f3f280;fill-opacity:1;fill-rule:nonzero;stroke:none"
           id="path18742"
           inkscape:connector-curvature="0" /><path
           d="m 446.239,468.924 c 0.573,1.315 1.32,2.556 2.38,3.466 0,0 3.755,3.569 5.873,5.037 3.668,2.533 7.827,4.282 11.74,6.426 2.889,1.585 5.823,3.094 8.665,4.755 0.255,0.149 0.512,0.294 0.772,0.439 l -4.084,65.952 c -3.534,-0.372 -8.706,-0.98 -8.706,-0.98 -1.675,-0.185 -3.367,-0.265 -5.053,-0.377 L 380.79,460.984 Z"
           style="fill:#f2561a;fill-opacity:1;fill-rule:nonzero;stroke:none"
           id="path18744"
           inkscape:connector-curvature="0" /><path
           d="m 370.596,160.64 36.621,-24.171 c -0.706,0.657 -1.361,1.36 -1.925,2.135 -1.873,2.56 -3.915,8.665 -3.915,8.665 -1.481,3.282 -1.662,7.037 -1.959,10.627 -0.117,1.428 -0.189,3.061 -0.228,4.811 l -28.678,0.996 c 0.034,-1.021 0.062,-2.042 0.084,-3.063"
           style="fill:#d0e597;fill-opacity:1;fill-rule:nonzero;stroke:none"
           id="path18746"
           inkscape:connector-curvature="0" /><path
           d="m 395.882,280.516 35.246,55.843 c 0.5,5.216 2.454,10.302 2.954,15.546 0.447,4.642 0.339,9.32 0.282,13.978 0,0 -0.708,13.31 -0.348,20.936 l -96.614,-24.558 z"
           style="fill:#fab310;fill-opacity:1;fill-rule:nonzero;stroke:none"
           id="path18748"
           inkscape:connector-curvature="0" /><path
           d="m 457.826,553.642 c -1.971,-0.13 -3.932,-0.305 -5.853,-0.742 -2.702,-0.61 -5.098,-2.318 -7.827,-2.79 -0.641,-0.113 -1.493,-0.462 -1.955,0 -0.989,0.984 0,4.191 0,4.191 0,0 -0.183,3.103 -0.841,4.473 -1.113,2.324 -5.031,5.872 -5.031,5.872 -1.422,1.652 -3.986,1.939 -6.15,2.237 -2.405,0.328 -7.269,-0.565 -7.269,-0.565 -1.39,-0.102 -2.826,-0.297 -4.19,0 -4.52,1.007 -12.583,5.874 -12.583,5.874 -5.848,2.728 -12.833,1.606 -19.287,1.677 -6.257,0.07 -12.555,-0.044 -18.786,-0.681 L 380.79,460.984 Z"
           style="fill:#f14c1c;fill-opacity:1;fill-rule:nonzero;stroke:none"
           id="path18750"
           inkscape:connector-curvature="0" /><path
           d="m 370.627,159.014 c 0.03,-1.775 0,-5.314 0,-5.314 0,-1.446 0.589,-2.847 1.117,-4.195 0.652,-1.667 2.514,-4.751 2.514,-4.751 1.225,-2.309 0.252,-5.232 0.558,-7.826 0.334,-2.812 -0.034,-5.941 1.401,-8.388 1.207,-2.057 5.593,-4.472 5.593,-4.472 1.219,-0.974 0.907,-2.991 1.393,-4.473 0.893,-2.713 2.796,-8.11 2.796,-8.11 0.821,-2.369 2.452,-4.39 3.914,-6.427 1.355,-1.883 4.473,-5.31 4.473,-5.31 1.052,-1.245 2.868,-1.712 4.472,-1.958 1.673,-0.256 3.914,0.276 5.034,0.559 1.117,0.283 3.769,1.015 4.754,2.518 0.666,1.016 -0.816,3.099 0.276,3.632 0.908,0.441 2.519,-1.678 2.519,-1.678 2.821,-1.882 6.17,-3.02 9.504,-3.636 2.109,-0.39 4.412,-0.729 6.427,0 1.371,0.497 2.581,1.564 3.356,2.801 0.41,0.646 0.589,1.467 0.559,2.236 -0.042,1.174 -1.118,3.355 -1.118,3.355 -0.231,0.687 1.251,0.805 1.678,1.396 0.59,0.809 1.117,2.795 1.117,2.795 0.386,0.948 0.329,2.103 0,3.072 -0.441,1.328 -2.514,3.354 -2.514,3.354 -2.78,3.704 -6.971,6.105 -10.622,8.946 -2.898,2.256 -8.946,6.432 -8.946,6.432 -1.257,0.906 -2.528,1.84 -3.665,2.897 l -36.621,24.171 c 0.011,-0.541 0.022,-1.084 0.031,-1.626"
           style="fill:#cfca82;fill-opacity:1;fill-rule:nonzero;stroke:none"
           id="path18752"
           inkscape:connector-curvature="0" /><path
           d="m 439.973,416.863 c 0.438,2.287 0.817,4.371 0.817,4.371 0,0 0.366,3.355 0.56,5.032 0.628,5.314 1.421,10.608 1.96,15.932 0.472,4.652 0.693,9.325 1.118,13.982 0.335,3.637 -0.01,7.428 1.119,10.901 0.199,0.614 0.429,1.235 0.692,1.843 l -65.449,-7.94 z"
           style="fill:#f57515;fill-opacity:1;fill-rule:nonzero;stroke:none"
           id="path18754"
           inkscape:connector-curvature="0" /><path
           d="m 337.402,362.261 96.614,24.558 c 0.019,0.401 0.041,0.785 0.066,1.151 0.216,3.098 0.683,6.196 1.4,9.222 0,0 2.53,10.228 3.631,15.378 0.248,1.15 0.567,2.766 0.86,4.293 l -59.183,44.121 z"
           style="fill:#f68712;fill-opacity:1;fill-rule:nonzero;stroke:none"
           id="path18756"
           inkscape:connector-curvature="0" /><path
           d="m 368.054,573.188 c -2.416,-0.247 -4.825,-0.57 -7.214,-0.996 -3.539,-0.63 -10.346,-3.073 -10.346,-3.073 -1.58,-0.472 -2.431,-2.267 -3.355,-3.637 -0.857,-1.277 -0.749,-3.232 -1.954,-4.19 -1.713,-1.375 -4.325,-0.79 -6.433,-1.4 -1.811,-0.529 -5.309,-1.954 -5.309,-1.954 -2.287,-0.847 -3.283,-3.616 -5.031,-5.315 -2.416,-2.339 -7.551,-6.709 -7.551,-6.709 -2.375,-2.113 -3.452,-5.98 -5.032,-8.105 -1.575,-2.123 -3.313,-2.831 -4.19,-4.755 -1.17,-2.569 0.128,-5.857 -1.118,-8.386 -0.529,-1.067 -1.965,-1.467 -2.519,-2.513 -0.844,-1.615 -1.066,-5.113 -1.109,-5.965 l 73.897,-55.206 z"
           style="fill:#ef401e;fill-opacity:1;fill-rule:nonzero;stroke:none"
           id="path18758"
           inkscape:connector-curvature="0" /><path
           d="m 306.893,516.19 c -0.006,-0.122 -0.009,-0.19 -0.009,-0.19 -0.601,-3.299 -0.693,-6.782 0,-10.065 0.384,-1.794 2.235,-5.026 2.235,-5.026 0.729,-1.642 1.602,-3.217 2.52,-4.755 0.517,-0.868 1.513,-1.523 1.677,-2.518 0.302,-1.806 -1.4,-5.31 -1.4,-5.31 -1.812,-6.888 -0.965,-14.239 -2.237,-21.245 -0.296,-1.638 -0.803,-3.775 -1.357,-5.924 l 72.468,-0.173 z"
           style="fill:#f03f1e;fill-opacity:1;fill-rule:nonzero;stroke:none"
           id="path18760"
           inkscape:connector-curvature="0" /><path
           d="m 281.125,281.144 41.232,-57.175 c 0.553,0.517 1.105,1.034 1.582,1.578 1.954,2.232 6.15,6.428 6.15,6.428 2.102,2.2 4.493,4.133 6.991,5.873 1.847,1.288 5.868,3.354 5.868,3.354 1.298,0.744 2.986,0.159 4.473,0.282 2.708,0.22 8.11,0.836 8.11,0.836 2.415,0.252 5.437,1.041 7.268,-0.558 1.006,-0.883 0.837,-3.914 0.837,-3.914 l 1.117,-12.301 c 0.411,-4.478 0.944,-8.945 1.4,-13.418 0.472,-4.662 1.396,-13.978 1.396,-13.978 0.543,-5.416 1.477,-10.792 1.96,-16.219 0.067,-0.756 0.134,-1.632 0.199,-2.572 l 26.174,101.156 z"
           style="fill:#f8b137;fill-opacity:1;fill-rule:nonzero;stroke:none"
           id="path18762"
           inkscape:connector-curvature="0" /><path
           d="m 395.882,280.516 -58.48,81.745 -56.277,-81.117 z"
           style="fill:#f8a211;fill-opacity:1;fill-rule:nonzero;stroke:none"
           id="path18764"
           inkscape:connector-curvature="0" /><path
           d="m 380.79,460.984 -72.468,0.173 c -1.176,-4.56 -2.556,-9.172 -2.556,-9.172 -0.924,-3.575 -4.981,-5.581 -8.105,-7.55 -1.949,-1.222 -6.432,-2.515 -6.432,-2.515 -2.442,-0.953 -6.428,-0.276 -7.828,-0.84 -1.395,-0.555 -6.575,0.195 -9.781,0.84 -3.516,0.711 -6.871,2.063 -10.234,3.313 l 74.016,-82.972 z"
           style="fill:#f36518;fill-opacity:1;fill-rule:nonzero;stroke:none"
           id="path18766"
           inkscape:connector-curvature="0" /><path
           d="m 274.61,264.882 c 3.438,-4.494 1.794,-20.509 0.964,-29.553 h 0.005 c 0.343,-12.516 2.796,-37.46 2.796,-37.46 0.735,-9.886 1.502,-19.773 2.396,-29.648 l 36.433,-1.867 c -0.234,11.03 -0.251,23.688 -0.251,23.688 -0.078,4.57 0.082,9.135 0.276,13.7 0.123,2.894 0.154,5.797 0.56,8.669 0.363,2.549 1.676,7.546 1.676,7.546 0.361,1.621 1.627,2.824 2.892,4.012 l -41.232,57.175 z"
           style="fill:#f58b46;fill-opacity:1;fill-rule:nonzero;stroke:none"
           id="path18768"
           inkscape:connector-curvature="0" /><path
           d="m 261.037,226.106 c 0.99,0.535 0.359,2.637 1.401,3.074 1.271,0.539 2.626,-1.913 3.913,-1.401 0.58,0.236 0.595,1.103 0.836,1.682 0.452,1.088 1.119,3.355 1.119,3.355 0.4,1.2 -0.698,2.437 -1.119,3.631 -0.498,1.415 -1.501,3.837 -1.976,4.972 l -6.673,-16.66 z"
           style="fill:#f58b46;fill-opacity:1;fill-rule:nonzero;stroke:none"
           id="path18770"
           inkscape:connector-curvature="0" /><path
           d="m 314.994,53.62 c 0.672,0.113 1.318,0.333 1.959,0.559 1.144,0.401 3.354,1.396 3.354,1.396 1.277,0.533 1.703,-2.216 2.796,-3.073 1.082,-0.846 3.631,-1.954 3.631,-1.954 1.329,-0.718 2.975,0.796 4.197,1.672 1.286,0.933 3.072,3.636 3.072,3.636 1.507,1.781 -0.159,4.7 0.281,6.993 0.314,1.651 1.761,3.071 1.677,4.749 0,0 0.273,3.811 -0.281,5.591 -0.682,2.196 -2.448,3.898 -3.631,5.868 0,0 -0.337,0.498 -0.843,1.271 L 312.592,53.129 c 1.115,0.15 2.402,0.491 2.402,0.491"
           style="fill:#b97b65;fill-opacity:1;fill-rule:nonzero;stroke:none"
           id="path18772"
           inkscape:connector-curvature="0" /><path
           d="m 281.729,158.173 c 0.59,-5.882 1.816,-16.052 2.429,-21.069 l 37.386,-26.336 c -0.935,7.543 -2.079,20.568 -2.079,20.568 -0.856,8.371 -1.559,16.758 -1.953,25.159 -0.131,2.769 -0.231,6.227 -0.308,9.859 l -36.433,1.867 c 0.304,-3.352 0.622,-6.7 0.958,-10.048"
           style="fill:#de9c54;fill-opacity:1;fill-rule:nonzero;stroke:none"
           id="path18774"
           inkscape:connector-curvature="0" /><path
           d="m 337.402,362.261 -90.862,-9.433 34.585,-71.684 z"
           style="fill:#f57914;fill-opacity:1;fill-rule:nonzero;stroke:none"
           id="path18776"
           inkscape:connector-curvature="0" /><path
           d="m 337.402,362.261 -74.016,82.972 c -0.038,0.014 -0.075,0.028 -0.113,0.042 -2.933,1.088 -8.663,3.632 -8.663,3.632 -1.929,0.808 -3.847,1.671 -5.785,2.474 l -2.285,-98.553 z"
           style="fill:#f36218;fill-opacity:1;fill-rule:nonzero;stroke:none"
           id="path18778"
           inkscape:connector-curvature="0" /><path
           d="m 284.243,73.749 c -0.139,-3.474 1.4,-10.347 1.4,-10.347 0.22,-1.631 2.108,-2.549 3.354,-3.631 1.114,-0.964 2.257,-1.986 3.632,-2.514 1.318,-0.513 2.79,-0.697 4.196,-0.564 0.877,0.087 1.79,0.339 2.513,0.841 0.493,0.338 1.119,1.396 1.119,1.396 0.702,0.882 1.363,-1.806 2.236,-2.513 1.169,-0.944 3.912,-2.238 3.912,-2.238 1.495,-0.852 3.315,-1.072 5.034,-1.118 0.271,-0.007 0.603,0.021 0.953,0.068 l 18.614,27.199 c -1.167,1.785 -3.241,5.052 -4.19,7.121 -0.666,1.448 -1.238,2.94 -1.746,4.454 l -39.863,-10.34 c -0.616,-2.575 -1.058,-5.181 -1.164,-7.814"
           style="fill:#c26756;fill-opacity:1;fill-rule:nonzero;stroke:none"
           id="path18780"
           inkscape:connector-curvature="0" /><path
           d="m 284.524,134.131 c 0.436,-3.775 0.831,-7.648 2.237,-11.181 0.647,-1.637 2.795,-4.473 2.795,-4.473 2.088,-3.339 1.304,-7.802 1.396,-11.742 0.092,-3.918 -0.836,-11.741 -0.836,-11.741 -0.155,-2.124 -1.868,-3.842 -2.519,-5.873 -0.797,-2.486 -1.578,-5.006 -2.19,-7.558 l 39.863,10.34 c -0.62,1.844 -1.143,3.723 -1.608,5.61 -0.974,3.939 -1.426,7.991 -1.959,12.018 -0.053,0.392 -0.105,0.806 -0.159,1.237 l -37.386,26.336 c 0.224,-1.829 0.366,-2.973 0.366,-2.973"
           style="fill:#d4714d;fill-opacity:1;fill-rule:nonzero;stroke:none"
           id="path18782"
           inkscape:connector-curvature="0" /><path
           d="m 246.54,352.828 2.285,98.553 c -1.686,0.701 -3.388,1.354 -5.123,1.888 l -60.044,-90.065 z"
           style="fill:#f1501b;fill-opacity:1;fill-rule:nonzero;stroke:none"
           id="path18784"
           inkscape:connector-curvature="0" /><path
           d="m 246.54,352.828 -41.237,-32.704 c 1.283,-0.288 2.558,-0.76 3.738,-1.207 2.2,-0.835 5.873,-3.913 5.873,-3.913 1.918,-1.282 4.124,-2.816 4.75,-5.032 0.492,-1.744 -0.462,-3.627 -1.119,-5.314 -0.861,-2.215 -3.631,-6.15 -3.631,-6.15 -1.406,-2.369 -2.786,-4.852 -3.355,-7.545 -0.053,-0.25 -0.09,-0.541 -0.115,-0.855 l 69.681,-8.964 z"
           style="fill:#f36019;fill-opacity:1;fill-rule:nonzero;stroke:none"
           id="path18786"
           inkscape:connector-curvature="0" /><path
           d="m 181.963,293.901 c 1.957,2.58 5.554,6.843 5.554,6.843 1.334,1.657 2.222,3.648 3.073,5.591 0.407,0.933 0.691,1.912 0.973,2.892 l -17.966,-14.249 z"
           style="fill:#f36019;fill-opacity:1;fill-rule:nonzero;stroke:none"
           id="path18788"
           inkscape:connector-curvature="0" /><path
           d="m 211.444,290.108 c -0.136,-1.741 0.115,-4.177 0.115,-4.177 0,-4.098 1.267,-8.12 2.513,-12.024 0.991,-3.097 2.802,-5.883 3.914,-8.946 1.129,-3.103 2.796,-9.504 2.796,-9.504 0.892,-3.036 0,-8.104 0,-9.505 0,-1.4 -0.155,-7.514 0.558,-11.181 0.437,-2.227 0.591,-4.869 2.237,-6.428 0.985,-0.933 3.914,-1.118 3.914,-1.118 1.092,-0.313 1.662,1.872 2.795,1.955 0.831,0.06 2.237,-1.118 2.237,-1.118 1.421,-0.708 2.144,-2.531 3.637,-3.074 2.009,-0.738 4.282,0 6.426,0 h 2.796 c 1.088,0 2.262,0.729 2.795,1.673 0.232,0.41 0,1.401 0,1.401 0,1.265 2.238,-1.12 3.078,-2.238 0.836,-1.118 4.278,-2.682 6.15,-1.677 l 1.133,0.612 6.673,16.66 c -0.16,0.384 -0.26,0.62 -0.26,0.62 -0.944,2.359 -5.591,3.631 -6.709,3.631 -1.119,0 -5.304,3.037 -7.827,4.755 -2.417,1.646 -5.099,3.078 -6.987,5.314 -1.426,1.688 -3.078,5.868 -3.078,5.868 -1.026,1.965 -1.477,4.222 -1.677,6.432 -0.226,2.509 0.559,7.545 0.559,7.545 0.17,2.309 2.78,3.734 4.473,5.314 1.267,1.181 4.196,3.074 4.196,3.074 0.897,0.661 2.287,0.343 3.354,0 1.524,-0.489 3.914,-2.796 3.914,-2.796 3.185,-2.278 6.402,-4.55 9.223,-7.269 1.759,-1.697 2.923,-3.965 4.754,-5.591 1,-0.892 2.042,-2.17 3.355,-2.237 0.855,-0.04 1.549,-0.467 2.109,-1.197 l 6.515,16.262 z"
           style="fill:#f3611b;fill-opacity:1;fill-rule:nonzero;stroke:none"
           id="path18790"
           inkscape:connector-curvature="0" /><path
           d="m 177.474,287.341 c 1.347,2.075 2.7,4.145 4.171,6.136 0.099,0.134 0.207,0.278 0.318,0.424 l -8.366,1.077 z"
           style="fill:#f3611b;fill-opacity:1;fill-rule:nonzero;stroke:none"
           id="path18792"
           inkscape:connector-curvature="0" /><path
           d="m 173.567,281.492 c 1.36,1.911 2.631,3.882 3.907,5.849 l -3.877,7.637 z"
           style="fill:#f14c30;fill-opacity:1;fill-rule:nonzero;stroke:none"
           id="path18794"
           inkscape:connector-curvature="0" /><path
           d="m 183.658,363.204 -10.061,-68.226 17.966,14.249 c 0.289,1.009 0.575,2.019 0.986,2.981 0.862,2.031 1.41,4.412 3.073,5.869 1.415,1.246 5.313,1.958 5.313,1.958 1.376,0.508 2.878,0.423 4.368,0.089 l 41.237,32.704 z"
           style="fill:#f2561a;fill-opacity:1;fill-rule:nonzero;stroke:none"
           id="path18796"
           inkscape:connector-curvature="0" /><path
           d="m 243.702,453.269 c -0.828,0.254 -1.665,0.483 -2.511,0.674 -4.195,0.95 -8.555,1.103 -12.859,1.12 l -35.614,0.098 -9.06,-91.957 z"
           style="fill:#f03e1e;fill-opacity:1;fill-rule:nonzero;stroke:none"
           id="path18798"
           inkscape:connector-curvature="0" /><path
           d="m 127.129,212.406 c -1.195,-2.616 -4.191,-7.545 -4.191,-7.545 -1.62,-2.914 -2.949,-5.981 -4.473,-8.946 -0.82,-1.596 -2.216,-2.985 -2.518,-4.755 -0.2,-1.206 0.56,-3.637 0.56,-3.637 0.245,-1.589 -0.211,-3.529 0.841,-4.75 0.384,-0.446 1.676,-0.558 1.676,-0.558 0.714,-0.236 1.309,1.492 1.955,1.118 0.487,-0.283 -0.082,-1.123 0,-1.678 0.189,-1.252 0.59,-2.482 1.118,-3.631 0.513,-1.109 0.908,-2.463 1.96,-3.079 0,0 2.103,-1.62 3.354,-1.958 0.99,-0.267 2.616,-0.914 3.073,0 0,0 0.292,2.138 1.118,2.237 0.857,0.107 0.872,-1.663 1.677,-1.955 0,0 2.062,-1.041 3.078,-1.119 1.016,-0.077 2.513,-0.349 2.795,0.559 0,0 0.021,2.996 1.119,3.633 0.744,0.435 1.657,-0.555 2.513,-0.555 0,0 1.149,-0.174 1.677,0 0.765,0.241 1.591,0.682 1.959,1.396 0.596,1.159 -1.107,3.231 0,3.913 0.708,0.436 2.237,-1.117 2.237,-1.117 1.134,-0.57 2.729,0.23 3.632,1.117 0.342,0.334 0.607,0.722 0.822,1.143 l -24.034,34.996 c -0.591,-1.632 -1.224,-3.25 -1.948,-4.829"
           style="fill:#e4352c;fill-opacity:1;fill-rule:nonzero;stroke:none"
           id="path18800"
           inkscape:connector-curvature="0" /><path
           d="m 142.911,291.008 c -0.07,-8.972 0.155,-19.613 0.155,-19.613 0,-2.997 -0.559,-7.829 -0.841,-8.947 -0.277,-1.118 -1.954,-8.945 -2.236,-10.063 -0.278,-1.118 -2.237,-10.623 -2.514,-12.301 -0.282,-1.678 -3.39,-8.745 -5.032,-13.142 -1.197,-3.202 -2.2,-6.487 -3.366,-9.707 l 24.034,-34.996 c 0.71,1.396 0.834,3.174 1.137,4.73 0.288,1.468 0.282,4.472 0.282,4.472 0,0 -0.513,14.722 -0.282,22.082 0.118,3.74 0.841,11.183 0.841,11.183 0.626,8.387 3.073,16.578 5.586,24.601 1.267,4.026 4.756,11.741 4.756,11.741 1.605,3.966 0.815,8.658 2.517,12.577 1.273,2.944 5.592,7.828 5.592,7.828 0.009,0.013 0.018,0.026 0.027,0.039 l 0.03,13.486 z"
           style="fill:#f0411e;fill-opacity:1;fill-rule:nonzero;stroke:none"
           id="path18802"
           inkscape:connector-curvature="0" /><path
           d="m 151.244,382.83 c -0.385,-2.975 -0.632,-5.206 -0.632,-5.206 -0.831,-5.643 -1.385,-11.352 -1.396,-17.055 -0.004,-2.018 0.071,-4.036 0.209,-6.051 l 34.233,8.686 z"
           style="fill:#e93d1f;fill-opacity:1;fill-rule:nonzero;stroke:none"
           id="path18804"
           inkscape:connector-curvature="0" /><path
           d="m 120.702,469.599 c 0,0 -7.406,2.75 -11.182,3.908 -3.78,1.171 -7.828,2.802 -11.464,3.078 -3.632,0.277 -17.169,1.396 -12.86,1.396 1.472,0 -5.248,0.235 -8.104,-0.277 -2.149,-0.391 -6.151,-2.237 -6.151,-2.237 -1.671,-0.606 -3.2,-2 -3.913,-3.632 -0.636,-1.456 -0.334,-3.206 0,-4.754 0.236,-1.103 0.774,-2.14 1.395,-3.073 0.99,-1.487 2.139,-2.954 3.637,-3.919 2.428,-1.564 5.431,-1.914 8.216,-2.746 l 41.124,11.885 z"
           style="fill:#de2125;fill-opacity:1;fill-rule:nonzero;stroke:none"
           id="path18806"
           inkscape:connector-curvature="0" /><path
           d="m 151.244,382.83 32.414,-19.626 9.06,91.957 -14.29,0.04 c -8.909,0.025 -17.84,-1.381 -26.693,-0.98 -1.426,0.061 -5.873,2.237 -9.506,3.632 -3.635,1.4 -5.549,3.247 -8.386,4.754 L 121.4,469.228 80.276,457.343 c 0.339,-0.101 0.675,-0.208 1.006,-0.327 3.945,-1.41 7.633,-4.641 11.741,-4.473 4.202,0.17 5.905,-0.681 8.946,-3.354 2.099,-1.842 6.71,-5.032 6.71,-5.032 2.749,-2.062 5.391,-4.288 7.828,-6.708 2.014,-2.002 5.59,-6.433 5.59,-6.433 2.801,-3.221 6.612,-5.478 10.346,-7.546 3.514,-1.944 11.182,-4.472 11.182,-4.472 2.478,-0.991 4.755,-2.457 7.269,-3.355 1.585,-0.564 4.893,-1.256 4.893,-1.256 6.596,-1.699 -1.18,-13.06 -2.657,-19.709 -0.696,-3.133 -1.401,-8.087 -1.886,-11.848"
           style="fill:#ed3520;fill-opacity:1;fill-rule:nonzero;stroke:none"
           id="path18808"
           inkscape:connector-curvature="0" /><path
           d="m 183.658,363.204 -34.233,-8.686 c 0.188,-2.746 0.495,-5.485 0.909,-8.204 0.503,-3.308 2.068,-6.442 2.237,-9.781 0.077,-1.504 -0.56,-4.473 -0.56,-4.473 -0.446,-3.575 -3.636,-8.946 -3.913,-10.065 -0.236,-0.937 -2.604,-5.128 -3.55,-8.677 l 29.049,-18.34 z"
           style="fill:#f14d1c;fill-opacity:1;fill-rule:nonzero;stroke:none"
           id="path18810"
           inkscape:connector-curvature="0" /><path
           d="m 144.548,313.318 c -0.182,-0.682 -0.312,-1.342 -0.363,-1.951 0,0 -0.935,-8.744 -1.119,-13.136 -0.087,-2.045 -0.133,-4.561 -0.155,-7.223 l 30.686,3.97 z"
           style="fill:#f1471d;fill-opacity:1;fill-rule:nonzero;stroke:none"
           id="path18812"
           inkscape:connector-curvature="0" /></g></g></g></svg>