<?xml version="1.0" encoding="UTF-8"?>
<!DOCTYPE svg PUBLIC "-//W3C//DTD SVG 1.1//EN" "http://www.w3.org/Graphics/SVG/1.1/DTD/svg11.dtd">
<!-- Creator: CorelDRAW 2020 (64-Bit) -->
<svg xmlns="http://www.w3.org/2000/svg" xml:space="preserve" width="91.44mm" height="91.44mm" version="1.1" style="shape-rendering:geometricPrecision; text-rendering:geometricPrecision; image-rendering:optimizeQuality; fill-rule:evenodd; clip-rule:evenodd"
viewBox="0 0 9144 9144"
 xmlns:xlink="http://www.w3.org/1999/xlink"
 xmlns:xodm="http://www.corel.com/coreldraw/odm/2003">
 <defs>
  <style type="text/css">
   <![CDATA[
    .fil4 {fill:#FEFEFE}
    .fil0 {fill:#FFCC29}
    .fil1 {fill:#ED3237}
    .fil5 {fill:#FEFEFE;fill-rule:nonzero}
    .fil6 {fill:#ED3237;fill-rule:nonzero}
    .fil7 {fill:#ED3237;fill-rule:nonzero}
    .fil2 {fill:#003F5D;fill-rule:nonzero}
    .fil3 {fill:#5DA3D8;fill-opacity:0.290196}
   ]]>
  </style>
 </defs>
 <g id="Layer_x0020_1">
  <metadata id="CorelCorpID_0Corel-Layer"/>
  <g id="_1962450361808">
   <path class="fil0" d="M2685.09 6037.23l3720.07 0 -453.48 430.24c-89.82,85.72 -130.36,109.03 -249.76,109.35l-2309.66 0c-107.38,0.01 -150.98,-12.12 -238.64,-103.97l-468.53 -435.62z"/>
   <path class="fil1" d="M1184.18 3315.61l6775.65 0c213.21,0 387.65,174.39 387.65,387.55l0 1975.95c0,213.15 -174.44,387.55 -387.65,387.55l-6775.65 0c-213.21,0 -387.65,-174.4 -387.65,-387.55l0 -1975.95c0,-213.16 174.44,-387.55 387.65,-387.55z"/>
   <path class="fil2" d="M1233.07 3568.96l6693.64 0c110.17,0 200.31,90.12 200.31,200.26l0 1843.82c0,110.14 -90.15,200.26 -200.31,200.26l-6693.64 0c-110.17,0 -200.31,-90.11 -200.31,-200.26l0 -1843.82c0,-110.14 90.14,-200.26 200.31,-200.26z"/>
   <g>
    <path class="fil3" d="M4480.21 3983.69c379.04,0 686.32,307.28 686.32,686.33 0,379.04 -307.28,686.32 -686.32,686.32 -379.05,0 -686.33,-307.28 -686.33,-686.32 0,-379.05 307.28,-686.33 686.33,-686.33zm-1.26 984.11c56.28,0 107.21,-15.05 152.82,-45.12 45.61,-33 91.7,-65.99 138.27,-98.98 14.57,0 27.66,6.3 39.3,18.92 11.64,12.61 17.47,26.2 17.47,40.75 0,54.34 -43.67,104.31 -131,149.92 -74.71,38.81 -143.61,58.22 -206.68,58.22 -116.44,0 -216.14,-39.53 -299.11,-118.63 -82.95,-79.08 -124.44,-176.84 -124.44,-293.28 0,-112.55 41.23,-209.59 123.72,-291.1 82.47,-81.51 180.48,-122.26 294.01,-122.26 63.08,0 133.43,20.36 211.05,61.13 89.27,47.54 133.9,99.94 133.9,157.18 0,15.53 -6.3,29.13 -18.92,40.77 -12.61,11.64 -26.68,17.46 -42.2,17.46 -7.77,0 -40.28,-24.74 -97.52,-74.23 -57.26,-49.49 -117.9,-74.23 -181.94,-74.23 -84.42,0 -154.53,27.41 -210.33,82.23 -55.79,54.83 -83.69,123.96 -83.69,207.41 0,77.63 27.9,144.34 83.69,200.14 55.8,55.79 123,83.7 201.6,83.7zm0 -525.45c63.06,0 120.32,24.74 171.75,74.23 51.42,49.49 89.76,74.23 114.98,74.23 29.11,0 54.82,-10.67 77.14,-32.02 22.32,-21.35 33.48,-46.57 33.48,-75.69 0,-71.8 -49,-135.84 -147.01,-192.12 -85.38,-48.52 -167.38,-72.78 -245.98,-72.78 -128.08,0 -237.73,45.13 -328.95,135.37 -91.21,90.24 -136.81,198.91 -136.81,326.03 0,129.06 46.32,237.98 139,326.76 92.67,88.79 203.52,133.19 332.58,133.19 77.63,0 158.17,-23.29 241.62,-69.88 97.04,-54.33 145.55,-116.92 145.55,-187.76 0,-28.13 -11.16,-53.36 -33.48,-75.69 -22.32,-22.3 -48.03,-33.46 -77.14,-33.46 -21.34,0 -60.4,24.5 -117.17,73.5 -56.77,49 -113.28,73.5 -169.56,73.5 -63.08,0 -118.39,-23.3 -165.93,-69.86 -47.55,-46.58 -71.33,-101.89 -71.33,-165.94 0,-66.95 23.05,-123.96 69.14,-171.02 46.09,-47.06 102.13,-70.59 168.12,-70.59zm0 427.92c40.75,0 80.53,-15.04 119.35,-45.11 86.36,-66.97 142.16,-100.43 167.38,-100.43 41.73,0 78.6,15.52 110.62,46.57 32.02,31.05 48.04,67.93 48.04,110.61 0,84.43 -52.89,158.66 -158.66,222.7 -93.16,56.28 -185.33,84.42 -276.55,84.42 -143.6,0 -266.36,-49.01 -368.25,-147 -101.88,-98.01 -152.82,-218.82 -152.82,-362.43 0,-141.67 50.46,-262 151.37,-360.97 100.91,-98.98 222.21,-148.46 363.88,-148.46 93.16,0 186.31,28.14 279.46,84.42 107.7,65.02 161.57,141.18 161.57,228.51 0,43.67 -15.53,80.54 -46.59,110.62 -31.04,30.08 -68.41,45.13 -112.07,45.13 -39.79,0 -76.17,-15.53 -109.17,-46.58 -70.83,-67.92 -130.02,-101.89 -177.56,-101.89 -53.38,0 -98.25,18.68 -134.64,56.05 -36.39,37.36 -54.58,82.71 -54.58,136.08 0,51.43 18.44,95.58 55.3,132.45 36.88,36.88 81.52,55.31 133.92,55.31z"/>
    <path class="fil3" d="M5279.75 4934.74c-13.43,-4.52 -26.88,-9.04 -40.31,-13.57 -124.67,299.37 -322.27,489.56 -618.93,531.42 -216.1,30.49 -417.28,-3.6 -596.92,-129.55 -274.51,-192.48 -466.07,-574.99 -266.32,-1000.31 63.41,-135 132.52,-221.65 253.21,-310.27 214.06,-157.18 457.67,-185.33 725.05,-107.98 1.87,-3.98 3.74,-7.96 5.62,-11.94 85.65,25.34 162.12,68.93 232.29,125.02 3.4,-5.62 6.8,-11.26 10.2,-16.88 -75.79,-58.94 -153.98,-101.42 -235.02,-124.44 1.91,-4.61 3.84,-9.21 5.76,-13.8 -255.01,-84.68 -556.49,-56.86 -791.9,131.16 -132.44,105.76 -237.47,258.24 -289.2,419.59 -111.45,347.6 5.56,749.84 362.72,967.05 159.27,96.86 293.41,130.96 479.76,127.18 358.41,-7.25 620.32,-205.52 763.99,-572.68z"/>
    <path class="fil3" d="M3683.82 3889.27c13.13,13.12 26.26,26.25 39.37,39.37 -278.52,320.36 -392.36,671.39 -268.89,1043.6 89.95,271.14 241.18,487.23 493.39,624.61 385.39,209.92 959.84,206.25 1342.37,-275.39 121.42,-152.89 182.82,-284.35 216.54,-477.42 59.79,-342.45 -48.92,-644.5 -295.17,-913.04 3.59,-4.5 7.16,-9.02 10.74,-13.53 -79.54,-85.7 -175.14,-150.03 -281.74,-199.67 4.62,-7.25 9.24,-14.52 13.86,-21.78 113.22,54.59 208.51,121.56 282.65,203.2 4.28,-4.92 8.55,-9.86 12.84,-14.78 247.64,249.77 390.38,619.48 306.86,1004.91 -46.99,216.82 -156.02,428.7 -315.12,583.21 -342.76,332.9 -900.3,429.72 -1368.13,145.9 -621.2,-376.89 -693.6,-1248.18 -189.57,-1729.19z"/>
    <path class="fil3" d="M5240.74 5150.16l72.22 48.23c-346.16,546.81 -1107.74,622.91 -1559.95,166.67 -184.47,-186.15 -263.65,-402.04 -274.25,-663.52 -33.08,-815.89 865.08,-1309.09 1534.18,-887.75l-18.33 33.18c222.02,130.78 362.17,332.82 421.64,605.1l-23.56 3.21c-56.65,-257.59 -188.54,-458.1 -413.79,-587.79l-15.75 24.06c-595.45,-383.37 -1460.76,58.88 -1401.57,840.92 101.4,919.66 1235.69,1112.25 1679.16,417.69z"/>
   </g>
   <path class="fil4" d="M994.07 5876.83c0,-31.15 25.26,-56.39 56.41,-56.39 31.15,0 56.41,25.24 56.41,56.39 0,31.15 -25.26,56.39 -56.41,56.39 -31.15,0 -56.41,-25.24 -56.41,-56.39zm303.52 13.23c31.15,0 56.41,25.25 56.41,56.39 0,31.15 -25.26,56.4 -56.41,56.4 -31.16,0 -56.41,-25.25 -56.41,-56.4 0,-31.14 25.25,-56.39 56.41,-56.39zm272.73 0c31.16,0 56.41,25.25 56.41,56.39 0,31.15 -25.25,56.4 -56.41,56.4 -31.15,0 -56.41,-25.25 -56.41,-56.4 0,-31.14 25.26,-56.39 56.41,-56.39zm272.74 0c31.15,0 56.41,25.25 56.41,56.39 0,31.15 -25.26,56.4 -56.41,56.4 -31.16,0 -56.41,-25.25 -56.41,-56.4 0,-31.14 25.25,-56.39 56.41,-56.39zm272.73 0c31.15,0 56.41,25.25 56.41,56.39 0,31.15 -25.26,56.4 -56.41,56.4 -31.15,0 -56.41,-25.25 -56.41,-56.4 0,-31.14 25.26,-56.39 56.41,-56.39zm272.74 0c31.15,0 56.4,25.25 56.4,56.39 0,31.15 -25.25,56.4 -56.4,56.4 -31.16,0 -56.41,-25.25 -56.41,-56.4 0,-31.14 25.25,-56.39 56.41,-56.39zm272.73 0c31.15,0 56.41,25.25 56.41,56.39 0,31.15 -25.26,56.4 -56.41,56.4 -31.15,0 -56.41,-25.25 -56.41,-56.4 0,-31.14 25.26,-56.39 56.41,-56.39zm272.74 0c31.15,0 56.4,25.25 56.4,56.39 0,31.15 -25.25,56.4 -56.4,56.4 -31.16,0 -56.41,-25.25 -56.41,-56.4 0,-31.14 25.25,-56.39 56.41,-56.39zm272.73 0c31.15,0 56.41,25.25 56.41,56.39 0,31.15 -25.26,56.4 -56.41,56.4 -31.15,0 -56.41,-25.25 -56.41,-56.4 0,-31.14 25.26,-56.39 56.41,-56.39zm272.73 0c31.16,0 56.41,25.25 56.41,56.39 0,31.15 -25.25,56.4 -56.41,56.4 -31.15,0 -56.4,-25.25 -56.4,-56.4 0,-31.14 25.25,-56.39 56.4,-56.39zm272.74 0c31.15,0 56.41,25.25 56.41,56.39 0,31.15 -25.26,56.4 -56.41,56.4 -31.15,0 -56.41,-25.25 -56.41,-56.4 0,-31.14 25.26,-56.39 56.41,-56.39zm272.73 0c31.16,0 56.41,25.25 56.41,56.39 0,31.15 -25.25,56.4 -56.41,56.4 -31.15,0 -56.41,-25.25 -56.41,-56.4 0,-31.14 25.26,-56.39 56.41,-56.39zm272.74 0c31.15,0 56.41,25.25 56.41,56.39 0,31.15 -25.26,56.4 -56.41,56.4 -31.16,0 -56.41,-25.25 -56.41,-56.4 0,-31.14 25.25,-56.39 56.41,-56.39zm272.73 0c31.16,0 56.41,25.25 56.41,56.39 0,31.15 -25.25,56.4 -56.41,56.4 -31.15,0 -56.41,-25.25 -56.41,-56.4 0,-31.14 25.26,-56.39 56.41,-56.39zm272.74 0c31.15,0 56.41,25.25 56.41,56.39 0,31.15 -25.26,56.4 -56.41,56.4 -31.16,0 -56.41,-25.25 -56.41,-56.4 0,-31.14 25.25,-56.39 56.41,-56.39zm272.73 0c31.16,0 56.41,25.25 56.41,56.39 0,31.15 -25.25,56.4 -56.41,56.4 -31.15,0 -56.41,-25.25 -56.41,-56.4 0,-31.14 25.26,-56.39 56.41,-56.39zm272.74 0c31.15,0 56.41,25.25 56.41,56.39 0,31.15 -25.26,56.4 -56.41,56.4 -31.16,0 -56.41,-25.25 -56.41,-56.4 0,-31.14 25.25,-56.39 56.41,-56.39zm272.73 0c31.15,0 56.41,25.25 56.41,56.39 0,31.15 -25.26,56.4 -56.41,56.4 -31.15,0 -56.41,-25.25 -56.41,-56.4 0,-31.14 25.26,-56.39 56.41,-56.39zm272.74 0c31.15,0 56.4,25.25 56.4,56.39 0,31.15 -25.25,56.4 -56.4,56.4 -31.16,0 -56.41,-25.25 -56.41,-56.4 0,-31.14 25.25,-56.39 56.41,-56.39zm272.73 0c31.15,0 56.41,25.25 56.41,56.39 0,31.15 -25.26,56.4 -56.41,56.4 -31.15,0 -56.41,-25.25 -56.41,-56.4 0,-31.14 25.26,-56.39 56.41,-56.39zm272.73 0c31.16,0 56.41,25.25 56.41,56.39 0,31.15 -25.25,56.4 -56.41,56.4 -31.15,0 -56.4,-25.25 -56.4,-56.4 0,-31.14 25.25,-56.39 56.4,-56.39zm272.74 0c31.15,0 56.41,25.25 56.41,56.39 0,31.15 -25.26,56.4 -56.41,56.4 -31.15,0 -56.41,-25.25 -56.41,-56.4 0,-31.14 25.26,-56.39 56.41,-56.39zm272.73 0c31.16,0 56.41,25.25 56.41,56.39 0,31.15 -25.25,56.4 -56.41,56.4 -31.15,0 -56.41,-25.25 -56.41,-56.4 0,-31.14 25.26,-56.39 56.41,-56.39zm272.74 0c31.15,0 56.41,25.25 56.41,56.39 0,31.15 -25.26,56.4 -56.41,56.4 -31.16,0 -56.41,-25.25 -56.41,-56.4 0,-31.14 25.25,-56.39 56.41,-56.39zm272.73 0c31.16,0 56.41,25.25 56.41,56.39 0,31.15 -25.25,56.4 -56.41,56.4 -31.15,0 -56.41,-25.25 -56.41,-56.4 0,-31.14 25.26,-56.39 56.41,-56.39zm272.76 0c31.15,0 56.41,25.25 56.41,56.39 0,31.15 -25.26,56.4 -56.41,56.4 -31.16,0 -56.4,-25.25 -56.4,-56.4 0,-31.14 25.24,-56.39 56.4,-56.39zm218.94 -11.63c0,-31.15 25.26,-56.4 56.41,-56.4 31.15,0 56.41,25.25 56.41,56.4 0,31.14 -25.26,56.39 -56.41,56.39 -31.15,0 -56.41,-25.25 -56.41,-56.39zm-7199.55 -242.86c0,-31.15 25.26,-56.39 56.41,-56.39 31.16,0 56.41,25.24 56.41,56.39 0,31.14 -25.25,56.39 -56.41,56.39 -31.15,0 -56.41,-25.25 -56.41,-56.39zm0 -268.07c0,-31.13 25.26,-56.38 56.41,-56.38 31.16,0 56.41,25.25 56.41,56.38 0,31.15 -25.25,56.4 -56.41,56.4 -31.15,0 -56.41,-25.25 -56.41,-56.4zm0 -268.06c0,-31.14 25.26,-56.39 56.41,-56.39 31.16,0 56.41,25.25 56.41,56.39 0,31.15 -25.25,56.39 -56.41,56.39 -31.15,0 -56.41,-25.24 -56.41,-56.39zm0 -268.06c0,-31.15 25.26,-56.4 56.41,-56.4 31.16,0 56.41,25.25 56.41,56.4 0,31.14 -25.25,56.39 -56.41,56.39 -31.15,0 -56.41,-25.25 -56.41,-56.39zm0 -268.07c0,-31.15 25.26,-56.4 56.41,-56.4 31.16,0 56.41,25.25 56.41,56.4 0,31.14 -25.25,56.39 -56.41,56.39 -31.15,0 -56.41,-25.25 -56.41,-56.39zm0 -268.07c0,-31.15 25.26,-56.39 56.41,-56.39 31.16,0 56.41,25.24 56.41,56.39 0,31.15 -25.25,56.39 -56.41,56.39 -31.15,0 -56.41,-25.24 -56.41,-56.39zm0 -268.07c0,-31.14 25.26,-56.38 56.41,-56.38 31.16,0 56.41,25.24 56.41,56.38 0,31.15 -25.25,56.4 -56.41,56.4 -31.15,0 -56.41,-25.25 -56.41,-56.4zm7329.05 1608.4c0,-31.15 25.26,-56.39 56.41,-56.39 31.14,0 56.4,25.24 56.4,56.39 0,31.14 -25.26,56.39 -56.4,56.39 -31.15,0 -56.41,-25.25 -56.41,-56.39zm0 -268.07c0,-31.13 25.26,-56.38 56.41,-56.38 31.14,0 56.4,25.25 56.4,56.38 0,31.15 -25.26,56.4 -56.4,56.4 -31.15,0 -56.41,-25.25 -56.41,-56.4zm0 -268.06c0,-31.14 25.26,-56.39 56.41,-56.39 31.14,0 56.4,25.25 56.4,56.39 0,31.15 -25.26,56.39 -56.4,56.39 -31.15,0 -56.41,-25.24 -56.41,-56.39zm0 -268.06c0,-31.15 25.26,-56.4 56.41,-56.4 31.14,0 56.4,25.25 56.4,56.4 0,31.14 -25.26,56.39 -56.4,56.39 -31.15,0 -56.41,-25.25 -56.41,-56.39zm0 -268.07c0,-31.15 25.26,-56.4 56.41,-56.4 31.14,0 56.4,25.25 56.4,56.4 0,31.14 -25.26,56.39 -56.4,56.39 -31.15,0 -56.41,-25.25 -56.41,-56.39zm0 -268.07c0,-31.15 25.26,-56.39 56.41,-56.39 31.14,0 56.4,25.24 56.4,56.39 0,31.15 -25.26,56.39 -56.4,56.39 -31.15,0 -56.41,-25.24 -56.41,-56.39zm0 -268.07c0,-31.14 25.26,-56.38 56.41,-56.38 31.14,0 56.4,25.24 56.4,56.38 0,31.15 -25.26,56.4 -56.4,56.4 -31.15,0 -56.41,-25.25 -56.41,-56.4zm-6894.09 -635.1c31.15,0 56.41,25.25 56.41,56.39 0,31.15 -25.26,56.4 -56.41,56.4 -31.16,0 -56.41,-25.25 -56.41,-56.4 0,-31.14 25.25,-56.39 56.41,-56.39zm272.73 0c31.16,0 56.41,25.25 56.41,56.39 0,31.15 -25.25,56.4 -56.41,56.4 -31.15,0 -56.41,-25.25 -56.41,-56.4 0,-31.14 25.26,-56.39 56.41,-56.39zm272.74 0c31.15,0 56.41,25.25 56.41,56.39 0,31.15 -25.26,56.4 -56.41,56.4 -31.16,0 -56.41,-25.25 -56.41,-56.4 0,-31.14 25.25,-56.39 56.41,-56.39zm272.73 0c31.15,0 56.41,25.25 56.41,56.39 0,31.15 -25.26,56.4 -56.41,56.4 -31.15,0 -56.41,-25.25 -56.41,-56.4 0,-31.14 25.26,-56.39 56.41,-56.39zm272.74 0c31.15,0 56.4,25.25 56.4,56.39 0,31.15 -25.25,56.4 -56.4,56.4 -31.16,0 -56.41,-25.25 -56.41,-56.4 0,-31.14 25.25,-56.39 56.41,-56.39zm272.73 0c31.15,0 56.41,25.25 56.41,56.39 0,31.15 -25.26,56.4 -56.41,56.4 -31.15,0 -56.41,-25.25 -56.41,-56.4 0,-31.14 25.26,-56.39 56.41,-56.39zm272.74 0c31.15,0 56.4,25.25 56.4,56.39 0,31.15 -25.25,56.4 -56.4,56.4 -31.16,0 -56.41,-25.25 -56.41,-56.4 0,-31.14 25.25,-56.39 56.41,-56.39zm272.73 0c31.15,0 56.41,25.25 56.41,56.39 0,31.15 -25.26,56.4 -56.41,56.4 -31.15,0 -56.41,-25.25 -56.41,-56.4 0,-31.14 25.26,-56.39 56.41,-56.39zm272.73 0c31.16,0 56.41,25.25 56.41,56.39 0,31.15 -25.25,56.4 -56.41,56.4 -31.15,0 -56.4,-25.25 -56.4,-56.4 0,-31.14 25.25,-56.39 56.4,-56.39zm272.74 0c31.15,0 56.41,25.25 56.41,56.39 0,31.15 -25.26,56.4 -56.41,56.4 -31.15,0 -56.41,-25.25 -56.41,-56.4 0,-31.14 25.26,-56.39 56.41,-56.39zm272.73 0c31.16,0 56.41,25.25 56.41,56.39 0,31.15 -25.25,56.4 -56.41,56.4 -31.15,0 -56.41,-25.25 -56.41,-56.4 0,-31.14 25.26,-56.39 56.41,-56.39zm272.74 0c31.15,0 56.41,25.25 56.41,56.39 0,31.15 -25.26,56.4 -56.41,56.4 -31.16,0 -56.41,-25.25 -56.41,-56.4 0,-31.14 25.25,-56.39 56.41,-56.39zm272.73 0c31.16,0 56.41,25.25 56.41,56.39 0,31.15 -25.25,56.4 -56.41,56.4 -31.15,0 -56.41,-25.25 -56.41,-56.4 0,-31.14 25.26,-56.39 56.41,-56.39zm272.74 0c31.15,0 56.41,25.25 56.41,56.39 0,31.15 -25.26,56.4 -56.41,56.4 -31.16,0 -56.41,-25.25 -56.41,-56.4 0,-31.14 25.25,-56.39 56.41,-56.39zm272.73 0c31.16,0 56.41,25.25 56.41,56.39 0,31.15 -25.25,56.4 -56.41,56.4 -31.15,0 -56.41,-25.25 -56.41,-56.4 0,-31.14 25.26,-56.39 56.41,-56.39zm272.74 0c31.15,0 56.41,25.25 56.41,56.39 0,31.15 -25.26,56.4 -56.41,56.4 -31.16,0 -56.41,-25.25 -56.41,-56.4 0,-31.14 25.25,-56.39 56.41,-56.39zm272.73 0c31.15,0 56.41,25.25 56.41,56.39 0,31.15 -25.26,56.4 -56.41,56.4 -31.15,0 -56.41,-25.25 -56.41,-56.4 0,-31.14 25.26,-56.39 56.41,-56.39zm272.74 0c31.15,0 56.4,25.25 56.4,56.39 0,31.15 -25.25,56.4 -56.4,56.4 -31.16,0 -56.41,-25.25 -56.41,-56.4 0,-31.14 25.25,-56.39 56.41,-56.39zm272.73 0c31.15,0 56.41,25.25 56.41,56.39 0,31.15 -25.26,56.4 -56.41,56.4 -31.15,0 -56.41,-25.25 -56.41,-56.4 0,-31.14 25.26,-56.39 56.41,-56.39zm272.73 0c31.16,0 56.41,25.25 56.41,56.39 0,31.15 -25.25,56.4 -56.41,56.4 -31.15,0 -56.4,-25.25 -56.4,-56.4 0,-31.14 25.25,-56.39 56.4,-56.39zm272.74 0c31.15,0 56.41,25.25 56.41,56.39 0,31.15 -25.26,56.4 -56.41,56.4 -31.15,0 -56.41,-25.25 -56.41,-56.4 0,-31.14 25.26,-56.39 56.41,-56.39zm272.73 0c31.16,0 56.41,25.25 56.41,56.39 0,31.15 -25.25,56.4 -56.41,56.4 -31.15,0 -56.41,-25.25 -56.41,-56.4 0,-31.14 25.26,-56.39 56.41,-56.39zm272.74 0c31.15,0 56.41,25.25 56.41,56.39 0,31.15 -25.26,56.4 -56.41,56.4 -31.16,0 -56.41,-25.25 -56.41,-56.4 0,-31.14 25.25,-56.39 56.41,-56.39zm272.73 0c31.16,0 56.41,25.25 56.41,56.39 0,31.15 -25.25,56.4 -56.41,56.4 -31.15,0 -56.41,-25.25 -56.41,-56.4 0,-31.14 25.26,-56.39 56.41,-56.39zm272.76 0c31.15,0 56.41,25.25 56.41,56.39 0,31.15 -25.26,56.4 -56.41,56.4 -31.16,0 -56.4,-25.25 -56.4,-56.4 0,-31.14 25.24,-56.39 56.4,-56.39zm-6980.61 367.03c0,-31.13 25.26,-56.38 56.41,-56.38 31.16,0 56.41,25.25 56.41,56.38 0,31.15 -25.25,56.4 -56.41,56.4 -31.15,0 -56.41,-25.25 -56.41,-56.4zm7329.05 0c0,-31.13 25.26,-56.38 56.41,-56.38 31.14,0 56.4,25.25 56.4,56.38 0,31.15 -25.26,56.4 -56.4,56.4 -31.15,0 -56.41,-25.25 -56.41,-56.4zm-129.5 -235.11c0,-31.15 25.26,-56.39 56.41,-56.39 31.15,0 56.41,25.24 56.41,56.39 0,31.14 -25.26,56.39 -56.41,56.39 -31.15,0 -56.41,-25.25 -56.41,-56.39zm-7076.6 0c0,-31.15 25.26,-56.39 56.41,-56.39 31.16,0 56.41,25.24 56.41,56.39 0,31.14 -25.25,56.39 -56.41,56.39 -31.15,0 -56.41,-25.25 -56.41,-56.39z"/>
   <path class="fil5" d="M1493.79 3923.93l151.41 0 184.23 331.33 180.01 -331.33 152.47 0 32.82 706.06 -159.89 0 -20.11 -461.53 -146.12 275.23 -82.58 0 -154.6 -272.06 -18 458.36 -152.47 0 32.83 -706.06zm950.64 0l176.82 0 258.35 706.06 -174.7 0 -54 -161.96 -248.83 0 -54 161.96 -167.29 0 263.65 -706.06zm168.35 420.25l-85.77 -266.76 -87.88 266.76 173.65 0zm333.34 -279.46l-228.71 0 0 -140.79 617.29 0 0 140.79 -227.64 0 0 565.27 -160.94 0 0 -565.27zm401.1 -140.79l159.88 0 0 270.99 306 0 0 -270.99 159.88 0 0 706.06 -159.88 0 0 -290.04 -306 0 0 290.04 -159.88 0 0 -706.06zm684.87 0l482.82 0 0 139.73 -322.94 0 0 137.62 250.94 0 0 135.48 -250.94 0 0 152.43 346.24 0 0 140.8 -506.12 0 0 -706.06zm556.75 0l151.41 0 184.24 331.33 180 -331.33 152.47 0 32.82 706.06 -159.89 0 -20.11 -461.53 -146.12 275.23 -82.58 0 -154.59 -272.06 -18 458.36 -152.47 0 32.82 -706.06zm950.64 0l176.82 0 258.35 706.06 -174.7 0 -54 -161.96 -248.83 0 -54 161.96 -167.29 0 263.65 -706.06zm168.35 420.25l-85.77 -266.76 -87.88 266.76 173.65 0zm333.34 -279.46l-228.71 0 0 -140.79 617.29 0 0 140.79 -227.64 0 0 565.27 -160.94 0 0 -565.27zm401.1 -140.79l159.88 0 0 706.06 -159.88 0 0 -706.06zm856.41 575.85c-14.83,20.46 -32.83,39.7 -54,57.7 -21.19,17.99 -44.66,33.7 -70.42,47.1 -25.76,13.41 -53.64,23.99 -83.65,31.76 -30,7.76 -61.23,11.64 -93.7,11.64 -53.65,0 -102.71,-9.17 -147.17,-27.52 -44.47,-18.35 -82.77,-43.94 -114.89,-76.74 -32.12,-32.82 -57,-71.63 -74.65,-116.44 -17.64,-44.82 -26.47,-94.04 -26.47,-147.67 0,-52.22 8.83,-101.1 26.47,-146.62 17.65,-45.51 42.53,-85.03 74.65,-118.55 32.12,-33.52 70.59,-59.99 115.41,-79.4 44.82,-19.4 94.41,-29.11 148.76,-29.11 65.65,0 123,12.01 172.07,36 49.06,23.99 89.82,58.57 122.29,103.73l-109.06 104.8c-21.18,-29.63 -46.24,-53.46 -75.18,-71.45 -28.94,-18 -63.53,-26.99 -103.76,-26.99 -31.77,0 -60.36,5.82 -85.77,17.46 -25.41,11.65 -46.93,27.71 -64.59,48.17 -17.64,20.47 -31.23,44.28 -40.76,71.45 -9.53,27.17 -14.29,55.93 -14.29,86.27 0,31.05 4.76,59.99 14.29,86.81 9.53,26.81 23.12,50.1 40.76,69.86 17.66,19.76 38.83,35.28 63.53,46.58 24.71,11.28 52.6,16.93 83.66,16.93 25.4,0 47.47,-2.65 66.16,-7.94 18.71,-5.3 35.31,-12.35 49.77,-21.17 14.47,-8.82 27.36,-19.06 38.65,-30.7 11.3,-11.65 22.23,-23.46 32.82,-35.46l109.07 99.5zm50.63 -80.45c9.18,9.89 19.94,19.94 32.29,30.18 12.35,10.22 26.12,19.58 41.3,28.04 15.18,8.47 31.76,15.35 49.76,20.65 18,5.29 37.24,7.94 57.71,7.94 12,0 24,-1.77 35.99,-5.3 12.01,-3.52 22.94,-8.64 32.83,-15.34 9.88,-6.71 17.83,-14.83 23.82,-24.35 6,-9.53 9.01,-20.29 9.01,-32.29 0,-26.11 -12.71,-46.4 -38.13,-60.86 -25.41,-14.47 -65.64,-28.76 -120.7,-42.88 -26.82,-6.35 -51.71,-15.53 -74.65,-27.52 -22.94,-11.99 -42.7,-26.46 -59.29,-43.4 -16.59,-16.93 -29.47,-36.34 -38.64,-58.22 -9.18,-21.87 -13.77,-46.22 -13.77,-73.04 0,-29.63 5.3,-57.51 15.88,-83.62 10.59,-26.11 26.65,-49.23 48.18,-69.34 21.52,-20.11 48.35,-35.99 80.47,-47.64 32.12,-11.64 70.06,-17.46 113.82,-17.46 36,0 67.76,3.7 95.29,11.12 27.54,7.4 51,16.23 70.42,26.46 19.4,10.24 35.29,20.82 47.64,31.76 12.35,10.93 21.71,19.58 28.06,25.93l-92.11 101.62c-7.77,-6.35 -16.77,-13.23 -27.01,-20.64 -10.23,-7.41 -21.7,-14.29 -34.4,-20.64 -12.72,-6.36 -26.65,-11.64 -41.83,-15.88 -15.18,-4.24 -31.23,-6.35 -48.17,-6.35 -11.3,0 -22.42,1.77 -33.36,5.29 -10.94,3.53 -20.83,8.29 -29.65,14.29 -8.82,6 -15.88,13.05 -21.17,21.17 -5.3,8.12 -7.95,16.76 -7.95,25.94 0,23.99 12.71,43.39 38.13,58.22 25.4,14.82 60.34,27.17 104.81,37.05 26.13,6.34 51.71,14.99 76.77,25.93 25.06,10.94 47.47,25.22 67.23,42.87 19.77,17.65 35.65,39.34 47.66,65.1 11.99,25.76 18,56.98 18,93.68 0,31.76 -7.07,61.04 -21.19,87.86 -14.12,26.82 -33.35,50.1 -57.7,69.87 -24.35,19.76 -52.94,35.11 -85.76,46.04 -32.83,10.94 -68.29,16.41 -106.42,16.41 -35.29,0 -67.41,-3.35 -96.34,-10.05 -28.95,-6.71 -55.06,-15.53 -78.36,-26.47 -23.3,-10.94 -44.3,-23.47 -63,-37.57 -18.7,-14.12 -34.76,-28.59 -48.17,-43.41l102.7 -111.15zm-4182.96 908.39c-14.82,20.46 -32.83,39.7 -54,57.69 -21.18,18 -44.65,33.7 -70.41,47.11 -25.76,13.4 -53.65,23.98 -83.65,31.75 -30,7.76 -61.23,11.64 -93.7,11.64 -53.65,0 -102.71,-9.17 -147.18,-27.52 -44.47,-18.35 -82.76,-43.93 -114.88,-76.74 -32.12,-32.82 -57,-71.63 -74.65,-116.44 -17.65,-44.81 -26.47,-94.04 -26.47,-147.67 0,-52.22 8.82,-101.09 26.47,-146.61 17.65,-45.52 42.53,-85.04 74.65,-118.55 32.12,-33.53 70.58,-59.99 115.41,-79.4 44.82,-19.4 94.4,-29.11 148.76,-29.11 65.65,0 123,12 172.06,35.99 49.06,24 89.82,58.57 122.3,103.74l-109.07 104.8c-21.17,-29.64 -46.23,-53.46 -75.17,-71.46 -28.94,-17.99 -63.53,-26.99 -103.77,-26.99 -31.76,0 -60.35,5.82 -85.76,17.46 -25.41,11.65 -46.94,27.71 -64.59,48.17 -17.65,20.47 -31.23,44.28 -40.76,71.45 -9.53,27.17 -14.29,55.93 -14.29,86.27 0,31.05 4.76,59.99 14.29,86.81 9.53,26.81 23.11,50.1 40.76,69.86 17.65,19.76 38.83,35.28 63.53,46.58 24.71,11.28 52.59,16.93 83.65,16.93 25.41,0 47.47,-2.64 66.17,-7.94 18.71,-5.29 35.3,-12.35 49.77,-21.17 14.47,-8.82 27.35,-19.05 38.64,-30.69 11.3,-11.65 22.24,-23.47 32.83,-35.47l109.06 99.51zm325.93 148.19c-52.23,0 -100.76,-9.52 -145.58,-28.58 -44.83,-19.05 -83.66,-45.17 -116.47,-78.33 -32.83,-33.17 -58.59,-72.52 -77.3,-118.02 -18.71,-45.52 -28.06,-94.4 -28.06,-146.62 0,-52.92 9.35,-101.97 28.06,-147.13 18.71,-45.17 44.47,-84.34 77.3,-117.5 32.81,-33.17 71.64,-59.28 116.47,-78.34 44.82,-19.05 93.35,-28.57 145.58,-28.57 52.23,0 100.77,9.52 145.59,28.57 44.82,19.06 83.64,45.17 116.47,78.34 32.83,33.16 58.59,72.33 77.3,117.5 18.7,45.16 28.05,94.21 28.05,147.13 0,52.22 -9.35,101.1 -28.05,146.62 -18.71,45.5 -44.47,84.85 -77.3,118.02 -32.83,33.16 -71.65,59.28 -116.47,78.33 -44.82,19.06 -93.36,28.58 -145.59,28.58zm0 -150.31c31.06,0 58.95,-6 83.65,-17.99 24.71,-12 45.71,-28.23 63,-48.7 17.29,-20.46 30.52,-44.11 39.7,-70.92 9.18,-26.82 13.77,-55.39 13.77,-85.75 0,-30.34 -4.59,-58.92 -13.77,-85.74 -9.18,-26.82 -22.41,-50.28 -39.7,-70.39 -17.29,-20.11 -38.29,-35.99 -63,-47.64 -24.7,-11.64 -52.59,-17.46 -83.65,-17.46 -31.05,0 -59.11,5.82 -84.18,17.46 -25.05,11.65 -46.23,27.53 -63.53,47.64 -17.29,20.11 -30.52,43.57 -39.7,70.39 -9.17,26.82 -13.76,55.4 -13.76,85.74 0,30.36 4.59,58.93 13.76,85.75 9.18,26.81 22.41,50.46 39.7,70.92 17.3,20.47 38.48,36.7 63.53,48.7 25.07,11.99 53.13,17.99 84.18,17.99zm399 -573.74l152.47 0 305.99 458.36 0 -458.36 157.76 0 0 706.06 -145.05 0 -313.42 -466.82 0 466.82 -157.75 0 0 -706.06zm857.45 140.79l-228.7 0 0 -140.79 617.28 0 0 140.79 -227.64 0 0 565.27 -160.94 0 0 -565.27zm401.11 -140.79l482.81 0 0 139.73 -322.94 0 0 137.62 250.94 0 0 135.49 -250.94 0 0 152.43 346.24 0 0 140.79 -506.11 0 0 -706.06zm590.63 495.41c9.18,9.88 19.94,19.93 32.29,30.17 12.35,10.22 26.12,19.58 41.3,28.05 15.18,8.46 31.76,15.35 49.76,20.64 18,5.29 37.24,7.94 57.71,7.94 12,0 24,-1.77 35.99,-5.29 12.01,-3.53 22.95,-8.65 32.83,-15.35 9.88,-6.71 17.83,-14.82 23.82,-24.35 6.01,-9.53 9.01,-20.29 9.01,-32.28 0,-26.11 -12.71,-46.4 -38.13,-60.87 -25.4,-14.47 -65.64,-28.76 -120.7,-42.87 -26.82,-6.36 -51.71,-15.53 -74.65,-27.53 -22.94,-11.99 -42.7,-26.46 -59.28,-43.39 -16.6,-16.94 -29.48,-36.35 -38.65,-58.22 -9.18,-21.88 -13.77,-46.23 -13.77,-73.05 0,-29.63 5.3,-57.51 15.88,-83.62 10.59,-26.11 26.65,-49.23 48.18,-69.33 21.53,-20.12 48.35,-35.99 80.47,-47.64 32.12,-11.64 70.06,-17.46 113.82,-17.46 36,0 67.77,3.69 95.3,11.11 27.53,7.41 50.99,16.23 70.41,26.46 19.41,10.24 35.29,20.82 47.64,31.76 12.35,10.93 21.71,19.58 28.06,25.93l-92.11 101.63c-7.77,-6.36 -16.77,-13.24 -27.01,-20.65 -10.23,-7.4 -21.7,-14.28 -34.4,-20.64 -12.72,-6.36 -26.65,-11.64 -41.83,-15.87 -15.17,-4.25 -31.23,-6.36 -48.17,-6.36 -11.3,0 -22.42,1.77 -33.35,5.3 -10.95,3.52 -20.83,8.28 -29.66,14.28 -8.82,6 -15.88,13.06 -21.17,21.17 -5.3,8.12 -7.94,16.76 -7.94,25.94 0,23.99 12.7,43.4 38.12,58.22 25.41,14.82 60.35,27.17 104.81,37.05 26.13,6.35 51.71,14.99 76.77,25.94 25.06,10.93 47.48,25.22 67.24,42.86 19.76,17.65 35.64,39.34 47.65,65.1 11.99,25.76 18,56.99 18,93.68 0,31.76 -7.07,61.04 -21.19,87.86 -14.11,26.83 -33.35,50.11 -57.69,69.87 -24.36,19.76 -52.95,35.11 -85.77,46.04 -32.83,10.95 -68.29,16.41 -106.41,16.41 -35.3,0 -67.42,-3.35 -96.35,-10.05 -28.95,-6.71 -55.06,-15.53 -78.36,-26.46 -23.29,-10.95 -44.3,-23.47 -62.99,-37.58 -18.71,-14.12 -34.77,-28.58 -48.18,-43.41l102.7 -111.14zm645.69 -354.62l-228.7 0 0 -140.79 617.28 0 0 140.79 -227.64 0 0 565.27 -160.94 0 0 -565.27z"/>
   <path class="fil6" d="M3744.12 6204.46l75.88 0 110.87 302.99 -74.97 0 -23.17 -69.49 -106.78 0 -23.17 69.49 -71.79 0 113.13 -302.99zm72.25 180.34l-36.8 -114.47 -37.71 114.47 74.51 0zm225.68 -180.34l203.56 0 0 60.42 -134.95 0 0 68.59 102.69 0 0 58.6 -102.69 0 0 115.38 -68.61 0 0 -302.99zm322.92 0l112.69 0c17.56,0 33.02,2.51 46.34,7.5 13.33,5 24.46,11.81 33.39,20.44 8.94,8.63 15.6,18.7 20,30.21 4.39,11.5 6.59,23.78 6.59,36.79 0,19.69 -4.32,36.87 -12.96,51.56 -8.63,14.69 -20.82,26.43 -36.57,35.21l67.25 121.28 -75.43 0 -56.34 -111.29 -38.17 0 0 111.29 -66.79 0 0 -302.99zm109.05 136.73c12.72,0 22.72,-3.78 29.98,-11.35 7.28,-7.57 10.91,-17.11 10.91,-28.62 0,-12.42 -3.63,-22.26 -10.91,-29.52 -7.26,-7.28 -17.26,-10.91 -29.98,-10.91l-42.26 0 0 80.4 42.26 0zm244.77 -136.73l68.61 0 0 302.99 -68.61 0 0 -302.99zm479.21 247.12c-6.36,8.79 -14.09,17.03 -23.17,24.76 -9.09,7.72 -19.16,14.46 -30.21,20.21 -11.06,5.75 -23.02,10.3 -35.9,13.63 -12.88,3.33 -26.28,4.99 -40.21,4.99 -23.02,0 -44.07,-3.93 -63.16,-11.81 -19.08,-7.87 -35.51,-18.84 -49.3,-32.93 -13.78,-14.08 -24.46,-30.73 -32.03,-49.96 -7.57,-19.24 -11.36,-40.36 -11.36,-63.37 0,-22.41 3.79,-43.38 11.36,-62.92 7.57,-19.53 18.25,-36.49 32.03,-50.88 13.79,-14.38 30.29,-25.73 49.53,-34.07 19.23,-8.32 40.51,-12.49 63.83,-12.49 28.17,0 52.79,5.15 73.84,15.45 21.06,10.3 38.55,25.13 52.48,44.51l-46.8 44.98c-9.08,-12.72 -19.84,-22.94 -32.26,-30.66 -12.42,-7.72 -27.26,-11.58 -44.53,-11.58 -13.62,0 -25.9,2.49 -36.8,7.49 -10.9,5 -20.15,11.89 -27.72,20.67 -7.57,8.77 -13.4,19 -17.49,30.66 -4.09,11.66 -6.14,23.99 -6.14,37.02 0,13.32 2.05,25.74 6.14,37.24 4.09,11.52 9.92,21.51 17.49,29.99 7.57,8.48 16.66,15.14 27.27,19.99 10.6,4.84 22.57,7.26 35.89,7.26 10.91,0 20.37,-1.13 28.4,-3.4 8.02,-2.28 15.14,-5.31 21.36,-9.09 6.2,-3.79 11.74,-8.17 16.58,-13.17 4.85,-5 9.54,-10.07 14.08,-15.22l46.8 42.7zm202.97 -247.12l75.88 0 110.87 302.99 -74.98 0 -23.17 -69.49 -106.78 0 -23.17 69.49 -71.79 0 113.14 -302.99zm72.24 180.34l-36.8 -114.47 -37.71 114.47 74.51 0z"/>
   <g>
    <path class="fil5" d="M2855.18 3014.92c-7.98,12.24 -19.02,24.74 -33.12,37.52 -14.1,12.76 -30.73,24.6 -49.88,35.51 -19.16,10.91 -40.18,19.82 -63.05,26.74 -22.89,6.91 -47.1,10.37 -72.63,10.37 -39.91,0 -76.36,-6.91 -109.35,-20.75 -32.99,-13.83 -61.45,-33.12 -85.4,-57.86 -23.94,-24.75 -42.57,-53.88 -55.87,-87.4 -13.3,-33.52 -19.95,-70.24 -19.95,-110.14 0,-38.84 6.65,-75.29 19.95,-109.34 13.3,-34.06 32.06,-63.85 56.27,-89.39 24.21,-25.54 53.07,-45.76 86.6,-60.66 33.52,-14.9 70.5,-22.35 110.94,-22.35 26.07,0 50.01,2.8 71.83,8.38 21.81,5.59 41.63,13.17 59.46,22.75 17.82,9.58 33.65,20.88 47.49,33.92 13.83,13.03 26.07,27 36.71,41.9l-71.03 63.05c-17.03,-24.47 -36.85,-44.16 -59.46,-59.06 -22.62,-14.9 -50.95,-22.35 -85,-22.35 -26.08,0 -49.49,5.19 -70.24,15.57 -20.75,10.37 -38.44,24.21 -53.08,41.5 -14.63,17.3 -25.8,37.51 -33.51,60.66 -7.72,23.14 -11.58,47.49 -11.58,73.02 0,25.55 3.86,49.49 11.58,71.84 7.71,22.35 18.75,41.77 33.12,58.26 14.36,16.5 31.52,29.53 51.48,39.11 19.95,9.58 42.43,14.37 67.44,14.37 22.88,0 42.43,-2.66 58.66,-7.98 16.23,-5.33 30.07,-11.98 41.5,-19.96 11.44,-7.98 21.02,-16.36 28.73,-25.14 7.72,-8.78 14.77,-16.36 21.16,-22.75l70.23 60.66zm47.09 -276.95l90.19 0 2.4 47.09c4.25,-5.32 9.71,-11.17 16.36,-17.56 6.65,-6.39 14.49,-12.23 23.54,-17.56 9.05,-5.32 19.56,-9.84 31.53,-13.57 11.97,-3.72 25.67,-5.58 41.1,-5.58 9.05,0 17.16,0.53 24.35,1.59 7.18,1.07 14.5,2.93 21.94,5.59l-19.15 88.59c-6.39,-2.66 -12.91,-4.52 -19.56,-5.58 -6.65,-1.07 -14.5,-1.6 -23.54,-1.6 -12.77,0 -25.01,2.13 -36.72,6.38 -11.7,4.26 -21.81,10.38 -30.33,18.36 -8.5,7.98 -15.29,17.56 -20.34,28.73 -5.06,11.18 -7.59,23.68 -7.59,37.52l0 201.92 -94.18 0 0 -374.32zm303.3 0l94.17 0 0 226.67c0,23.94 6.52,42.43 19.55,55.47 13.04,13.03 29.94,19.55 50.69,19.55 12.77,0 24.74,-2.53 35.91,-7.58 11.18,-5.06 20.76,-12.1 28.74,-21.15 7.98,-9.05 14.23,-19.56 18.75,-31.53 4.53,-11.97 6.78,-24.87 6.78,-38.7l0 -202.73 94.19 0 0 374.32 -90.2 0 -2.39 -42.3c-4.79,5.32 -10.64,10.91 -17.56,16.76 -6.91,5.85 -14.89,11.31 -23.94,16.36 -9.05,5.06 -19.42,9.18 -31.13,12.38 -11.7,3.19 -25.01,4.78 -39.9,4.78 -46.83,0 -82.48,-13.96 -106.95,-41.9 -24.48,-27.93 -36.71,-65.58 -36.71,-112.93l0 -227.47zm541.13 185.17l-135.68 -185.17 118.91 0 75.03 108.54 75.82 -108.54 106.15 0 -131.69 175.59 146.06 198.73 -118.92 0 -85.4 -122.11 -86.2 122.11 -106.15 0 142.07 -189.15z"/>
    <path class="fil7" d="M4051.58 2579.94l94.17 0 0 532.35 -94.17 0 0 -532.35zm538.73 478.08c-1.6,1.59 -5.98,5.99 -13.17,13.17 -7.18,7.18 -17.56,14.76 -31.12,22.74 -13.57,7.98 -30.87,15.17 -51.89,21.56 -21.01,6.38 -46.15,9.57 -75.41,9.57 -29.81,0 -56.94,-5.05 -81.42,-15.16 -24.47,-10.11 -45.35,-24.08 -62.65,-41.9 -17.29,-17.83 -30.59,-39.24 -39.9,-64.25 -9.32,-25.01 -13.97,-52.68 -13.97,-83.01 0,-27.67 4.65,-53.34 13.97,-77.02 9.31,-23.68 22.34,-44.29 39.11,-61.85 16.76,-17.56 36.71,-31.4 59.85,-41.5 23.15,-10.11 48.82,-15.17 77.02,-15.17 34.06,0 62.92,6.26 86.6,18.75 23.68,12.51 42.7,28.87 57.07,49.09 14.36,20.22 24.74,43.1 31.13,68.64 6.38,25.54 9.57,51.61 9.57,78.22l0 13.56 -279.34 0c0,13.84 3.06,26.34 9.18,37.52 6.11,11.17 14.09,20.75 23.94,28.73 9.84,7.98 21.02,14.1 33.52,18.36 12.51,4.25 24.87,6.38 37.11,6.38 18.09,0 33.92,-1.73 47.49,-5.18 13.57,-3.47 25.14,-7.46 34.72,-11.98 9.57,-4.52 17.42,-9.31 23.55,-14.36 6.11,-5.06 10.77,-9.18 13.96,-12.38l51.08 57.47zm-91.78 -172.4c0,-9.57 -1.87,-19.15 -5.59,-28.73 -3.72,-9.57 -9.18,-18.22 -16.36,-25.94 -7.19,-7.71 -16.36,-14.1 -27.54,-19.15 -11.17,-5.06 -23.94,-7.59 -38.31,-7.59 -15.43,0 -29.13,2.53 -41.1,7.59 -11.97,5.05 -21.95,11.44 -29.93,19.15 -7.98,7.72 -14.1,16.37 -18.36,25.94 -4.25,9.58 -6.38,19.16 -6.38,28.73l183.57 0zm390.28 191.55c-10.11,12.24 -25.54,23.15 -46.29,32.73 -20.75,9.58 -43.89,14.36 -69.44,14.36 -15.43,0 -30.72,-2.39 -45.89,-7.18 -15.16,-4.79 -29,-12.1 -41.5,-21.95 -12.51,-9.84 -22.61,-22.48 -30.33,-37.91 -7.71,-15.43 -11.57,-33.52 -11.57,-54.27 0,-21.28 3.99,-40.31 11.97,-57.06 7.98,-16.77 19.16,-30.87 33.52,-42.31 14.37,-11.44 31.66,-20.09 51.88,-25.94 20.21,-5.85 42.56,-8.78 67.04,-8.78 7.45,0 15.7,0.13 24.75,0.4 9.04,0.27 17.82,0.67 26.33,1.2 9.58,0.53 19.42,1.06 29.53,1.6l0 -8.78c0,-18.62 -7.45,-33.26 -22.35,-43.9 -14.89,-10.64 -34.32,-15.96 -58.26,-15.96 -26.6,0 -47.89,3.46 -63.85,10.37 -15.96,6.92 -30.06,14.37 -42.3,22.35l-43.1 -63.85c7.45,-5.32 15.97,-10.77 25.54,-16.36 9.58,-5.59 20.75,-10.65 33.52,-15.16 12.77,-4.53 27.54,-8.25 44.3,-11.18 16.76,-2.93 36.32,-4.39 58.66,-4.39 23.95,0 45.62,3.33 65.05,9.98 19.42,6.65 36.05,15.96 49.88,27.93 13.83,11.97 24.48,26.34 31.92,43.1 7.46,16.76 11.18,34.98 11.18,54.67l0 251.41 -87.79 0 -2.4 -35.12zm0 -134.08c-9.57,-0.53 -18.89,-1.06 -27.93,-1.6 -7.45,-0.53 -15.3,-0.93 -23.55,-1.19 -8.24,-0.27 -15.3,-0.4 -21.15,-0.4 -30.33,0 -51.61,5.99 -63.85,17.96 -12.24,11.97 -18.36,25.67 -18.36,41.1 0,15.96 5.73,28.47 17.17,37.51 11.43,9.04 28.33,13.57 50.68,13.57 11.17,0 21.95,-1.86 32.32,-5.59 10.38,-3.72 19.55,-8.78 27.54,-15.16 7.98,-6.39 14.5,-13.84 19.55,-22.35 5.05,-8.51 7.58,-17.56 7.58,-27.14l0 -36.71zm181.18 -205.12l90.18 0 2.4 47.09c4.26,-5.32 9.71,-11.17 16.36,-17.56 6.66,-6.39 14.5,-12.23 23.55,-17.56 9.04,-5.32 19.55,-9.84 31.52,-13.57 11.98,-3.72 25.68,-5.58 41.11,-5.58 9.04,0 17.16,0.53 24.34,1.59 7.18,1.07 14.5,2.93 21.95,5.59l-19.16 88.59c-6.38,-2.66 -12.9,-4.52 -19.55,-5.58 -6.65,-1.07 -14.5,-1.6 -23.55,-1.6 -12.77,0 -25,2.13 -36.71,6.38 -11.7,4.26 -21.82,10.38 -30.33,18.36 -8.51,7.98 -15.3,17.56 -20.35,28.73 -5.06,11.18 -7.59,23.68 -7.59,37.52l0 201.92 -94.17 0 0 -374.32zm304.88 0l90.19 0 2.4 42.3c4.78,-5.32 10.51,-10.91 17.16,-16.76 6.65,-5.85 14.63,-11.31 23.94,-16.36 9.31,-5.05 19.82,-9.18 31.53,-12.37 11.7,-3.19 25,-4.79 39.9,-4.79 46.83,0 82.48,13.96 106.95,41.9 24.47,27.94 36.71,65.58 36.71,112.93l0 227.47 -94.17 0 0 -226.67c0,-23.94 -6.52,-42.43 -19.56,-55.46 -13.04,-13.04 -29.93,-19.56 -50.68,-19.56 -12.77,0 -24.74,2.53 -35.92,7.58 -11.17,5.06 -20.75,12.11 -28.73,21.16 -7.98,9.04 -14.23,19.55 -18.75,31.52 -4.52,11.97 -6.79,24.88 -6.79,38.71l0 202.72 -94.18 0 0 -374.32zm440.57 -158.03l100.57 0 0 98.97 -100.57 0 0 -98.97zm3.19 158.03l94.18 0 0 374.32 -94.18 0 0 -374.32zm190.76 0l90.18 0 2.4 42.3c4.79,-5.32 10.51,-10.91 17.16,-16.76 6.65,-5.85 14.63,-11.31 23.94,-16.36 9.31,-5.05 19.82,-9.18 31.53,-12.37 11.7,-3.19 25,-4.79 39.9,-4.79 46.83,0 82.48,13.96 106.95,41.9 24.48,27.94 36.72,65.58 36.72,112.93l0 227.47 -94.18 0 0 -226.67c0,-23.94 -6.52,-42.43 -19.56,-55.46 -13.04,-13.04 -29.93,-19.56 -50.67,-19.56 -12.78,0 -24.75,2.53 -35.92,7.58 -11.18,5.06 -20.75,12.11 -28.73,21.16 -7.99,9.04 -14.24,19.55 -18.76,31.52 -4.52,11.97 -6.79,24.88 -6.79,38.71l0 202.72 -94.17 0 0 -374.32zm500.43 434.98c14.89,10.11 30.98,17.43 48.28,21.95 17.29,4.52 37.64,6.78 61.06,6.78 24.47,0 44.96,-7.45 61.45,-22.35 16.5,-14.89 24.74,-35.65 24.74,-62.25l0 -40.7c-12.76,10.64 -26.73,19.29 -41.9,25.94 -15.16,6.65 -35.25,9.97 -60.25,9.97 -27.14,0 -51.22,-4.52 -72.23,-13.57 -21.02,-9.04 -38.98,-21.68 -53.88,-37.91 -14.9,-16.22 -26.2,-35.38 -33.92,-57.46 -7.72,-22.08 -11.58,-46.43 -11.58,-73.03 0,-27.67 4.93,-53.74 14.77,-78.22 9.85,-24.47 23.95,-45.75 42.31,-63.85 18.35,-18.09 40.56,-32.32 66.63,-42.7 26.08,-10.37 55.34,-15.56 87.8,-15.56 32.46,0 62.39,2.66 89.79,7.98 27.4,5.32 49.62,10.91 66.64,16.76l0 363.95c0,26.07 -4.52,49.21 -13.56,69.44 -9.05,20.21 -21.56,37.24 -37.52,51.08 -15.96,13.83 -34.85,24.34 -56.66,31.52 -21.82,7.18 -45.5,10.78 -71.04,10.78 -19.69,0 -37.11,-0.94 -52.28,-2.8 -15.16,-1.86 -28.73,-4.39 -40.7,-7.58 -11.97,-3.19 -22.88,-7.18 -32.72,-11.97 -9.85,-4.79 -19.02,-10.38 -27.54,-16.76l42.31 -69.44zm195.53 -353.57c-7.44,-2.66 -15.16,-4.66 -23.14,-5.99 -7.98,-1.33 -20.49,-1.99 -37.52,-1.99 -19.15,0 -35.91,3.19 -50.28,9.58 -14.36,6.38 -26.6,14.89 -36.71,25.53 -10.11,10.64 -17.69,23.02 -22.74,37.12 -5.06,14.1 -7.59,28.86 -7.59,44.29 0,28.74 7.19,52.94 21.55,72.63 14.37,19.69 37.51,29.54 69.44,29.54 28.73,0 50.41,-6.12 65.05,-18.36 14.63,-12.24 21.94,-31.66 21.94,-58.27l0 -134.08z"/>
   </g>
  </g>
 </g>
</svg>
