<svg width="73" height="72" viewBox="0 0 73 72" fill="none" xmlns="http://www.w3.org/2000/svg">
<path fill-rule="evenodd" clip-rule="evenodd" d="M18.9818 66.3037H54.4706L50.1445 70.8456C49.2876 71.7505 48.9009 71.9966 47.7618 72H25.7281C24.7037 72.0001 24.2878 71.872 23.4515 70.9024L18.9818 66.3037Z" fill="#FFCC29"/>
<path fill-rule="evenodd" clip-rule="evenodd" d="M4.66341 37.5727H69.3019C71.3359 37.5727 73 39.4137 73 41.6639V62.5232C73 64.7734 71.3359 66.6145 69.3019 66.6145H4.66341C2.62943 66.6145 0.965302 64.7734 0.965302 62.5232V41.6639C0.965302 39.4137 2.62943 37.5727 4.66341 37.5727V37.5727Z" fill="#ED3237"/>
<path d="M5.12982 40.2472H68.9859C70.0369 40.2472 70.8969 41.1986 70.8969 42.3613V61.8257C70.8969 62.9885 70.0368 63.9398 68.9859 63.9398H5.12982C4.07881 63.9398 3.21889 62.9886 3.21889 61.8257V42.3613C3.21889 41.1986 4.07881 40.2472 5.12982 40.2472V40.2472Z" fill="#003F5D"/>
<path fill-rule="evenodd" clip-rule="evenodd" d="M36.1069 44.6254C39.7229 44.6254 42.6543 47.8692 42.6543 51.8707C42.6543 55.8721 39.7229 59.1159 36.1069 59.1159C32.4909 59.1159 29.5595 55.8721 29.5595 51.8707C29.5595 47.8692 32.4909 44.6254 36.1069 44.6254V44.6254ZM36.0949 55.0142C36.6318 55.0142 37.1177 54.8554 37.5528 54.5379C37.9879 54.1896 38.4276 53.8413 38.8719 53.493C39.0109 53.493 39.1357 53.5595 39.2468 53.6928C39.3578 53.8259 39.4134 53.9693 39.4134 54.1229C39.4134 54.6966 38.9968 55.2241 38.1637 55.7056C37.451 56.1153 36.7937 56.3202 36.192 56.3202C35.0812 56.3202 34.1301 55.9029 33.3386 55.0679C32.5473 54.233 32.1514 53.201 32.1514 51.9718C32.1514 50.7837 32.5448 49.7593 33.3317 48.8988C34.1185 48.0383 35.0535 47.6081 36.1365 47.6081C36.7383 47.6081 37.4094 47.8231 38.1499 48.2535C39.0015 48.7553 39.4273 49.3085 39.4273 49.9127C39.4273 50.0767 39.3672 50.2203 39.2468 50.3431C39.1265 50.466 38.9923 50.5275 38.8442 50.5275C38.7701 50.5275 38.4599 50.2663 37.9139 49.7438C37.3676 49.2214 36.7891 48.9602 36.1782 48.9602C35.3729 48.9602 34.704 49.2496 34.1717 49.8283C33.6395 50.4071 33.3733 51.1369 33.3733 52.0178C33.3733 52.8374 33.6395 53.5416 34.1717 54.1306C34.704 54.7196 35.3451 55.0142 36.0949 55.0142V55.0142ZM36.0949 49.4673C36.6965 49.4673 37.2428 49.7284 37.7334 50.2509C38.2239 50.7733 38.5897 51.0345 38.8303 51.0345C39.108 51.0345 39.3532 50.9219 39.5662 50.6965C39.7791 50.4711 39.8856 50.2049 39.8856 49.8974C39.8856 49.1395 39.4181 48.4634 38.4831 47.8693C37.6686 47.3571 36.8863 47.101 36.1365 47.101C34.9147 47.101 33.8686 47.5774 32.9984 48.53C32.1283 49.4827 31.6933 50.6299 31.6933 51.9718C31.6933 53.3343 32.1351 54.4841 33.0193 55.4213C33.9033 56.3586 34.9608 56.8273 36.192 56.8273C36.9326 56.8273 37.701 56.5815 38.4971 56.0896C39.4228 55.5161 39.8856 54.8554 39.8856 54.1075C39.8856 53.8106 39.7791 53.5442 39.5662 53.3085C39.3532 53.0731 39.108 52.9553 38.8303 52.9553C38.6267 52.9553 38.2541 53.2139 37.7125 53.7312C37.1709 54.2485 36.6318 54.5071 36.0949 54.5071C35.4932 54.5071 34.9655 54.2611 34.512 53.7696C34.0584 53.2779 33.8315 52.694 33.8315 52.0178C33.8315 51.3111 34.0514 50.7092 34.4911 50.2125C34.9308 49.7157 35.4654 49.4673 36.0949 49.4673V49.4673ZM36.0949 53.9846C36.4837 53.9846 36.8632 53.8259 37.2335 53.5084C38.0574 52.8015 38.5897 52.4482 38.8303 52.4482C39.2284 52.4482 39.5801 52.6121 39.8856 52.9399C40.191 53.2676 40.3439 53.657 40.3439 54.1075C40.3439 54.9988 39.8393 55.7824 38.8303 56.4585C37.9415 57.0526 37.0623 57.3497 36.192 57.3497C34.8221 57.3497 33.651 56.8323 32.679 55.7978C31.7071 54.7632 31.2211 53.4879 31.2211 51.9718C31.2211 50.4763 31.7025 49.206 32.6652 48.1612C33.6278 47.1163 34.785 46.594 36.1365 46.594C37.0252 46.594 37.9139 46.891 38.8025 47.4852C39.83 48.1715 40.3439 48.9755 40.3439 49.8974C40.3439 50.3585 40.1957 50.7477 39.8994 51.0652C39.6033 51.3828 39.2468 51.5416 38.8303 51.5416C38.4507 51.5416 38.1036 51.3777 37.7888 51.0499C37.1131 50.3329 36.5484 49.9743 36.0949 49.9743C35.5857 49.9743 35.1576 50.1715 34.8105 50.566C34.4633 50.9604 34.2898 51.4391 34.2898 52.0025C34.2898 52.5455 34.4657 53.0115 34.8173 53.4008C35.1692 53.7901 35.595 53.9846 36.0949 53.9846V53.9846Z" fill="#5DA3D8" fill-opacity="0.290196"/>
<path fill-rule="evenodd" clip-rule="evenodd" d="M43.7344 54.6652C43.6063 54.6175 43.478 54.5698 43.3499 54.522C42.1605 57.6823 40.2755 59.6901 37.4454 60.132C35.3838 60.4538 33.4646 60.094 31.7509 58.7644C29.1321 56.7324 27.3046 52.6944 29.2102 48.2045C29.8151 46.7793 30.4744 45.8646 31.6258 44.9291C33.6679 43.2698 35.9919 42.9726 38.5426 43.7892C38.5605 43.7472 38.5783 43.7051 38.5963 43.6631C39.4133 43.9306 40.1429 44.3908 40.8123 44.9829C40.8447 44.9236 40.8771 44.864 40.9096 44.8047C40.1865 44.1825 39.4406 43.7341 38.6675 43.491C38.6857 43.4424 38.7042 43.3938 38.7225 43.3454C36.2897 42.4514 33.4137 42.7451 31.1679 44.73C29.9044 45.8464 28.9025 47.4561 28.409 49.1594C27.3458 52.8289 28.462 57.0752 31.8693 59.3682C33.3887 60.3907 34.6683 60.7507 36.4461 60.7108C39.8652 60.6342 42.3638 58.5412 43.7344 54.6652V54.6652Z" fill="#5DA3D8" fill-opacity="0.290196"/>
<path fill-rule="evenodd" clip-rule="evenodd" d="M28.5095 43.6286C28.6348 43.7671 28.76 43.9057 28.8851 44.0442C26.2281 47.4261 25.1421 51.1318 26.32 55.0611C27.1781 57.9234 28.6208 60.2046 31.0268 61.6549C34.7034 63.8709 40.1835 63.8322 43.8328 58.7477C44.9911 57.1337 45.5768 55.7459 45.8985 53.7077C46.4689 50.0926 45.4318 46.904 43.0827 44.0691C43.1169 44.0216 43.151 43.9739 43.1851 43.9263C42.4263 43.0216 41.5143 42.3425 40.4974 41.8185C40.5414 41.7419 40.5855 41.6652 40.6296 41.5885C41.7097 42.1648 42.6187 42.8718 43.326 43.7336C43.3668 43.6817 43.4076 43.6295 43.4485 43.5776C45.8109 46.2143 47.1727 50.1172 46.3759 54.1861C45.9276 56.4749 44.8875 58.7117 43.3697 60.3428C40.0998 63.8571 34.781 64.8792 30.318 61.883C24.3919 57.9043 23.7012 48.7064 28.5095 43.6286V43.6286Z" fill="#5DA3D8" fill-opacity="0.290196"/>
<path fill-rule="evenodd" clip-rule="evenodd" d="M43.3623 56.9393L44.0512 57.4485C40.7489 63.2209 33.4836 64.0243 29.1696 59.2079C27.4098 57.2428 26.6544 54.9637 26.5533 52.2034C26.2377 43.5904 34.806 38.3839 41.1891 42.8318L41.0142 43.182C43.1323 44.5626 44.4693 46.6955 45.0366 49.5698L44.8118 49.6037C44.2714 46.8845 43.0132 44.7677 40.8643 43.3987L40.7141 43.6527C35.0336 39.6056 26.7787 44.2742 27.3434 52.5299C28.3107 62.2384 39.1316 64.2715 43.3623 56.9393V56.9393Z" fill="#5DA3D8" fill-opacity="0.290196"/>
<path fill-rule="evenodd" clip-rule="evenodd" d="M2.8498 64.6105C2.8498 64.2816 3.09078 64.0152 3.38794 64.0152C3.68511 64.0152 3.92608 64.2816 3.92608 64.6105C3.92608 64.9393 3.68511 65.2058 3.38794 65.2058C3.09078 65.2058 2.8498 64.9393 2.8498 64.6105ZM5.74533 64.7501C6.04249 64.7501 6.28347 65.0167 6.28347 65.3454C6.28347 65.6743 6.04249 65.9408 5.74533 65.9408C5.44806 65.9408 5.20719 65.6743 5.20719 65.3454C5.20719 65.0167 5.44806 64.7501 5.74533 64.7501ZM8.34712 64.7501C8.64438 64.7501 8.88526 65.0167 8.88526 65.3454C8.88526 65.6743 8.64438 65.9408 8.34712 65.9408C8.04996 65.9408 7.80898 65.6743 7.80898 65.3454C7.80898 65.0167 8.04996 64.7501 8.34712 64.7501ZM10.949 64.7501C11.2462 64.7501 11.4872 65.0167 11.4872 65.3454C11.4872 65.6743 11.2462 65.9408 10.949 65.9408C10.6518 65.9408 10.4109 65.6743 10.4109 65.3454C10.4109 65.0167 10.6518 64.7501 10.949 64.7501ZM13.5508 64.7501C13.848 64.7501 14.0889 65.0167 14.0889 65.3454C14.0889 65.6743 13.848 65.9408 13.5508 65.9408C13.2536 65.9408 13.0127 65.6743 13.0127 65.3454C13.0127 65.0167 13.2536 64.7501 13.5508 64.7501ZM16.1527 64.7501C16.4499 64.7501 16.6907 65.0167 16.6907 65.3454C16.6907 65.6743 16.4499 65.9408 16.1527 65.9408C15.8554 65.9408 15.6146 65.6743 15.6146 65.3454C15.6146 65.0167 15.8554 64.7501 16.1527 64.7501ZM18.7545 64.7501C19.0517 64.7501 19.2926 65.0167 19.2926 65.3454C19.2926 65.6743 19.0517 65.9408 18.7545 65.9408C18.4573 65.9408 18.2164 65.6743 18.2164 65.3454C18.2164 65.0167 18.4573 64.7501 18.7545 64.7501ZM21.3564 64.7501C21.6535 64.7501 21.8944 65.0167 21.8944 65.3454C21.8944 65.6743 21.6535 65.9408 21.3564 65.9408C21.0591 65.9408 20.8182 65.6743 20.8182 65.3454C20.8182 65.0167 21.0591 64.7501 21.3564 64.7501ZM23.9582 64.7501C24.2553 64.7501 24.4963 65.0167 24.4963 65.3454C24.4963 65.6743 24.2553 65.9408 23.9582 65.9408C23.661 65.9408 23.42 65.6743 23.42 65.3454C23.42 65.0167 23.661 64.7501 23.9582 64.7501ZM26.56 64.7501C26.8572 64.7501 27.0981 65.0167 27.0981 65.3454C27.0981 65.6743 26.8572 65.9408 26.56 65.9408C26.2628 65.9408 26.0219 65.6743 26.0219 65.3454C26.0219 65.0167 26.2628 64.7501 26.56 64.7501ZM29.1619 64.7501C29.459 64.7501 29.7 65.0167 29.7 65.3454C29.7 65.6743 29.459 65.9408 29.1619 65.9408C28.8647 65.9408 28.6237 65.6743 28.6237 65.3454C28.6237 65.0167 28.8647 64.7501 29.1619 64.7501ZM31.7637 64.7501C32.0609 64.7501 32.3018 65.0167 32.3018 65.3454C32.3018 65.6743 32.0609 65.9408 31.7637 65.9408C31.4665 65.9408 31.2255 65.6743 31.2255 65.3454C31.2255 65.0167 31.4665 64.7501 31.7637 64.7501ZM34.3655 64.7501C34.6627 64.7501 34.9037 65.0167 34.9037 65.3454C34.9037 65.6743 34.6627 65.9408 34.3655 65.9408C34.0683 65.9408 33.8274 65.6743 33.8274 65.3454C33.8274 65.0167 34.0683 64.7501 34.3655 64.7501ZM36.9673 64.7501C37.2646 64.7501 37.5055 65.0167 37.5055 65.3454C37.5055 65.6743 37.2646 65.9408 36.9673 65.9408C36.6702 65.9408 36.4292 65.6743 36.4292 65.3454C36.4292 65.0167 36.6702 64.7501 36.9673 64.7501ZM39.5692 64.7501C39.8664 64.7501 40.1074 65.0167 40.1074 65.3454C40.1074 65.6743 39.8664 65.9408 39.5692 65.9408C39.272 65.9408 39.0311 65.6743 39.0311 65.3454C39.0311 65.0167 39.272 64.7501 39.5692 64.7501ZM42.171 64.7501C42.4683 64.7501 42.7092 65.0167 42.7092 65.3454C42.7092 65.6743 42.4683 65.9408 42.171 65.9408C41.8739 65.9408 41.6329 65.6743 41.6329 65.3454C41.6329 65.0167 41.8739 64.7501 42.171 64.7501ZM44.7729 64.7501C45.0701 64.7501 45.3111 65.0167 45.3111 65.3454C45.3111 65.6743 45.0701 65.9408 44.7729 65.9408C44.4757 65.9408 44.2348 65.6743 44.2348 65.3454C44.2348 65.0167 44.4757 64.7501 44.7729 64.7501ZM47.3747 64.7501C47.6719 64.7501 47.9129 65.0167 47.9129 65.3454C47.9129 65.6743 47.6719 65.9408 47.3747 65.9408C47.0775 65.9408 46.8366 65.6743 46.8366 65.3454C46.8366 65.0167 47.0775 64.7501 47.3747 64.7501ZM49.9766 64.7501C50.2738 64.7501 50.5146 65.0167 50.5146 65.3454C50.5146 65.6743 50.2738 65.9408 49.9766 65.9408C49.6793 65.9408 49.4385 65.6743 49.4385 65.3454C49.4385 65.0167 49.6793 64.7501 49.9766 64.7501ZM52.5784 64.7501C52.8756 64.7501 53.1165 65.0167 53.1165 65.3454C53.1165 65.6743 52.8756 65.9408 52.5784 65.9408C52.2812 65.9408 52.0403 65.6743 52.0403 65.3454C52.0403 65.0167 52.2812 64.7501 52.5784 64.7501ZM55.1802 64.7501C55.4775 64.7501 55.7183 65.0167 55.7183 65.3454C55.7183 65.6743 55.4775 65.9408 55.1802 65.9408C54.883 65.9408 54.6421 65.6743 54.6421 65.3454C54.6421 65.0167 54.883 64.7501 55.1802 64.7501ZM57.7821 64.7501C58.0792 64.7501 58.3202 65.0167 58.3202 65.3454C58.3202 65.6743 58.0792 65.9408 57.7821 65.9408C57.4849 65.9408 57.2439 65.6743 57.2439 65.3454C57.2439 65.0167 57.4849 64.7501 57.7821 64.7501ZM60.3839 64.7501C60.6811 64.7501 60.922 65.0167 60.922 65.3454C60.922 65.6743 60.6811 65.9408 60.3839 65.9408C60.0867 65.9408 59.8457 65.6743 59.8457 65.3454C59.8457 65.0167 60.0867 64.7501 60.3839 64.7501ZM62.9858 64.7501C63.2829 64.7501 63.5239 65.0167 63.5239 65.3454C63.5239 65.6743 63.2829 65.9408 62.9858 65.9408C62.6885 65.9408 62.4476 65.6743 62.4476 65.3454C62.4476 65.0167 62.6885 64.7501 62.9858 64.7501ZM65.5876 64.7501C65.8848 64.7501 66.1257 65.0167 66.1257 65.3454C66.1257 65.6743 65.8848 65.9408 65.5876 65.9408C65.2904 65.9408 65.0494 65.6743 65.0494 65.3454C65.0494 65.0167 65.2904 64.7501 65.5876 64.7501ZM68.1896 64.7501C68.4868 64.7501 68.7278 65.0167 68.7278 65.3454C68.7278 65.6743 68.4868 65.9408 68.1896 65.9408C67.8924 65.9408 67.6516 65.6743 67.6516 65.3454C67.6516 65.0167 67.8924 64.7501 68.1896 64.7501ZM70.2783 64.6274C70.2783 64.2985 70.5193 64.032 70.8164 64.032C71.1136 64.032 71.3546 64.2985 71.3546 64.6274C71.3546 64.9561 71.1136 65.2226 70.8164 65.2226C70.5193 65.2226 70.2783 64.9561 70.2783 64.6274ZM1.59589 62.0636C1.59589 61.7347 1.83686 61.4683 2.13403 61.4683C2.43129 61.4683 2.67217 61.7347 2.67217 62.0636C2.67217 62.3923 2.43129 62.6589 2.13403 62.6589C1.83686 62.6589 1.59589 62.3923 1.59589 62.0636ZM1.59589 59.2337C1.59589 58.905 1.83686 58.6385 2.13403 58.6385C2.43129 58.6385 2.67217 58.905 2.67217 59.2337C2.67217 59.5625 2.43129 59.8291 2.13403 59.8291C1.83686 59.8291 1.59589 59.5625 1.59589 59.2337ZM1.59589 56.4039C1.59589 56.0751 1.83686 55.8086 2.13403 55.8086C2.43129 55.8086 2.67217 56.0751 2.67217 56.4039C2.67217 56.7327 2.43129 56.9991 2.13403 56.9991C1.83686 56.9991 1.59589 56.7327 1.59589 56.4039ZM1.59589 53.5741C1.59589 53.2452 1.83686 52.9787 2.13403 52.9787C2.43129 52.9787 2.67217 53.2452 2.67217 53.5741C2.67217 53.9028 2.43129 54.1693 2.13403 54.1693C1.83686 54.1693 1.59589 53.9028 1.59589 53.5741ZM1.59589 50.7441C1.59589 50.4153 1.83686 50.1488 2.13403 50.1488C2.43129 50.1488 2.67217 50.4153 2.67217 50.7441C2.67217 51.0729 2.43129 51.3394 2.13403 51.3394C1.83686 51.3394 1.59589 51.0729 1.59589 50.7441ZM1.59589 47.9142C1.59589 47.5854 1.83686 47.3189 2.13403 47.3189C2.43129 47.3189 2.67217 47.5854 2.67217 47.9142C2.67217 48.2431 2.43129 48.5095 2.13403 48.5095C1.83686 48.5095 1.59589 48.2431 1.59589 47.9142ZM1.59589 45.0843C1.59589 44.7556 1.83686 44.4891 2.13403 44.4891C2.43129 44.4891 2.67217 44.7556 2.67217 45.0843C2.67217 45.4132 2.43129 45.6797 2.13403 45.6797C1.83686 45.6797 1.59589 45.4132 1.59589 45.0843ZM71.5137 62.0636C71.5137 61.7347 71.7547 61.4683 72.0518 61.4683C72.3489 61.4683 72.5899 61.7347 72.5899 62.0636C72.5899 62.3923 72.3489 62.6589 72.0518 62.6589C71.7547 62.6589 71.5137 62.3923 71.5137 62.0636V62.0636ZM71.5137 59.2337C71.5137 58.905 71.7547 58.6385 72.0518 58.6385C72.3489 58.6385 72.5899 58.905 72.5899 59.2337C72.5899 59.5625 72.3489 59.8291 72.0518 59.8291C71.7547 59.8291 71.5137 59.5625 71.5137 59.2337V59.2337ZM71.5137 56.4039C71.5137 56.0751 71.7547 55.8086 72.0518 55.8086C72.3489 55.8086 72.5899 56.0751 72.5899 56.4039C72.5899 56.7327 72.3489 56.9991 72.0518 56.9991C71.7547 56.9991 71.5137 56.7327 71.5137 56.4039V56.4039ZM71.5137 53.5741C71.5137 53.2452 71.7547 52.9787 72.0518 52.9787C72.3489 52.9787 72.5899 53.2452 72.5899 53.5741C72.5899 53.9028 72.3489 54.1693 72.0518 54.1693C71.7547 54.1693 71.5137 53.9028 71.5137 53.5741V53.5741ZM71.5137 50.7441C71.5137 50.4153 71.7547 50.1488 72.0518 50.1488C72.3489 50.1488 72.5899 50.4153 72.5899 50.7441C72.5899 51.0729 72.3489 51.3394 72.0518 51.3394C71.7547 51.3394 71.5137 51.0729 71.5137 50.7441V50.7441ZM71.5137 47.9142C71.5137 47.5854 71.7547 47.3189 72.0518 47.3189C72.3489 47.3189 72.5899 47.5854 72.5899 47.9142C72.5899 48.2431 72.3489 48.5095 72.0518 48.5095C71.7547 48.5095 71.5137 48.2431 71.5137 47.9142V47.9142ZM71.5137 45.0843C71.5137 44.7556 71.7547 44.4891 72.0518 44.4891C72.3489 44.4891 72.5899 44.7556 72.5899 45.0843C72.5899 45.4132 72.3489 45.6797 72.0518 45.6797C71.7547 45.6797 71.5137 45.4132 71.5137 45.0843V45.0843ZM5.74533 38.3798C6.04249 38.3798 6.28347 38.6464 6.28347 38.9751C6.28347 39.3039 6.04249 39.5705 5.74533 39.5705C5.44806 39.5705 5.20719 39.3039 5.20719 38.9751C5.20719 38.6464 5.44806 38.3798 5.74533 38.3798ZM8.34712 38.3798C8.64438 38.3798 8.88526 38.6464 8.88526 38.9751C8.88526 39.3039 8.64438 39.5705 8.34712 39.5705C8.04996 39.5705 7.80898 39.3039 7.80898 38.9751C7.80898 38.6464 8.04996 38.3798 8.34712 38.3798ZM10.949 38.3798C11.2462 38.3798 11.4872 38.6464 11.4872 38.9751C11.4872 39.3039 11.2462 39.5705 10.949 39.5705C10.6518 39.5705 10.4109 39.3039 10.4109 38.9751C10.4109 38.6464 10.6518 38.3798 10.949 38.3798ZM13.5508 38.3798C13.848 38.3798 14.0889 38.6464 14.0889 38.9751C14.0889 39.3039 13.848 39.5705 13.5508 39.5705C13.2536 39.5705 13.0127 39.3039 13.0127 38.9751C13.0127 38.6464 13.2536 38.3798 13.5508 38.3798ZM16.1527 38.3798C16.4499 38.3798 16.6907 38.6464 16.6907 38.9751C16.6907 39.3039 16.4499 39.5705 16.1527 39.5705C15.8554 39.5705 15.6146 39.3039 15.6146 38.9751C15.6146 38.6464 15.8554 38.3798 16.1527 38.3798ZM18.7545 38.3798C19.0517 38.3798 19.2926 38.6464 19.2926 38.9751C19.2926 39.3039 19.0517 39.5705 18.7545 39.5705C18.4573 39.5705 18.2164 39.3039 18.2164 38.9751C18.2164 38.6464 18.4573 38.3798 18.7545 38.3798ZM21.3564 38.3798C21.6535 38.3798 21.8944 38.6464 21.8944 38.9751C21.8944 39.3039 21.6535 39.5705 21.3564 39.5705C21.0591 39.5705 20.8182 39.3039 20.8182 38.9751C20.8182 38.6464 21.0591 38.3798 21.3564 38.3798ZM23.9582 38.3798C24.2553 38.3798 24.4963 38.6464 24.4963 38.9751C24.4963 39.3039 24.2553 39.5705 23.9582 39.5705C23.661 39.5705 23.42 39.3039 23.42 38.9751C23.42 38.6464 23.661 38.3798 23.9582 38.3798ZM26.56 38.3798C26.8572 38.3798 27.0981 38.6464 27.0981 38.9751C27.0981 39.3039 26.8572 39.5705 26.56 39.5705C26.2628 39.5705 26.0219 39.3039 26.0219 38.9751C26.0219 38.6464 26.2628 38.3798 26.56 38.3798ZM29.1619 38.3798C29.459 38.3798 29.7 38.6464 29.7 38.9751C29.7 39.3039 29.459 39.5705 29.1619 39.5705C28.8647 39.5705 28.6237 39.3039 28.6237 38.9751C28.6237 38.6464 28.8647 38.3798 29.1619 38.3798ZM31.7637 38.3798C32.0609 38.3798 32.3018 38.6464 32.3018 38.9751C32.3018 39.3039 32.0609 39.5705 31.7637 39.5705C31.4665 39.5705 31.2255 39.3039 31.2255 38.9751C31.2255 38.6464 31.4665 38.3798 31.7637 38.3798ZM34.3655 38.3798C34.6627 38.3798 34.9037 38.6464 34.9037 38.9751C34.9037 39.3039 34.6627 39.5705 34.3655 39.5705C34.0683 39.5705 33.8274 39.3039 33.8274 38.9751C33.8274 38.6464 34.0683 38.3798 34.3655 38.3798ZM36.9673 38.3798C37.2646 38.3798 37.5055 38.6464 37.5055 38.9751C37.5055 39.3039 37.2646 39.5705 36.9673 39.5705C36.6702 39.5705 36.4292 39.3039 36.4292 38.9751C36.4292 38.6464 36.6702 38.3798 36.9673 38.3798ZM39.5692 38.3798C39.8664 38.3798 40.1074 38.6464 40.1074 38.9751C40.1074 39.3039 39.8664 39.5705 39.5692 39.5705C39.272 39.5705 39.0311 39.3039 39.0311 38.9751C39.0311 38.6464 39.272 38.3798 39.5692 38.3798ZM42.171 38.3798C42.4683 38.3798 42.7092 38.6464 42.7092 38.9751C42.7092 39.3039 42.4683 39.5705 42.171 39.5705C41.8739 39.5705 41.6329 39.3039 41.6329 38.9751C41.6329 38.6464 41.8739 38.3798 42.171 38.3798ZM44.7729 38.3798C45.0701 38.3798 45.3111 38.6464 45.3111 38.9751C45.3111 39.3039 45.0701 39.5705 44.7729 39.5705C44.4757 39.5705 44.2348 39.3039 44.2348 38.9751C44.2348 38.6464 44.4757 38.3798 44.7729 38.3798ZM47.3747 38.3798C47.6719 38.3798 47.9129 38.6464 47.9129 38.9751C47.9129 39.3039 47.6719 39.5705 47.3747 39.5705C47.0775 39.5705 46.8366 39.3039 46.8366 38.9751C46.8366 38.6464 47.0775 38.3798 47.3747 38.3798ZM49.9766 38.3798C50.2738 38.3798 50.5146 38.6464 50.5146 38.9751C50.5146 39.3039 50.2738 39.5705 49.9766 39.5705C49.6793 39.5705 49.4385 39.3039 49.4385 38.9751C49.4385 38.6464 49.6793 38.3798 49.9766 38.3798ZM52.5784 38.3798C52.8756 38.3798 53.1165 38.6464 53.1165 38.9751C53.1165 39.3039 52.8756 39.5705 52.5784 39.5705C52.2812 39.5705 52.0403 39.3039 52.0403 38.9751C52.0403 38.6464 52.2812 38.3798 52.5784 38.3798ZM55.1802 38.3798C55.4775 38.3798 55.7183 38.6464 55.7183 38.9751C55.7183 39.3039 55.4775 39.5705 55.1802 39.5705C54.883 39.5705 54.6421 39.3039 54.6421 38.9751C54.6421 38.6464 54.883 38.3798 55.1802 38.3798ZM57.7821 38.3798C58.0792 38.3798 58.3202 38.6464 58.3202 38.9751C58.3202 39.3039 58.0792 39.5705 57.7821 39.5705C57.4849 39.5705 57.2439 39.3039 57.2439 38.9751C57.2439 38.6464 57.4849 38.3798 57.7821 38.3798ZM60.3839 38.3798C60.6811 38.3798 60.922 38.6464 60.922 38.9751C60.922 39.3039 60.6811 39.5705 60.3839 39.5705C60.0867 39.5705 59.8457 39.3039 59.8457 38.9751C59.8457 38.6464 60.0867 38.3798 60.3839 38.3798ZM62.9858 38.3798C63.2829 38.3798 63.5239 38.6464 63.5239 38.9751C63.5239 39.3039 63.2829 39.5705 62.9858 39.5705C62.6885 39.5705 62.4476 39.3039 62.4476 38.9751C62.4476 38.6464 62.6885 38.3798 62.9858 38.3798ZM65.5876 38.3798C65.8848 38.3798 66.1257 38.6464 66.1257 38.9751C66.1257 39.3039 65.8848 39.5705 65.5876 39.5705C65.2904 39.5705 65.0494 39.3039 65.0494 38.9751C65.0494 38.6464 65.2904 38.3798 65.5876 38.3798ZM68.1896 38.3798C68.4868 38.3798 68.7278 38.6464 68.7278 38.9751C68.7278 39.3039 68.4868 39.5705 68.1896 39.5705C67.8924 39.5705 67.6516 39.3039 67.6516 38.9751C67.6516 38.6464 67.8924 38.3798 68.1896 38.3798ZM1.59589 42.2544C1.59589 41.9258 1.83686 41.6592 2.13403 41.6592C2.43129 41.6592 2.67217 41.9258 2.67217 42.2544C2.67217 42.5833 2.43129 42.8498 2.13403 42.8498C1.83686 42.8498 1.59589 42.5833 1.59589 42.2544ZM71.5137 42.2544C71.5137 41.9258 71.7547 41.6592 72.0518 41.6592C72.3489 41.6592 72.5899 41.9258 72.5899 42.2544C72.5899 42.5833 72.3489 42.8498 72.0518 42.8498C71.7547 42.8498 71.5137 42.5833 71.5137 42.2544ZM70.2783 39.7724C70.2783 39.4436 70.5193 39.1772 70.8164 39.1772C71.1136 39.1772 71.3546 39.4436 71.3546 39.7724C71.3546 40.1012 71.1136 40.3677 70.8164 40.3677C70.5193 40.3677 70.2783 40.1012 70.2783 39.7724ZM2.76881 39.7724C2.76881 39.4436 3.00978 39.1772 3.30695 39.1772C3.60421 39.1772 3.84509 39.4436 3.84509 39.7724C3.84509 40.1012 3.60421 40.3677 3.30695 40.3677C3.00978 40.3677 2.76881 40.1012 2.76881 39.7724V39.7724Z" fill="#FEFEFE"/>
<path d="M7.61703 43.9945H9.06146L10.819 47.4922L12.5362 43.9945H13.9908L14.3039 51.4481H12.7786L12.5867 46.5759L11.1927 49.4814H10.405L8.93009 46.6094L8.75838 51.4481H7.30384L7.61703 43.9945V43.9945ZM16.686 43.9945H18.3728L20.8374 51.4481H19.1708L18.6557 49.7383H16.2819L15.7667 51.4481H14.1708L16.686 43.9945V43.9945ZM18.292 48.4309L17.4738 45.6148L16.6354 48.4309H18.292ZM21.472 45.4808H19.2901V43.9945H25.179V45.4808H23.0073V51.4481H21.472V45.4808V45.4808ZM25.2984 43.9945H26.8236V46.8552H29.7428V43.9945H31.2681V51.4481H29.7428V48.3863H26.8236V51.4481H25.2984V43.9945V43.9945ZM31.832 43.9945H36.438V45.4696H33.3572V46.9224H35.7511V48.3526H33.3572V49.9617H36.6602V51.4481H31.832V43.9945V43.9945ZM37.1432 43.9945H38.5877L40.3453 47.4922L42.0625 43.9945H43.517L43.8301 51.4481H42.3048L42.1129 46.5759L40.719 49.4814H39.9312L38.4564 46.6094L38.2847 51.4481H36.8302L37.1432 43.9945V43.9945ZM46.2122 43.9945H47.899L50.3636 51.4481H48.697L48.1819 49.7383H45.8081L45.2929 51.4481H43.697L46.2122 43.9945V43.9945ZM47.8182 48.4309L47 45.6148L46.1616 48.4309H47.8182V48.4309ZM50.9982 45.4808H48.8164V43.9945H54.7052V45.4808H52.5336V51.4481H50.9982V45.4808V45.4808ZM54.8246 43.9945H56.3499V51.4481H54.8246V43.9945V43.9945ZM62.9946 50.0735C62.8532 50.2895 62.6814 50.4926 62.4795 50.6826C62.2773 50.8726 62.0534 51.0384 61.8077 51.1799C61.5619 51.3214 61.296 51.4331 61.0097 51.5151C60.7235 51.5971 60.4256 51.638 60.1158 51.638C59.604 51.638 59.136 51.5412 58.7118 51.3475C58.2876 51.1538 57.9222 50.8836 57.6158 50.5374C57.3094 50.1909 57.072 49.7812 56.9037 49.3082C56.7354 48.835 56.6511 48.3154 56.6511 47.7493C56.6511 47.198 56.7354 46.682 56.9037 46.2015C57.072 45.721 57.3094 45.3038 57.6158 44.95C57.9222 44.5961 58.2892 44.3167 58.7168 44.1118C59.1444 43.907 59.6174 43.8045 60.1359 43.8045C60.7622 43.8045 61.3093 43.9313 61.7774 44.1845C62.2455 44.4378 62.6343 44.8028 62.9441 45.2796L61.9037 46.3859C61.7016 46.0731 61.4625 45.8215 61.1865 45.6316C60.9104 45.4416 60.5804 45.3467 60.1966 45.3467C59.8935 45.3467 59.6208 45.4081 59.3784 45.531C59.136 45.654 58.9307 45.8235 58.7622 46.0395C58.5939 46.2556 58.4643 46.507 58.3734 46.7938C58.2824 47.0806 58.237 47.3842 58.237 47.7045C58.237 48.0323 58.2824 48.3378 58.3734 48.6209C58.4643 48.904 58.5939 49.1498 58.7622 49.3584C58.9307 49.567 59.1326 49.7309 59.3683 49.8501C59.604 49.9692 59.8701 50.0289 60.1664 50.0289C60.4087 50.0289 60.6192 50.0009 60.7975 49.945C60.976 49.8891 61.1344 49.8147 61.2723 49.7216C61.4104 49.6285 61.5333 49.5204 61.641 49.3975C61.7488 49.2745 61.8531 49.1498 61.9541 49.0231L62.9946 50.0735V50.0735ZM63.4776 49.2242C63.5652 49.3287 63.6679 49.4347 63.7857 49.5428C63.9035 49.6507 64.0349 49.7495 64.1797 49.8388C64.3245 49.9283 64.4827 50.0009 64.6544 50.0568C64.8261 50.1127 65.0096 50.1407 65.2049 50.1407C65.3194 50.1407 65.4339 50.122 65.5483 50.0847C65.6628 50.0476 65.7671 49.9935 65.8614 49.9228C65.9557 49.8519 66.0315 49.7662 66.0887 49.6657C66.1459 49.5651 66.1746 49.4515 66.1746 49.3248C66.1746 49.0492 66.0534 48.835 65.8109 48.6824C65.5685 48.5296 65.1847 48.3788 64.6594 48.2297C64.4036 48.1627 64.1661 48.0658 63.9473 47.9392C63.7284 47.8126 63.5399 47.6599 63.3817 47.481C63.2234 47.3023 63.1005 47.0974 63.013 46.8664C62.9255 46.6356 62.8817 46.3785 62.8817 46.0954C62.8817 45.7826 62.9322 45.4883 63.0332 45.2126C63.1342 44.937 63.2874 44.6929 63.4928 44.4806C63.6981 44.2683 63.9541 44.1007 64.2605 43.9777C64.5669 43.8548 64.9288 43.7934 65.3463 43.7934C65.6897 43.7934 65.9927 43.8325 66.2553 43.9108C66.5181 43.9889 66.7419 44.0821 66.9271 44.1901C67.1122 44.2982 67.2638 44.4099 67.3816 44.5254C67.4994 44.6408 67.5887 44.7321 67.6493 44.7991L66.7706 45.8719C66.6965 45.8049 66.6106 45.7322 66.5129 45.654C66.4153 45.5758 66.3059 45.5031 66.1848 45.4361C66.0634 45.369 65.9305 45.3132 65.7857 45.2685C65.6409 45.2237 65.4878 45.2014 65.3262 45.2014C65.2184 45.2014 65.1123 45.2201 65.0079 45.2573C64.9036 45.2945 64.8092 45.3448 64.7251 45.4081C64.6409 45.4715 64.5736 45.5459 64.5231 45.6316C64.4725 45.7173 64.4473 45.8086 64.4473 45.9055C64.4473 46.1587 64.5685 46.3635 64.811 46.5201C65.0533 46.6765 65.3867 46.8069 65.8109 46.9112C66.0602 46.9781 66.3042 47.0694 66.5433 47.1849C66.7823 47.3004 66.9961 47.4512 67.1846 47.6375C67.3732 47.8238 67.5247 48.0528 67.6393 48.3247C67.7537 48.5967 67.811 48.9262 67.811 49.3137C67.811 49.6489 67.7436 49.958 67.6089 50.2412C67.4742 50.5243 67.2907 50.77 67.0584 50.9788C66.8261 51.1873 66.5534 51.3494 66.2403 51.4648C65.9271 51.5803 65.5888 51.638 65.225 51.638C64.8884 51.638 64.582 51.6027 64.306 51.5319C64.0298 51.4611 63.7807 51.368 63.5584 51.2525C63.3362 51.137 63.1358 51.0047 62.9574 50.8559C62.779 50.7068 62.6258 50.5541 62.4979 50.3976L63.4776 49.2242V49.2242ZM23.573 58.8138C23.4316 59.0298 23.2598 59.2329 23.0578 59.4228C22.8558 59.6128 22.6318 59.7785 22.3861 59.9201C22.1404 60.0616 21.8743 60.1732 21.5881 60.2553C21.3019 60.3372 21.004 60.3781 20.6942 60.3781C20.1824 60.3781 19.7144 60.2813 19.2901 60.0876C18.8659 59.8939 18.5006 59.6239 18.1942 59.2775C17.8878 58.931 17.6504 58.5213 17.4821 58.0483C17.3137 57.5753 17.2295 57.0556 17.2295 56.4894C17.2295 55.9381 17.3137 55.4222 17.4821 54.9417C17.6504 54.4612 17.8878 54.044 18.1942 53.6902C18.5006 53.3363 18.8675 53.0569 19.2952 52.852C19.7228 52.6472 20.1958 52.5447 20.7143 52.5447C21.3406 52.5447 21.8877 52.6714 22.3558 52.9247C22.8238 53.178 23.2126 53.543 23.5225 54.0198L22.482 55.1261C22.28 54.8132 22.041 54.5618 21.7649 54.3718C21.4888 54.1818 21.1588 54.0868 20.7749 54.0868C20.4719 54.0868 20.1992 54.1483 19.9568 54.2712C19.7144 54.3941 19.509 54.5637 19.3406 54.7797C19.1722 54.9958 19.0427 55.2471 18.9518 55.5339C18.8609 55.8208 18.8154 56.1244 18.8154 56.4446C18.8154 56.7724 18.8609 57.0779 18.9518 57.3611C19.0427 57.6441 19.1722 57.89 19.3406 58.0986C19.509 58.3072 19.711 58.471 19.9467 58.5903C20.1824 58.7094 20.4484 58.769 20.7447 58.769C20.9871 58.769 21.1975 58.7411 21.3759 58.6852C21.5544 58.6293 21.7127 58.5548 21.8507 58.4617C21.9888 58.3686 22.1116 58.2606 22.2193 58.1377C22.3271 58.0147 22.4315 57.89 22.5325 57.7633L23.573 58.8138V58.8138ZM26.6823 60.3781C26.184 60.3781 25.721 60.2776 25.2935 60.0764C24.8658 59.8753 24.4954 59.5996 24.1824 59.2495C23.8692 58.8994 23.6234 58.484 23.4449 58.0036C23.2664 57.5231 23.1772 57.0071 23.1772 56.4558C23.1772 55.8972 23.2664 55.3794 23.4449 54.9026C23.6234 54.4258 23.8692 54.0123 24.1824 53.6622C24.4954 53.3121 24.8658 53.0364 25.2935 52.8352C25.721 52.6341 26.184 52.5336 26.6823 52.5336C27.1805 52.5336 27.6436 52.6341 28.0712 52.8352C28.4987 53.0364 28.8691 53.3121 29.1823 53.6622C29.4955 54.0123 29.7412 54.4258 29.9197 54.9026C30.0981 55.3794 30.1873 55.8972 30.1873 56.4558C30.1873 57.0071 30.0981 57.5231 29.9197 58.0036C29.7412 58.484 29.4955 58.8994 29.1823 59.2495C28.8691 59.5996 28.4987 59.8753 28.0712 60.0764C27.6436 60.2776 27.1805 60.3781 26.6823 60.3781ZM26.6823 58.7914C26.9786 58.7914 27.2446 58.728 27.4803 58.6015C27.716 58.4748 27.9163 58.3035 28.0813 58.0874C28.2462 57.8714 28.3724 57.6217 28.46 57.3387C28.5476 57.0556 28.5914 56.754 28.5914 56.4335C28.5914 56.1132 28.5476 55.8115 28.46 55.5283C28.3724 55.2452 28.2462 54.9975 28.0813 54.7853C27.9163 54.573 27.716 54.4053 27.4803 54.2823C27.2446 54.1595 26.9786 54.098 26.6823 54.098C26.3861 54.098 26.1184 54.1595 25.8792 54.2823C25.6402 54.4053 25.4382 54.573 25.2731 54.7853C25.1082 54.9975 24.982 55.2452 24.8944 55.5283C24.8069 55.8115 24.7631 56.1132 24.7631 56.4335C24.7631 56.754 24.8069 57.0556 24.8944 57.3387C24.982 57.6217 25.1082 57.8714 25.2731 58.0874C25.4382 58.3035 25.6402 58.4748 25.8792 58.6015C26.1184 58.728 26.3861 58.7914 26.6823 58.7914ZM30.4887 52.7346H31.9432L34.8623 57.5734V52.7346H36.3673V60.1882H34.9835L31.9936 55.2602V60.1882H30.4887V52.7346V52.7346ZM38.6686 54.2209H36.4868V52.7346H42.3756V54.2209H40.2039V60.1882H38.6686V54.2209V54.2209ZM42.4951 52.7346H47.101V54.2097H44.0202V55.6625H46.4141V57.0928H44.0202V58.702H47.3233V60.1882H42.4951V52.7346V52.7346ZM48.1296 57.9645C48.2172 58.0688 48.3198 58.1749 48.4376 58.283C48.5554 58.3909 48.6868 58.4897 48.8316 58.5791C48.9764 58.6684 49.1346 58.7411 49.3063 58.797C49.478 58.8528 49.6616 58.8808 49.8569 58.8808C49.9713 58.8808 50.0858 58.8621 50.2002 58.825C50.3148 58.7877 50.4192 58.7336 50.5134 58.6629C50.6077 58.5921 50.6835 58.5065 50.7406 58.4059C50.798 58.3053 50.8266 58.1917 50.8266 58.0651C50.8266 57.7895 50.7053 57.5753 50.4628 57.4225C50.2205 57.2698 49.8366 57.1189 49.3114 56.9699C49.0555 56.9028 48.8181 56.806 48.5992 56.6793C48.3804 56.5527 48.1919 56.4 48.0337 56.2213C47.8754 56.0424 47.7525 55.8375 47.665 55.6067C47.5774 55.3757 47.5336 55.1186 47.5336 54.8355C47.5336 54.5227 47.5842 54.2284 47.6851 53.9528C47.7862 53.6771 47.9394 53.4331 48.1448 53.2209C48.3502 53.0085 48.606 52.8409 48.9124 52.718C49.2188 52.5951 49.5808 52.5336 49.9983 52.5336C50.3417 52.5336 50.6448 52.5726 50.9074 52.6509C51.17 52.7291 51.3938 52.8223 51.5791 52.9302C51.7643 53.0383 51.9158 53.15 52.0336 53.2655C52.1514 53.3809 52.2407 53.4722 52.3013 53.5393L51.4225 54.6121C51.3484 54.545 51.2626 54.4724 51.1649 54.3941C51.0673 54.316 50.9579 54.2434 50.8367 54.1762C50.7154 54.1091 50.5825 54.0534 50.4377 54.0087C50.2929 53.9638 50.1397 53.9416 49.9781 53.9416C49.8703 53.9416 49.7642 53.9603 49.66 53.9975C49.5555 54.0347 49.4613 54.0849 49.377 54.1483C49.2929 54.2116 49.2255 54.2861 49.1751 54.3718C49.1245 54.4575 49.0993 54.5487 49.0993 54.6456C49.0993 54.8988 49.2205 55.1037 49.463 55.2602C49.7054 55.4166 50.0387 55.547 50.4628 55.6513C50.7121 55.7184 50.9561 55.8096 51.1952 55.9252C51.4343 56.0405 51.6482 56.1914 51.8367 56.3776C52.0252 56.5639 52.1767 56.7929 52.2912 57.0648C52.4056 57.3368 52.463 57.6665 52.463 58.0538C52.463 58.3891 52.3955 58.6982 52.2608 58.9813C52.1262 59.2645 51.9427 59.5103 51.7105 59.7189C51.4781 59.9275 51.2053 60.0895 50.8922 60.2049C50.579 60.3205 50.2408 60.3781 49.8771 60.3781C49.5403 60.3781 49.2339 60.3428 48.9579 60.2721C48.6818 60.2012 48.4327 60.1081 48.2104 59.9927C47.9882 59.8771 47.7878 59.745 47.6095 59.596C47.431 59.4469 47.2778 59.2943 47.1499 59.1377L48.1296 57.9645V57.9645ZM54.2894 54.2209H52.1076V52.7346H57.9963V54.2209H55.8247V60.1882H54.2894V54.2209V54.2209Z" fill="#FEFEFE"/>
<path d="M29.0848 68.0692H29.8087L30.8663 71.2677H30.1511L29.9301 70.5341H28.9114L28.6904 71.2677H28.0055L29.0848 68.0692ZM29.774 69.9729L29.423 68.7645L29.0632 69.9729H29.774ZM31.927 68.0692H33.8689V68.707H32.5815V69.4311H33.5611V70.0497H32.5815V71.2677H31.927V68.0692V68.0692ZM35.0076 68.0692H36.0826C36.2501 68.0692 36.3976 68.0957 36.5247 68.1483C36.6519 68.2011 36.758 68.273 36.8432 68.3641C36.9285 68.4552 36.9921 68.5615 37.034 68.683C37.0759 68.8044 37.0969 68.9341 37.0969 69.0714C37.0969 69.2793 37.0557 69.4606 36.9733 69.6157C36.8909 69.7708 36.7746 69.8947 36.6244 69.9874L37.2659 71.2677H36.5463L36.0089 70.0929H35.6447V71.2677H35.0076V68.0692ZM36.0479 69.5126C36.1692 69.5126 36.2646 69.4727 36.3339 69.3928C36.4033 69.3128 36.438 69.2121 36.438 69.0906C36.438 68.9595 36.4033 68.8556 36.3339 68.779C36.2646 68.7021 36.1692 68.6638 36.0479 68.6638H35.6447V69.5126H36.0479V69.5126ZM38.383 68.0692H39.0375V71.2677H38.383V68.0692ZM42.9545 70.6779C42.8939 70.7707 42.8201 70.8577 42.7335 70.9393C42.6468 71.0208 42.5507 71.0919 42.4453 71.1526C42.3398 71.2133 42.2257 71.2614 42.1028 71.2965C41.9799 71.3317 41.8521 71.3492 41.7192 71.3492C41.4996 71.3492 41.2988 71.3077 41.1167 71.2245C40.9347 71.1415 40.7779 71.0257 40.6464 70.8769C40.5149 70.7283 40.413 70.5525 40.3408 70.3495C40.2686 70.1464 40.2324 69.9234 40.2324 69.6805C40.2324 69.444 40.2686 69.2226 40.3408 69.0163C40.413 68.8101 40.5149 68.6311 40.6464 68.4792C40.7779 68.3274 40.9353 68.2076 41.1189 68.1195C41.3023 68.0317 41.5053 67.9877 41.7278 67.9877C41.9965 67.9877 42.2314 68.042 42.4322 68.1508C42.6331 68.2595 42.8 68.4161 42.9329 68.6206L42.4864 69.0955C42.3998 68.9612 42.2971 68.8533 42.1787 68.7718C42.0602 68.6903 41.9186 68.6496 41.7539 68.6496C41.6239 68.6496 41.5068 68.6759 41.4028 68.7286C41.2988 68.7814 41.2106 68.8542 41.1383 68.9468C41.0661 69.0394 41.0105 69.1474 40.9715 69.2705C40.9325 69.3936 40.9129 69.5238 40.9129 69.6613C40.9129 69.8019 40.9325 69.933 40.9715 70.0544C41.0105 70.1761 41.0661 70.2815 41.1383 70.371C41.2106 70.4606 41.2973 70.5309 41.3985 70.5821C41.4996 70.6332 41.6138 70.6587 41.7409 70.6587C41.845 70.6587 41.9352 70.6468 42.0118 70.6228C42.0883 70.5987 42.1562 70.5668 42.2156 70.5268C42.2747 70.4868 42.3276 70.4406 42.3737 70.3878C42.42 70.335 42.4648 70.2815 42.5081 70.2271L42.9545 70.6779V70.6779ZM44.8908 68.0692H45.6147L46.6724 71.2677H45.9571L45.7361 70.5341H44.7174L44.4964 71.2677H43.8115L44.8908 68.0692V68.0692ZM45.58 69.9729L45.2289 68.7645L44.8692 69.9729H45.58Z" fill="#ED3237"/>
<path d="M20.6045 34.3984C20.5283 34.5276 20.423 34.6596 20.2885 34.7945C20.154 34.9292 19.9953 35.0542 19.8126 35.1694C19.6299 35.2845 19.4293 35.3786 19.2112 35.4516C18.9928 35.5246 18.7618 35.5611 18.5183 35.5611C18.1376 35.5611 17.7898 35.4882 17.4751 35.3421C17.1604 35.1961 16.8889 34.9924 16.6604 34.7313C16.432 34.47 16.2543 34.1625 16.1274 33.8086C16.0005 33.4548 15.9371 33.0671 15.9371 32.6459C15.9371 32.2359 16.0005 31.8511 16.1274 31.4917C16.2543 31.1321 16.4333 30.8176 16.6642 30.548C16.8952 30.2784 17.1705 30.0649 17.4904 29.9076C17.8101 29.7503 18.1629 29.6717 18.5487 29.6717C18.7974 29.6717 19.0258 29.7013 19.234 29.7602C19.442 29.8192 19.6311 29.8992 19.8012 30.0003C19.9712 30.1015 20.1222 30.2207 20.2542 30.3584C20.3862 30.496 20.5029 30.6434 20.6045 30.8007L19.9268 31.4663C19.7644 31.208 19.5753 31.0001 19.3596 30.8428C19.1438 30.6856 18.8735 30.6069 18.5487 30.6069C18.2999 30.6069 18.0766 30.6617 17.8786 30.7713C17.6807 30.8807 17.5119 31.0268 17.3723 31.2094C17.2327 31.392 17.1261 31.6053 17.0526 31.8497C16.9789 32.094 16.9421 32.3511 16.9421 32.6206C16.9421 32.8903 16.9789 33.143 17.0526 33.379C17.1261 33.6149 17.2315 33.8199 17.3685 33.994C17.5055 34.1682 17.6692 34.3057 17.8597 34.4069C18.05 34.508 18.2644 34.5586 18.503 34.5586C18.7213 34.5586 18.9078 34.5305 19.0626 34.4743C19.2175 34.4181 19.3495 34.3478 19.4585 34.2636C19.5677 34.1794 19.6591 34.0909 19.7326 33.9982C19.8063 33.9055 19.8735 33.8255 19.9345 33.7581L20.6045 34.3984V34.3984ZM21.0537 31.4748H21.9141L21.937 31.9719C21.9775 31.9157 22.0296 31.854 22.093 31.7865C22.1565 31.719 22.2313 31.6574 22.3176 31.6011C22.4039 31.545 22.5042 31.4972 22.6184 31.4579C22.7326 31.4186 22.8633 31.399 23.0105 31.399C23.0968 31.399 23.1742 31.4046 23.2428 31.4157C23.3113 31.427 23.3811 31.4467 23.4521 31.4748L23.2694 32.41C23.2084 32.3819 23.1462 32.3623 23.0828 32.3511C23.0194 32.3398 22.9445 32.3342 22.8582 32.3342C22.7364 32.3342 22.6196 32.3567 22.5079 32.4015C22.3963 32.4465 22.2999 32.5111 22.2186 32.5953C22.1375 32.6796 22.0727 32.7807 22.0246 32.8986C21.9763 33.0167 21.9521 33.1486 21.9521 33.2947V35.4263H21.0537V31.4748V31.4748ZM23.9471 31.4748H24.8455V33.8676C24.8455 34.1204 24.9077 34.3155 25.032 34.4532C25.1564 34.5908 25.3176 34.6596 25.5156 34.6596C25.6374 34.6596 25.7516 34.6329 25.8581 34.5796C25.9648 34.5262 26.0562 34.4518 26.1323 34.3563C26.2084 34.2608 26.2681 34.1498 26.3112 34.0234C26.3544 33.8971 26.3759 33.7609 26.3759 33.6149V31.4748H27.2744V35.4263H26.4139L26.3911 34.9798C26.3454 35.0359 26.2896 35.0949 26.2236 35.1567C26.1577 35.2185 26.0815 35.2761 25.9952 35.3294C25.9089 35.3828 25.8099 35.4263 25.6982 35.4601C25.5866 35.4938 25.4596 35.5106 25.3176 35.5106C24.8709 35.5106 24.5308 35.3632 24.2973 35.0682C24.0638 34.7734 23.9471 34.3759 23.9471 33.8761V31.4748V31.4748ZM29.1094 33.4295L27.815 31.4748H28.9494L29.6652 32.6206L30.3885 31.4748H31.4011L30.1448 33.3284L31.5382 35.4263H30.4038L29.5891 34.1372L28.7667 35.4263H27.7541L29.1094 33.4295V33.4295Z" fill="#FEFEFE"/>
<path d="M32.0179 29.8065H32.9163V35.4263H32.0179V29.8065ZM37.1573 34.8534C37.142 34.8702 37.1002 34.9166 37.0316 34.9924C36.9631 35.0682 36.8641 35.1482 36.7348 35.2325C36.6053 35.3167 36.4403 35.3926 36.2397 35.4601C36.0393 35.5274 35.7995 35.5611 35.5203 35.5611C35.236 35.5611 34.9771 35.5078 34.7436 35.4011C34.5102 35.2943 34.311 35.1469 34.1459 34.9587C33.981 34.7705 33.8541 34.5445 33.7653 34.2805C33.6764 34.0165 33.632 33.7244 33.632 33.4042C33.632 33.1121 33.6764 32.8411 33.7653 32.5911C33.8541 32.3411 33.9784 32.1236 34.1384 31.9382C34.2983 31.7528 34.4886 31.6067 34.7094 31.5001C34.9302 31.3934 35.1751 31.3399 35.4441 31.3399C35.769 31.3399 36.0444 31.406 36.2703 31.5379C36.4962 31.6699 36.6776 31.8426 36.8147 32.0561C36.9517 32.2696 37.0507 32.5111 37.1117 32.7807C37.1725 33.0503 37.203 33.3255 37.203 33.6064V33.7496H34.5381C34.5381 33.8957 34.5673 34.0277 34.6257 34.1457C34.684 34.2636 34.7601 34.3647 34.8541 34.449C34.9479 34.5332 35.0546 34.5978 35.1739 34.6428C35.2932 34.6877 35.4111 34.7101 35.5279 34.7101C35.7004 34.7101 35.8515 34.6919 35.9809 34.6555C36.1104 34.6188 36.2208 34.5767 36.3121 34.529C36.4034 34.4813 36.4783 34.4307 36.5368 34.3774C36.5951 34.324 36.6396 34.2805 36.67 34.2467L37.1573 34.8534V34.8534ZM36.2817 33.0334C36.2817 32.9324 36.2639 32.8313 36.2284 32.7301C36.1929 32.6291 36.1408 32.5378 36.0723 32.4563C36.0037 32.3749 35.9162 32.3075 35.8096 32.2541C35.703 32.2007 35.5812 32.174 35.4441 32.174C35.2969 32.174 35.1662 32.2007 35.052 32.2541C34.9378 32.3075 34.8426 32.3749 34.7665 32.4563C34.6904 32.5378 34.632 32.6291 34.5914 32.7301C34.5508 32.8313 34.5305 32.9324 34.5305 33.0334H36.2817V33.0334ZM40.0049 35.0556C39.9085 35.1848 39.7613 35.2999 39.5633 35.4011C39.3654 35.5022 39.1446 35.5527 38.9009 35.5527C38.7537 35.5527 38.6078 35.5274 38.4631 35.4769C38.3185 35.4263 38.1864 35.3491 38.0672 35.2451C37.9478 35.1413 37.8515 35.0078 37.7778 34.8449C37.7043 34.6821 37.6675 34.4911 37.6675 34.272C37.6675 34.0474 37.7055 33.8465 37.7817 33.6697C37.8578 33.4926 37.9644 33.3438 38.1014 33.223C38.2385 33.1023 38.4035 33.0109 38.5964 32.9492C38.7892 32.8874 39.0024 32.8565 39.2359 32.8565C39.307 32.8565 39.3857 32.8579 39.472 32.8607C39.5583 32.8636 39.642 32.8678 39.7232 32.8734C39.8146 32.879 39.9085 32.8846 40.0049 32.8903V32.7976C40.0049 32.601 39.9338 32.4465 39.7917 32.3342C39.6496 32.2218 39.4643 32.1657 39.2359 32.1657C38.9822 32.1657 38.779 32.2022 38.6268 32.2752C38.4745 32.3482 38.34 32.4268 38.2233 32.5111L37.8121 31.8371C37.8832 31.7809 37.9644 31.7234 38.0557 31.6643C38.1471 31.6053 38.2537 31.5519 38.3755 31.5043C38.4973 31.4565 38.6382 31.4172 38.7981 31.3863C38.958 31.3554 39.1446 31.3399 39.3577 31.3399C39.5862 31.3399 39.7929 31.3751 39.9783 31.4453C40.1636 31.5155 40.3222 31.6138 40.4541 31.7401C40.5861 31.8665 40.6877 32.0182 40.7587 32.1951C40.8298 32.3721 40.8653 32.5644 40.8653 32.7723V35.4263H40.0278L40.0049 35.0556V35.0556ZM40.0049 33.6401C39.9136 33.6345 39.8247 33.6289 39.7385 33.6232C39.6674 33.6176 39.5925 33.6134 39.5138 33.6107C39.4352 33.6078 39.3678 33.6064 39.312 33.6064C39.0227 33.6064 38.8197 33.6697 38.7029 33.796C38.5862 33.9224 38.5278 34.067 38.5278 34.2299C38.5278 34.3984 38.5824 34.5305 38.6916 34.6259C38.8006 34.7213 38.9618 34.7692 39.175 34.7692C39.2816 34.7692 39.3844 34.7495 39.4834 34.7101C39.5824 34.6709 39.6699 34.6175 39.7461 34.5501C39.8222 34.4826 39.8844 34.404 39.9326 34.3142C39.9808 34.2243 40.0049 34.1288 40.0049 34.0277V33.6401V33.6401ZM41.7333 31.4747H42.5936L42.6165 31.9719C42.6572 31.9157 42.7092 31.8539 42.7726 31.7865C42.8361 31.719 42.9109 31.6574 42.9973 31.6011C43.0835 31.545 43.1838 31.4972 43.298 31.4579C43.4123 31.4186 43.5429 31.399 43.6901 31.399C43.7764 31.399 43.8539 31.4045 43.9223 31.4157C43.9908 31.427 44.0607 31.4467 44.1317 31.4747L43.949 32.41C43.8881 32.3819 43.8259 32.3622 43.7625 32.3511C43.699 32.3398 43.6241 32.3342 43.5378 32.3342C43.416 32.3342 43.2993 32.3566 43.1876 32.4015C43.076 32.4465 42.9794 32.5111 42.8982 32.5953C42.8171 32.6796 42.7523 32.7807 42.7041 32.8986C42.6558 33.0166 42.6317 33.1486 42.6317 33.2947V35.4263H41.7333V31.4747V31.4747ZM44.6418 31.4747H45.5022L45.5251 31.9213C45.5707 31.8651 45.6254 31.8061 45.6888 31.7444C45.7523 31.6826 45.8284 31.625 45.9172 31.5717C46.006 31.5183 46.1063 31.4747 46.218 31.4411C46.3296 31.4074 46.4565 31.3905 46.5986 31.3905C47.0454 31.3905 47.3855 31.5379 47.6189 31.8328C47.8524 32.1278 47.9691 32.5251 47.9691 33.025V35.4263H47.0708V33.0334C47.0708 32.7807 47.0086 32.5855 46.8842 32.448C46.7598 32.3103 46.5986 32.2415 46.4007 32.2415C46.2789 32.2415 46.1647 32.2682 46.058 32.3215C45.9515 32.3749 45.8601 32.4493 45.7839 32.5449C45.7078 32.6403 45.6482 32.7513 45.6051 32.8776C45.562 33.004 45.5403 33.1403 45.5403 33.2863V35.4263H44.6418V31.4747V31.4747ZM48.8448 29.8065H49.8042V30.8513H48.8448V29.8065ZM48.8752 31.4747H49.7737V35.4263H48.8752V31.4747ZM50.695 31.4747H51.5553L51.5782 31.9213C51.6239 31.8651 51.6785 31.8061 51.7419 31.7444C51.8054 31.6826 51.8815 31.625 51.9703 31.5717C52.0591 31.5183 52.1594 31.4747 52.2711 31.4411C52.3827 31.4074 52.5096 31.3905 52.6518 31.3905C53.0985 31.3905 53.4386 31.5379 53.672 31.8328C53.9056 32.1278 54.0223 32.5251 54.0223 33.025V35.4263H53.1239V33.0334C53.1239 32.7807 53.0617 32.5855 52.9373 32.448C52.8129 32.3103 52.6518 32.2415 52.4539 32.2415C52.332 32.2415 52.2178 32.2682 52.1112 32.3215C52.0046 32.3749 51.9133 32.4493 51.8371 32.5449C51.7609 32.6403 51.7013 32.7513 51.6582 32.8776C51.6151 33.004 51.5934 33.1403 51.5934 33.2863V35.4263H50.695V31.4747V31.4747ZM55.4691 36.0667C55.6111 36.1734 55.7646 36.2507 55.9296 36.2984C56.0946 36.3461 56.2887 36.37 56.5121 36.37C56.7456 36.37 56.941 36.2913 57.0984 36.134C57.2558 35.9768 57.3344 35.7577 57.3344 35.4769V35.0472C57.2126 35.1595 57.0794 35.2508 56.9347 35.3211C56.79 35.3913 56.5984 35.4263 56.3599 35.4263C56.101 35.4263 55.8713 35.3786 55.6708 35.283C55.4703 35.1876 55.299 35.0542 55.1568 34.8828C55.0147 34.7116 54.9069 34.5094 54.8332 34.2763C54.7596 34.0432 54.7228 33.7861 54.7228 33.5053C54.7228 33.2132 54.7698 32.938 54.8637 32.6796C54.9576 32.4213 55.0921 32.1966 55.2673 32.0055C55.4423 31.8146 55.6542 31.6643 55.9029 31.5548C56.1517 31.4453 56.4309 31.3905 56.7405 31.3905C57.0502 31.3905 57.3357 31.4186 57.5971 31.4747C57.8585 31.5309 58.0705 31.5899 58.2328 31.6517V35.4938C58.2328 35.769 58.1897 36.0132 58.1035 36.2268C58.0171 36.4402 57.8978 36.6199 57.7455 36.766C57.5933 36.912 57.4131 37.023 57.205 37.0988C56.9969 37.1746 56.771 37.2126 56.5273 37.2126C56.3395 37.2126 56.1733 37.2027 56.0286 37.183C55.8839 37.1634 55.7545 37.1367 55.6403 37.103C55.5261 37.0693 55.422 37.0272 55.3282 36.9766C55.2342 36.9261 55.1467 36.8671 55.0654 36.7997L55.4691 36.0667V36.0667ZM57.3344 32.3342C57.2634 32.3061 57.1898 32.285 57.1136 32.2709C57.0375 32.2569 56.9182 32.2499 56.7557 32.2499C56.573 32.2499 56.4131 32.2836 56.276 32.3511C56.139 32.4184 56.0223 32.5082 55.9258 32.6206C55.8294 32.7329 55.7571 32.8636 55.7089 33.0124C55.6606 33.1613 55.6365 33.3171 55.6365 33.48C55.6365 33.7834 55.7051 34.0388 55.8421 34.2467C55.9791 34.4546 56.1999 34.5585 56.5045 34.5585C56.7786 34.5585 56.9854 34.4939 57.1251 34.3647C57.2646 34.2355 57.3344 34.0305 57.3344 33.7496V32.3342V32.3342Z" fill="#ED3237"/>
<path d="M32.0176 17.3066L33.1016 6.67188H44.0293V9.17676H35.4014L34.7568 14.9922C35.8018 14.377 36.9883 14.0693 38.3164 14.0693C40.2598 14.0693 41.8027 14.7139 42.9453 16.0029C44.0879 17.2822 44.6592 19.0156 44.6592 21.2031C44.6592 23.4004 44.0635 25.1338 42.8721 26.4033C41.6904 27.6631 40.0352 28.293 37.9062 28.293C36.0215 28.293 34.4834 27.7705 33.292 26.7256C32.1006 25.6807 31.4219 24.2354 31.2559 22.3896H33.8193C33.9854 23.6104 34.4199 24.5332 35.123 25.1582C35.8262 25.7734 36.7539 26.0811 37.9062 26.0811C39.166 26.0811 40.1523 25.6514 40.8652 24.792C41.5879 23.9326 41.9492 22.7461 41.9492 21.2324C41.9492 19.8066 41.5586 18.6641 40.7773 17.8047C40.0059 16.9355 38.9756 16.501 37.6865 16.501C36.5049 16.501 35.5771 16.7598 34.9033 17.2773L34.1855 17.8633L32.0176 17.3066Z" fill="#F3F4F4"/>
</svg>
