<svg width="73" height="73" viewBox="0 0 73 73" fill="none" xmlns="http://www.w3.org/2000/svg">
<path fill-rule="evenodd" clip-rule="evenodd" d="M18.0165 67.3038H53.5053L49.1792 71.8456C48.3223 72.7505 47.9356 72.9966 46.7965 73H24.7628C23.7384 73.0001 23.3225 72.8721 22.4862 71.9024L18.0165 67.3038Z" fill="#FFCC29"/>
<path fill-rule="evenodd" clip-rule="evenodd" d="M3.69811 38.5727H68.3366C70.3706 38.5727 72.0347 40.4137 72.0347 42.6639V63.5232C72.0347 65.7734 70.3706 67.6145 68.3366 67.6145H3.69811C1.66413 67.6145 0 65.7734 0 63.5232V42.6639C0 40.4137 1.66413 38.5727 3.69811 38.5727V38.5727Z" fill="#ED3237"/>
<path d="M4.16451 41.2472H68.0206C69.0716 41.2472 69.9315 42.1985 69.9315 43.3612V62.8257C69.9315 63.9884 69.0715 64.9398 68.0206 64.9398H4.16451C3.1135 64.9398 2.25359 63.9885 2.25359 62.8257V43.3612C2.25359 42.1985 3.1135 41.2472 4.16451 41.2472V41.2472Z" fill="#003F5D"/>
<path fill-rule="evenodd" clip-rule="evenodd" d="M35.1416 45.6254C38.7576 45.6254 41.689 48.8692 41.689 52.8707C41.689 56.8721 38.7576 60.1159 35.1416 60.1159C31.5256 60.1159 28.5942 56.8721 28.5942 52.8707C28.5942 48.8692 31.5256 45.6254 35.1416 45.6254V45.6254ZM35.1296 56.0142C35.6665 56.0142 36.1524 55.8554 36.5875 55.5379C37.0226 55.1896 37.4623 54.8413 37.9066 54.493C38.0456 54.493 38.1704 54.5595 38.2815 54.6928C38.3925 54.8259 38.4481 54.9694 38.4481 55.123C38.4481 55.6966 38.0315 56.2241 37.1984 56.7056C36.4857 57.1153 35.8284 57.3202 35.2267 57.3202C34.1159 57.3202 33.1648 56.9029 32.3733 56.0679C31.582 55.2331 31.1861 54.201 31.1861 52.9718C31.1861 51.7837 31.5795 50.7593 32.3664 49.8988C33.1532 49.0383 34.0882 48.6082 35.1712 48.6082C35.773 48.6082 36.4441 48.8231 37.1846 49.2535C38.0362 49.7553 38.462 50.3085 38.462 50.9128C38.462 51.0767 38.4019 51.2203 38.2815 51.3432C38.1612 51.466 38.027 51.5275 37.8789 51.5275C37.8048 51.5275 37.4946 51.2663 36.9486 50.7439C36.4023 50.2214 35.8238 49.9602 35.2129 49.9602C34.4076 49.9602 33.7387 50.2496 33.2064 50.8283C32.6742 51.4071 32.408 52.1369 32.408 53.0179C32.408 53.8374 32.6742 54.5416 33.2064 55.1307C33.7387 55.7196 34.3798 56.0142 35.1296 56.0142V56.0142ZM35.1296 50.4673C35.7312 50.4673 36.2775 50.7284 36.7681 51.2509C37.2586 51.7733 37.6244 52.0345 37.865 52.0345C38.1427 52.0345 38.3879 51.9219 38.6009 51.6965C38.8138 51.4711 38.9203 51.2049 38.9203 50.8975C38.9203 50.1395 38.4528 49.4634 37.5178 48.8693C36.7033 48.3571 35.921 48.101 35.1712 48.101C33.9494 48.101 32.9033 48.5774 32.0331 49.5301C31.163 50.4827 30.728 51.6299 30.728 52.9718C30.728 54.3343 31.1698 55.4841 32.054 56.4213C32.938 57.3586 33.9955 57.8273 35.2267 57.8273C35.9673 57.8273 36.7357 57.5815 37.5317 57.0896C38.4575 56.5161 38.9203 55.8554 38.9203 55.1075C38.9203 54.8106 38.8138 54.5442 38.6009 54.3085C38.3879 54.0731 38.1427 53.9553 37.865 53.9553C37.6614 53.9553 37.2888 54.2139 36.7472 54.7312C36.2056 55.2485 35.6665 55.5071 35.1296 55.5071C34.5279 55.5071 34.0002 55.2611 33.5467 54.7696C33.0931 54.2779 32.8662 53.694 32.8662 53.0179C32.8662 52.3111 33.0861 51.7093 33.5258 51.2125C33.9655 50.7157 34.5001 50.4673 35.1296 50.4673V50.4673ZM35.1296 54.9847C35.5184 54.9847 35.8979 54.8259 36.2682 54.5085C37.0921 53.8015 37.6244 53.4483 37.865 53.4483C38.2631 53.4483 38.6148 53.6121 38.9203 53.9399C39.2257 54.2677 39.3786 54.657 39.3786 55.1075C39.3786 55.9988 38.874 56.7824 37.865 57.4585C36.9762 58.0526 36.097 58.3497 35.2267 58.3497C33.8568 58.3497 32.6857 57.8323 31.7137 56.7979C30.7418 55.7632 30.2558 54.4879 30.2558 52.9718C30.2558 51.4763 30.7372 50.206 31.6999 49.1612C32.6625 48.1163 33.8197 47.594 35.1712 47.594C36.0599 47.594 36.9486 47.891 37.8372 48.4852C38.8647 49.1716 39.3786 49.9756 39.3786 50.8975C39.3786 51.3585 39.2304 51.7477 38.9341 52.0652C38.638 52.3828 38.2815 52.5417 37.865 52.5417C37.4854 52.5417 37.1383 52.3777 36.8235 52.0499C36.1478 51.3329 35.5831 50.9743 35.1296 50.9743C34.6204 50.9743 34.1923 51.1715 33.8452 51.566C33.498 51.9604 33.3245 52.4391 33.3245 53.0025C33.3245 53.5455 33.5004 54.0116 33.852 54.4008C34.2039 54.7901 34.6297 54.9847 35.1296 54.9847V54.9847Z" fill="#5DA3D8" fill-opacity="0.290196"/>
<path fill-rule="evenodd" clip-rule="evenodd" d="M42.7691 55.6652C42.641 55.6175 42.5127 55.5698 42.3846 55.522C41.1952 58.6823 39.3102 60.6901 36.4801 61.132C34.4185 61.4538 32.4993 61.094 30.7856 59.7644C28.1668 57.7324 26.3393 53.6944 28.2449 49.2045C28.8498 47.7793 29.5091 46.8646 30.6605 45.9291C32.7026 44.2698 35.0266 43.9726 37.5773 44.7892C37.5952 44.7472 37.613 44.7052 37.631 44.6631C38.448 44.9306 39.1776 45.3908 39.847 45.9829C39.8794 45.9236 39.9118 45.8641 39.9443 45.8047C39.2212 45.1825 38.4753 44.7341 37.7022 44.4911C37.7204 44.4424 37.7389 44.3938 37.7572 44.3454C35.3244 43.4514 32.4484 43.7451 30.2026 45.73C28.9391 46.8465 27.9372 48.4561 27.4437 50.1594C26.3805 53.8289 27.4967 58.0752 30.904 60.3682C32.4234 61.3907 33.703 61.7507 35.4808 61.7108C38.8999 61.6343 41.3985 59.5412 42.7691 55.6652V55.6652Z" fill="#5DA3D8" fill-opacity="0.290196"/>
<path fill-rule="evenodd" clip-rule="evenodd" d="M27.5442 44.6286C27.6695 44.7671 27.7947 44.9057 27.9198 45.0442C25.2628 48.4261 24.1768 52.1318 25.3546 56.0611C26.2128 58.9234 27.6555 61.2046 30.0615 62.6549C33.7381 64.8709 39.2182 64.8322 42.8675 59.7477C44.0258 58.1337 44.6115 56.7459 44.9332 54.7077C45.5036 51.0926 44.4665 47.904 42.1174 45.0691C42.1516 45.0216 42.1857 44.9739 42.2198 44.9263C41.461 44.0216 40.549 43.3425 39.5321 42.8185C39.5761 42.7419 39.6202 42.6652 39.6643 42.5885C40.7444 43.1648 41.6534 43.8718 42.3607 44.7336C42.4015 44.6817 42.4423 44.6296 42.4832 44.5776C44.8456 47.2143 46.2074 51.1172 45.4106 55.1861C44.9623 57.475 43.9222 59.7117 42.4044 61.3428C39.1345 64.8571 33.8157 65.8792 29.3527 62.883C23.4266 58.9043 22.7359 49.7064 27.5442 44.6286V44.6286Z" fill="#5DA3D8" fill-opacity="0.290196"/>
<path fill-rule="evenodd" clip-rule="evenodd" d="M42.397 57.9393L43.0859 58.4485C39.7836 64.2209 32.5183 65.0243 28.2043 60.208C26.4445 58.2428 25.6891 55.9638 25.588 53.2034C25.2724 44.5904 33.8407 39.3839 40.2238 43.8318L40.0489 44.1821C42.1669 45.5627 43.504 47.6955 44.0713 50.5699L43.8465 50.6038C43.3061 47.8845 42.0479 45.7678 39.899 44.3987L39.7488 44.6527C34.0683 40.6056 25.8134 45.2743 26.3781 53.53C27.3454 63.2384 38.1663 65.2715 42.397 57.9393V57.9393Z" fill="#5DA3D8" fill-opacity="0.290196"/>
<path fill-rule="evenodd" clip-rule="evenodd" d="M1.8845 65.6105C1.8845 65.2816 2.12547 65.0152 2.42264 65.0152C2.7198 65.0152 2.96078 65.2816 2.96078 65.6105C2.96078 65.9393 2.7198 66.2058 2.42264 66.2058C2.12547 66.2058 1.8845 65.9393 1.8845 65.6105ZM4.78002 65.7501C5.07719 65.7501 5.31817 66.0167 5.31817 66.3454C5.31817 66.6743 5.07719 66.9408 4.78002 66.9408C4.48276 66.9408 4.24188 66.6743 4.24188 66.3454C4.24188 66.0167 4.48276 65.7501 4.78002 65.7501ZM7.38182 65.7501C7.67908 65.7501 7.91996 66.0167 7.91996 66.3454C7.91996 66.6743 7.67908 66.9408 7.38182 66.9408C7.08465 66.9408 6.84368 66.6743 6.84368 66.3454C6.84368 66.0167 7.08465 65.7501 7.38182 65.7501ZM9.98371 65.7501C10.2809 65.7501 10.5219 66.0167 10.5219 66.3454C10.5219 66.6743 10.2809 66.9408 9.98371 66.9408C9.68645 66.9408 9.44557 66.6743 9.44557 66.3454C9.44557 66.0167 9.68645 65.7501 9.98371 65.7501ZM12.5855 65.7501C12.8827 65.7501 13.1236 66.0167 13.1236 66.3454C13.1236 66.6743 12.8827 66.9408 12.5855 66.9408C12.2883 66.9408 12.0474 66.6743 12.0474 66.3454C12.0474 66.0167 12.2883 65.7501 12.5855 65.7501ZM15.1874 65.7501C15.4846 65.7501 15.7254 66.0167 15.7254 66.3454C15.7254 66.6743 15.4846 66.9408 15.1874 66.9408C14.8901 66.9408 14.6493 66.6743 14.6493 66.3454C14.6493 66.0167 14.8901 65.7501 15.1874 65.7501ZM17.7892 65.7501C18.0864 65.7501 18.3273 66.0167 18.3273 66.3454C18.3273 66.6743 18.0864 66.9408 17.7892 66.9408C17.492 66.9408 17.251 66.6743 17.251 66.3454C17.251 66.0167 17.492 65.7501 17.7892 65.7501ZM20.3911 65.7501C20.6882 65.7501 20.9291 66.0167 20.9291 66.3454C20.9291 66.6743 20.6882 66.9408 20.3911 66.9408C20.0938 66.9408 19.8529 66.6743 19.8529 66.3454C19.8529 66.0167 20.0938 65.7501 20.3911 65.7501ZM22.9929 65.7501C23.29 65.7501 23.531 66.0167 23.531 66.3454C23.531 66.6743 23.29 66.9408 22.9929 66.9408C22.6957 66.9408 22.4547 66.6743 22.4547 66.3454C22.4547 66.0167 22.6957 65.7501 22.9929 65.7501ZM25.5947 65.7501C25.8919 65.7501 26.1328 66.0167 26.1328 66.3454C26.1328 66.6743 25.8919 66.9408 25.5947 66.9408C25.2975 66.9408 25.0566 66.6743 25.0566 66.3454C25.0566 66.0167 25.2975 65.7501 25.5947 65.7501ZM28.1966 65.7501C28.4937 65.7501 28.7347 66.0167 28.7347 66.3454C28.7347 66.6743 28.4937 66.9408 28.1966 66.9408C27.8994 66.9408 27.6584 66.6743 27.6584 66.3454C27.6584 66.0167 27.8994 65.7501 28.1966 65.7501ZM30.7984 65.7501C31.0956 65.7501 31.3365 66.0167 31.3365 66.3454C31.3365 66.6743 31.0956 66.9408 30.7984 66.9408C30.5012 66.9408 30.2602 66.6743 30.2602 66.3454C30.2602 66.0167 30.5012 65.7501 30.7984 65.7501ZM33.4002 65.7501C33.6974 65.7501 33.9384 66.0167 33.9384 66.3454C33.9384 66.6743 33.6974 66.9408 33.4002 66.9408C33.103 66.9408 32.8621 66.6743 32.8621 66.3454C32.8621 66.0167 33.103 65.7501 33.4002 65.7501ZM36.002 65.7501C36.2993 65.7501 36.5402 66.0167 36.5402 66.3454C36.5402 66.6743 36.2993 66.9408 36.002 66.9408C35.7049 66.9408 35.4639 66.6743 35.4639 66.3454C35.4639 66.0167 35.7049 65.7501 36.002 65.7501ZM38.6039 65.7501C38.9011 65.7501 39.1421 66.0167 39.1421 66.3454C39.1421 66.6743 38.9011 66.9408 38.6039 66.9408C38.3067 66.9408 38.0658 66.6743 38.0658 66.3454C38.0658 66.0167 38.3067 65.7501 38.6039 65.7501ZM41.2057 65.7501C41.503 65.7501 41.7439 66.0167 41.7439 66.3454C41.7439 66.6743 41.503 66.9408 41.2057 66.9408C40.9086 66.9408 40.6676 66.6743 40.6676 66.3454C40.6676 66.0167 40.9086 65.7501 41.2057 65.7501ZM43.8076 65.7501C44.1048 65.7501 44.3458 66.0167 44.3458 66.3454C44.3458 66.6743 44.1048 66.9408 43.8076 66.9408C43.5104 66.9408 43.2695 66.6743 43.2695 66.3454C43.2695 66.0167 43.5104 65.7501 43.8076 65.7501ZM46.4094 65.7501C46.7066 65.7501 46.9476 66.0167 46.9476 66.3454C46.9476 66.6743 46.7066 66.9408 46.4094 66.9408C46.1122 66.9408 45.8713 66.6743 45.8713 66.3454C45.8713 66.0167 46.1122 65.7501 46.4094 65.7501ZM49.0113 65.7501C49.3085 65.7501 49.5493 66.0167 49.5493 66.3454C49.5493 66.6743 49.3085 66.9408 49.0113 66.9408C48.714 66.9408 48.4732 66.6743 48.4732 66.3454C48.4732 66.0167 48.714 65.7501 49.0113 65.7501ZM51.6131 65.7501C51.9103 65.7501 52.1512 66.0167 52.1512 66.3454C52.1512 66.6743 51.9103 66.9408 51.6131 66.9408C51.3159 66.9408 51.075 66.6743 51.075 66.3454C51.075 66.0167 51.3159 65.7501 51.6131 65.7501ZM54.2149 65.7501C54.5122 65.7501 54.753 66.0167 54.753 66.3454C54.753 66.6743 54.5122 66.9408 54.2149 66.9408C53.9177 66.9408 53.6768 66.6743 53.6768 66.3454C53.6768 66.0167 53.9177 65.7501 54.2149 65.7501ZM56.8168 65.7501C57.1139 65.7501 57.3549 66.0167 57.3549 66.3454C57.3549 66.6743 57.1139 66.9408 56.8168 66.9408C56.5196 66.9408 56.2786 66.6743 56.2786 66.3454C56.2786 66.0167 56.5196 65.7501 56.8168 65.7501ZM59.4186 65.7501C59.7158 65.7501 59.9567 66.0167 59.9567 66.3454C59.9567 66.6743 59.7158 66.9408 59.4186 66.9408C59.1214 66.9408 58.8804 66.6743 58.8804 66.3454C58.8804 66.0167 59.1214 65.7501 59.4186 65.7501ZM62.0205 65.7501C62.3176 65.7501 62.5586 66.0167 62.5586 66.3454C62.5586 66.6743 62.3176 66.9408 62.0205 66.9408C61.7232 66.9408 61.4823 66.6743 61.4823 66.3454C61.4823 66.0167 61.7232 65.7501 62.0205 65.7501ZM64.6223 65.7501C64.9195 65.7501 65.1604 66.0167 65.1604 66.3454C65.1604 66.6743 64.9195 66.9408 64.6223 66.9408C64.3251 66.9408 64.0841 66.6743 64.0841 66.3454C64.0841 66.0167 64.3251 65.7501 64.6223 65.7501ZM67.2243 65.7501C67.5215 65.7501 67.7625 66.0167 67.7625 66.3454C67.7625 66.6743 67.5215 66.9408 67.2243 66.9408C66.9271 66.9408 66.6863 66.6743 66.6863 66.3454C66.6863 66.0167 66.9271 65.7501 67.2243 65.7501ZM69.313 65.6274C69.313 65.2985 69.554 65.032 69.8511 65.032C70.1483 65.032 70.3893 65.2985 70.3893 65.6274C70.3893 65.9561 70.1483 66.2227 69.8511 66.2227C69.554 66.2227 69.313 65.9561 69.313 65.6274ZM0.630585 63.0636C0.630585 62.7347 0.87156 62.4683 1.16873 62.4683C1.46599 62.4683 1.70687 62.7347 1.70687 63.0636C1.70687 63.3923 1.46599 63.6589 1.16873 63.6589C0.87156 63.6589 0.630585 63.3923 0.630585 63.0636ZM0.630585 60.2337C0.630585 59.9051 0.87156 59.6385 1.16873 59.6385C1.46599 59.6385 1.70687 59.9051 1.70687 60.2337C1.70687 60.5625 1.46599 60.8291 1.16873 60.8291C0.87156 60.8291 0.630585 60.5625 0.630585 60.2337ZM0.630585 57.4039C0.630585 57.0751 0.87156 56.8086 1.16873 56.8086C1.46599 56.8086 1.70687 57.0751 1.70687 57.4039C1.70687 57.7327 1.46599 57.9992 1.16873 57.9992C0.87156 57.9992 0.630585 57.7327 0.630585 57.4039ZM0.630585 54.5741C0.630585 54.2452 0.87156 53.9787 1.16873 53.9787C1.46599 53.9787 1.70687 54.2452 1.70687 54.5741C1.70687 54.9028 1.46599 55.1694 1.16873 55.1694C0.87156 55.1694 0.630585 54.9028 0.630585 54.5741ZM0.630585 51.7442C0.630585 51.4153 0.87156 51.1488 1.16873 51.1488C1.46599 51.1488 1.70687 51.4153 1.70687 51.7442C1.70687 52.0729 1.46599 52.3394 1.16873 52.3394C0.87156 52.3394 0.630585 52.0729 0.630585 51.7442ZM0.630585 48.9143C0.630585 48.5854 0.87156 48.319 1.16873 48.319C1.46599 48.319 1.70687 48.5854 1.70687 48.9143C1.70687 49.2431 1.46599 49.5095 1.16873 49.5095C0.87156 49.5095 0.630585 49.2431 0.630585 48.9143ZM0.630585 46.0843C0.630585 45.7556 0.87156 45.4892 1.16873 45.4892C1.46599 45.4892 1.70687 45.7556 1.70687 46.0843C1.70687 46.4132 1.46599 46.6797 1.16873 46.6797C0.87156 46.6797 0.630585 46.4132 0.630585 46.0843ZM70.5484 63.0636C70.5484 62.7347 70.7894 62.4683 71.0865 62.4683C71.3836 62.4683 71.6246 62.7347 71.6246 63.0636C71.6246 63.3923 71.3836 63.6589 71.0865 63.6589C70.7894 63.6589 70.5484 63.3923 70.5484 63.0636V63.0636ZM70.5484 60.2337C70.5484 59.9051 70.7894 59.6385 71.0865 59.6385C71.3836 59.6385 71.6246 59.9051 71.6246 60.2337C71.6246 60.5625 71.3836 60.8291 71.0865 60.8291C70.7894 60.8291 70.5484 60.5625 70.5484 60.2337V60.2337ZM70.5484 57.4039C70.5484 57.0751 70.7894 56.8086 71.0865 56.8086C71.3836 56.8086 71.6246 57.0751 71.6246 57.4039C71.6246 57.7327 71.3836 57.9992 71.0865 57.9992C70.7894 57.9992 70.5484 57.7327 70.5484 57.4039V57.4039ZM70.5484 54.5741C70.5484 54.2452 70.7894 53.9787 71.0865 53.9787C71.3836 53.9787 71.6246 54.2452 71.6246 54.5741C71.6246 54.9028 71.3836 55.1694 71.0865 55.1694C70.7894 55.1694 70.5484 54.9028 70.5484 54.5741V54.5741ZM70.5484 51.7442C70.5484 51.4153 70.7894 51.1488 71.0865 51.1488C71.3836 51.1488 71.6246 51.4153 71.6246 51.7442C71.6246 52.0729 71.3836 52.3394 71.0865 52.3394C70.7894 52.3394 70.5484 52.0729 70.5484 51.7442V51.7442ZM70.5484 48.9143C70.5484 48.5854 70.7894 48.319 71.0865 48.319C71.3836 48.319 71.6246 48.5854 71.6246 48.9143C71.6246 49.2431 71.3836 49.5095 71.0865 49.5095C70.7894 49.5095 70.5484 49.2431 70.5484 48.9143V48.9143ZM70.5484 46.0843C70.5484 45.7556 70.7894 45.4892 71.0865 45.4892C71.3836 45.4892 71.6246 45.7556 71.6246 46.0843C71.6246 46.4132 71.3836 46.6797 71.0865 46.6797C70.7894 46.6797 70.5484 46.4132 70.5484 46.0843V46.0843ZM4.78002 39.3798C5.07719 39.3798 5.31817 39.6464 5.31817 39.9751C5.31817 40.304 5.07719 40.5705 4.78002 40.5705C4.48276 40.5705 4.24188 40.304 4.24188 39.9751C4.24188 39.6464 4.48276 39.3798 4.78002 39.3798ZM7.38182 39.3798C7.67908 39.3798 7.91996 39.6464 7.91996 39.9751C7.91996 40.304 7.67908 40.5705 7.38182 40.5705C7.08465 40.5705 6.84368 40.304 6.84368 39.9751C6.84368 39.6464 7.08465 39.3798 7.38182 39.3798ZM9.98371 39.3798C10.2809 39.3798 10.5219 39.6464 10.5219 39.9751C10.5219 40.304 10.2809 40.5705 9.98371 40.5705C9.68645 40.5705 9.44557 40.304 9.44557 39.9751C9.44557 39.6464 9.68645 39.3798 9.98371 39.3798ZM12.5855 39.3798C12.8827 39.3798 13.1236 39.6464 13.1236 39.9751C13.1236 40.304 12.8827 40.5705 12.5855 40.5705C12.2883 40.5705 12.0474 40.304 12.0474 39.9751C12.0474 39.6464 12.2883 39.3798 12.5855 39.3798ZM15.1874 39.3798C15.4846 39.3798 15.7254 39.6464 15.7254 39.9751C15.7254 40.304 15.4846 40.5705 15.1874 40.5705C14.8901 40.5705 14.6493 40.304 14.6493 39.9751C14.6493 39.6464 14.8901 39.3798 15.1874 39.3798ZM17.7892 39.3798C18.0864 39.3798 18.3273 39.6464 18.3273 39.9751C18.3273 40.304 18.0864 40.5705 17.7892 40.5705C17.492 40.5705 17.251 40.304 17.251 39.9751C17.251 39.6464 17.492 39.3798 17.7892 39.3798ZM20.3911 39.3798C20.6882 39.3798 20.9291 39.6464 20.9291 39.9751C20.9291 40.304 20.6882 40.5705 20.3911 40.5705C20.0938 40.5705 19.8529 40.304 19.8529 39.9751C19.8529 39.6464 20.0938 39.3798 20.3911 39.3798ZM22.9929 39.3798C23.29 39.3798 23.531 39.6464 23.531 39.9751C23.531 40.304 23.29 40.5705 22.9929 40.5705C22.6957 40.5705 22.4547 40.304 22.4547 39.9751C22.4547 39.6464 22.6957 39.3798 22.9929 39.3798ZM25.5947 39.3798C25.8919 39.3798 26.1328 39.6464 26.1328 39.9751C26.1328 40.304 25.8919 40.5705 25.5947 40.5705C25.2975 40.5705 25.0566 40.304 25.0566 39.9751C25.0566 39.6464 25.2975 39.3798 25.5947 39.3798ZM28.1966 39.3798C28.4937 39.3798 28.7347 39.6464 28.7347 39.9751C28.7347 40.304 28.4937 40.5705 28.1966 40.5705C27.8994 40.5705 27.6584 40.304 27.6584 39.9751C27.6584 39.6464 27.8994 39.3798 28.1966 39.3798ZM30.7984 39.3798C31.0956 39.3798 31.3365 39.6464 31.3365 39.9751C31.3365 40.304 31.0956 40.5705 30.7984 40.5705C30.5012 40.5705 30.2602 40.304 30.2602 39.9751C30.2602 39.6464 30.5012 39.3798 30.7984 39.3798ZM33.4002 39.3798C33.6974 39.3798 33.9384 39.6464 33.9384 39.9751C33.9384 40.304 33.6974 40.5705 33.4002 40.5705C33.103 40.5705 32.8621 40.304 32.8621 39.9751C32.8621 39.6464 33.103 39.3798 33.4002 39.3798ZM36.002 39.3798C36.2993 39.3798 36.5402 39.6464 36.5402 39.9751C36.5402 40.304 36.2993 40.5705 36.002 40.5705C35.7049 40.5705 35.4639 40.304 35.4639 39.9751C35.4639 39.6464 35.7049 39.3798 36.002 39.3798ZM38.6039 39.3798C38.9011 39.3798 39.1421 39.6464 39.1421 39.9751C39.1421 40.304 38.9011 40.5705 38.6039 40.5705C38.3067 40.5705 38.0658 40.304 38.0658 39.9751C38.0658 39.6464 38.3067 39.3798 38.6039 39.3798ZM41.2057 39.3798C41.503 39.3798 41.7439 39.6464 41.7439 39.9751C41.7439 40.304 41.503 40.5705 41.2057 40.5705C40.9086 40.5705 40.6676 40.304 40.6676 39.9751C40.6676 39.6464 40.9086 39.3798 41.2057 39.3798ZM43.8076 39.3798C44.1048 39.3798 44.3458 39.6464 44.3458 39.9751C44.3458 40.304 44.1048 40.5705 43.8076 40.5705C43.5104 40.5705 43.2695 40.304 43.2695 39.9751C43.2695 39.6464 43.5104 39.3798 43.8076 39.3798ZM46.4094 39.3798C46.7066 39.3798 46.9476 39.6464 46.9476 39.9751C46.9476 40.304 46.7066 40.5705 46.4094 40.5705C46.1122 40.5705 45.8713 40.304 45.8713 39.9751C45.8713 39.6464 46.1122 39.3798 46.4094 39.3798ZM49.0113 39.3798C49.3085 39.3798 49.5493 39.6464 49.5493 39.9751C49.5493 40.304 49.3085 40.5705 49.0113 40.5705C48.714 40.5705 48.4732 40.304 48.4732 39.9751C48.4732 39.6464 48.714 39.3798 49.0113 39.3798ZM51.6131 39.3798C51.9103 39.3798 52.1512 39.6464 52.1512 39.9751C52.1512 40.304 51.9103 40.5705 51.6131 40.5705C51.3159 40.5705 51.075 40.304 51.075 39.9751C51.075 39.6464 51.3159 39.3798 51.6131 39.3798ZM54.2149 39.3798C54.5122 39.3798 54.753 39.6464 54.753 39.9751C54.753 40.304 54.5122 40.5705 54.2149 40.5705C53.9177 40.5705 53.6768 40.304 53.6768 39.9751C53.6768 39.6464 53.9177 39.3798 54.2149 39.3798ZM56.8168 39.3798C57.1139 39.3798 57.3549 39.6464 57.3549 39.9751C57.3549 40.304 57.1139 40.5705 56.8168 40.5705C56.5196 40.5705 56.2786 40.304 56.2786 39.9751C56.2786 39.6464 56.5196 39.3798 56.8168 39.3798ZM59.4186 39.3798C59.7158 39.3798 59.9567 39.6464 59.9567 39.9751C59.9567 40.304 59.7158 40.5705 59.4186 40.5705C59.1214 40.5705 58.8804 40.304 58.8804 39.9751C58.8804 39.6464 59.1214 39.3798 59.4186 39.3798ZM62.0205 39.3798C62.3176 39.3798 62.5586 39.6464 62.5586 39.9751C62.5586 40.304 62.3176 40.5705 62.0205 40.5705C61.7232 40.5705 61.4823 40.304 61.4823 39.9751C61.4823 39.6464 61.7232 39.3798 62.0205 39.3798ZM64.6223 39.3798C64.9195 39.3798 65.1604 39.6464 65.1604 39.9751C65.1604 40.304 64.9195 40.5705 64.6223 40.5705C64.3251 40.5705 64.0841 40.304 64.0841 39.9751C64.0841 39.6464 64.3251 39.3798 64.6223 39.3798ZM67.2243 39.3798C67.5215 39.3798 67.7625 39.6464 67.7625 39.9751C67.7625 40.304 67.5215 40.5705 67.2243 40.5705C66.9271 40.5705 66.6863 40.304 66.6863 39.9751C66.6863 39.6464 66.9271 39.3798 67.2243 39.3798ZM0.630585 43.2544C0.630585 42.9258 0.87156 42.6592 1.16873 42.6592C1.46599 42.6592 1.70687 42.9258 1.70687 43.2544C1.70687 43.5833 1.46599 43.8498 1.16873 43.8498C0.87156 43.8498 0.630585 43.5833 0.630585 43.2544ZM70.5484 43.2544C70.5484 42.9258 70.7894 42.6592 71.0865 42.6592C71.3836 42.6592 71.6246 42.9258 71.6246 43.2544C71.6246 43.5833 71.3836 43.8498 71.0865 43.8498C70.7894 43.8498 70.5484 43.5833 70.5484 43.2544ZM69.313 40.7725C69.313 40.4436 69.554 40.1772 69.8511 40.1772C70.1483 40.1772 70.3893 40.4436 70.3893 40.7725C70.3893 41.1012 70.1483 41.3678 69.8511 41.3678C69.554 41.3678 69.313 41.1012 69.313 40.7725ZM1.80351 40.7725C1.80351 40.4436 2.04448 40.1772 2.34165 40.1772C2.63891 40.1772 2.87979 40.4436 2.87979 40.7725C2.87979 41.1012 2.63891 41.3678 2.34165 41.3678C2.04448 41.3678 1.80351 41.1012 1.80351 40.7725V40.7725Z" fill="#FEFEFE"/>
<path d="M6.65174 44.9945H8.09616L9.85368 48.4922L11.5709 44.9945H13.0255L13.3386 52.4481H11.8133L11.6214 47.5759L10.2275 50.4814H9.43966L7.9648 47.6094L7.79308 52.4481H6.33855L6.65174 44.9945V44.9945ZM15.7207 44.9945H17.4075L19.8721 52.4481H18.2055L17.6904 50.7383H15.3166L14.8014 52.4481H13.2055L15.7207 44.9945V44.9945ZM17.3267 49.4309L16.5085 46.6148L15.6701 49.4309H17.3267ZM20.5067 46.4808H18.3249V44.9945H24.2137V46.4808H22.042V52.4481H20.5067V46.4808V46.4808ZM24.3331 44.9945H25.8584V47.8552H28.7775V44.9945H30.3028V52.4481H28.7775V49.3862H25.8584V52.4481H24.3331V44.9945V44.9945ZM30.8667 44.9945H35.4727V46.4696H32.3919V47.9224H34.7858V49.3526H32.3919V50.9617H35.695V52.4481H30.8667V44.9945V44.9945ZM36.178 44.9945H37.6224L39.38 48.4922L41.0972 44.9945H42.5517L42.8648 52.4481H41.3395L41.1476 47.5759L39.7537 50.4814H38.9659L37.4911 47.6094L37.3194 52.4481H35.8649L36.178 44.9945V44.9945ZM45.2469 44.9945H46.9337L49.3983 52.4481H47.7317L47.2166 50.7383H44.8428L44.3276 52.4481H42.7317L45.2469 44.9945V44.9945ZM46.8529 49.4309L46.0347 46.6148L45.1963 49.4309H46.8529V49.4309ZM50.0329 46.4808H47.8511V44.9945H53.7399V46.4808H51.5683V52.4481H50.0329V46.4808V46.4808ZM53.8593 44.9945H55.3846V52.4481H53.8593V44.9945V44.9945ZM62.0293 51.0735C61.8879 51.2895 61.7162 51.4926 61.5142 51.6826C61.312 51.8725 61.0881 52.0384 60.8424 52.1798C60.5966 52.3214 60.3307 52.4331 60.0444 52.5151C59.7582 52.597 59.4603 52.638 59.1505 52.638C58.6387 52.638 58.1707 52.5412 57.7465 52.3475C57.3223 52.1538 56.9569 51.8836 56.6505 51.5374C56.3441 51.1909 56.1067 50.7812 55.9384 50.3082C55.7701 49.835 55.6858 49.3154 55.6858 48.7493C55.6858 48.198 55.7701 47.682 55.9384 47.2015C56.1067 46.721 56.3441 46.3038 56.6505 45.95C56.9569 45.5961 57.3239 45.3167 57.7515 45.1118C58.1791 44.907 58.6521 44.8045 59.1706 44.8045C59.7969 44.8045 60.344 44.9313 60.8122 45.1845C61.2802 45.4378 61.669 45.8028 61.9788 46.2795L60.9384 47.3859C60.7363 47.0731 60.4972 46.8215 60.2212 46.6316C59.9451 46.4416 59.6151 46.3467 59.2313 46.3467C58.9282 46.3467 58.6555 46.4081 58.4131 46.531C58.1707 46.654 57.9654 46.8235 57.7969 47.0395C57.6286 47.2556 57.499 47.507 57.4081 47.7938C57.3171 48.0806 57.2717 48.3842 57.2717 48.7045C57.2717 49.0323 57.3171 49.3378 57.4081 49.6209C57.499 49.9039 57.6286 50.1498 57.7969 50.3584C57.9654 50.567 58.1673 50.7308 58.403 50.8501C58.6387 50.9692 58.9048 51.0289 59.2011 51.0289C59.4434 51.0289 59.6539 51.0009 59.8322 50.945C60.0107 50.8891 60.1691 50.8147 60.307 50.7216C60.4451 50.6284 60.568 50.5203 60.6757 50.3975C60.7835 50.2745 60.8878 50.1498 60.9888 50.0231L62.0293 51.0735V51.0735ZM62.5123 50.2242C62.5999 50.3286 62.7026 50.4347 62.8204 50.5428C62.9382 50.6507 63.0696 50.7495 63.2144 50.8388C63.3592 50.9282 63.5174 51.0009 63.6891 51.0568C63.8608 51.1127 64.0443 51.1407 64.2396 51.1407C64.3541 51.1407 64.4686 51.122 64.583 51.0847C64.6975 51.0475 64.8018 50.9935 64.8962 50.9228C64.9904 50.8519 65.0662 50.7662 65.1234 50.6657C65.1806 50.5651 65.2093 50.4515 65.2093 50.3248C65.2093 50.0492 65.0881 49.835 64.8456 49.6824C64.6032 49.5296 64.2194 49.3788 63.6941 49.2297C63.4383 49.1627 63.2008 49.0657 62.982 48.9392C62.7631 48.8126 62.5746 48.6598 62.4164 48.481C62.2581 48.3023 62.1352 48.0974 62.0478 47.8664C61.9602 47.6355 61.9164 47.3785 61.9164 47.0954C61.9164 46.7826 61.967 46.4882 62.0679 46.2126C62.1689 45.937 62.3221 45.6929 62.5275 45.4806C62.7328 45.2683 62.9888 45.1007 63.2952 44.9777C63.6016 44.8548 63.9635 44.7934 64.381 44.7934C64.7244 44.7934 65.0274 44.8324 65.2901 44.9108C65.5528 44.9889 65.7766 45.0821 65.9618 45.1901C66.1469 45.2982 66.2985 45.4099 66.4163 45.5254C66.5341 45.6408 66.6234 45.7321 66.684 45.7991L65.8053 46.8719C65.7312 46.8048 65.6453 46.7322 65.5476 46.654C65.45 46.5758 65.3406 46.5031 65.2195 46.4361C65.0981 46.369 64.9652 46.3132 64.8204 46.2685C64.6756 46.2237 64.5225 46.2014 64.3609 46.2014C64.2531 46.2014 64.147 46.2201 64.0426 46.2573C63.9383 46.2945 63.8439 46.3448 63.7598 46.4081C63.6756 46.4715 63.6083 46.5459 63.5578 46.6316C63.5072 46.7173 63.482 46.8085 63.482 46.9054C63.482 47.1587 63.6032 47.3635 63.8457 47.52C64.088 47.6765 64.4214 47.8069 64.8456 47.9112C65.0949 47.9781 65.3389 48.0694 65.578 48.1849C65.817 48.3004 66.0308 48.4511 66.2193 48.6375C66.4079 48.8238 66.5594 49.0528 66.674 49.3247C66.7884 49.5966 66.8457 49.9262 66.8457 50.3136C66.8457 50.6489 66.7783 50.958 66.6436 51.2411C66.5089 51.5243 66.3254 51.77 66.0931 51.9787C65.8608 52.1873 65.5881 52.3494 65.275 52.4648C64.9618 52.5803 64.6235 52.638 64.2598 52.638C63.9231 52.638 63.6167 52.6026 63.3407 52.5319C63.0645 52.4611 62.8154 52.368 62.5931 52.2525C62.3709 52.137 62.1705 52.0047 61.9921 51.8559C61.8137 51.7068 61.6605 51.554 61.5326 51.3976L62.5123 50.2242V50.2242ZM22.6077 59.8138C22.4663 60.0297 22.2945 60.2328 22.0925 60.4228C21.8905 60.6128 21.6666 60.7785 21.4208 60.9201C21.1751 61.0615 20.909 61.1732 20.6228 61.2553C20.3366 61.3372 20.0387 61.3781 19.7289 61.3781C19.2171 61.3781 18.7491 61.2813 18.3249 61.0876C17.9006 60.8939 17.5353 60.6239 17.2289 60.2775C16.9225 59.931 16.6851 59.5213 16.5168 59.0483C16.3484 58.5752 16.2643 58.0555 16.2643 57.4894C16.2643 56.9381 16.3484 56.4222 16.5168 55.9417C16.6851 55.4612 16.9225 55.044 17.2289 54.6902C17.5353 54.3362 17.9022 54.0569 18.3299 53.852C18.7575 53.6472 19.2305 53.5447 19.7491 53.5447C20.3753 53.5447 20.9225 53.6714 21.3905 53.9246C21.8585 54.178 22.2473 54.5429 22.5572 55.0198L21.5167 56.1261C21.3147 55.8132 21.0757 55.5618 20.7996 55.3717C20.5235 55.1818 20.1935 55.0868 19.8096 55.0868C19.5066 55.0868 19.2339 55.1483 18.9915 55.2711C18.7491 55.3941 18.5437 55.5637 18.3753 55.7796C18.2069 55.9957 18.0774 56.2471 17.9865 56.5339C17.8956 56.8207 17.8502 57.1243 17.8502 57.4446C17.8502 57.7724 17.8956 58.0779 17.9865 58.3611C18.0774 58.6441 18.2069 58.8899 18.3753 59.0985C18.5437 59.3071 18.7457 59.471 18.9814 59.5903C19.2171 59.7093 19.4831 59.769 19.7794 59.769C20.0218 59.769 20.2322 59.7411 20.4106 59.6852C20.5891 59.6293 20.7474 59.5548 20.8854 59.4617C21.0235 59.3686 21.1463 59.2606 21.2541 59.1377C21.3619 59.0147 21.4662 58.8899 21.5672 58.7633L22.6077 59.8138V59.8138ZM25.717 61.3781C25.2187 61.3781 24.7557 61.2776 24.3282 61.0764C23.9005 60.8753 23.5301 60.5996 23.2171 60.2495C22.9039 59.8994 22.6581 59.484 22.4796 59.0036C22.3011 58.5231 22.2119 58.0071 22.2119 57.4558C22.2119 56.8972 22.3011 56.3794 22.4796 55.9026C22.6581 55.4258 22.9039 55.0123 23.2171 54.6622C23.5301 54.3121 23.9005 54.0364 24.3282 53.8352C24.7557 53.6341 25.2187 53.5336 25.717 53.5336C26.2152 53.5336 26.6783 53.6341 27.1059 53.8352C27.5335 54.0364 27.9038 54.3121 28.217 54.6622C28.5302 55.0123 28.7759 55.4258 28.9544 55.9026C29.1328 56.3794 29.222 56.8972 29.222 57.4558C29.222 58.0071 29.1328 58.5231 28.9544 59.0036C28.7759 59.484 28.5302 59.8994 28.217 60.2495C27.9038 60.5996 27.5335 60.8753 27.1059 61.0764C26.6783 61.2776 26.2152 61.3781 25.717 61.3781ZM25.717 59.7914C26.0133 59.7914 26.2793 59.728 26.515 59.6015C26.7507 59.4748 26.951 59.3034 27.116 59.0873C27.2809 58.8714 27.4071 58.6217 27.4947 58.3387C27.5823 58.0555 27.6261 57.7539 27.6261 57.4334C27.6261 57.1132 27.5823 56.8114 27.4947 56.5283C27.4071 56.2452 27.2809 55.9975 27.116 55.7852C26.951 55.5729 26.7507 55.4053 26.515 55.2823C26.2793 55.1594 26.0133 55.098 25.717 55.098C25.4208 55.098 25.1531 55.1594 24.9139 55.2823C24.6749 55.4053 24.4729 55.5729 24.3078 55.7852C24.1429 55.9975 24.0167 56.2452 23.9291 56.5283C23.8416 56.8114 23.7978 57.1132 23.7978 57.4334C23.7978 57.7539 23.8416 58.0555 23.9291 58.3387C24.0167 58.6217 24.1429 58.8714 24.3078 59.0873C24.4729 59.3034 24.6749 59.4748 24.9139 59.6015C25.1531 59.728 25.4208 59.7914 25.717 59.7914ZM29.5234 53.7346H30.9779L33.897 58.5733V53.7346H35.402V61.1882H34.0182L31.0283 56.2602V61.1882H29.5234V53.7346V53.7346ZM37.7033 55.2209H35.5215V53.7346H41.4103V55.2209H39.2386V61.1882H37.7033V55.2209V55.2209ZM41.5298 53.7346H46.1357V55.2097H43.0549V56.6625H45.4488V58.0928H43.0549V59.702H46.358V61.1882H41.5298V53.7346V53.7346ZM47.1643 58.9645C47.2519 59.0688 47.3545 59.1749 47.4723 59.283C47.5902 59.3908 47.7215 59.4897 47.8663 59.5791C48.0111 59.6684 48.1693 59.7411 48.341 59.797C48.5128 59.8528 48.6963 59.8808 48.8916 59.8808C49.0061 59.8808 49.1205 59.8621 49.2349 59.8249C49.3495 59.7877 49.4539 59.7336 49.5481 59.6629C49.6424 59.5921 49.7182 59.5064 49.7753 59.4058C49.8327 59.3052 49.8613 59.1916 49.8613 59.0651C49.8613 58.7894 49.74 58.5752 49.4975 58.4225C49.2552 58.2697 48.8714 58.1189 48.3461 57.9699C48.0902 57.9028 47.8528 57.806 47.6339 57.6793C47.4151 57.5527 47.2266 57.4 47.0684 57.2213C46.9101 57.0424 46.7872 56.8375 46.6997 56.6066C46.6121 56.3757 46.5683 56.1186 46.5683 55.8355C46.5683 55.5227 46.6189 55.2284 46.7198 54.9527C46.8209 54.6771 46.9741 54.433 47.1795 54.2209C47.3849 54.0085 47.6407 53.8409 47.9471 53.7179C48.2536 53.5951 48.6155 53.5336 49.033 53.5336C49.3764 53.5336 49.6795 53.5726 49.9421 53.6509C50.2047 53.7291 50.4285 53.8222 50.6138 53.9302C50.799 54.0383 50.9505 54.15 51.0683 54.2655C51.1861 54.3809 51.2754 54.4722 51.336 54.5392L50.4573 55.6121C50.3831 55.545 50.2973 55.4723 50.1996 55.3941C50.102 55.316 49.9926 55.2434 49.8714 55.1762C49.7501 55.1091 49.6172 55.0533 49.4724 55.0087C49.3276 54.9638 49.1744 54.9416 49.0128 54.9416C48.905 54.9416 48.7989 54.9602 48.6947 54.9975C48.5902 55.0347 48.496 55.0849 48.4117 55.1483C48.3276 55.2116 48.2602 55.2861 48.2098 55.3717C48.1592 55.4575 48.134 55.5487 48.134 55.6456C48.134 55.8988 48.2552 56.1037 48.4977 56.2602C48.7401 56.4166 49.0734 56.547 49.4975 56.6513C49.7468 56.7183 49.9909 56.8095 50.2299 56.9251C50.469 57.0405 50.6829 57.1914 50.8714 57.3776C51.0599 57.5639 51.2114 57.7929 51.3259 58.0648C51.4403 58.3368 51.4977 58.6665 51.4977 59.0538C51.4977 59.3891 51.4302 59.6982 51.2955 59.9813C51.1609 60.2645 50.9774 60.5103 50.7452 60.7189C50.5128 60.9275 50.24 61.0895 49.9269 61.2049C49.6137 61.3205 49.2755 61.3781 48.9118 61.3781C48.575 61.3781 48.2686 61.3428 47.9926 61.272C47.7165 61.2012 47.4674 61.1081 47.2451 60.9927C47.0229 60.8771 46.8225 60.7449 46.6442 60.596C46.4657 60.4469 46.3125 60.2943 46.1846 60.1377L47.1643 58.9645V58.9645ZM53.3241 55.2209H51.1423V53.7346H57.0311V55.2209H54.8594V61.1882H53.3241V55.2209V55.2209Z" fill="#FEFEFE"/>
<path d="M28.1195 69.0692H28.8434L29.901 72.2677H29.1858L28.9648 71.5341H27.9461L27.7251 72.2677H27.0402L28.1195 69.0692ZM28.8087 70.9729L28.4577 69.7645L28.0979 70.9729H28.8087ZM30.9617 69.0692H32.9036V69.707H31.6162V70.4311H32.5958V71.0497H31.6162V72.2677H30.9617V69.0692V69.0692ZM34.0423 69.0692H35.1173C35.2848 69.0692 35.4323 69.0957 35.5594 69.1483C35.6866 69.2011 35.7927 69.273 35.8779 69.3641C35.9632 69.4552 36.0267 69.5615 36.0687 69.683C36.1106 69.8044 36.1316 69.9341 36.1316 70.0714C36.1316 70.2793 36.0904 70.4606 36.008 70.6157C35.9256 70.7708 35.8093 70.8947 35.6591 70.9874L36.3006 72.2677H35.581L35.0436 71.0929H34.6794V72.2677H34.0423V69.0692ZM35.0826 70.5126C35.2039 70.5126 35.2993 70.4727 35.3686 70.3928C35.438 70.3128 35.4727 70.2121 35.4727 70.0906C35.4727 69.9595 35.438 69.8556 35.3686 69.779C35.2993 69.7021 35.2039 69.6638 35.0826 69.6638H34.6794V70.5126H35.0826V70.5126ZM37.4177 69.0692H38.0722V72.2677H37.4177V69.0692ZM41.9892 71.6779C41.9286 71.7707 41.8548 71.8577 41.7682 71.9393C41.6815 72.0208 41.5854 72.0919 41.48 72.1526C41.3745 72.2133 41.2604 72.2614 41.1375 72.2965C41.0146 72.3317 40.8868 72.3492 40.7539 72.3492C40.5343 72.3492 40.3335 72.3077 40.1514 72.2245C39.9694 72.1415 39.8126 72.0257 39.6811 71.8769C39.5496 71.7283 39.4477 71.5525 39.3755 71.3495C39.3033 71.1464 39.2671 70.9234 39.2671 70.6805C39.2671 70.444 39.3033 70.2226 39.3755 70.0163C39.4477 69.8101 39.5496 69.6311 39.6811 69.4792C39.8126 69.3274 39.97 69.2076 40.1536 69.1195C40.337 69.0317 40.54 68.9877 40.7625 68.9877C41.0312 68.9877 41.2661 69.042 41.4669 69.1508C41.6678 69.2595 41.8347 69.4161 41.9676 69.6206L41.5211 70.0955C41.4345 69.9612 41.3318 69.8533 41.2134 69.7718C41.0949 69.6903 40.9533 69.6496 40.7885 69.6496C40.6586 69.6496 40.5415 69.6759 40.4375 69.7286C40.3335 69.7814 40.2453 69.8542 40.173 69.9468C40.1008 70.0394 40.0452 70.1474 40.0062 70.2705C39.9672 70.3936 39.9476 70.5238 39.9476 70.6613C39.9476 70.8019 39.9672 70.933 40.0062 71.0544C40.0452 71.1761 40.1008 71.2815 40.173 71.371C40.2453 71.4606 40.332 71.5309 40.4332 71.5821C40.5343 71.6332 40.6485 71.6587 40.7756 71.6587C40.8797 71.6587 40.9699 71.6468 41.0465 71.6228C41.123 71.5987 41.1909 71.5668 41.2503 71.5268C41.3094 71.4868 41.3623 71.4406 41.4084 71.3878C41.4547 71.335 41.4995 71.2815 41.5428 71.2271L41.9892 71.6779V71.6779ZM43.9255 69.0692H44.6494L45.7071 72.2677H44.9918L44.7708 71.5341H43.7521L43.5311 72.2677H42.8462L43.9255 69.0692V69.0692ZM44.6147 70.9729L44.2636 69.7645L43.9039 70.9729H44.6147Z" fill="#ED3237"/>
<path d="M19.6391 35.3984C19.563 35.5276 19.4577 35.6596 19.3232 35.7945C19.1887 35.9292 19.03 36.0542 18.8473 36.1694C18.6646 36.2845 18.464 36.3786 18.2459 36.4516C18.0275 36.5246 17.7965 36.5611 17.553 36.5611C17.1722 36.5611 16.8245 36.4882 16.5098 36.3421C16.1951 36.1961 15.9236 35.9924 15.6951 35.7313C15.4667 35.47 15.289 35.1625 15.1621 34.8086C15.0352 34.4548 14.9718 34.0671 14.9718 33.6459C14.9718 33.2359 15.0352 32.8511 15.1621 32.4917C15.289 32.1321 15.468 31.8176 15.6989 31.548C15.9299 31.2784 16.2052 31.0649 16.5251 30.9076C16.8448 30.7503 17.1976 30.6717 17.5834 30.6717C17.8321 30.6717 18.0605 30.7013 18.2687 30.7602C18.4767 30.8192 18.6658 30.8992 18.8359 31.0003C19.0059 31.1015 19.1569 31.2207 19.2889 31.3584C19.4209 31.496 19.5376 31.6434 19.6391 31.8007L18.9615 32.4663C18.7991 32.208 18.61 32.0001 18.3943 31.8428C18.1785 31.6856 17.9082 31.6069 17.5834 31.6069C17.3346 31.6069 17.1113 31.6617 16.9133 31.7713C16.7154 31.8807 16.5466 32.0268 16.407 32.2094C16.2674 32.392 16.1608 32.6053 16.0873 32.8497C16.0136 33.094 15.9768 33.3511 15.9768 33.6206C15.9768 33.8903 16.0136 34.143 16.0873 34.379C16.1608 34.6149 16.2661 34.8199 16.4032 34.994C16.5402 35.1682 16.7039 35.3057 16.8943 35.4069C17.0847 35.508 17.2991 35.5586 17.5377 35.5586C17.756 35.5586 17.9425 35.5305 18.0973 35.4743C18.2521 35.4181 18.3842 35.3478 18.4932 35.2636C18.6024 35.1794 18.6937 35.0909 18.7673 34.9982C18.8409 34.9055 18.9082 34.8255 18.9692 34.7581L19.6391 35.3984V35.3984ZM20.0884 32.4748H20.9488L20.9717 32.9719C21.0122 32.9157 21.0643 32.854 21.1277 32.7865C21.1912 32.719 21.266 32.6574 21.3523 32.6011C21.4386 32.545 21.5389 32.4972 21.6531 32.4579C21.7673 32.4186 21.898 32.399 22.0452 32.399C22.1315 32.399 22.2089 32.4046 22.2775 32.4157C22.346 32.427 22.4158 32.4467 22.4868 32.4748L22.3041 33.41C22.2431 33.3819 22.1809 33.3623 22.1175 33.3511C22.0541 33.3398 21.9792 33.3342 21.8929 33.3342C21.7711 33.3342 21.6543 33.3567 21.5426 33.4015C21.431 33.4465 21.3346 33.5111 21.2533 33.5953C21.1722 33.6796 21.1074 33.7807 21.0592 33.8986C21.011 34.0167 20.9868 34.1486 20.9868 34.2947V36.4263H20.0884V32.4748V32.4748ZM22.9818 32.4748H23.8802V34.8676C23.8802 35.1204 23.9424 35.3155 24.0667 35.4532C24.1911 35.5908 24.3523 35.6596 24.5502 35.6596C24.6721 35.6596 24.7863 35.6329 24.8928 35.5796C24.9995 35.5262 25.0909 35.4518 25.167 35.3563C25.2431 35.2608 25.3027 35.1498 25.3459 35.0234C25.3891 34.8971 25.4105 34.7609 25.4105 34.6149V32.4748H26.3091V36.4263H25.4486L25.4258 35.9798C25.3801 36.0359 25.3243 36.0949 25.2583 36.1567C25.1924 36.2185 25.1162 36.2761 25.0299 36.3294C24.9436 36.3828 24.8446 36.4263 24.7329 36.4601C24.6213 36.4938 24.4943 36.5106 24.3523 36.5106C23.9055 36.5106 23.5654 36.3632 23.332 36.0682C23.0985 35.7734 22.9818 35.3759 22.9818 34.8761V32.4748V32.4748ZM28.1441 34.4295L26.8497 32.4748H27.9841L28.6999 33.6206L29.4232 32.4748H30.4358L29.1795 34.3284L30.5729 36.4263H29.4384L28.6237 35.1372L27.8014 36.4263H26.7888L28.1441 34.4295V34.4295Z" fill="#FEFEFE"/>
<path d="M31.0526 30.8065H31.9509V36.4263H31.0526V30.8065ZM36.192 35.8534C36.1767 35.8702 36.1349 35.9166 36.0663 35.9924C35.9978 36.0682 35.8988 36.1482 35.7694 36.2325C35.64 36.3167 35.475 36.3926 35.2744 36.4601C35.074 36.5274 34.8342 36.5611 34.555 36.5611C34.2707 36.5611 34.0118 36.5078 33.7783 36.4011C33.5449 36.2943 33.3457 36.1469 33.1806 35.9587C33.0157 35.7705 32.8888 35.5445 32.8 35.2805C32.7111 35.0165 32.6667 34.7244 32.6667 34.4042C32.6667 34.1121 32.7111 33.8411 32.8 33.5911C32.8888 33.3411 33.0131 33.1236 33.1731 32.9382C33.333 32.7528 33.5233 32.6067 33.744 32.5001C33.9649 32.3934 34.2098 32.3399 34.4788 32.3399C34.8037 32.3399 35.0791 32.406 35.305 32.5379C35.5309 32.6699 35.7123 32.8426 35.8494 33.0561C35.9864 33.2696 36.0854 33.5111 36.1464 33.7807C36.2072 34.0503 36.2377 34.3255 36.2377 34.6064V34.7496H33.5728C33.5728 34.8957 33.602 35.0277 33.6604 35.1457C33.7187 35.2636 33.7948 35.3647 33.8888 35.449C33.9826 35.5332 34.0893 35.5978 34.2085 35.6428C34.3279 35.6877 34.4458 35.7101 34.5626 35.7101C34.7351 35.7101 34.8862 35.6919 35.0156 35.6555C35.1451 35.6188 35.2554 35.5767 35.3468 35.529C35.4381 35.4813 35.513 35.4307 35.5715 35.3774C35.6298 35.324 35.6742 35.2805 35.7047 35.2467L36.192 35.8534V35.8534ZM35.3164 34.0334C35.3164 33.9324 35.2986 33.8313 35.2631 33.7301C35.2276 33.6291 35.1755 33.5378 35.107 33.4563C35.0384 33.3749 34.9509 33.3075 34.8443 33.2541C34.7377 33.2007 34.6159 33.174 34.4788 33.174C34.3316 33.174 34.2009 33.2007 34.0867 33.2541C33.9725 33.3075 33.8773 33.3749 33.8012 33.4563C33.7251 33.5378 33.6667 33.6291 33.626 33.7301C33.5855 33.8313 33.5652 33.9324 33.5652 34.0334H35.3164V34.0334ZM39.0396 36.0556C38.9432 36.1848 38.796 36.2999 38.598 36.4011C38.4001 36.5022 38.1793 36.5527 37.9356 36.5527C37.7884 36.5527 37.6425 36.5274 37.4978 36.4769C37.3532 36.4263 37.2211 36.3491 37.1019 36.2451C36.9825 36.1413 36.8862 36.0078 36.8125 35.8449C36.739 35.6821 36.7022 35.4911 36.7022 35.272C36.7022 35.0474 36.7402 34.8465 36.8163 34.6697C36.8925 34.4926 36.9991 34.3438 37.1361 34.223C37.2732 34.1023 37.4382 34.0109 37.6311 33.9492C37.8239 33.8874 38.0371 33.8565 38.2706 33.8565C38.3417 33.8565 38.4204 33.8579 38.5067 33.8607C38.593 33.8636 38.6767 33.8678 38.7579 33.8734C38.8493 33.879 38.9432 33.8846 39.0396 33.8903V33.7976C39.0396 33.601 38.9685 33.4465 38.8264 33.3342C38.6843 33.2218 38.499 33.1657 38.2706 33.1657C38.0168 33.1657 37.8137 33.2022 37.6615 33.2752C37.5092 33.3482 37.3747 33.4268 37.2579 33.5111L36.8468 32.8371C36.9179 32.7809 36.9991 32.7234 37.0904 32.6643C37.1818 32.6053 37.2884 32.5519 37.4102 32.5043C37.532 32.4565 37.6729 32.4172 37.8328 32.3863C37.9927 32.3554 38.1793 32.3399 38.3924 32.3399C38.6209 32.3399 38.8276 32.3751 39.013 32.4453C39.1983 32.5155 39.3569 32.6138 39.4888 32.7401C39.6208 32.8665 39.7224 33.0182 39.7933 33.1951C39.8645 33.3721 39.9 33.5644 39.9 33.7723V36.4263H39.0625L39.0396 36.0556V36.0556ZM39.0396 34.6401C38.9483 34.6345 38.8594 34.6289 38.7732 34.6232C38.7021 34.6176 38.6272 34.6134 38.5485 34.6107C38.4699 34.6078 38.4025 34.6064 38.3467 34.6064C38.0574 34.6064 37.8544 34.6697 37.7376 34.796C37.6208 34.9224 37.5625 35.067 37.5625 35.2299C37.5625 35.3984 37.6171 35.5305 37.7263 35.6259C37.8353 35.7213 37.9965 35.7692 38.2097 35.7692C38.3163 35.7692 38.4191 35.7495 38.5181 35.7101C38.6171 35.6709 38.7046 35.6175 38.7808 35.5501C38.8569 35.4826 38.9191 35.404 38.9673 35.3142C39.0155 35.2243 39.0396 35.1288 39.0396 35.0277V34.6401V34.6401ZM40.768 32.4747H41.6283L41.6512 32.9719C41.6919 32.9157 41.7439 32.8539 41.8073 32.7865C41.8708 32.719 41.9456 32.6574 42.032 32.6011C42.1182 32.545 42.2185 32.4972 42.3327 32.4579C42.4469 32.4186 42.5776 32.399 42.7248 32.399C42.8111 32.399 42.8885 32.4045 42.957 32.4157C43.0255 32.427 43.0954 32.4467 43.1664 32.4747L42.9837 33.41C42.9228 33.3819 42.8606 33.3622 42.7971 33.3511C42.7337 33.3398 42.6588 33.3342 42.5725 33.3342C42.4507 33.3342 42.334 33.3566 42.2223 33.4015C42.1107 33.4465 42.0141 33.5111 41.9329 33.5953C41.8518 33.6796 41.787 33.7807 41.7388 33.8986C41.6905 34.0166 41.6664 34.1486 41.6664 34.2947V36.4263H40.768V32.4747V32.4747ZM43.6765 32.4747H44.5369L44.5598 32.9213C44.6054 32.8651 44.6601 32.8061 44.7235 32.7444C44.787 32.6826 44.8631 32.625 44.9519 32.5717C45.0407 32.5183 45.141 32.4747 45.2527 32.4411C45.3643 32.4074 45.4912 32.3905 45.6333 32.3905C46.0801 32.3905 46.4202 32.5379 46.6536 32.8328C46.8871 33.1278 47.0038 33.5251 47.0038 34.025V36.4263H46.1055V34.0334C46.1055 33.7807 46.0433 33.5855 45.9189 33.448C45.7945 33.3103 45.6333 33.2415 45.4354 33.2415C45.3136 33.2415 45.1994 33.2682 45.0927 33.3215C44.9862 33.3749 44.8948 33.4493 44.8186 33.5449C44.7425 33.6403 44.6829 33.7513 44.6398 33.8776C44.5966 34.004 44.575 34.1403 44.575 34.2863V36.4263H43.6765V32.4747V32.4747ZM47.8795 30.8065H48.8389V31.8513H47.8795V30.8065ZM47.9099 32.4747H48.8084V36.4263H47.9099V32.4747ZM49.7297 32.4747H50.59L50.6129 32.9213C50.6586 32.8651 50.7132 32.8061 50.7766 32.7444C50.8401 32.6826 50.9162 32.625 51.005 32.5717C51.0938 32.5183 51.1941 32.4747 51.3058 32.4411C51.4174 32.4074 51.5443 32.3905 51.6864 32.3905C52.1332 32.3905 52.4733 32.5379 52.7067 32.8328C52.9403 33.1278 53.057 33.5251 53.057 34.025V36.4263H52.1586V34.0334C52.1586 33.7807 52.0964 33.5855 51.972 33.448C51.8476 33.3103 51.6864 33.2415 51.4886 33.2415C51.3667 33.2415 51.2525 33.2682 51.1459 33.3215C51.0393 33.3749 50.948 33.4493 50.8718 33.5449C50.7956 33.6403 50.736 33.7513 50.6929 33.8776C50.6498 34.004 50.6281 34.1403 50.6281 34.2863V36.4263H49.7297V32.4747V32.4747ZM54.5037 37.0667C54.6458 37.1734 54.7993 37.2507 54.9643 37.2984C55.1293 37.3461 55.3234 37.37 55.5468 37.37C55.7803 37.37 55.9757 37.2913 56.1331 37.134C56.2905 36.9768 56.3691 36.7577 56.3691 36.4769V36.0472C56.2473 36.1595 56.1141 36.2508 55.9694 36.3211C55.8247 36.3913 55.6331 36.4263 55.3946 36.4263C55.1357 36.4263 54.9059 36.3786 54.7055 36.283C54.505 36.1876 54.3337 36.0542 54.1915 35.8828C54.0494 35.7116 53.9416 35.5094 53.8679 35.2763C53.7943 35.0432 53.7574 34.7861 53.7574 34.5053C53.7574 34.2132 53.8045 33.938 53.8983 33.6796C53.9923 33.4213 54.1268 33.1966 54.302 33.0055C54.477 32.8146 54.6889 32.6643 54.9376 32.5548C55.1864 32.4453 55.4656 32.3905 55.7752 32.3905C56.0849 32.3905 56.3704 32.4186 56.6318 32.4747C56.8932 32.5309 57.1052 32.5899 57.2675 32.6517V36.4938C57.2675 36.769 57.2244 37.0132 57.1382 37.2268C57.0518 37.4402 56.9325 37.6199 56.7802 37.766C56.628 37.912 56.4478 38.023 56.2397 38.0988C56.0315 38.1746 55.8056 38.2126 55.562 38.2126C55.3742 38.2126 55.208 38.2027 55.0633 38.183C54.9186 38.1634 54.7892 38.1367 54.675 38.103C54.5608 38.0693 54.4567 38.0272 54.3628 37.9766C54.2689 37.9261 54.1814 37.8671 54.1001 37.7997L54.5037 37.0667V37.0667ZM56.3691 33.3342C56.2981 33.3061 56.2244 33.285 56.1483 33.2709C56.0722 33.2569 55.9528 33.2499 55.7904 33.2499C55.6077 33.2499 55.4478 33.2836 55.3107 33.3511C55.1737 33.4184 55.057 33.5082 54.9605 33.6206C54.8641 33.7329 54.7918 33.8636 54.7436 34.0124C54.6953 34.1613 54.6712 34.3171 54.6712 34.48C54.6712 34.7834 54.7398 35.0388 54.8768 35.2467C55.0138 35.4546 55.2346 35.5585 55.5392 35.5585C55.8133 35.5585 56.0201 35.4939 56.1598 35.3647C56.2993 35.2355 56.3691 35.0305 56.3691 34.7496V33.3342V33.3342Z" fill="#ED3237"/>
<path d="M29.6787 28H26.9541V9.93848L21.4902 11.9453V9.48438L29.2539 6.56934H29.6787V28ZM50.9922 18.9033C50.9922 22.0771 50.4502 24.4355 49.3662 25.9785C48.2822 27.5215 46.5879 28.293 44.2832 28.293C42.0078 28.293 40.3232 27.541 39.2295 26.0371C38.1357 24.5234 37.5693 22.2676 37.5303 19.2695V15.6514C37.5303 12.5166 38.0723 10.1875 39.1562 8.66406C40.2402 7.14062 41.9395 6.37891 44.2539 6.37891C46.5488 6.37891 48.2383 7.11621 49.3223 8.59082C50.4062 10.0557 50.9629 12.3213 50.9922 15.3877V18.9033ZM48.2822 15.1973C48.2822 12.9023 47.96 11.2324 47.3154 10.1875C46.6709 9.13281 45.6504 8.60547 44.2539 8.60547C42.8672 8.60547 41.8564 9.12793 41.2217 10.1729C40.5869 11.2178 40.2598 12.8242 40.2402 14.9922V19.3281C40.2402 21.6328 40.5723 23.3369 41.2363 24.4404C41.9102 25.5342 42.9258 26.0811 44.2832 26.0811C45.6211 26.0811 46.6123 25.5635 47.2568 24.5283C47.9111 23.4932 48.2529 21.8623 48.2822 19.6357V15.1973Z" fill="#F3F4F4"/>
</svg>
