<svg width="73" height="72" viewBox="0 0 73 72" fill="none" xmlns="http://www.w3.org/2000/svg">
<path fill-rule="evenodd" clip-rule="evenodd" d="M18.0165 66.3037H53.5053L49.1792 70.8456C48.3223 71.7505 47.9356 71.9966 46.7965 72H24.7628C23.7384 72.0001 23.3225 71.872 22.4862 70.9024L18.0165 66.3037Z" fill="#FFCC29"/>
<path fill-rule="evenodd" clip-rule="evenodd" d="M3.69811 37.5727H68.3366C70.3706 37.5727 72.0347 39.4137 72.0347 41.6639V62.5232C72.0347 64.7734 70.3706 66.6145 68.3366 66.6145H3.69811C1.66413 66.6145 0 64.7734 0 62.5232V41.6639C0 39.4137 1.66413 37.5727 3.69811 37.5727V37.5727Z" fill="#ED3237"/>
<path d="M4.16451 40.2472H68.0206C69.0716 40.2472 69.9315 41.1986 69.9315 42.3613V61.8257C69.9315 62.9885 69.0715 63.9398 68.0206 63.9398H4.16451C3.1135 63.9398 2.25359 62.9886 2.25359 61.8257V42.3613C2.25359 41.1986 3.1135 40.2472 4.16451 40.2472V40.2472Z" fill="#003F5D"/>
<path fill-rule="evenodd" clip-rule="evenodd" d="M35.1416 44.6254C38.7576 44.6254 41.689 47.8692 41.689 51.8707C41.689 55.8721 38.7576 59.1159 35.1416 59.1159C31.5256 59.1159 28.5942 55.8721 28.5942 51.8707C28.5942 47.8692 31.5256 44.6254 35.1416 44.6254V44.6254ZM35.1296 55.0142C35.6665 55.0142 36.1524 54.8554 36.5875 54.5379C37.0226 54.1896 37.4623 53.8413 37.9066 53.493C38.0456 53.493 38.1704 53.5595 38.2815 53.6928C38.3925 53.8259 38.4481 53.9693 38.4481 54.1229C38.4481 54.6966 38.0315 55.2241 37.1984 55.7056C36.4857 56.1153 35.8284 56.3202 35.2267 56.3202C34.1159 56.3202 33.1648 55.9029 32.3733 55.0679C31.582 54.233 31.1861 53.201 31.1861 51.9718C31.1861 50.7837 31.5795 49.7593 32.3664 48.8988C33.1532 48.0383 34.0882 47.6081 35.1712 47.6081C35.773 47.6081 36.4441 47.8231 37.1846 48.2535C38.0362 48.7553 38.462 49.3085 38.462 49.9127C38.462 50.0767 38.4019 50.2203 38.2815 50.3431C38.1612 50.466 38.027 50.5275 37.8789 50.5275C37.8048 50.5275 37.4946 50.2663 36.9486 49.7438C36.4023 49.2214 35.8238 48.9602 35.2129 48.9602C34.4076 48.9602 33.7387 49.2496 33.2064 49.8283C32.6742 50.4071 32.408 51.1369 32.408 52.0178C32.408 52.8374 32.6742 53.5416 33.2064 54.1306C33.7387 54.7196 34.3798 55.0142 35.1296 55.0142V55.0142ZM35.1296 49.4673C35.7312 49.4673 36.2775 49.7284 36.7681 50.2509C37.2586 50.7733 37.6244 51.0345 37.865 51.0345C38.1427 51.0345 38.3879 50.9219 38.6009 50.6965C38.8138 50.4711 38.9203 50.2049 38.9203 49.8974C38.9203 49.1395 38.4528 48.4634 37.5178 47.8693C36.7033 47.3571 35.921 47.101 35.1712 47.101C33.9494 47.101 32.9033 47.5774 32.0331 48.53C31.163 49.4827 30.728 50.6299 30.728 51.9718C30.728 53.3343 31.1698 54.4841 32.054 55.4213C32.938 56.3586 33.9955 56.8273 35.2267 56.8273C35.9673 56.8273 36.7357 56.5815 37.5317 56.0896C38.4575 55.5161 38.9203 54.8554 38.9203 54.1075C38.9203 53.8106 38.8138 53.5442 38.6009 53.3085C38.3879 53.0731 38.1427 52.9553 37.865 52.9553C37.6614 52.9553 37.2888 53.2139 36.7472 53.7312C36.2056 54.2485 35.6665 54.5071 35.1296 54.5071C34.5279 54.5071 34.0002 54.2611 33.5467 53.7696C33.0931 53.2779 32.8662 52.694 32.8662 52.0178C32.8662 51.3111 33.0861 50.7092 33.5258 50.2125C33.9655 49.7157 34.5001 49.4673 35.1296 49.4673V49.4673ZM35.1296 53.9846C35.5184 53.9846 35.8979 53.8259 36.2682 53.5084C37.0921 52.8015 37.6244 52.4482 37.865 52.4482C38.2631 52.4482 38.6148 52.6121 38.9203 52.9399C39.2257 53.2676 39.3786 53.657 39.3786 54.1075C39.3786 54.9988 38.874 55.7824 37.865 56.4585C36.9762 57.0526 36.097 57.3497 35.2267 57.3497C33.8568 57.3497 32.6857 56.8323 31.7137 55.7978C30.7418 54.7632 30.2558 53.4879 30.2558 51.9718C30.2558 50.4763 30.7372 49.206 31.6999 48.1612C32.6625 47.1163 33.8197 46.594 35.1712 46.594C36.0599 46.594 36.9486 46.891 37.8372 47.4852C38.8647 48.1715 39.3786 48.9755 39.3786 49.8974C39.3786 50.3585 39.2304 50.7477 38.9341 51.0652C38.638 51.3828 38.2815 51.5416 37.865 51.5416C37.4854 51.5416 37.1383 51.3777 36.8235 51.0499C36.1478 50.3329 35.5831 49.9743 35.1296 49.9743C34.6204 49.9743 34.1923 50.1715 33.8452 50.566C33.498 50.9604 33.3245 51.4391 33.3245 52.0025C33.3245 52.5455 33.5004 53.0115 33.852 53.4008C34.2039 53.7901 34.6297 53.9846 35.1296 53.9846V53.9846Z" fill="#5DA3D8" fill-opacity="0.290196"/>
<path fill-rule="evenodd" clip-rule="evenodd" d="M42.7691 54.6652C42.641 54.6175 42.5127 54.5698 42.3846 54.522C41.1952 57.6823 39.3102 59.6901 36.4801 60.132C34.4185 60.4538 32.4993 60.094 30.7856 58.7644C28.1668 56.7324 26.3393 52.6944 28.2449 48.2045C28.8498 46.7793 29.5091 45.8646 30.6605 44.9291C32.7026 43.2698 35.0266 42.9726 37.5773 43.7892C37.5952 43.7472 37.613 43.7051 37.631 43.6631C38.448 43.9306 39.1776 44.3908 39.847 44.9829C39.8794 44.9236 39.9118 44.864 39.9443 44.8047C39.2212 44.1825 38.4753 43.7341 37.7022 43.491C37.7204 43.4424 37.7389 43.3938 37.7572 43.3454C35.3244 42.4514 32.4484 42.7451 30.2026 44.73C28.9391 45.8464 27.9372 47.4561 27.4437 49.1594C26.3805 52.8289 27.4967 57.0752 30.904 59.3682C32.4234 60.3907 33.703 60.7507 35.4808 60.7108C38.8999 60.6342 41.3985 58.5412 42.7691 54.6652V54.6652Z" fill="#5DA3D8" fill-opacity="0.290196"/>
<path fill-rule="evenodd" clip-rule="evenodd" d="M27.5442 43.6286C27.6695 43.7671 27.7947 43.9057 27.9198 44.0442C25.2628 47.4261 24.1768 51.1318 25.3546 55.0611C26.2128 57.9234 27.6555 60.2046 30.0615 61.6549C33.7381 63.8709 39.2182 63.8322 42.8675 58.7477C44.0258 57.1337 44.6115 55.7459 44.9332 53.7077C45.5036 50.0926 44.4665 46.904 42.1174 44.0691C42.1516 44.0216 42.1857 43.9739 42.2198 43.9263C41.461 43.0216 40.549 42.3425 39.5321 41.8185C39.5761 41.7419 39.6202 41.6652 39.6643 41.5885C40.7444 42.1648 41.6534 42.8718 42.3607 43.7336C42.4015 43.6817 42.4423 43.6295 42.4832 43.5776C44.8456 46.2143 46.2074 50.1172 45.4106 54.1861C44.9623 56.4749 43.9222 58.7117 42.4044 60.3428C39.1345 63.8571 33.8157 64.8792 29.3527 61.883C23.4266 57.9043 22.7359 48.7064 27.5442 43.6286V43.6286Z" fill="#5DA3D8" fill-opacity="0.290196"/>
<path fill-rule="evenodd" clip-rule="evenodd" d="M42.397 56.9393L43.0859 57.4485C39.7836 63.2209 32.5183 64.0243 28.2043 59.2079C26.4445 57.2428 25.6891 54.9637 25.588 52.2034C25.2724 43.5904 33.8407 38.3839 40.2238 42.8318L40.0489 43.182C42.1669 44.5626 43.504 46.6955 44.0713 49.5698L43.8465 49.6037C43.3061 46.8845 42.0479 44.7677 39.899 43.3987L39.7488 43.6527C34.0683 39.6056 25.8134 44.2742 26.3781 52.5299C27.3454 62.2384 38.1663 64.2715 42.397 56.9393V56.9393Z" fill="#5DA3D8" fill-opacity="0.290196"/>
<path fill-rule="evenodd" clip-rule="evenodd" d="M1.8845 64.6105C1.8845 64.2816 2.12547 64.0152 2.42264 64.0152C2.7198 64.0152 2.96078 64.2816 2.96078 64.6105C2.96078 64.9393 2.7198 65.2058 2.42264 65.2058C2.12547 65.2058 1.8845 64.9393 1.8845 64.6105ZM4.78002 64.7501C5.07719 64.7501 5.31817 65.0167 5.31817 65.3454C5.31817 65.6743 5.07719 65.9408 4.78002 65.9408C4.48276 65.9408 4.24188 65.6743 4.24188 65.3454C4.24188 65.0167 4.48276 64.7501 4.78002 64.7501ZM7.38182 64.7501C7.67908 64.7501 7.91996 65.0167 7.91996 65.3454C7.91996 65.6743 7.67908 65.9408 7.38182 65.9408C7.08465 65.9408 6.84368 65.6743 6.84368 65.3454C6.84368 65.0167 7.08465 64.7501 7.38182 64.7501ZM9.98371 64.7501C10.2809 64.7501 10.5219 65.0167 10.5219 65.3454C10.5219 65.6743 10.2809 65.9408 9.98371 65.9408C9.68645 65.9408 9.44557 65.6743 9.44557 65.3454C9.44557 65.0167 9.68645 64.7501 9.98371 64.7501ZM12.5855 64.7501C12.8827 64.7501 13.1236 65.0167 13.1236 65.3454C13.1236 65.6743 12.8827 65.9408 12.5855 65.9408C12.2883 65.9408 12.0474 65.6743 12.0474 65.3454C12.0474 65.0167 12.2883 64.7501 12.5855 64.7501ZM15.1874 64.7501C15.4846 64.7501 15.7254 65.0167 15.7254 65.3454C15.7254 65.6743 15.4846 65.9408 15.1874 65.9408C14.8901 65.9408 14.6493 65.6743 14.6493 65.3454C14.6493 65.0167 14.8901 64.7501 15.1874 64.7501ZM17.7892 64.7501C18.0864 64.7501 18.3273 65.0167 18.3273 65.3454C18.3273 65.6743 18.0864 65.9408 17.7892 65.9408C17.492 65.9408 17.251 65.6743 17.251 65.3454C17.251 65.0167 17.492 64.7501 17.7892 64.7501ZM20.3911 64.7501C20.6882 64.7501 20.9291 65.0167 20.9291 65.3454C20.9291 65.6743 20.6882 65.9408 20.3911 65.9408C20.0938 65.9408 19.8529 65.6743 19.8529 65.3454C19.8529 65.0167 20.0938 64.7501 20.3911 64.7501ZM22.9929 64.7501C23.29 64.7501 23.531 65.0167 23.531 65.3454C23.531 65.6743 23.29 65.9408 22.9929 65.9408C22.6957 65.9408 22.4547 65.6743 22.4547 65.3454C22.4547 65.0167 22.6957 64.7501 22.9929 64.7501ZM25.5947 64.7501C25.8919 64.7501 26.1328 65.0167 26.1328 65.3454C26.1328 65.6743 25.8919 65.9408 25.5947 65.9408C25.2975 65.9408 25.0566 65.6743 25.0566 65.3454C25.0566 65.0167 25.2975 64.7501 25.5947 64.7501ZM28.1966 64.7501C28.4937 64.7501 28.7347 65.0167 28.7347 65.3454C28.7347 65.6743 28.4937 65.9408 28.1966 65.9408C27.8994 65.9408 27.6584 65.6743 27.6584 65.3454C27.6584 65.0167 27.8994 64.7501 28.1966 64.7501ZM30.7984 64.7501C31.0956 64.7501 31.3365 65.0167 31.3365 65.3454C31.3365 65.6743 31.0956 65.9408 30.7984 65.9408C30.5012 65.9408 30.2602 65.6743 30.2602 65.3454C30.2602 65.0167 30.5012 64.7501 30.7984 64.7501ZM33.4002 64.7501C33.6974 64.7501 33.9384 65.0167 33.9384 65.3454C33.9384 65.6743 33.6974 65.9408 33.4002 65.9408C33.103 65.9408 32.8621 65.6743 32.8621 65.3454C32.8621 65.0167 33.103 64.7501 33.4002 64.7501ZM36.002 64.7501C36.2993 64.7501 36.5402 65.0167 36.5402 65.3454C36.5402 65.6743 36.2993 65.9408 36.002 65.9408C35.7049 65.9408 35.4639 65.6743 35.4639 65.3454C35.4639 65.0167 35.7049 64.7501 36.002 64.7501ZM38.6039 64.7501C38.9011 64.7501 39.1421 65.0167 39.1421 65.3454C39.1421 65.6743 38.9011 65.9408 38.6039 65.9408C38.3067 65.9408 38.0658 65.6743 38.0658 65.3454C38.0658 65.0167 38.3067 64.7501 38.6039 64.7501ZM41.2057 64.7501C41.503 64.7501 41.7439 65.0167 41.7439 65.3454C41.7439 65.6743 41.503 65.9408 41.2057 65.9408C40.9086 65.9408 40.6676 65.6743 40.6676 65.3454C40.6676 65.0167 40.9086 64.7501 41.2057 64.7501ZM43.8076 64.7501C44.1048 64.7501 44.3458 65.0167 44.3458 65.3454C44.3458 65.6743 44.1048 65.9408 43.8076 65.9408C43.5104 65.9408 43.2695 65.6743 43.2695 65.3454C43.2695 65.0167 43.5104 64.7501 43.8076 64.7501ZM46.4094 64.7501C46.7066 64.7501 46.9476 65.0167 46.9476 65.3454C46.9476 65.6743 46.7066 65.9408 46.4094 65.9408C46.1122 65.9408 45.8713 65.6743 45.8713 65.3454C45.8713 65.0167 46.1122 64.7501 46.4094 64.7501ZM49.0113 64.7501C49.3085 64.7501 49.5493 65.0167 49.5493 65.3454C49.5493 65.6743 49.3085 65.9408 49.0113 65.9408C48.714 65.9408 48.4732 65.6743 48.4732 65.3454C48.4732 65.0167 48.714 64.7501 49.0113 64.7501ZM51.6131 64.7501C51.9103 64.7501 52.1512 65.0167 52.1512 65.3454C52.1512 65.6743 51.9103 65.9408 51.6131 65.9408C51.3159 65.9408 51.075 65.6743 51.075 65.3454C51.075 65.0167 51.3159 64.7501 51.6131 64.7501ZM54.2149 64.7501C54.5122 64.7501 54.753 65.0167 54.753 65.3454C54.753 65.6743 54.5122 65.9408 54.2149 65.9408C53.9177 65.9408 53.6768 65.6743 53.6768 65.3454C53.6768 65.0167 53.9177 64.7501 54.2149 64.7501ZM56.8168 64.7501C57.1139 64.7501 57.3549 65.0167 57.3549 65.3454C57.3549 65.6743 57.1139 65.9408 56.8168 65.9408C56.5196 65.9408 56.2786 65.6743 56.2786 65.3454C56.2786 65.0167 56.5196 64.7501 56.8168 64.7501ZM59.4186 64.7501C59.7158 64.7501 59.9567 65.0167 59.9567 65.3454C59.9567 65.6743 59.7158 65.9408 59.4186 65.9408C59.1214 65.9408 58.8804 65.6743 58.8804 65.3454C58.8804 65.0167 59.1214 64.7501 59.4186 64.7501ZM62.0205 64.7501C62.3176 64.7501 62.5586 65.0167 62.5586 65.3454C62.5586 65.6743 62.3176 65.9408 62.0205 65.9408C61.7232 65.9408 61.4823 65.6743 61.4823 65.3454C61.4823 65.0167 61.7232 64.7501 62.0205 64.7501ZM64.6223 64.7501C64.9195 64.7501 65.1604 65.0167 65.1604 65.3454C65.1604 65.6743 64.9195 65.9408 64.6223 65.9408C64.3251 65.9408 64.0841 65.6743 64.0841 65.3454C64.0841 65.0167 64.3251 64.7501 64.6223 64.7501ZM67.2243 64.7501C67.5215 64.7501 67.7625 65.0167 67.7625 65.3454C67.7625 65.6743 67.5215 65.9408 67.2243 65.9408C66.9271 65.9408 66.6863 65.6743 66.6863 65.3454C66.6863 65.0167 66.9271 64.7501 67.2243 64.7501ZM69.313 64.6274C69.313 64.2985 69.554 64.032 69.8511 64.032C70.1483 64.032 70.3893 64.2985 70.3893 64.6274C70.3893 64.9561 70.1483 65.2226 69.8511 65.2226C69.554 65.2226 69.313 64.9561 69.313 64.6274ZM0.630585 62.0636C0.630585 61.7347 0.87156 61.4683 1.16873 61.4683C1.46599 61.4683 1.70687 61.7347 1.70687 62.0636C1.70687 62.3923 1.46599 62.6589 1.16873 62.6589C0.87156 62.6589 0.630585 62.3923 0.630585 62.0636ZM0.630585 59.2337C0.630585 58.905 0.87156 58.6385 1.16873 58.6385C1.46599 58.6385 1.70687 58.905 1.70687 59.2337C1.70687 59.5625 1.46599 59.8291 1.16873 59.8291C0.87156 59.8291 0.630585 59.5625 0.630585 59.2337ZM0.630585 56.4039C0.630585 56.0751 0.87156 55.8086 1.16873 55.8086C1.46599 55.8086 1.70687 56.0751 1.70687 56.4039C1.70687 56.7327 1.46599 56.9991 1.16873 56.9991C0.87156 56.9991 0.630585 56.7327 0.630585 56.4039ZM0.630585 53.5741C0.630585 53.2452 0.87156 52.9787 1.16873 52.9787C1.46599 52.9787 1.70687 53.2452 1.70687 53.5741C1.70687 53.9028 1.46599 54.1693 1.16873 54.1693C0.87156 54.1693 0.630585 53.9028 0.630585 53.5741ZM0.630585 50.7441C0.630585 50.4153 0.87156 50.1488 1.16873 50.1488C1.46599 50.1488 1.70687 50.4153 1.70687 50.7441C1.70687 51.0729 1.46599 51.3394 1.16873 51.3394C0.87156 51.3394 0.630585 51.0729 0.630585 50.7441ZM0.630585 47.9142C0.630585 47.5854 0.87156 47.3189 1.16873 47.3189C1.46599 47.3189 1.70687 47.5854 1.70687 47.9142C1.70687 48.2431 1.46599 48.5095 1.16873 48.5095C0.87156 48.5095 0.630585 48.2431 0.630585 47.9142ZM0.630585 45.0843C0.630585 44.7556 0.87156 44.4891 1.16873 44.4891C1.46599 44.4891 1.70687 44.7556 1.70687 45.0843C1.70687 45.4132 1.46599 45.6797 1.16873 45.6797C0.87156 45.6797 0.630585 45.4132 0.630585 45.0843ZM70.5484 62.0636C70.5484 61.7347 70.7894 61.4683 71.0865 61.4683C71.3836 61.4683 71.6246 61.7347 71.6246 62.0636C71.6246 62.3923 71.3836 62.6589 71.0865 62.6589C70.7894 62.6589 70.5484 62.3923 70.5484 62.0636V62.0636ZM70.5484 59.2337C70.5484 58.905 70.7894 58.6385 71.0865 58.6385C71.3836 58.6385 71.6246 58.905 71.6246 59.2337C71.6246 59.5625 71.3836 59.8291 71.0865 59.8291C70.7894 59.8291 70.5484 59.5625 70.5484 59.2337V59.2337ZM70.5484 56.4039C70.5484 56.0751 70.7894 55.8086 71.0865 55.8086C71.3836 55.8086 71.6246 56.0751 71.6246 56.4039C71.6246 56.7327 71.3836 56.9991 71.0865 56.9991C70.7894 56.9991 70.5484 56.7327 70.5484 56.4039V56.4039ZM70.5484 53.5741C70.5484 53.2452 70.7894 52.9787 71.0865 52.9787C71.3836 52.9787 71.6246 53.2452 71.6246 53.5741C71.6246 53.9028 71.3836 54.1693 71.0865 54.1693C70.7894 54.1693 70.5484 53.9028 70.5484 53.5741V53.5741ZM70.5484 50.7441C70.5484 50.4153 70.7894 50.1488 71.0865 50.1488C71.3836 50.1488 71.6246 50.4153 71.6246 50.7441C71.6246 51.0729 71.3836 51.3394 71.0865 51.3394C70.7894 51.3394 70.5484 51.0729 70.5484 50.7441V50.7441ZM70.5484 47.9142C70.5484 47.5854 70.7894 47.3189 71.0865 47.3189C71.3836 47.3189 71.6246 47.5854 71.6246 47.9142C71.6246 48.2431 71.3836 48.5095 71.0865 48.5095C70.7894 48.5095 70.5484 48.2431 70.5484 47.9142V47.9142ZM70.5484 45.0843C70.5484 44.7556 70.7894 44.4891 71.0865 44.4891C71.3836 44.4891 71.6246 44.7556 71.6246 45.0843C71.6246 45.4132 71.3836 45.6797 71.0865 45.6797C70.7894 45.6797 70.5484 45.4132 70.5484 45.0843V45.0843ZM4.78002 38.3798C5.07719 38.3798 5.31817 38.6464 5.31817 38.9751C5.31817 39.3039 5.07719 39.5705 4.78002 39.5705C4.48276 39.5705 4.24188 39.3039 4.24188 38.9751C4.24188 38.6464 4.48276 38.3798 4.78002 38.3798ZM7.38182 38.3798C7.67908 38.3798 7.91996 38.6464 7.91996 38.9751C7.91996 39.3039 7.67908 39.5705 7.38182 39.5705C7.08465 39.5705 6.84368 39.3039 6.84368 38.9751C6.84368 38.6464 7.08465 38.3798 7.38182 38.3798ZM9.98371 38.3798C10.2809 38.3798 10.5219 38.6464 10.5219 38.9751C10.5219 39.3039 10.2809 39.5705 9.98371 39.5705C9.68645 39.5705 9.44557 39.3039 9.44557 38.9751C9.44557 38.6464 9.68645 38.3798 9.98371 38.3798ZM12.5855 38.3798C12.8827 38.3798 13.1236 38.6464 13.1236 38.9751C13.1236 39.3039 12.8827 39.5705 12.5855 39.5705C12.2883 39.5705 12.0474 39.3039 12.0474 38.9751C12.0474 38.6464 12.2883 38.3798 12.5855 38.3798ZM15.1874 38.3798C15.4846 38.3798 15.7254 38.6464 15.7254 38.9751C15.7254 39.3039 15.4846 39.5705 15.1874 39.5705C14.8901 39.5705 14.6493 39.3039 14.6493 38.9751C14.6493 38.6464 14.8901 38.3798 15.1874 38.3798ZM17.7892 38.3798C18.0864 38.3798 18.3273 38.6464 18.3273 38.9751C18.3273 39.3039 18.0864 39.5705 17.7892 39.5705C17.492 39.5705 17.251 39.3039 17.251 38.9751C17.251 38.6464 17.492 38.3798 17.7892 38.3798ZM20.3911 38.3798C20.6882 38.3798 20.9291 38.6464 20.9291 38.9751C20.9291 39.3039 20.6882 39.5705 20.3911 39.5705C20.0938 39.5705 19.8529 39.3039 19.8529 38.9751C19.8529 38.6464 20.0938 38.3798 20.3911 38.3798ZM22.9929 38.3798C23.29 38.3798 23.531 38.6464 23.531 38.9751C23.531 39.3039 23.29 39.5705 22.9929 39.5705C22.6957 39.5705 22.4547 39.3039 22.4547 38.9751C22.4547 38.6464 22.6957 38.3798 22.9929 38.3798ZM25.5947 38.3798C25.8919 38.3798 26.1328 38.6464 26.1328 38.9751C26.1328 39.3039 25.8919 39.5705 25.5947 39.5705C25.2975 39.5705 25.0566 39.3039 25.0566 38.9751C25.0566 38.6464 25.2975 38.3798 25.5947 38.3798ZM28.1966 38.3798C28.4937 38.3798 28.7347 38.6464 28.7347 38.9751C28.7347 39.3039 28.4937 39.5705 28.1966 39.5705C27.8994 39.5705 27.6584 39.3039 27.6584 38.9751C27.6584 38.6464 27.8994 38.3798 28.1966 38.3798ZM30.7984 38.3798C31.0956 38.3798 31.3365 38.6464 31.3365 38.9751C31.3365 39.3039 31.0956 39.5705 30.7984 39.5705C30.5012 39.5705 30.2602 39.3039 30.2602 38.9751C30.2602 38.6464 30.5012 38.3798 30.7984 38.3798ZM33.4002 38.3798C33.6974 38.3798 33.9384 38.6464 33.9384 38.9751C33.9384 39.3039 33.6974 39.5705 33.4002 39.5705C33.103 39.5705 32.8621 39.3039 32.8621 38.9751C32.8621 38.6464 33.103 38.3798 33.4002 38.3798ZM36.002 38.3798C36.2993 38.3798 36.5402 38.6464 36.5402 38.9751C36.5402 39.3039 36.2993 39.5705 36.002 39.5705C35.7049 39.5705 35.4639 39.3039 35.4639 38.9751C35.4639 38.6464 35.7049 38.3798 36.002 38.3798ZM38.6039 38.3798C38.9011 38.3798 39.1421 38.6464 39.1421 38.9751C39.1421 39.3039 38.9011 39.5705 38.6039 39.5705C38.3067 39.5705 38.0658 39.3039 38.0658 38.9751C38.0658 38.6464 38.3067 38.3798 38.6039 38.3798ZM41.2057 38.3798C41.503 38.3798 41.7439 38.6464 41.7439 38.9751C41.7439 39.3039 41.503 39.5705 41.2057 39.5705C40.9086 39.5705 40.6676 39.3039 40.6676 38.9751C40.6676 38.6464 40.9086 38.3798 41.2057 38.3798ZM43.8076 38.3798C44.1048 38.3798 44.3458 38.6464 44.3458 38.9751C44.3458 39.3039 44.1048 39.5705 43.8076 39.5705C43.5104 39.5705 43.2695 39.3039 43.2695 38.9751C43.2695 38.6464 43.5104 38.3798 43.8076 38.3798ZM46.4094 38.3798C46.7066 38.3798 46.9476 38.6464 46.9476 38.9751C46.9476 39.3039 46.7066 39.5705 46.4094 39.5705C46.1122 39.5705 45.8713 39.3039 45.8713 38.9751C45.8713 38.6464 46.1122 38.3798 46.4094 38.3798ZM49.0113 38.3798C49.3085 38.3798 49.5493 38.6464 49.5493 38.9751C49.5493 39.3039 49.3085 39.5705 49.0113 39.5705C48.714 39.5705 48.4732 39.3039 48.4732 38.9751C48.4732 38.6464 48.714 38.3798 49.0113 38.3798ZM51.6131 38.3798C51.9103 38.3798 52.1512 38.6464 52.1512 38.9751C52.1512 39.3039 51.9103 39.5705 51.6131 39.5705C51.3159 39.5705 51.075 39.3039 51.075 38.9751C51.075 38.6464 51.3159 38.3798 51.6131 38.3798ZM54.2149 38.3798C54.5122 38.3798 54.753 38.6464 54.753 38.9751C54.753 39.3039 54.5122 39.5705 54.2149 39.5705C53.9177 39.5705 53.6768 39.3039 53.6768 38.9751C53.6768 38.6464 53.9177 38.3798 54.2149 38.3798ZM56.8168 38.3798C57.1139 38.3798 57.3549 38.6464 57.3549 38.9751C57.3549 39.3039 57.1139 39.5705 56.8168 39.5705C56.5196 39.5705 56.2786 39.3039 56.2786 38.9751C56.2786 38.6464 56.5196 38.3798 56.8168 38.3798ZM59.4186 38.3798C59.7158 38.3798 59.9567 38.6464 59.9567 38.9751C59.9567 39.3039 59.7158 39.5705 59.4186 39.5705C59.1214 39.5705 58.8804 39.3039 58.8804 38.9751C58.8804 38.6464 59.1214 38.3798 59.4186 38.3798ZM62.0205 38.3798C62.3176 38.3798 62.5586 38.6464 62.5586 38.9751C62.5586 39.3039 62.3176 39.5705 62.0205 39.5705C61.7232 39.5705 61.4823 39.3039 61.4823 38.9751C61.4823 38.6464 61.7232 38.3798 62.0205 38.3798ZM64.6223 38.3798C64.9195 38.3798 65.1604 38.6464 65.1604 38.9751C65.1604 39.3039 64.9195 39.5705 64.6223 39.5705C64.3251 39.5705 64.0841 39.3039 64.0841 38.9751C64.0841 38.6464 64.3251 38.3798 64.6223 38.3798ZM67.2243 38.3798C67.5215 38.3798 67.7625 38.6464 67.7625 38.9751C67.7625 39.3039 67.5215 39.5705 67.2243 39.5705C66.9271 39.5705 66.6863 39.3039 66.6863 38.9751C66.6863 38.6464 66.9271 38.3798 67.2243 38.3798ZM0.630585 42.2544C0.630585 41.9258 0.87156 41.6592 1.16873 41.6592C1.46599 41.6592 1.70687 41.9258 1.70687 42.2544C1.70687 42.5833 1.46599 42.8498 1.16873 42.8498C0.87156 42.8498 0.630585 42.5833 0.630585 42.2544ZM70.5484 42.2544C70.5484 41.9258 70.7894 41.6592 71.0865 41.6592C71.3836 41.6592 71.6246 41.9258 71.6246 42.2544C71.6246 42.5833 71.3836 42.8498 71.0865 42.8498C70.7894 42.8498 70.5484 42.5833 70.5484 42.2544ZM69.313 39.7724C69.313 39.4436 69.554 39.1772 69.8511 39.1772C70.1483 39.1772 70.3893 39.4436 70.3893 39.7724C70.3893 40.1012 70.1483 40.3677 69.8511 40.3677C69.554 40.3677 69.313 40.1012 69.313 39.7724ZM1.80351 39.7724C1.80351 39.4436 2.04448 39.1772 2.34165 39.1772C2.63891 39.1772 2.87979 39.4436 2.87979 39.7724C2.87979 40.1012 2.63891 40.3677 2.34165 40.3677C2.04448 40.3677 1.80351 40.1012 1.80351 39.7724V39.7724Z" fill="#FEFEFE"/>
<path d="M6.65174 43.9945H8.09616L9.85368 47.4922L11.5709 43.9945H13.0255L13.3386 51.4481H11.8133L11.6214 46.5759L10.2275 49.4814H9.43966L7.9648 46.6094L7.79308 51.4481H6.33855L6.65174 43.9945V43.9945ZM15.7207 43.9945H17.4075L19.8721 51.4481H18.2055L17.6904 49.7383H15.3166L14.8014 51.4481H13.2055L15.7207 43.9945V43.9945ZM17.3267 48.4309L16.5085 45.6148L15.6701 48.4309H17.3267ZM20.5067 45.4808H18.3249V43.9945H24.2137V45.4808H22.042V51.4481H20.5067V45.4808V45.4808ZM24.3331 43.9945H25.8584V46.8552H28.7775V43.9945H30.3028V51.4481H28.7775V48.3863H25.8584V51.4481H24.3331V43.9945V43.9945ZM30.8667 43.9945H35.4727V45.4696H32.3919V46.9224H34.7858V48.3526H32.3919V49.9617H35.695V51.4481H30.8667V43.9945V43.9945ZM36.178 43.9945H37.6224L39.38 47.4922L41.0972 43.9945H42.5517L42.8648 51.4481H41.3395L41.1476 46.5759L39.7537 49.4814H38.9659L37.4911 46.6094L37.3194 51.4481H35.8649L36.178 43.9945V43.9945ZM45.2469 43.9945H46.9337L49.3983 51.4481H47.7317L47.2166 49.7383H44.8428L44.3276 51.4481H42.7317L45.2469 43.9945V43.9945ZM46.8529 48.4309L46.0347 45.6148L45.1963 48.4309H46.8529V48.4309ZM50.0329 45.4808H47.8511V43.9945H53.7399V45.4808H51.5683V51.4481H50.0329V45.4808V45.4808ZM53.8593 43.9945H55.3846V51.4481H53.8593V43.9945V43.9945ZM62.0293 50.0735C61.8879 50.2895 61.7162 50.4926 61.5142 50.6826C61.312 50.8726 61.0881 51.0384 60.8424 51.1799C60.5966 51.3214 60.3307 51.4331 60.0444 51.5151C59.7582 51.5971 59.4603 51.638 59.1505 51.638C58.6387 51.638 58.1707 51.5412 57.7465 51.3475C57.3223 51.1538 56.9569 50.8836 56.6505 50.5374C56.3441 50.1909 56.1067 49.7812 55.9384 49.3082C55.7701 48.835 55.6858 48.3154 55.6858 47.7493C55.6858 47.198 55.7701 46.682 55.9384 46.2015C56.1067 45.721 56.3441 45.3038 56.6505 44.95C56.9569 44.5961 57.3239 44.3167 57.7515 44.1118C58.1791 43.907 58.6521 43.8045 59.1706 43.8045C59.7969 43.8045 60.344 43.9313 60.8122 44.1845C61.2802 44.4378 61.669 44.8028 61.9788 45.2796L60.9384 46.3859C60.7363 46.0731 60.4972 45.8215 60.2212 45.6316C59.9451 45.4416 59.6151 45.3467 59.2313 45.3467C58.9282 45.3467 58.6555 45.4081 58.4131 45.531C58.1707 45.654 57.9654 45.8235 57.7969 46.0395C57.6286 46.2556 57.499 46.507 57.4081 46.7938C57.3171 47.0806 57.2717 47.3842 57.2717 47.7045C57.2717 48.0323 57.3171 48.3378 57.4081 48.6209C57.499 48.904 57.6286 49.1498 57.7969 49.3584C57.9654 49.567 58.1673 49.7309 58.403 49.8501C58.6387 49.9692 58.9048 50.0289 59.2011 50.0289C59.4434 50.0289 59.6539 50.0009 59.8322 49.945C60.0107 49.8891 60.1691 49.8147 60.307 49.7216C60.4451 49.6285 60.568 49.5204 60.6757 49.3975C60.7835 49.2745 60.8878 49.1498 60.9888 49.0231L62.0293 50.0735V50.0735ZM62.5123 49.2242C62.5999 49.3287 62.7026 49.4347 62.8204 49.5428C62.9382 49.6507 63.0696 49.7495 63.2144 49.8388C63.3592 49.9283 63.5174 50.0009 63.6891 50.0568C63.8608 50.1127 64.0443 50.1407 64.2396 50.1407C64.3541 50.1407 64.4686 50.122 64.583 50.0847C64.6975 50.0476 64.8018 49.9935 64.8962 49.9228C64.9904 49.8519 65.0662 49.7662 65.1234 49.6657C65.1806 49.5651 65.2093 49.4515 65.2093 49.3248C65.2093 49.0492 65.0881 48.835 64.8456 48.6824C64.6032 48.5296 64.2194 48.3788 63.6941 48.2297C63.4383 48.1627 63.2008 48.0658 62.982 47.9392C62.7631 47.8126 62.5746 47.6599 62.4164 47.481C62.2581 47.3023 62.1352 47.0974 62.0478 46.8664C61.9602 46.6356 61.9164 46.3785 61.9164 46.0954C61.9164 45.7826 61.967 45.4883 62.0679 45.2126C62.1689 44.937 62.3221 44.6929 62.5275 44.4806C62.7328 44.2683 62.9888 44.1007 63.2952 43.9777C63.6016 43.8548 63.9635 43.7934 64.381 43.7934C64.7244 43.7934 65.0274 43.8325 65.2901 43.9108C65.5528 43.9889 65.7766 44.0821 65.9618 44.1901C66.1469 44.2982 66.2985 44.4099 66.4163 44.5254C66.5341 44.6408 66.6234 44.7321 66.684 44.7991L65.8053 45.8719C65.7312 45.8049 65.6453 45.7322 65.5476 45.654C65.45 45.5758 65.3406 45.5031 65.2195 45.4361C65.0981 45.369 64.9652 45.3132 64.8204 45.2685C64.6756 45.2237 64.5225 45.2014 64.3609 45.2014C64.2531 45.2014 64.147 45.2201 64.0426 45.2573C63.9383 45.2945 63.8439 45.3448 63.7598 45.4081C63.6756 45.4715 63.6083 45.5459 63.5578 45.6316C63.5072 45.7173 63.482 45.8086 63.482 45.9055C63.482 46.1587 63.6032 46.3635 63.8457 46.5201C64.088 46.6765 64.4214 46.8069 64.8456 46.9112C65.0949 46.9781 65.3389 47.0694 65.578 47.1849C65.817 47.3004 66.0308 47.4512 66.2193 47.6375C66.4079 47.8238 66.5594 48.0528 66.674 48.3247C66.7884 48.5967 66.8457 48.9262 66.8457 49.3137C66.8457 49.6489 66.7783 49.958 66.6436 50.2412C66.5089 50.5243 66.3254 50.77 66.0931 50.9788C65.8608 51.1873 65.5881 51.3494 65.275 51.4648C64.9618 51.5803 64.6235 51.638 64.2598 51.638C63.9231 51.638 63.6167 51.6027 63.3407 51.5319C63.0645 51.4611 62.8154 51.368 62.5931 51.2525C62.3709 51.137 62.1705 51.0047 61.9921 50.8559C61.8137 50.7068 61.6605 50.5541 61.5326 50.3976L62.5123 49.2242V49.2242ZM22.6077 58.8138C22.4663 59.0298 22.2945 59.2329 22.0925 59.4228C21.8905 59.6128 21.6666 59.7785 21.4208 59.9201C21.1751 60.0616 20.909 60.1732 20.6228 60.2553C20.3366 60.3372 20.0387 60.3781 19.7289 60.3781C19.2171 60.3781 18.7491 60.2813 18.3249 60.0876C17.9006 59.8939 17.5353 59.6239 17.2289 59.2775C16.9225 58.931 16.6851 58.5213 16.5168 58.0483C16.3484 57.5753 16.2643 57.0556 16.2643 56.4894C16.2643 55.9381 16.3484 55.4222 16.5168 54.9417C16.6851 54.4612 16.9225 54.044 17.2289 53.6902C17.5353 53.3363 17.9022 53.0569 18.3299 52.852C18.7575 52.6472 19.2305 52.5447 19.7491 52.5447C20.3753 52.5447 20.9225 52.6714 21.3905 52.9247C21.8585 53.178 22.2473 53.543 22.5572 54.0198L21.5167 55.1261C21.3147 54.8132 21.0757 54.5618 20.7996 54.3718C20.5235 54.1818 20.1935 54.0868 19.8096 54.0868C19.5066 54.0868 19.2339 54.1483 18.9915 54.2712C18.7491 54.3941 18.5437 54.5637 18.3753 54.7797C18.2069 54.9958 18.0774 55.2471 17.9865 55.5339C17.8956 55.8208 17.8502 56.1244 17.8502 56.4446C17.8502 56.7724 17.8956 57.0779 17.9865 57.3611C18.0774 57.6441 18.2069 57.89 18.3753 58.0986C18.5437 58.3072 18.7457 58.471 18.9814 58.5903C19.2171 58.7094 19.4831 58.769 19.7794 58.769C20.0218 58.769 20.2322 58.7411 20.4106 58.6852C20.5891 58.6293 20.7474 58.5548 20.8854 58.4617C21.0235 58.3686 21.1463 58.2606 21.2541 58.1377C21.3619 58.0147 21.4662 57.89 21.5672 57.7633L22.6077 58.8138V58.8138ZM25.717 60.3781C25.2187 60.3781 24.7557 60.2776 24.3282 60.0764C23.9005 59.8753 23.5301 59.5996 23.2171 59.2495C22.9039 58.8994 22.6581 58.484 22.4796 58.0036C22.3011 57.5231 22.2119 57.0071 22.2119 56.4558C22.2119 55.8972 22.3011 55.3794 22.4796 54.9026C22.6581 54.4258 22.9039 54.0123 23.2171 53.6622C23.5301 53.3121 23.9005 53.0364 24.3282 52.8352C24.7557 52.6341 25.2187 52.5336 25.717 52.5336C26.2152 52.5336 26.6783 52.6341 27.1059 52.8352C27.5335 53.0364 27.9038 53.3121 28.217 53.6622C28.5302 54.0123 28.7759 54.4258 28.9544 54.9026C29.1328 55.3794 29.222 55.8972 29.222 56.4558C29.222 57.0071 29.1328 57.5231 28.9544 58.0036C28.7759 58.484 28.5302 58.8994 28.217 59.2495C27.9038 59.5996 27.5335 59.8753 27.1059 60.0764C26.6783 60.2776 26.2152 60.3781 25.717 60.3781ZM25.717 58.7914C26.0133 58.7914 26.2793 58.728 26.515 58.6015C26.7507 58.4748 26.951 58.3035 27.116 58.0874C27.2809 57.8714 27.4071 57.6217 27.4947 57.3387C27.5823 57.0556 27.6261 56.754 27.6261 56.4335C27.6261 56.1132 27.5823 55.8115 27.4947 55.5283C27.4071 55.2452 27.2809 54.9975 27.116 54.7853C26.951 54.573 26.7507 54.4053 26.515 54.2823C26.2793 54.1595 26.0133 54.098 25.717 54.098C25.4208 54.098 25.1531 54.1595 24.9139 54.2823C24.6749 54.4053 24.4729 54.573 24.3078 54.7853C24.1429 54.9975 24.0167 55.2452 23.9291 55.5283C23.8416 55.8115 23.7978 56.1132 23.7978 56.4335C23.7978 56.754 23.8416 57.0556 23.9291 57.3387C24.0167 57.6217 24.1429 57.8714 24.3078 58.0874C24.4729 58.3035 24.6749 58.4748 24.9139 58.6015C25.1531 58.728 25.4208 58.7914 25.717 58.7914ZM29.5234 52.7346H30.9779L33.897 57.5734V52.7346H35.402V60.1882H34.0182L31.0283 55.2602V60.1882H29.5234V52.7346V52.7346ZM37.7033 54.2209H35.5215V52.7346H41.4103V54.2209H39.2386V60.1882H37.7033V54.2209V54.2209ZM41.5298 52.7346H46.1357V54.2097H43.0549V55.6625H45.4488V57.0928H43.0549V58.702H46.358V60.1882H41.5298V52.7346V52.7346ZM47.1643 57.9645C47.2519 58.0688 47.3545 58.1749 47.4723 58.283C47.5902 58.3909 47.7215 58.4897 47.8663 58.5791C48.0111 58.6684 48.1693 58.7411 48.341 58.797C48.5128 58.8528 48.6963 58.8808 48.8916 58.8808C49.0061 58.8808 49.1205 58.8621 49.2349 58.825C49.3495 58.7877 49.4539 58.7336 49.5481 58.6629C49.6424 58.5921 49.7182 58.5065 49.7753 58.4059C49.8327 58.3053 49.8613 58.1917 49.8613 58.0651C49.8613 57.7895 49.74 57.5753 49.4975 57.4225C49.2552 57.2698 48.8714 57.1189 48.3461 56.9699C48.0902 56.9028 47.8528 56.806 47.6339 56.6793C47.4151 56.5527 47.2266 56.4 47.0684 56.2213C46.9101 56.0424 46.7872 55.8375 46.6997 55.6067C46.6121 55.3757 46.5683 55.1186 46.5683 54.8355C46.5683 54.5227 46.6189 54.2284 46.7198 53.9528C46.8209 53.6771 46.9741 53.4331 47.1795 53.2209C47.3849 53.0085 47.6407 52.8409 47.9471 52.718C48.2536 52.5951 48.6155 52.5336 49.033 52.5336C49.3764 52.5336 49.6795 52.5726 49.9421 52.6509C50.2047 52.7291 50.4285 52.8223 50.6138 52.9302C50.799 53.0383 50.9505 53.15 51.0683 53.2655C51.1861 53.3809 51.2754 53.4722 51.336 53.5393L50.4573 54.6121C50.3831 54.545 50.2973 54.4724 50.1996 54.3941C50.102 54.316 49.9926 54.2434 49.8714 54.1762C49.7501 54.1091 49.6172 54.0534 49.4724 54.0087C49.3276 53.9638 49.1744 53.9416 49.0128 53.9416C48.905 53.9416 48.7989 53.9603 48.6947 53.9975C48.5902 54.0347 48.496 54.0849 48.4117 54.1483C48.3276 54.2116 48.2602 54.2861 48.2098 54.3718C48.1592 54.4575 48.134 54.5487 48.134 54.6456C48.134 54.8988 48.2552 55.1037 48.4977 55.2602C48.7401 55.4166 49.0734 55.547 49.4975 55.6513C49.7468 55.7184 49.9909 55.8096 50.2299 55.9252C50.469 56.0405 50.6829 56.1914 50.8714 56.3776C51.0599 56.5639 51.2114 56.7929 51.3259 57.0648C51.4403 57.3368 51.4977 57.6665 51.4977 58.0538C51.4977 58.3891 51.4302 58.6982 51.2955 58.9813C51.1609 59.2645 50.9774 59.5103 50.7452 59.7189C50.5128 59.9275 50.24 60.0895 49.9269 60.2049C49.6137 60.3205 49.2755 60.3781 48.9118 60.3781C48.575 60.3781 48.2686 60.3428 47.9926 60.2721C47.7165 60.2012 47.4674 60.1081 47.2451 59.9927C47.0229 59.8771 46.8225 59.745 46.6442 59.596C46.4657 59.4469 46.3125 59.2943 46.1846 59.1377L47.1643 57.9645V57.9645ZM53.3241 54.2209H51.1423V52.7346H57.0311V54.2209H54.8594V60.1882H53.3241V54.2209V54.2209Z" fill="#FEFEFE"/>
<path d="M28.1195 68.0692H28.8434L29.901 71.2677H29.1858L28.9648 70.5341H27.9461L27.7251 71.2677H27.0402L28.1195 68.0692ZM28.8087 69.9729L28.4577 68.7645L28.0979 69.9729H28.8087ZM30.9617 68.0692H32.9036V68.707H31.6162V69.4311H32.5958V70.0497H31.6162V71.2677H30.9617V68.0692V68.0692ZM34.0423 68.0692H35.1173C35.2848 68.0692 35.4323 68.0957 35.5594 68.1483C35.6866 68.2011 35.7927 68.273 35.8779 68.3641C35.9632 68.4552 36.0267 68.5615 36.0687 68.683C36.1106 68.8044 36.1316 68.9341 36.1316 69.0714C36.1316 69.2793 36.0904 69.4606 36.008 69.6157C35.9256 69.7708 35.8093 69.8947 35.6591 69.9874L36.3006 71.2677H35.581L35.0436 70.0929H34.6794V71.2677H34.0423V68.0692ZM35.0826 69.5126C35.2039 69.5126 35.2993 69.4727 35.3686 69.3928C35.438 69.3128 35.4727 69.2121 35.4727 69.0906C35.4727 68.9595 35.438 68.8556 35.3686 68.779C35.2993 68.7021 35.2039 68.6638 35.0826 68.6638H34.6794V69.5126H35.0826V69.5126ZM37.4177 68.0692H38.0722V71.2677H37.4177V68.0692ZM41.9892 70.6779C41.9286 70.7707 41.8548 70.8577 41.7682 70.9393C41.6815 71.0208 41.5854 71.0919 41.48 71.1526C41.3745 71.2133 41.2604 71.2614 41.1375 71.2965C41.0146 71.3317 40.8868 71.3492 40.7539 71.3492C40.5343 71.3492 40.3335 71.3077 40.1514 71.2245C39.9694 71.1415 39.8126 71.0257 39.6811 70.8769C39.5496 70.7283 39.4477 70.5525 39.3755 70.3495C39.3033 70.1464 39.2671 69.9234 39.2671 69.6805C39.2671 69.444 39.3033 69.2226 39.3755 69.0163C39.4477 68.8101 39.5496 68.6311 39.6811 68.4792C39.8126 68.3274 39.97 68.2076 40.1536 68.1195C40.337 68.0317 40.54 67.9877 40.7625 67.9877C41.0312 67.9877 41.2661 68.042 41.4669 68.1508C41.6678 68.2595 41.8347 68.4161 41.9676 68.6206L41.5211 69.0955C41.4345 68.9612 41.3318 68.8533 41.2134 68.7718C41.0949 68.6903 40.9533 68.6496 40.7885 68.6496C40.6586 68.6496 40.5415 68.6759 40.4375 68.7286C40.3335 68.7814 40.2453 68.8542 40.173 68.9468C40.1008 69.0394 40.0452 69.1474 40.0062 69.2705C39.9672 69.3936 39.9476 69.5238 39.9476 69.6613C39.9476 69.8019 39.9672 69.933 40.0062 70.0544C40.0452 70.1761 40.1008 70.2815 40.173 70.371C40.2453 70.4606 40.332 70.5309 40.4332 70.5821C40.5343 70.6332 40.6485 70.6587 40.7756 70.6587C40.8797 70.6587 40.9699 70.6468 41.0465 70.6228C41.123 70.5987 41.1909 70.5668 41.2503 70.5268C41.3094 70.4868 41.3623 70.4406 41.4084 70.3878C41.4547 70.335 41.4995 70.2815 41.5428 70.2271L41.9892 70.6779V70.6779ZM43.9255 68.0692H44.6494L45.7071 71.2677H44.9918L44.7708 70.5341H43.7521L43.5311 71.2677H42.8462L43.9255 68.0692V68.0692ZM44.6147 69.9729L44.2636 68.7645L43.9039 69.9729H44.6147Z" fill="#ED3237"/>
<path d="M19.6391 34.3984C19.563 34.5276 19.4577 34.6596 19.3232 34.7945C19.1887 34.9292 19.03 35.0542 18.8473 35.1694C18.6646 35.2845 18.464 35.3786 18.2459 35.4516C18.0275 35.5246 17.7965 35.5611 17.553 35.5611C17.1722 35.5611 16.8245 35.4882 16.5098 35.3421C16.1951 35.1961 15.9236 34.9924 15.6951 34.7313C15.4667 34.47 15.289 34.1625 15.1621 33.8086C15.0352 33.4548 14.9718 33.0671 14.9718 32.6459C14.9718 32.2359 15.0352 31.8511 15.1621 31.4917C15.289 31.1321 15.468 30.8176 15.6989 30.548C15.9299 30.2784 16.2052 30.0649 16.5251 29.9076C16.8448 29.7503 17.1976 29.6717 17.5834 29.6717C17.8321 29.6717 18.0605 29.7013 18.2687 29.7602C18.4767 29.8192 18.6658 29.8992 18.8359 30.0003C19.0059 30.1015 19.1569 30.2207 19.2889 30.3584C19.4209 30.496 19.5376 30.6434 19.6391 30.8007L18.9615 31.4663C18.7991 31.208 18.61 31.0001 18.3943 30.8428C18.1785 30.6856 17.9082 30.6069 17.5834 30.6069C17.3346 30.6069 17.1113 30.6617 16.9133 30.7713C16.7154 30.8807 16.5466 31.0268 16.407 31.2094C16.2674 31.392 16.1608 31.6053 16.0873 31.8497C16.0136 32.094 15.9768 32.3511 15.9768 32.6206C15.9768 32.8903 16.0136 33.143 16.0873 33.379C16.1608 33.6149 16.2661 33.8199 16.4032 33.994C16.5402 34.1682 16.7039 34.3057 16.8943 34.4069C17.0847 34.508 17.2991 34.5586 17.5377 34.5586C17.756 34.5586 17.9425 34.5305 18.0973 34.4743C18.2521 34.4181 18.3842 34.3478 18.4932 34.2636C18.6024 34.1794 18.6937 34.0909 18.7673 33.9982C18.8409 33.9055 18.9082 33.8255 18.9692 33.7581L19.6391 34.3984V34.3984ZM20.0884 31.4748H20.9488L20.9717 31.9719C21.0122 31.9157 21.0643 31.854 21.1277 31.7865C21.1912 31.719 21.266 31.6574 21.3523 31.6011C21.4386 31.545 21.5389 31.4972 21.6531 31.4579C21.7673 31.4186 21.898 31.399 22.0452 31.399C22.1315 31.399 22.2089 31.4046 22.2775 31.4157C22.346 31.427 22.4158 31.4467 22.4868 31.4748L22.3041 32.41C22.2431 32.3819 22.1809 32.3623 22.1175 32.3511C22.0541 32.3398 21.9792 32.3342 21.8929 32.3342C21.7711 32.3342 21.6543 32.3567 21.5426 32.4015C21.431 32.4465 21.3346 32.5111 21.2533 32.5953C21.1722 32.6796 21.1074 32.7807 21.0592 32.8986C21.011 33.0167 20.9868 33.1486 20.9868 33.2947V35.4263H20.0884V31.4748V31.4748ZM22.9818 31.4748H23.8802V33.8676C23.8802 34.1204 23.9424 34.3155 24.0667 34.4532C24.1911 34.5908 24.3523 34.6596 24.5502 34.6596C24.6721 34.6596 24.7863 34.6329 24.8928 34.5796C24.9995 34.5262 25.0909 34.4518 25.167 34.3563C25.2431 34.2608 25.3027 34.1498 25.3459 34.0234C25.3891 33.8971 25.4105 33.7609 25.4105 33.6149V31.4748H26.3091V35.4263H25.4486L25.4258 34.9798C25.3801 35.0359 25.3243 35.0949 25.2583 35.1567C25.1924 35.2185 25.1162 35.2761 25.0299 35.3294C24.9436 35.3828 24.8446 35.4263 24.7329 35.4601C24.6213 35.4938 24.4943 35.5106 24.3523 35.5106C23.9055 35.5106 23.5654 35.3632 23.332 35.0682C23.0985 34.7734 22.9818 34.3759 22.9818 33.8761V31.4748V31.4748ZM28.1441 33.4295L26.8497 31.4748H27.9841L28.6999 32.6206L29.4232 31.4748H30.4358L29.1795 33.3284L30.5729 35.4263H29.4384L28.6237 34.1372L27.8014 35.4263H26.7888L28.1441 33.4295V33.4295Z" fill="#FEFEFE"/>
<path d="M31.0526 29.8065H31.9509V35.4263H31.0526V29.8065ZM36.192 34.8534C36.1767 34.8702 36.1349 34.9166 36.0663 34.9924C35.9978 35.0682 35.8988 35.1482 35.7694 35.2325C35.64 35.3167 35.475 35.3926 35.2744 35.4601C35.074 35.5274 34.8342 35.5611 34.555 35.5611C34.2707 35.5611 34.0118 35.5078 33.7783 35.4011C33.5449 35.2943 33.3457 35.1469 33.1806 34.9587C33.0157 34.7705 32.8888 34.5445 32.8 34.2805C32.7111 34.0165 32.6667 33.7244 32.6667 33.4042C32.6667 33.1121 32.7111 32.8411 32.8 32.5911C32.8888 32.3411 33.0131 32.1236 33.1731 31.9382C33.333 31.7528 33.5233 31.6067 33.744 31.5001C33.9649 31.3934 34.2098 31.3399 34.4788 31.3399C34.8037 31.3399 35.0791 31.406 35.305 31.5379C35.5309 31.6699 35.7123 31.8426 35.8494 32.0561C35.9864 32.2696 36.0854 32.5111 36.1464 32.7807C36.2072 33.0503 36.2377 33.3255 36.2377 33.6064V33.7496H33.5728C33.5728 33.8957 33.602 34.0277 33.6604 34.1457C33.7187 34.2636 33.7948 34.3647 33.8888 34.449C33.9826 34.5332 34.0893 34.5978 34.2085 34.6428C34.3279 34.6877 34.4458 34.7101 34.5626 34.7101C34.7351 34.7101 34.8862 34.6919 35.0156 34.6555C35.1451 34.6188 35.2554 34.5767 35.3468 34.529C35.4381 34.4813 35.513 34.4307 35.5715 34.3774C35.6298 34.324 35.6742 34.2805 35.7047 34.2467L36.192 34.8534V34.8534ZM35.3164 33.0334C35.3164 32.9324 35.2986 32.8313 35.2631 32.7301C35.2276 32.6291 35.1755 32.5378 35.107 32.4563C35.0384 32.3749 34.9509 32.3075 34.8443 32.2541C34.7377 32.2007 34.6159 32.174 34.4788 32.174C34.3316 32.174 34.2009 32.2007 34.0867 32.2541C33.9725 32.3075 33.8773 32.3749 33.8012 32.4563C33.7251 32.5378 33.6667 32.6291 33.626 32.7301C33.5855 32.8313 33.5652 32.9324 33.5652 33.0334H35.3164V33.0334ZM39.0396 35.0556C38.9432 35.1848 38.796 35.2999 38.598 35.4011C38.4001 35.5022 38.1793 35.5527 37.9356 35.5527C37.7884 35.5527 37.6425 35.5274 37.4978 35.4769C37.3532 35.4263 37.2211 35.3491 37.1019 35.2451C36.9825 35.1413 36.8862 35.0078 36.8125 34.8449C36.739 34.6821 36.7022 34.4911 36.7022 34.272C36.7022 34.0474 36.7402 33.8465 36.8163 33.6697C36.8925 33.4926 36.9991 33.3438 37.1361 33.223C37.2732 33.1023 37.4382 33.0109 37.6311 32.9492C37.8239 32.8874 38.0371 32.8565 38.2706 32.8565C38.3417 32.8565 38.4204 32.8579 38.5067 32.8607C38.593 32.8636 38.6767 32.8678 38.7579 32.8734C38.8493 32.879 38.9432 32.8846 39.0396 32.8903V32.7976C39.0396 32.601 38.9685 32.4465 38.8264 32.3342C38.6843 32.2218 38.499 32.1657 38.2706 32.1657C38.0168 32.1657 37.8137 32.2022 37.6615 32.2752C37.5092 32.3482 37.3747 32.4268 37.2579 32.5111L36.8468 31.8371C36.9179 31.7809 36.9991 31.7234 37.0904 31.6643C37.1818 31.6053 37.2884 31.5519 37.4102 31.5043C37.532 31.4565 37.6729 31.4172 37.8328 31.3863C37.9927 31.3554 38.1793 31.3399 38.3924 31.3399C38.6209 31.3399 38.8276 31.3751 39.013 31.4453C39.1983 31.5155 39.3569 31.6138 39.4888 31.7401C39.6208 31.8665 39.7224 32.0182 39.7933 32.1951C39.8645 32.3721 39.9 32.5644 39.9 32.7723V35.4263H39.0625L39.0396 35.0556V35.0556ZM39.0396 33.6401C38.9483 33.6345 38.8594 33.6289 38.7732 33.6232C38.7021 33.6176 38.6272 33.6134 38.5485 33.6107C38.4699 33.6078 38.4025 33.6064 38.3467 33.6064C38.0574 33.6064 37.8544 33.6697 37.7376 33.796C37.6208 33.9224 37.5625 34.067 37.5625 34.2299C37.5625 34.3984 37.6171 34.5305 37.7263 34.6259C37.8353 34.7213 37.9965 34.7692 38.2097 34.7692C38.3163 34.7692 38.4191 34.7495 38.5181 34.7101C38.6171 34.6709 38.7046 34.6175 38.7808 34.5501C38.8569 34.4826 38.9191 34.404 38.9673 34.3142C39.0155 34.2243 39.0396 34.1288 39.0396 34.0277V33.6401V33.6401ZM40.768 31.4747H41.6283L41.6512 31.9719C41.6919 31.9157 41.7439 31.8539 41.8073 31.7865C41.8708 31.719 41.9456 31.6574 42.032 31.6011C42.1182 31.545 42.2185 31.4972 42.3327 31.4579C42.4469 31.4186 42.5776 31.399 42.7248 31.399C42.8111 31.399 42.8885 31.4045 42.957 31.4157C43.0255 31.427 43.0954 31.4467 43.1664 31.4747L42.9837 32.41C42.9228 32.3819 42.8606 32.3622 42.7971 32.3511C42.7337 32.3398 42.6588 32.3342 42.5725 32.3342C42.4507 32.3342 42.334 32.3566 42.2223 32.4015C42.1107 32.4465 42.0141 32.5111 41.9329 32.5953C41.8518 32.6796 41.787 32.7807 41.7388 32.8986C41.6905 33.0166 41.6664 33.1486 41.6664 33.2947V35.4263H40.768V31.4747V31.4747ZM43.6765 31.4747H44.5369L44.5598 31.9213C44.6054 31.8651 44.6601 31.8061 44.7235 31.7444C44.787 31.6826 44.8631 31.625 44.9519 31.5717C45.0407 31.5183 45.141 31.4747 45.2527 31.4411C45.3643 31.4074 45.4912 31.3905 45.6333 31.3905C46.0801 31.3905 46.4202 31.5379 46.6536 31.8328C46.8871 32.1278 47.0038 32.5251 47.0038 33.025V35.4263H46.1055V33.0334C46.1055 32.7807 46.0433 32.5855 45.9189 32.448C45.7945 32.3103 45.6333 32.2415 45.4354 32.2415C45.3136 32.2415 45.1994 32.2682 45.0927 32.3215C44.9862 32.3749 44.8948 32.4493 44.8186 32.5449C44.7425 32.6403 44.6829 32.7513 44.6398 32.8776C44.5966 33.004 44.575 33.1403 44.575 33.2863V35.4263H43.6765V31.4747V31.4747ZM47.8795 29.8065H48.8389V30.8513H47.8795V29.8065ZM47.9099 31.4747H48.8084V35.4263H47.9099V31.4747ZM49.7297 31.4747H50.59L50.6129 31.9213C50.6586 31.8651 50.7132 31.8061 50.7766 31.7444C50.8401 31.6826 50.9162 31.625 51.005 31.5717C51.0938 31.5183 51.1941 31.4747 51.3058 31.4411C51.4174 31.4074 51.5443 31.3905 51.6864 31.3905C52.1332 31.3905 52.4733 31.5379 52.7067 31.8328C52.9403 32.1278 53.057 32.5251 53.057 33.025V35.4263H52.1586V33.0334C52.1586 32.7807 52.0964 32.5855 51.972 32.448C51.8476 32.3103 51.6864 32.2415 51.4886 32.2415C51.3667 32.2415 51.2525 32.2682 51.1459 32.3215C51.0393 32.3749 50.948 32.4493 50.8718 32.5449C50.7956 32.6403 50.736 32.7513 50.6929 32.8776C50.6498 33.004 50.6281 33.1403 50.6281 33.2863V35.4263H49.7297V31.4747V31.4747ZM54.5037 36.0667C54.6458 36.1734 54.7993 36.2507 54.9643 36.2984C55.1293 36.3461 55.3234 36.37 55.5468 36.37C55.7803 36.37 55.9757 36.2913 56.1331 36.134C56.2905 35.9768 56.3691 35.7577 56.3691 35.4769V35.0472C56.2473 35.1595 56.1141 35.2508 55.9694 35.3211C55.8247 35.3913 55.6331 35.4263 55.3946 35.4263C55.1357 35.4263 54.9059 35.3786 54.7055 35.283C54.505 35.1876 54.3337 35.0542 54.1915 34.8828C54.0494 34.7116 53.9416 34.5094 53.8679 34.2763C53.7943 34.0432 53.7574 33.7861 53.7574 33.5053C53.7574 33.2132 53.8045 32.938 53.8983 32.6796C53.9923 32.4213 54.1268 32.1966 54.302 32.0055C54.477 31.8146 54.6889 31.6643 54.9376 31.5548C55.1864 31.4453 55.4656 31.3905 55.7752 31.3905C56.0849 31.3905 56.3704 31.4186 56.6318 31.4747C56.8932 31.5309 57.1052 31.5899 57.2675 31.6517V35.4938C57.2675 35.769 57.2244 36.0132 57.1382 36.2268C57.0518 36.4402 56.9325 36.6199 56.7802 36.766C56.628 36.912 56.4478 37.023 56.2397 37.0988C56.0315 37.1746 55.8056 37.2126 55.562 37.2126C55.3742 37.2126 55.208 37.2027 55.0633 37.183C54.9186 37.1634 54.7892 37.1367 54.675 37.103C54.5608 37.0693 54.4567 37.0272 54.3628 36.9766C54.2689 36.9261 54.1814 36.8671 54.1001 36.7997L54.5037 36.0667V36.0667ZM56.3691 32.3342C56.2981 32.3061 56.2244 32.285 56.1483 32.2709C56.0722 32.2569 55.9528 32.2499 55.7904 32.2499C55.6077 32.2499 55.4478 32.2836 55.3107 32.3511C55.1737 32.4184 55.057 32.5082 54.9605 32.6206C54.8641 32.7329 54.7918 32.8636 54.7436 33.0124C54.6953 33.1613 54.6712 33.3171 54.6712 33.48C54.6712 33.7834 54.7398 34.0388 54.8768 34.2467C55.0138 34.4546 55.2346 34.5585 55.5392 34.5585C55.8133 34.5585 56.0201 34.4939 56.1598 34.3647C56.2993 34.2355 56.3691 34.0305 56.3691 33.7496V32.3342V32.3342Z" fill="#ED3237"/>
<path d="M40.4419 6.65723V8.95703H39.9439C37.8345 8.99609 36.1548 9.62109 34.9048 10.832C33.6548 12.043 32.9322 13.7471 32.7368 15.9443C33.8599 14.6553 35.3931 14.0107 37.3365 14.0107C39.1919 14.0107 40.6714 14.665 41.7749 15.9736C42.8882 17.2822 43.4449 18.9717 43.4449 21.042C43.4449 23.2393 42.8443 24.9971 41.6431 26.3154C40.4517 27.6338 38.8501 28.293 36.8384 28.293C34.7974 28.293 33.1421 27.5117 31.8726 25.9492C30.6031 24.377 29.9683 22.3555 29.9683 19.8848V18.8447C29.9683 14.9189 30.8033 11.9209 32.4732 9.85059C34.1529 7.77051 36.648 6.70605 39.9585 6.65723H40.4419ZM36.8824 16.2666C35.9546 16.2666 35.1001 16.5449 34.3189 17.1016C33.5376 17.6582 32.9956 18.3564 32.6929 19.1963V20.1924C32.6929 21.9502 33.0884 23.3662 33.8794 24.4404C34.6704 25.5146 35.6568 26.0518 36.8384 26.0518C38.0591 26.0518 39.0161 25.6025 39.7095 24.7041C40.4126 23.8057 40.7642 22.6289 40.7642 21.1738C40.7642 19.709 40.4077 18.5273 39.6949 17.6289C38.9917 16.7207 38.0542 16.2666 36.8824 16.2666Z" fill="#F3F4F4"/>
</svg>
