<svg width="73" height="71" viewBox="0 0 73 71" fill="none" xmlns="http://www.w3.org/2000/svg">
<path d="M34.6787 28H31.9541V9.93848L26.4902 11.9453V9.48438L34.2539 6.56934H34.6787V28ZM51.5244 28H48.7998V9.93848L43.3359 11.9453V9.48438L51.0996 6.56934H51.5244V28Z" fill="#F3F4F4"/>
<path fill-rule="evenodd" clip-rule="evenodd" d="M18.0165 65.3038H53.5053L49.1792 69.8456C48.3223 70.7505 47.9356 70.9966 46.7965 71H24.7628C23.7384 71.0001 23.3225 70.8721 22.4862 69.9024L18.0165 65.3038Z" fill="#FFCC29"/>
<path fill-rule="evenodd" clip-rule="evenodd" d="M3.69811 36.5727H68.3366C70.3706 36.5727 72.0347 38.4137 72.0347 40.6639V61.5232C72.0347 63.7734 70.3706 65.6145 68.3366 65.6145H3.69811C1.66413 65.6145 0 63.7734 0 61.5232V40.6639C0 38.4137 1.66413 36.5727 3.69811 36.5727V36.5727Z" fill="#ED3237"/>
<path d="M4.16452 39.2472H68.0206C69.0716 39.2472 69.9316 40.1985 69.9316 41.3612V60.8257C69.9316 61.9884 69.0715 62.9398 68.0206 62.9398H4.16452C3.11352 62.9398 2.2536 61.9885 2.2536 60.8257V41.3612C2.2536 40.1985 3.11352 39.2472 4.16452 39.2472V39.2472Z" fill="#003F5D"/>
<path fill-rule="evenodd" clip-rule="evenodd" d="M35.1416 43.6254C38.7576 43.6254 41.689 46.8692 41.689 50.8707C41.689 54.8721 38.7576 58.1159 35.1416 58.1159C31.5256 58.1159 28.5942 54.8721 28.5942 50.8707C28.5942 46.8692 31.5256 43.6254 35.1416 43.6254V43.6254ZM35.1296 54.0142C35.6665 54.0142 36.1524 53.8554 36.5875 53.5379C37.0226 53.1896 37.4623 52.8413 37.9066 52.493C38.0456 52.493 38.1704 52.5595 38.2815 52.6928C38.3925 52.8259 38.4481 52.9694 38.4481 53.123C38.4481 53.6966 38.0315 54.2241 37.1984 54.7056C36.4857 55.1153 35.8284 55.3202 35.2267 55.3202C34.1159 55.3202 33.1648 54.9029 32.3733 54.0679C31.582 53.2331 31.1861 52.201 31.1861 50.9718C31.1861 49.7837 31.5795 48.7593 32.3664 47.8988C33.1532 47.0383 34.0882 46.6082 35.1712 46.6082C35.773 46.6082 36.4441 46.8231 37.1846 47.2535C38.0362 47.7553 38.462 48.3085 38.462 48.9128C38.462 49.0767 38.4019 49.2203 38.2815 49.3432C38.1612 49.466 38.027 49.5275 37.8789 49.5275C37.8048 49.5275 37.4946 49.2663 36.9486 48.7439C36.4023 48.2214 35.8238 47.9602 35.2129 47.9602C34.4076 47.9602 33.7387 48.2496 33.2064 48.8283C32.6742 49.4071 32.408 50.1369 32.408 51.0179C32.408 51.8374 32.6742 52.5416 33.2064 53.1307C33.7387 53.7196 34.3798 54.0142 35.1296 54.0142V54.0142ZM35.1296 48.4673C35.7312 48.4673 36.2775 48.7284 36.7681 49.2509C37.2586 49.7733 37.6244 50.0345 37.865 50.0345C38.1427 50.0345 38.3879 49.9219 38.6009 49.6965C38.8138 49.4711 38.9203 49.2049 38.9203 48.8975C38.9203 48.1395 38.4528 47.4634 37.5178 46.8693C36.7033 46.3571 35.921 46.101 35.1712 46.101C33.9494 46.101 32.9033 46.5774 32.0331 47.5301C31.163 48.4827 30.728 49.6299 30.728 50.9718C30.728 52.3343 31.1698 53.4841 32.054 54.4213C32.938 55.3586 33.9955 55.8273 35.2267 55.8273C35.9673 55.8273 36.7357 55.5815 37.5317 55.0896C38.4575 54.5161 38.9203 53.8554 38.9203 53.1075C38.9203 52.8106 38.8138 52.5442 38.6009 52.3085C38.3879 52.0731 38.1427 51.9553 37.865 51.9553C37.6614 51.9553 37.2888 52.2139 36.7472 52.7312C36.2056 53.2485 35.6665 53.5071 35.1296 53.5071C34.5279 53.5071 34.0002 53.2611 33.5467 52.7696C33.0931 52.2779 32.8662 51.694 32.8662 51.0179C32.8662 50.3111 33.0861 49.7093 33.5258 49.2125C33.9655 48.7157 34.5001 48.4673 35.1296 48.4673V48.4673ZM35.1296 52.9847C35.5184 52.9847 35.8979 52.8259 36.2682 52.5085C37.0921 51.8015 37.6244 51.4483 37.865 51.4483C38.2631 51.4483 38.6148 51.6121 38.9203 51.9399C39.2257 52.2677 39.3786 52.657 39.3786 53.1075C39.3786 53.9988 38.874 54.7824 37.865 55.4585C36.9762 56.0526 36.097 56.3497 35.2267 56.3497C33.8568 56.3497 32.6857 55.8323 31.7137 54.7979C30.7418 53.7632 30.2558 52.4879 30.2558 50.9718C30.2558 49.4763 30.7372 48.206 31.6999 47.1612C32.6625 46.1163 33.8197 45.594 35.1712 45.594C36.0599 45.594 36.9486 45.891 37.8372 46.4852C38.8647 47.1716 39.3786 47.9756 39.3786 48.8975C39.3786 49.3585 39.2304 49.7477 38.9341 50.0652C38.638 50.3828 38.2815 50.5417 37.865 50.5417C37.4854 50.5417 37.1383 50.3777 36.8235 50.0499C36.1478 49.3329 35.5831 48.9743 35.1296 48.9743C34.6204 48.9743 34.1923 49.1715 33.8452 49.566C33.498 49.9604 33.3245 50.4391 33.3245 51.0025C33.3245 51.5455 33.5004 52.0116 33.852 52.4008C34.2039 52.7901 34.6297 52.9847 35.1296 52.9847V52.9847Z" fill="#5DA3D8" fill-opacity="0.290196"/>
<path fill-rule="evenodd" clip-rule="evenodd" d="M42.7691 53.6652C42.641 53.6175 42.5127 53.5698 42.3846 53.522C41.1952 56.6823 39.3102 58.6901 36.4801 59.132C34.4185 59.4538 32.4993 59.094 30.7856 57.7644C28.1668 55.7324 26.3393 51.6944 28.2449 47.2045C28.8498 45.7793 29.5091 44.8646 30.6605 43.9291C32.7026 42.2698 35.0266 41.9726 37.5773 42.7892C37.5952 42.7472 37.613 42.7052 37.631 42.6631C38.448 42.9306 39.1776 43.3908 39.847 43.9829C39.8794 43.9236 39.9118 43.8641 39.9443 43.8047C39.2212 43.1825 38.4753 42.7341 37.7022 42.4911C37.7204 42.4424 37.7389 42.3938 37.7572 42.3454C35.3244 41.4514 32.4484 41.7451 30.2026 43.73C28.9391 44.8465 27.9372 46.4561 27.4437 48.1594C26.3805 51.8289 27.4967 56.0752 30.904 58.3682C32.4234 59.3907 33.703 59.7507 35.4808 59.7108C38.8999 59.6343 41.3985 57.5412 42.7691 53.6652V53.6652Z" fill="#5DA3D8" fill-opacity="0.290196"/>
<path fill-rule="evenodd" clip-rule="evenodd" d="M27.5442 42.6286C27.6695 42.7671 27.7947 42.9057 27.9198 43.0442C25.2628 46.4261 24.1768 50.1318 25.3546 54.0611C26.2128 56.9234 27.6555 59.2046 30.0615 60.6549C33.7381 62.8709 39.2182 62.8322 42.8675 57.7477C44.0258 56.1337 44.6115 54.7459 44.9332 52.7077C45.5036 49.0926 44.4665 45.904 42.1174 43.0691C42.1516 43.0216 42.1857 42.9739 42.2198 42.9263C41.461 42.0216 40.549 41.3425 39.5321 40.8185C39.5761 40.7419 39.6202 40.6652 39.6643 40.5885C40.7444 41.1648 41.6534 41.8718 42.3607 42.7336C42.4015 42.6817 42.4423 42.6296 42.4832 42.5776C44.8456 45.2143 46.2074 49.1172 45.4106 53.1861C44.9623 55.475 43.9222 57.7117 42.4044 59.3428C39.1345 62.8571 33.8157 63.8792 29.3527 60.883C23.4266 56.9043 22.7359 47.7064 27.5442 42.6286V42.6286Z" fill="#5DA3D8" fill-opacity="0.290196"/>
<path fill-rule="evenodd" clip-rule="evenodd" d="M42.397 55.9393L43.0859 56.4485C39.7836 62.2209 32.5183 63.0243 28.2043 58.208C26.4445 56.2428 25.6891 53.9638 25.588 51.2034C25.2724 42.5904 33.8407 37.3839 40.2238 41.8318L40.0489 42.1821C42.167 43.5627 43.504 45.6955 44.0713 48.5699L43.8465 48.6038C43.3061 45.8845 42.0479 43.7678 39.8991 42.3987L39.7488 42.6527C34.0683 38.6056 25.8134 43.2743 26.3781 51.53C27.3454 61.2384 38.1663 63.2715 42.397 55.9393V55.9393Z" fill="#5DA3D8" fill-opacity="0.290196"/>
<path fill-rule="evenodd" clip-rule="evenodd" d="M1.8845 63.6105C1.8845 63.2816 2.12547 63.0152 2.42264 63.0152C2.7198 63.0152 2.96078 63.2816 2.96078 63.6105C2.96078 63.9393 2.7198 64.2058 2.42264 64.2058C2.12547 64.2058 1.8845 63.9393 1.8845 63.6105ZM4.78002 63.7501C5.07719 63.7501 5.31817 64.0167 5.31817 64.3454C5.31817 64.6743 5.07719 64.9408 4.78002 64.9408C4.48276 64.9408 4.24188 64.6743 4.24188 64.3454C4.24188 64.0167 4.48276 63.7501 4.78002 63.7501ZM7.38182 63.7501C7.67908 63.7501 7.91996 64.0167 7.91996 64.3454C7.91996 64.6743 7.67908 64.9408 7.38182 64.9408C7.08465 64.9408 6.84368 64.6743 6.84368 64.3454C6.84368 64.0167 7.08465 63.7501 7.38182 63.7501ZM9.98371 63.7501C10.2809 63.7501 10.5219 64.0167 10.5219 64.3454C10.5219 64.6743 10.2809 64.9408 9.98371 64.9408C9.68645 64.9408 9.44557 64.6743 9.44557 64.3454C9.44557 64.0167 9.68645 63.7501 9.98371 63.7501ZM12.5855 63.7501C12.8827 63.7501 13.1236 64.0167 13.1236 64.3454C13.1236 64.6743 12.8827 64.9408 12.5855 64.9408C12.2883 64.9408 12.0474 64.6743 12.0474 64.3454C12.0474 64.0167 12.2883 63.7501 12.5855 63.7501ZM15.1874 63.7501C15.4846 63.7501 15.7254 64.0167 15.7254 64.3454C15.7254 64.6743 15.4846 64.9408 15.1874 64.9408C14.8901 64.9408 14.6493 64.6743 14.6493 64.3454C14.6493 64.0167 14.8901 63.7501 15.1874 63.7501ZM17.7892 63.7501C18.0864 63.7501 18.3273 64.0167 18.3273 64.3454C18.3273 64.6743 18.0864 64.9408 17.7892 64.9408C17.492 64.9408 17.251 64.6743 17.251 64.3454C17.251 64.0167 17.492 63.7501 17.7892 63.7501ZM20.3911 63.7501C20.6882 63.7501 20.9291 64.0167 20.9291 64.3454C20.9291 64.6743 20.6882 64.9408 20.3911 64.9408C20.0938 64.9408 19.8529 64.6743 19.8529 64.3454C19.8529 64.0167 20.0938 63.7501 20.3911 63.7501ZM22.9929 63.7501C23.29 63.7501 23.531 64.0167 23.531 64.3454C23.531 64.6743 23.29 64.9408 22.9929 64.9408C22.6957 64.9408 22.4547 64.6743 22.4547 64.3454C22.4547 64.0167 22.6957 63.7501 22.9929 63.7501ZM25.5947 63.7501C25.8919 63.7501 26.1328 64.0167 26.1328 64.3454C26.1328 64.6743 25.8919 64.9408 25.5947 64.9408C25.2975 64.9408 25.0566 64.6743 25.0566 64.3454C25.0566 64.0167 25.2975 63.7501 25.5947 63.7501ZM28.1966 63.7501C28.4937 63.7501 28.7347 64.0167 28.7347 64.3454C28.7347 64.6743 28.4937 64.9408 28.1966 64.9408C27.8994 64.9408 27.6584 64.6743 27.6584 64.3454C27.6584 64.0167 27.8994 63.7501 28.1966 63.7501ZM30.7984 63.7501C31.0956 63.7501 31.3365 64.0167 31.3365 64.3454C31.3365 64.6743 31.0956 64.9408 30.7984 64.9408C30.5012 64.9408 30.2602 64.6743 30.2602 64.3454C30.2602 64.0167 30.5012 63.7501 30.7984 63.7501ZM33.4002 63.7501C33.6974 63.7501 33.9384 64.0167 33.9384 64.3454C33.9384 64.6743 33.6974 64.9408 33.4002 64.9408C33.103 64.9408 32.8621 64.6743 32.8621 64.3454C32.8621 64.0167 33.103 63.7501 33.4002 63.7501ZM36.002 63.7501C36.2993 63.7501 36.5402 64.0167 36.5402 64.3454C36.5402 64.6743 36.2993 64.9408 36.002 64.9408C35.7049 64.9408 35.4639 64.6743 35.4639 64.3454C35.4639 64.0167 35.7049 63.7501 36.002 63.7501ZM38.6039 63.7501C38.9011 63.7501 39.1421 64.0167 39.1421 64.3454C39.1421 64.6743 38.9011 64.9408 38.6039 64.9408C38.3067 64.9408 38.0658 64.6743 38.0658 64.3454C38.0658 64.0167 38.3067 63.7501 38.6039 63.7501ZM41.2057 63.7501C41.503 63.7501 41.7439 64.0167 41.7439 64.3454C41.7439 64.6743 41.503 64.9408 41.2057 64.9408C40.9086 64.9408 40.6676 64.6743 40.6676 64.3454C40.6676 64.0167 40.9086 63.7501 41.2057 63.7501ZM43.8076 63.7501C44.1048 63.7501 44.3458 64.0167 44.3458 64.3454C44.3458 64.6743 44.1048 64.9408 43.8076 64.9408C43.5104 64.9408 43.2695 64.6743 43.2695 64.3454C43.2695 64.0167 43.5104 63.7501 43.8076 63.7501ZM46.4094 63.7501C46.7066 63.7501 46.9476 64.0167 46.9476 64.3454C46.9476 64.6743 46.7066 64.9408 46.4094 64.9408C46.1122 64.9408 45.8713 64.6743 45.8713 64.3454C45.8713 64.0167 46.1122 63.7501 46.4094 63.7501ZM49.0113 63.7501C49.3085 63.7501 49.5493 64.0167 49.5493 64.3454C49.5493 64.6743 49.3085 64.9408 49.0113 64.9408C48.714 64.9408 48.4732 64.6743 48.4732 64.3454C48.4732 64.0167 48.714 63.7501 49.0113 63.7501ZM51.6131 63.7501C51.9103 63.7501 52.1512 64.0167 52.1512 64.3454C52.1512 64.6743 51.9103 64.9408 51.6131 64.9408C51.3159 64.9408 51.075 64.6743 51.075 64.3454C51.075 64.0167 51.3159 63.7501 51.6131 63.7501ZM54.2149 63.7501C54.5122 63.7501 54.753 64.0167 54.753 64.3454C54.753 64.6743 54.5122 64.9408 54.2149 64.9408C53.9177 64.9408 53.6768 64.6743 53.6768 64.3454C53.6768 64.0167 53.9177 63.7501 54.2149 63.7501ZM56.8168 63.7501C57.1139 63.7501 57.3549 64.0167 57.3549 64.3454C57.3549 64.6743 57.1139 64.9408 56.8168 64.9408C56.5196 64.9408 56.2786 64.6743 56.2786 64.3454C56.2786 64.0167 56.5196 63.7501 56.8168 63.7501ZM59.4186 63.7501C59.7158 63.7501 59.9567 64.0167 59.9567 64.3454C59.9567 64.6743 59.7158 64.9408 59.4186 64.9408C59.1214 64.9408 58.8804 64.6743 58.8804 64.3454C58.8804 64.0167 59.1214 63.7501 59.4186 63.7501ZM62.0205 63.7501C62.3176 63.7501 62.5586 64.0167 62.5586 64.3454C62.5586 64.6743 62.3176 64.9408 62.0205 64.9408C61.7232 64.9408 61.4823 64.6743 61.4823 64.3454C61.4823 64.0167 61.7232 63.7501 62.0205 63.7501ZM64.6223 63.7501C64.9195 63.7501 65.1604 64.0167 65.1604 64.3454C65.1604 64.6743 64.9195 64.9408 64.6223 64.9408C64.3251 64.9408 64.0841 64.6743 64.0841 64.3454C64.0841 64.0167 64.3251 63.7501 64.6223 63.7501ZM67.2243 63.7501C67.5215 63.7501 67.7625 64.0167 67.7625 64.3454C67.7625 64.6743 67.5215 64.9408 67.2243 64.9408C66.9271 64.9408 66.6863 64.6743 66.6863 64.3454C66.6863 64.0167 66.9271 63.7501 67.2243 63.7501ZM69.313 63.6274C69.313 63.2985 69.554 63.032 69.8511 63.032C70.1483 63.032 70.3893 63.2985 70.3893 63.6274C70.3893 63.9561 70.1483 64.2227 69.8511 64.2227C69.554 64.2227 69.313 63.9561 69.313 63.6274ZM0.630585 61.0636C0.630585 60.7347 0.87156 60.4683 1.16873 60.4683C1.46599 60.4683 1.70687 60.7347 1.70687 61.0636C1.70687 61.3923 1.46599 61.6589 1.16873 61.6589C0.87156 61.6589 0.630585 61.3923 0.630585 61.0636ZM0.630585 58.2337C0.630585 57.9051 0.87156 57.6385 1.16873 57.6385C1.46599 57.6385 1.70687 57.9051 1.70687 58.2337C1.70687 58.5625 1.46599 58.8291 1.16873 58.8291C0.87156 58.8291 0.630585 58.5625 0.630585 58.2337ZM0.630585 55.4039C0.630585 55.0751 0.87156 54.8086 1.16873 54.8086C1.46599 54.8086 1.70687 55.0751 1.70687 55.4039C1.70687 55.7327 1.46599 55.9992 1.16873 55.9992C0.87156 55.9992 0.630585 55.7327 0.630585 55.4039ZM0.630585 52.5741C0.630585 52.2452 0.87156 51.9787 1.16873 51.9787C1.46599 51.9787 1.70687 52.2452 1.70687 52.5741C1.70687 52.9028 1.46599 53.1694 1.16873 53.1694C0.87156 53.1694 0.630585 52.9028 0.630585 52.5741ZM0.630585 49.7442C0.630585 49.4153 0.87156 49.1488 1.16873 49.1488C1.46599 49.1488 1.70687 49.4153 1.70687 49.7442C1.70687 50.0729 1.46599 50.3394 1.16873 50.3394C0.87156 50.3394 0.630585 50.0729 0.630585 49.7442ZM0.630585 46.9143C0.630585 46.5854 0.87156 46.319 1.16873 46.319C1.46599 46.319 1.70687 46.5854 1.70687 46.9143C1.70687 47.2431 1.46599 47.5095 1.16873 47.5095C0.87156 47.5095 0.630585 47.2431 0.630585 46.9143ZM0.630585 44.0843C0.630585 43.7556 0.87156 43.4892 1.16873 43.4892C1.46599 43.4892 1.70687 43.7556 1.70687 44.0843C1.70687 44.4132 1.46599 44.6797 1.16873 44.6797C0.87156 44.6797 0.630585 44.4132 0.630585 44.0843ZM70.5484 61.0636C70.5484 60.7347 70.7894 60.4683 71.0865 60.4683C71.3836 60.4683 71.6246 60.7347 71.6246 61.0636C71.6246 61.3923 71.3836 61.6589 71.0865 61.6589C70.7894 61.6589 70.5484 61.3923 70.5484 61.0636V61.0636ZM70.5484 58.2337C70.5484 57.9051 70.7894 57.6385 71.0865 57.6385C71.3836 57.6385 71.6246 57.9051 71.6246 58.2337C71.6246 58.5625 71.3836 58.8291 71.0865 58.8291C70.7894 58.8291 70.5484 58.5625 70.5484 58.2337V58.2337ZM70.5484 55.4039C70.5484 55.0751 70.7894 54.8086 71.0865 54.8086C71.3836 54.8086 71.6246 55.0751 71.6246 55.4039C71.6246 55.7327 71.3836 55.9992 71.0865 55.9992C70.7894 55.9992 70.5484 55.7327 70.5484 55.4039V55.4039ZM70.5484 52.5741C70.5484 52.2452 70.7894 51.9787 71.0865 51.9787C71.3836 51.9787 71.6246 52.2452 71.6246 52.5741C71.6246 52.9028 71.3836 53.1694 71.0865 53.1694C70.7894 53.1694 70.5484 52.9028 70.5484 52.5741V52.5741ZM70.5484 49.7442C70.5484 49.4153 70.7894 49.1488 71.0865 49.1488C71.3836 49.1488 71.6246 49.4153 71.6246 49.7442C71.6246 50.0729 71.3836 50.3394 71.0865 50.3394C70.7894 50.3394 70.5484 50.0729 70.5484 49.7442V49.7442ZM70.5484 46.9143C70.5484 46.5854 70.7894 46.319 71.0865 46.319C71.3836 46.319 71.6246 46.5854 71.6246 46.9143C71.6246 47.2431 71.3836 47.5095 71.0865 47.5095C70.7894 47.5095 70.5484 47.2431 70.5484 46.9143V46.9143ZM70.5484 44.0843C70.5484 43.7556 70.7894 43.4892 71.0865 43.4892C71.3836 43.4892 71.6246 43.7556 71.6246 44.0843C71.6246 44.4132 71.3836 44.6797 71.0865 44.6797C70.7894 44.6797 70.5484 44.4132 70.5484 44.0843V44.0843ZM4.78002 37.3798C5.07719 37.3798 5.31817 37.6464 5.31817 37.9751C5.31817 38.304 5.07719 38.5705 4.78002 38.5705C4.48276 38.5705 4.24188 38.304 4.24188 37.9751C4.24188 37.6464 4.48276 37.3798 4.78002 37.3798ZM7.38182 37.3798C7.67908 37.3798 7.91996 37.6464 7.91996 37.9751C7.91996 38.304 7.67908 38.5705 7.38182 38.5705C7.08465 38.5705 6.84368 38.304 6.84368 37.9751C6.84368 37.6464 7.08465 37.3798 7.38182 37.3798ZM9.98371 37.3798C10.2809 37.3798 10.5219 37.6464 10.5219 37.9751C10.5219 38.304 10.2809 38.5705 9.98371 38.5705C9.68645 38.5705 9.44557 38.304 9.44557 37.9751C9.44557 37.6464 9.68645 37.3798 9.98371 37.3798ZM12.5855 37.3798C12.8827 37.3798 13.1236 37.6464 13.1236 37.9751C13.1236 38.304 12.8827 38.5705 12.5855 38.5705C12.2883 38.5705 12.0474 38.304 12.0474 37.9751C12.0474 37.6464 12.2883 37.3798 12.5855 37.3798ZM15.1874 37.3798C15.4846 37.3798 15.7254 37.6464 15.7254 37.9751C15.7254 38.304 15.4846 38.5705 15.1874 38.5705C14.8901 38.5705 14.6493 38.304 14.6493 37.9751C14.6493 37.6464 14.8901 37.3798 15.1874 37.3798ZM17.7892 37.3798C18.0864 37.3798 18.3273 37.6464 18.3273 37.9751C18.3273 38.304 18.0864 38.5705 17.7892 38.5705C17.492 38.5705 17.251 38.304 17.251 37.9751C17.251 37.6464 17.492 37.3798 17.7892 37.3798ZM20.3911 37.3798C20.6882 37.3798 20.9291 37.6464 20.9291 37.9751C20.9291 38.304 20.6882 38.5705 20.3911 38.5705C20.0938 38.5705 19.8529 38.304 19.8529 37.9751C19.8529 37.6464 20.0938 37.3798 20.3911 37.3798ZM22.9929 37.3798C23.29 37.3798 23.531 37.6464 23.531 37.9751C23.531 38.304 23.29 38.5705 22.9929 38.5705C22.6957 38.5705 22.4547 38.304 22.4547 37.9751C22.4547 37.6464 22.6957 37.3798 22.9929 37.3798ZM25.5947 37.3798C25.8919 37.3798 26.1328 37.6464 26.1328 37.9751C26.1328 38.304 25.8919 38.5705 25.5947 38.5705C25.2975 38.5705 25.0566 38.304 25.0566 37.9751C25.0566 37.6464 25.2975 37.3798 25.5947 37.3798ZM28.1966 37.3798C28.4937 37.3798 28.7347 37.6464 28.7347 37.9751C28.7347 38.304 28.4937 38.5705 28.1966 38.5705C27.8994 38.5705 27.6584 38.304 27.6584 37.9751C27.6584 37.6464 27.8994 37.3798 28.1966 37.3798ZM30.7984 37.3798C31.0956 37.3798 31.3365 37.6464 31.3365 37.9751C31.3365 38.304 31.0956 38.5705 30.7984 38.5705C30.5012 38.5705 30.2602 38.304 30.2602 37.9751C30.2602 37.6464 30.5012 37.3798 30.7984 37.3798ZM33.4002 37.3798C33.6974 37.3798 33.9384 37.6464 33.9384 37.9751C33.9384 38.304 33.6974 38.5705 33.4002 38.5705C33.103 38.5705 32.8621 38.304 32.8621 37.9751C32.8621 37.6464 33.103 37.3798 33.4002 37.3798ZM36.002 37.3798C36.2993 37.3798 36.5402 37.6464 36.5402 37.9751C36.5402 38.304 36.2993 38.5705 36.002 38.5705C35.7049 38.5705 35.4639 38.304 35.4639 37.9751C35.4639 37.6464 35.7049 37.3798 36.002 37.3798ZM38.6039 37.3798C38.9011 37.3798 39.1421 37.6464 39.1421 37.9751C39.1421 38.304 38.9011 38.5705 38.6039 38.5705C38.3067 38.5705 38.0658 38.304 38.0658 37.9751C38.0658 37.6464 38.3067 37.3798 38.6039 37.3798ZM41.2057 37.3798C41.503 37.3798 41.7439 37.6464 41.7439 37.9751C41.7439 38.304 41.503 38.5705 41.2057 38.5705C40.9086 38.5705 40.6676 38.304 40.6676 37.9751C40.6676 37.6464 40.9086 37.3798 41.2057 37.3798ZM43.8076 37.3798C44.1048 37.3798 44.3458 37.6464 44.3458 37.9751C44.3458 38.304 44.1048 38.5705 43.8076 38.5705C43.5104 38.5705 43.2695 38.304 43.2695 37.9751C43.2695 37.6464 43.5104 37.3798 43.8076 37.3798ZM46.4094 37.3798C46.7066 37.3798 46.9476 37.6464 46.9476 37.9751C46.9476 38.304 46.7066 38.5705 46.4094 38.5705C46.1122 38.5705 45.8713 38.304 45.8713 37.9751C45.8713 37.6464 46.1122 37.3798 46.4094 37.3798ZM49.0113 37.3798C49.3085 37.3798 49.5493 37.6464 49.5493 37.9751C49.5493 38.304 49.3085 38.5705 49.0113 38.5705C48.714 38.5705 48.4732 38.304 48.4732 37.9751C48.4732 37.6464 48.714 37.3798 49.0113 37.3798ZM51.6131 37.3798C51.9103 37.3798 52.1512 37.6464 52.1512 37.9751C52.1512 38.304 51.9103 38.5705 51.6131 38.5705C51.3159 38.5705 51.075 38.304 51.075 37.9751C51.075 37.6464 51.3159 37.3798 51.6131 37.3798ZM54.2149 37.3798C54.5122 37.3798 54.753 37.6464 54.753 37.9751C54.753 38.304 54.5122 38.5705 54.2149 38.5705C53.9177 38.5705 53.6768 38.304 53.6768 37.9751C53.6768 37.6464 53.9177 37.3798 54.2149 37.3798ZM56.8168 37.3798C57.1139 37.3798 57.3549 37.6464 57.3549 37.9751C57.3549 38.304 57.1139 38.5705 56.8168 38.5705C56.5196 38.5705 56.2786 38.304 56.2786 37.9751C56.2786 37.6464 56.5196 37.3798 56.8168 37.3798ZM59.4186 37.3798C59.7158 37.3798 59.9567 37.6464 59.9567 37.9751C59.9567 38.304 59.7158 38.5705 59.4186 38.5705C59.1214 38.5705 58.8804 38.304 58.8804 37.9751C58.8804 37.6464 59.1214 37.3798 59.4186 37.3798ZM62.0205 37.3798C62.3176 37.3798 62.5586 37.6464 62.5586 37.9751C62.5586 38.304 62.3176 38.5705 62.0205 38.5705C61.7232 38.5705 61.4823 38.304 61.4823 37.9751C61.4823 37.6464 61.7232 37.3798 62.0205 37.3798ZM64.6223 37.3798C64.9195 37.3798 65.1604 37.6464 65.1604 37.9751C65.1604 38.304 64.9195 38.5705 64.6223 38.5705C64.3251 38.5705 64.0841 38.304 64.0841 37.9751C64.0841 37.6464 64.3251 37.3798 64.6223 37.3798ZM67.2243 37.3798C67.5215 37.3798 67.7625 37.6464 67.7625 37.9751C67.7625 38.304 67.5215 38.5705 67.2243 38.5705C66.9271 38.5705 66.6863 38.304 66.6863 37.9751C66.6863 37.6464 66.9271 37.3798 67.2243 37.3798ZM0.630585 41.2544C0.630585 40.9258 0.87156 40.6592 1.16873 40.6592C1.46599 40.6592 1.70687 40.9258 1.70687 41.2544C1.70687 41.5833 1.46599 41.8498 1.16873 41.8498C0.87156 41.8498 0.630585 41.5833 0.630585 41.2544ZM70.5484 41.2544C70.5484 40.9258 70.7894 40.6592 71.0865 40.6592C71.3836 40.6592 71.6246 40.9258 71.6246 41.2544C71.6246 41.5833 71.3836 41.8498 71.0865 41.8498C70.7894 41.8498 70.5484 41.5833 70.5484 41.2544ZM69.313 38.7725C69.313 38.4436 69.554 38.1772 69.8511 38.1772C70.1483 38.1772 70.3893 38.4436 70.3893 38.7725C70.3893 39.1012 70.1483 39.3678 69.8511 39.3678C69.554 39.3678 69.313 39.1012 69.313 38.7725ZM1.80351 38.7725C1.80351 38.4436 2.04448 38.1772 2.34165 38.1772C2.63891 38.1772 2.87979 38.4436 2.87979 38.7725C2.87979 39.1012 2.63891 39.3678 2.34165 39.3678C2.04448 39.3678 1.80351 39.1012 1.80351 38.7725V38.7725Z" fill="#FEFEFE"/>
<path d="M6.65172 42.9945H8.09615L9.85367 46.4922L11.5709 42.9945H13.0255L13.3386 50.4481H11.8132L11.6214 45.5759L10.2274 48.4814H9.43964L7.96479 45.6094L7.79307 50.4481H6.33853L6.65172 42.9945V42.9945ZM15.7207 42.9945H17.4075L19.8721 50.4481H18.2055L17.6903 48.7383H15.3166L14.8014 50.4481H13.2055L15.7207 42.9945V42.9945ZM17.3267 47.4309L16.5085 44.6148L15.6701 47.4309H17.3267ZM20.5067 44.4808H18.3248V42.9945H24.2137V44.4808H22.042V50.4481H20.5067V44.4808V44.4808ZM24.3331 42.9945H25.8583V45.8552H28.7775V42.9945H30.3027V50.4481H28.7775V47.3862H25.8583V50.4481H24.3331V42.9945V42.9945ZM30.8666 42.9945H35.4727V44.4696H32.3919V45.9224H34.7858V47.3526H32.3919V48.9617H35.6949V50.4481H30.8666V42.9945V42.9945ZM36.1779 42.9945H37.6224L39.38 46.4922L41.0972 42.9945H42.5517L42.8648 50.4481H41.3395L41.1476 45.5759L39.7537 48.4814H38.9659L37.4911 45.6094L37.3194 50.4481H35.8648L36.1779 42.9945V42.9945ZM45.2469 42.9945H46.9337L49.3983 50.4481H47.7317L47.2166 48.7383H44.8428L44.3276 50.4481H42.7317L45.2469 42.9945V42.9945ZM46.8529 47.4309L46.0347 44.6148L45.1963 47.4309H46.8529V47.4309ZM50.0329 44.4808H47.8511V42.9945H53.7399V44.4808H51.5682V50.4481H50.0329V44.4808V44.4808ZM53.8593 42.9945H55.3846V50.4481H53.8593V42.9945V42.9945ZM62.0293 49.0735C61.8879 49.2895 61.7161 49.4926 61.5142 49.6826C61.312 49.8725 61.0881 50.0384 60.8424 50.1798C60.5966 50.3214 60.3307 50.4331 60.0444 50.5151C59.7582 50.597 59.4603 50.638 59.1505 50.638C58.6387 50.638 58.1707 50.5412 57.7465 50.3475C57.3223 50.1538 56.9569 49.8836 56.6505 49.5374C56.3441 49.1909 56.1067 48.7812 55.9383 48.3082C55.7701 47.835 55.6858 47.3154 55.6858 46.7493C55.6858 46.198 55.7701 45.682 55.9383 45.2015C56.1067 44.721 56.3441 44.3038 56.6505 43.95C56.9569 43.5961 57.3239 43.3167 57.7515 43.1118C58.1791 42.907 58.6521 42.8045 59.1706 42.8045C59.7969 42.8045 60.344 42.9313 60.8121 43.1845C61.2802 43.4378 61.669 43.8028 61.9788 44.2795L60.9384 45.3859C60.7363 45.0731 60.4972 44.8215 60.2211 44.6316C59.9451 44.4416 59.6151 44.3467 59.2313 44.3467C58.9282 44.3467 58.6555 44.4081 58.4131 44.531C58.1707 44.654 57.9654 44.8235 57.7969 45.0395C57.6286 45.2556 57.499 45.507 57.408 45.7938C57.3171 46.0806 57.2717 46.3842 57.2717 46.7045C57.2717 47.0323 57.3171 47.3378 57.408 47.6209C57.499 47.9039 57.6286 48.1498 57.7969 48.3584C57.9654 48.567 58.1673 48.7308 58.403 48.8501C58.6387 48.9692 58.9047 49.0289 59.2011 49.0289C59.4434 49.0289 59.6539 49.0009 59.8322 48.945C60.0107 48.8891 60.1691 48.8147 60.307 48.7216C60.445 48.6284 60.568 48.5203 60.6757 48.3975C60.7835 48.2745 60.8878 48.1498 60.9888 48.0231L62.0293 49.0735V49.0735ZM62.5123 48.2242C62.5999 48.3286 62.7026 48.4347 62.8204 48.5428C62.9382 48.6507 63.0695 48.7495 63.2144 48.8388C63.3592 48.9282 63.5173 49.0009 63.6891 49.0568C63.8608 49.1127 64.0443 49.1407 64.2396 49.1407C64.3541 49.1407 64.4686 49.122 64.5829 49.0847C64.6975 49.0475 64.8018 48.9935 64.8961 48.9228C64.9904 48.8519 65.0662 48.7662 65.1234 48.6657C65.1806 48.5651 65.2093 48.4515 65.2093 48.3248C65.2093 48.0492 65.0881 47.835 64.8456 47.6824C64.6032 47.5296 64.2194 47.3788 63.6941 47.2297C63.4383 47.1627 63.2008 47.0657 62.982 46.9392C62.7631 46.8126 62.5746 46.6598 62.4164 46.481C62.2581 46.3023 62.1352 46.0974 62.0477 45.8664C61.9602 45.6355 61.9164 45.3785 61.9164 45.0954C61.9164 44.7826 61.9669 44.4882 62.0679 44.2126C62.1689 43.937 62.3221 43.6929 62.5275 43.4806C62.7328 43.2683 62.9887 43.1007 63.2952 42.9777C63.6016 42.8548 63.9635 42.7934 64.381 42.7934C64.7244 42.7934 65.0274 42.8324 65.29 42.9108C65.5528 42.9889 65.7766 43.0821 65.9618 43.1901C66.1469 43.2982 66.2985 43.4099 66.4163 43.5254C66.5341 43.6408 66.6234 43.7321 66.684 43.7991L65.8053 44.8719C65.7312 44.8048 65.6453 44.7322 65.5476 44.654C65.45 44.5758 65.3406 44.5031 65.2194 44.4361C65.0981 44.369 64.9652 44.3132 64.8204 44.2685C64.6756 44.2237 64.5225 44.2014 64.3609 44.2014C64.2531 44.2014 64.147 44.2201 64.0426 44.2573C63.9382 44.2945 63.8439 44.3448 63.7598 44.4081C63.6756 44.4715 63.6083 44.5459 63.5578 44.6316C63.5072 44.7173 63.482 44.8085 63.482 44.9054C63.482 45.1587 63.6032 45.3635 63.8457 45.52C64.088 45.6765 64.4213 45.8069 64.8456 45.9112C65.0949 45.9781 65.3389 46.0694 65.5779 46.1849C65.817 46.3004 66.0308 46.4511 66.2193 46.6375C66.4079 46.8238 66.5594 47.0528 66.674 47.3247C66.7884 47.5966 66.8457 47.9262 66.8457 48.3136C66.8457 48.6489 66.7782 48.958 66.6435 49.2411C66.5088 49.5243 66.3254 49.77 66.0931 49.9787C65.8608 50.1873 65.5881 50.3494 65.275 50.4648C64.9618 50.5803 64.6235 50.638 64.2597 50.638C63.9231 50.638 63.6167 50.6026 63.3407 50.5319C63.0645 50.4611 62.8154 50.368 62.5931 50.2525C62.3708 50.137 62.1705 50.0047 61.9921 49.8559C61.8137 49.7068 61.6605 49.554 61.5326 49.3976L62.5123 48.2242V48.2242ZM22.6076 57.8138C22.4663 58.0297 22.2945 58.2328 22.0925 58.4228C21.8904 58.6128 21.6665 58.7785 21.4208 58.9201C21.175 59.0615 20.909 59.1732 20.6228 59.2553C20.3366 59.3372 20.0387 59.3781 19.7289 59.3781C19.2171 59.3781 18.7491 59.2813 18.3248 59.0876C17.9006 58.8939 17.5353 58.6239 17.2289 58.2775C16.9225 57.931 16.6851 57.5213 16.5168 57.0483C16.3484 56.5752 16.2642 56.0555 16.2642 55.4894C16.2642 54.9381 16.3484 54.4222 16.5168 53.9417C16.6851 53.4612 16.9225 53.044 17.2289 52.6902C17.5353 52.3362 17.9022 52.0569 18.3299 51.852C18.7575 51.6472 19.2305 51.5447 19.749 51.5447C20.3753 51.5447 20.9224 51.6714 21.3905 51.9246C21.8585 52.178 22.2473 52.5429 22.5572 53.0198L21.5167 54.1261C21.3147 53.8132 21.0756 53.5618 20.7996 53.3717C20.5235 53.1818 20.1935 53.0868 19.8096 53.0868C19.5066 53.0868 19.2339 53.1483 18.9915 53.2711C18.7491 53.3941 18.5437 53.5637 18.3753 53.7796C18.2069 53.9957 18.0774 54.2471 17.9865 54.5339C17.8955 54.8207 17.8501 55.1243 17.8501 55.4446C17.8501 55.7724 17.8955 56.0779 17.9865 56.3611C18.0774 56.6441 18.2069 56.8899 18.3753 57.0985C18.5437 57.3071 18.7457 57.471 18.9814 57.5903C19.2171 57.7093 19.4831 57.769 19.7794 57.769C20.0218 57.769 20.2322 57.7411 20.4106 57.6852C20.5891 57.6293 20.7474 57.5548 20.8854 57.4617C21.0235 57.3686 21.1463 57.2606 21.254 57.1377C21.3618 57.0147 21.4662 56.8899 21.5672 56.7633L22.6076 57.8138V57.8138ZM25.717 59.3781C25.2187 59.3781 24.7557 59.2776 24.3282 59.0764C23.9005 58.8753 23.53 58.5996 23.217 58.2495C22.9039 57.8994 22.6581 57.484 22.4796 57.0036C22.3011 56.5231 22.2119 56.0071 22.2119 55.4558C22.2119 54.8972 22.3011 54.3794 22.4796 53.9026C22.6581 53.4258 22.9039 53.0123 23.217 52.6622C23.53 52.3121 23.9005 52.0364 24.3282 51.8352C24.7557 51.6341 25.2187 51.5336 25.717 51.5336C26.2152 51.5336 26.6783 51.6341 27.1059 51.8352C27.5334 52.0364 27.9038 52.3121 28.217 52.6622C28.5302 53.0123 28.7759 53.4258 28.9544 53.9026C29.1328 54.3794 29.222 54.8972 29.222 55.4558C29.222 56.0071 29.1328 56.5231 28.9544 57.0036C28.7759 57.484 28.5302 57.8994 28.217 58.2495C27.9038 58.5996 27.5334 58.8753 27.1059 59.0764C26.6783 59.2776 26.2152 59.3781 25.717 59.3781ZM25.717 57.7914C26.0133 57.7914 26.2793 57.728 26.515 57.6015C26.7507 57.4748 26.951 57.3034 27.116 57.0873C27.2809 56.8714 27.4071 56.6217 27.4947 56.3387C27.5823 56.0555 27.6261 55.7539 27.6261 55.4334C27.6261 55.1132 27.5823 54.8114 27.4947 54.5283C27.4071 54.2452 27.2809 53.9975 27.116 53.7852C26.951 53.5729 26.7507 53.4053 26.515 53.2823C26.2793 53.1594 26.0133 53.098 25.717 53.098C25.4207 53.098 25.1531 53.1594 24.9139 53.2823C24.6749 53.4053 24.4729 53.5729 24.3078 53.7852C24.1429 53.9975 24.0167 54.2452 23.9291 54.5283C23.8416 54.8114 23.7978 55.1132 23.7978 55.4334C23.7978 55.7539 23.8416 56.0555 23.9291 56.3387C24.0167 56.6217 24.1429 56.8714 24.3078 57.0873C24.4729 57.3034 24.6749 57.4748 24.9139 57.6015C25.1531 57.728 25.4207 57.7914 25.717 57.7914ZM29.5233 51.7346H30.9779L33.897 56.5733V51.7346H35.402V59.1882H34.0182L31.0283 54.2602V59.1882H29.5233V51.7346V51.7346ZM37.7033 53.2209H35.5215V51.7346H41.4102V53.2209H39.2386V59.1882H37.7033V53.2209V53.2209ZM41.5298 51.7346H46.1357V53.2097H43.0549V54.6625H45.4488V56.0928H43.0549V57.702H46.358V59.1882H41.5298V51.7346V51.7346ZM47.1643 56.9645C47.2519 57.0688 47.3545 57.1749 47.4723 57.283C47.5901 57.3908 47.7215 57.4897 47.8663 57.5791C48.0111 57.6684 48.1693 57.7411 48.341 57.797C48.5127 57.8528 48.6963 57.8808 48.8916 57.8808C49.006 57.8808 49.1205 57.8621 49.2349 57.8249C49.3495 57.7877 49.4538 57.7336 49.5481 57.6629C49.6423 57.5921 49.7182 57.5064 49.7753 57.4058C49.8327 57.3052 49.8613 57.1916 49.8613 57.0651C49.8613 56.7894 49.74 56.5752 49.4975 56.4225C49.2552 56.2697 48.8713 56.1189 48.3461 55.9699C48.0902 55.9028 47.8528 55.806 47.6339 55.6793C47.4151 55.5527 47.2266 55.4 47.0684 55.2213C46.91 55.0424 46.7872 54.8375 46.6997 54.6066C46.6121 54.3757 46.5683 54.1186 46.5683 53.8355C46.5683 53.5227 46.6189 53.2284 46.7198 52.9527C46.8208 52.6771 46.9741 52.433 47.1795 52.2209C47.3848 52.0085 47.6407 51.8409 47.9471 51.7179C48.2535 51.5951 48.6155 51.5336 49.0329 51.5336C49.3764 51.5336 49.6795 51.5726 49.9421 51.6509C50.2047 51.7291 50.4285 51.8222 50.6138 51.9302C50.799 52.0383 50.9504 52.15 51.0683 52.2655C51.1861 52.3809 51.2754 52.4722 51.3359 52.5392L50.4572 53.6121C50.3831 53.545 50.2973 53.4723 50.1996 53.3941C50.102 53.316 49.9926 53.2434 49.8714 53.1762C49.7501 53.1091 49.6172 53.0533 49.4723 53.0087C49.3276 52.9638 49.1744 52.9416 49.0128 52.9416C48.905 52.9416 48.7989 52.9602 48.6947 52.9975C48.5902 53.0347 48.4959 53.0849 48.4117 53.1483C48.3276 53.2116 48.2602 53.2861 48.2098 53.3717C48.1592 53.4575 48.134 53.5487 48.134 53.6456C48.134 53.8988 48.2552 54.1037 48.4977 54.2602C48.7401 54.4166 49.0734 54.547 49.4975 54.6513C49.7468 54.7183 49.9908 54.8095 50.2299 54.9251C50.469 55.0405 50.6829 55.1914 50.8714 55.3776C51.0599 55.5639 51.2114 55.7929 51.3259 56.0648C51.4403 56.3368 51.4977 56.6665 51.4977 57.0538C51.4977 57.3891 51.4302 57.6982 51.2955 57.9813C51.1609 58.2645 50.9774 58.5103 50.7452 58.7189C50.5128 58.9275 50.24 59.0895 49.9269 59.2049C49.6137 59.3205 49.2754 59.3781 48.9118 59.3781C48.575 59.3781 48.2686 59.3428 47.9926 59.272C47.7164 59.2012 47.4674 59.1081 47.2451 58.9927C47.0229 58.8771 46.8225 58.7449 46.6442 58.596C46.4657 58.4469 46.3125 58.2943 46.1845 58.1377L47.1643 56.9645V56.9645ZM53.3241 53.2209H51.1423V51.7346H57.031V53.2209H54.8594V59.1882H53.3241V53.2209V53.2209Z" fill="#FEFEFE"/>
<path d="M28.1195 67.0692H28.8433L29.901 70.2677H29.1858L28.9648 69.5341H27.9461L27.7251 70.2677H27.0402L28.1195 67.0692ZM28.8087 68.9729L28.4576 67.7645L28.0979 68.9729H28.8087ZM30.9617 67.0692H32.9036V67.707H31.6162V68.4311H32.5958V69.0497H31.6162V70.2677H30.9617V67.0692V67.0692ZM34.0423 67.0692H35.1173C35.2848 67.0692 35.4323 67.0957 35.5594 67.1483C35.6865 67.2011 35.7927 67.273 35.8779 67.3641C35.9632 67.4552 36.0267 67.5615 36.0687 67.683C36.1106 67.8044 36.1316 67.9341 36.1316 68.0714C36.1316 68.2793 36.0904 68.4606 36.0079 68.6157C35.9256 68.7708 35.8093 68.8947 35.6591 68.9874L36.3006 70.2677H35.581L35.0436 69.0929H34.6794V70.2677H34.0423V67.0692ZM35.0826 68.5126C35.2039 68.5126 35.2993 68.4727 35.3686 68.3928C35.438 68.3128 35.4727 68.2121 35.4727 68.0906C35.4727 67.9595 35.438 67.8556 35.3686 67.779C35.2993 67.7021 35.2039 67.6638 35.0826 67.6638H34.6794V68.5126H35.0826V68.5126ZM37.4176 67.0692H38.0722V70.2677H37.4176V67.0692ZM41.9892 69.6779C41.9285 69.7707 41.8548 69.8577 41.7682 69.9393C41.6815 70.0208 41.5854 70.0919 41.48 70.1526C41.3745 70.2133 41.2604 70.2614 41.1375 70.2965C41.0146 70.3317 40.8868 70.3492 40.7539 70.3492C40.5343 70.3492 40.3335 70.3077 40.1514 70.2245C39.9693 70.1415 39.8126 70.0257 39.6811 69.8769C39.5496 69.7283 39.4477 69.5525 39.3755 69.3495C39.3033 69.1464 39.2671 68.9234 39.2671 68.6805C39.2671 68.444 39.3033 68.2226 39.3755 68.0163C39.4477 67.8101 39.5496 67.6311 39.6811 67.4792C39.8126 67.3274 39.97 67.2076 40.1536 67.1195C40.337 67.0317 40.54 66.9877 40.7625 66.9877C41.0312 66.9877 41.2661 67.042 41.4669 67.1508C41.6678 67.2595 41.8347 67.4161 41.9676 67.6206L41.5211 68.0955C41.4345 67.9612 41.3318 67.8533 41.2133 67.7718C41.0949 67.6903 40.9533 67.6496 40.7885 67.6496C40.6586 67.6496 40.5415 67.6759 40.4375 67.7286C40.3335 67.7814 40.2452 67.8542 40.173 67.9468C40.1008 68.0394 40.0452 68.1474 40.0062 68.2705C39.9672 68.3936 39.9476 68.5238 39.9476 68.6613C39.9476 68.8019 39.9672 68.933 40.0062 69.0544C40.0452 69.1761 40.1008 69.2815 40.173 69.371C40.2452 69.4606 40.332 69.5309 40.4332 69.5821C40.5343 69.6332 40.6485 69.6587 40.7756 69.6587C40.8796 69.6587 40.9699 69.6468 41.0465 69.6228C41.123 69.5987 41.1909 69.5668 41.2503 69.5268C41.3094 69.4868 41.3623 69.4406 41.4084 69.3878C41.4547 69.335 41.4994 69.2815 41.5428 69.2271L41.9892 69.6779V69.6779ZM43.9255 67.0692H44.6494L45.7071 70.2677H44.9918L44.7707 69.5341H43.7521L43.531 70.2677H42.8462L43.9255 67.0692V67.0692ZM44.6147 68.9729L44.2636 67.7645L43.9039 68.9729H44.6147Z" fill="#ED3237"/>
<path d="M19.6392 33.3984C19.563 33.5276 19.4577 33.6596 19.3232 33.7945C19.1887 33.9292 19.03 34.0542 18.8474 34.1694C18.6646 34.2845 18.464 34.3786 18.2459 34.4516C18.0275 34.5246 17.7965 34.5611 17.553 34.5611C17.1723 34.5611 16.8245 34.4882 16.5098 34.3421C16.1951 34.1961 15.9236 33.9924 15.6951 33.7313C15.4667 33.47 15.289 33.1625 15.1621 32.8086C15.0352 32.4548 14.9718 32.0671 14.9718 31.6459C14.9718 31.2359 15.0352 30.8511 15.1621 30.4917C15.289 30.1321 15.468 29.8176 15.6989 29.548C15.9299 29.2784 16.2052 29.0649 16.5251 28.9076C16.8449 28.7503 17.1976 28.6717 17.5834 28.6717C17.8321 28.6717 18.0605 28.7013 18.2687 28.7602C18.4767 28.8192 18.6658 28.8992 18.8359 29.0003C19.0059 29.1015 19.1569 29.2207 19.289 29.3584C19.4209 29.496 19.5377 29.6434 19.6392 29.8007L18.9615 30.4663C18.7991 30.208 18.61 30.0001 18.3943 29.8428C18.1785 29.6856 17.9083 29.6069 17.5834 29.6069C17.3346 29.6069 17.1113 29.6617 16.9133 29.7713C16.7154 29.8807 16.5466 30.0268 16.407 30.2094C16.2674 30.392 16.1608 30.6053 16.0873 30.8497C16.0136 31.094 15.9768 31.3511 15.9768 31.6206C15.9768 31.8903 16.0136 32.143 16.0873 32.379C16.1608 32.6149 16.2662 32.8199 16.4033 32.994C16.5402 33.1682 16.7039 33.3057 16.8944 33.4069C17.0847 33.508 17.2991 33.5586 17.5377 33.5586C17.756 33.5586 17.9425 33.5305 18.0973 33.4743C18.2522 33.4181 18.3842 33.3478 18.4932 33.2636C18.6024 33.1794 18.6938 33.0909 18.7673 32.9982C18.841 32.9055 18.9082 32.8255 18.9692 32.7581L19.6392 33.3984V33.3984ZM20.0884 30.4748H20.9488L20.9717 30.9719C21.0122 30.9157 21.0643 30.854 21.1278 30.7865C21.1912 30.719 21.266 30.6574 21.3523 30.6011C21.4387 30.545 21.5389 30.4972 21.6531 30.4579C21.7673 30.4186 21.898 30.399 22.0452 30.399C22.1315 30.399 22.2089 30.4046 22.2775 30.4157C22.346 30.427 22.4158 30.4467 22.4868 30.4748L22.3041 31.41C22.2431 31.3819 22.1809 31.3623 22.1175 31.3511C22.0541 31.3398 21.9792 31.3342 21.8929 31.3342C21.7711 31.3342 21.6544 31.3567 21.5426 31.4015C21.431 31.4465 21.3346 31.5111 21.2533 31.5953C21.1722 31.6796 21.1074 31.7807 21.0593 31.8986C21.011 32.0167 20.9868 32.1486 20.9868 32.2947V34.4263H20.0884V30.4748V30.4748ZM22.9818 30.4748H23.8802V32.8676C23.8802 33.1204 23.9424 33.3155 24.0667 33.4532C24.1911 33.5908 24.3523 33.6596 24.5503 33.6596C24.6721 33.6596 24.7863 33.6329 24.8928 33.5796C24.9995 33.5262 25.0909 33.4518 25.167 33.3563C25.2431 33.2608 25.3028 33.1498 25.3459 33.0234C25.3891 32.8971 25.4106 32.7609 25.4106 32.6149V30.4748H26.3091V34.4263H25.4486L25.4258 33.9798C25.3801 34.0359 25.3243 34.0949 25.2583 34.1567C25.1924 34.2185 25.1163 34.2761 25.0299 34.3294C24.9436 34.3828 24.8447 34.4263 24.7329 34.4601C24.6213 34.4938 24.4944 34.5106 24.3523 34.5106C23.9056 34.5106 23.5655 34.3632 23.332 34.0682C23.0985 33.7734 22.9818 33.3759 22.9818 32.8761V30.4748V30.4748ZM28.1441 32.4295L26.8497 30.4748H27.9841L28.6999 31.6206L29.4232 30.4748H30.4358L29.1796 32.3284L30.5729 34.4263H29.4385L28.6238 33.1372L27.8014 34.4263H26.7888L28.1441 32.4295V32.4295Z" fill="#FEFEFE"/>
<path d="M31.0526 28.8065H31.9509V34.4263H31.0526V28.8065ZM36.192 33.8534C36.1767 33.8702 36.1349 33.9166 36.0663 33.9924C35.9978 34.0682 35.8988 34.1482 35.7694 34.2325C35.64 34.3167 35.475 34.3926 35.2744 34.4601C35.074 34.5274 34.8342 34.5611 34.555 34.5611C34.2707 34.5611 34.0118 34.5078 33.7783 34.4011C33.5449 34.2943 33.3457 34.1469 33.1806 33.9587C33.0157 33.7705 32.8888 33.5445 32.8 33.2805C32.7111 33.0165 32.6667 32.7244 32.6667 32.4042C32.6667 32.1121 32.7111 31.8411 32.8 31.5911C32.8888 31.3411 33.0131 31.1236 33.1731 30.9382C33.333 30.7528 33.5233 30.6067 33.744 30.5001C33.9649 30.3934 34.2098 30.3399 34.4788 30.3399C34.8037 30.3399 35.0791 30.406 35.305 30.5379C35.5309 30.6699 35.7123 30.8426 35.8494 31.0561C35.9864 31.2696 36.0854 31.5111 36.1464 31.7807C36.2072 32.0503 36.2377 32.3255 36.2377 32.6064V32.7496H33.5728C33.5728 32.8957 33.602 33.0277 33.6604 33.1457C33.7187 33.2636 33.7948 33.3647 33.8888 33.449C33.9826 33.5332 34.0893 33.5978 34.2085 33.6428C34.3279 33.6877 34.4458 33.7101 34.5626 33.7101C34.7351 33.7101 34.8862 33.6919 35.0156 33.6555C35.1451 33.6188 35.2554 33.5767 35.3468 33.529C35.4381 33.4813 35.513 33.4307 35.5715 33.3774C35.6298 33.324 35.6742 33.2805 35.7047 33.2467L36.192 33.8534V33.8534ZM35.3164 32.0334C35.3164 31.9324 35.2986 31.8313 35.2631 31.7301C35.2276 31.6291 35.1755 31.5378 35.107 31.4563C35.0384 31.3749 34.9509 31.3075 34.8443 31.2541C34.7377 31.2007 34.6159 31.174 34.4788 31.174C34.3316 31.174 34.2009 31.2007 34.0867 31.2541C33.9725 31.3075 33.8773 31.3749 33.8012 31.4563C33.7251 31.5378 33.6667 31.6291 33.626 31.7301C33.5855 31.8313 33.5652 31.9324 33.5652 32.0334H35.3164V32.0334ZM39.0396 34.0556C38.9432 34.1848 38.796 34.2999 38.598 34.4011C38.4001 34.5022 38.1793 34.5527 37.9356 34.5527C37.7884 34.5527 37.6425 34.5274 37.4978 34.4769C37.3532 34.4263 37.2211 34.3491 37.1019 34.2451C36.9825 34.1413 36.8862 34.0078 36.8125 33.8449C36.739 33.6821 36.7022 33.4911 36.7022 33.272C36.7022 33.0474 36.7402 32.8465 36.8163 32.6697C36.8925 32.4926 36.9991 32.3438 37.1361 32.223C37.2732 32.1023 37.4382 32.0109 37.6311 31.9492C37.8239 31.8874 38.0371 31.8565 38.2706 31.8565C38.3417 31.8565 38.4204 31.8579 38.5067 31.8607C38.593 31.8636 38.6767 31.8678 38.7579 31.8734C38.8493 31.879 38.9432 31.8846 39.0396 31.8903V31.7976C39.0396 31.601 38.9685 31.4465 38.8264 31.3342C38.6843 31.2218 38.499 31.1657 38.2706 31.1657C38.0168 31.1657 37.8137 31.2022 37.6615 31.2752C37.5092 31.3482 37.3747 31.4268 37.2579 31.5111L36.8468 30.8371C36.9179 30.7809 36.9991 30.7234 37.0904 30.6643C37.1818 30.6053 37.2884 30.5519 37.4102 30.5043C37.532 30.4565 37.6729 30.4172 37.8328 30.3863C37.9927 30.3554 38.1793 30.3399 38.3924 30.3399C38.6209 30.3399 38.8276 30.3751 39.013 30.4453C39.1983 30.5155 39.3569 30.6138 39.4888 30.7401C39.6208 30.8665 39.7224 31.0182 39.7933 31.1951C39.8645 31.3721 39.9 31.5644 39.9 31.7723V34.4263H39.0625L39.0396 34.0556V34.0556ZM39.0396 32.6401C38.9483 32.6345 38.8594 32.6289 38.7732 32.6232C38.7021 32.6176 38.6272 32.6134 38.5485 32.6107C38.4699 32.6078 38.4025 32.6064 38.3467 32.6064C38.0574 32.6064 37.8544 32.6697 37.7376 32.796C37.6208 32.9224 37.5625 33.067 37.5625 33.2299C37.5625 33.3984 37.6171 33.5305 37.7263 33.6259C37.8353 33.7213 37.9965 33.7692 38.2097 33.7692C38.3163 33.7692 38.4191 33.7495 38.5181 33.7101C38.6171 33.6709 38.7046 33.6175 38.7808 33.5501C38.8569 33.4826 38.9191 33.404 38.9673 33.3142C39.0155 33.2243 39.0396 33.1288 39.0396 33.0277V32.6401V32.6401ZM40.768 30.4747H41.6283L41.6512 30.9719C41.6919 30.9157 41.7439 30.8539 41.8073 30.7865C41.8708 30.719 41.9456 30.6574 42.032 30.6011C42.1182 30.545 42.2185 30.4972 42.3327 30.4579C42.4469 30.4186 42.5776 30.399 42.7248 30.399C42.8111 30.399 42.8885 30.4045 42.957 30.4157C43.0255 30.427 43.0954 30.4467 43.1664 30.4747L42.9837 31.41C42.9228 31.3819 42.8606 31.3622 42.7971 31.3511C42.7337 31.3398 42.6588 31.3342 42.5725 31.3342C42.4507 31.3342 42.334 31.3566 42.2223 31.4015C42.1107 31.4465 42.0141 31.5111 41.9329 31.5953C41.8518 31.6796 41.787 31.7807 41.7388 31.8986C41.6905 32.0166 41.6664 32.1486 41.6664 32.2947V34.4263H40.768V30.4747V30.4747ZM43.6765 30.4747H44.5369L44.5598 30.9213C44.6054 30.8651 44.6601 30.8061 44.7235 30.7444C44.787 30.6826 44.8631 30.625 44.9519 30.5717C45.0407 30.5183 45.141 30.4747 45.2527 30.4411C45.3643 30.4074 45.4912 30.3905 45.6333 30.3905C46.0801 30.3905 46.4202 30.5379 46.6536 30.8328C46.8871 31.1278 47.0038 31.5251 47.0038 32.025V34.4263H46.1055V32.0334C46.1055 31.7807 46.0433 31.5855 45.9189 31.448C45.7945 31.3103 45.6333 31.2415 45.4354 31.2415C45.3136 31.2415 45.1994 31.2682 45.0927 31.3215C44.9862 31.3749 44.8948 31.4493 44.8186 31.5449C44.7425 31.6403 44.6829 31.7513 44.6398 31.8776C44.5966 32.004 44.575 32.1403 44.575 32.2863V34.4263H43.6765V30.4747V30.4747ZM47.8795 28.8065H48.8389V29.8513H47.8795V28.8065ZM47.9099 30.4747H48.8084V34.4263H47.9099V30.4747ZM49.7297 30.4747H50.59L50.6129 30.9213C50.6586 30.8651 50.7132 30.8061 50.7766 30.7444C50.8401 30.6826 50.9162 30.625 51.005 30.5717C51.0938 30.5183 51.1941 30.4747 51.3058 30.4411C51.4174 30.4074 51.5443 30.3905 51.6864 30.3905C52.1332 30.3905 52.4733 30.5379 52.7067 30.8328C52.9403 31.1278 53.057 31.5251 53.057 32.025V34.4263H52.1586V32.0334C52.1586 31.7807 52.0964 31.5855 51.972 31.448C51.8476 31.3103 51.6864 31.2415 51.4886 31.2415C51.3667 31.2415 51.2525 31.2682 51.1459 31.3215C51.0393 31.3749 50.948 31.4493 50.8718 31.5449C50.7956 31.6403 50.736 31.7513 50.6929 31.8776C50.6498 32.004 50.6281 32.1403 50.6281 32.2863V34.4263H49.7297V30.4747V30.4747ZM54.5037 35.0667C54.6458 35.1734 54.7993 35.2507 54.9643 35.2984C55.1293 35.3461 55.3234 35.37 55.5468 35.37C55.7803 35.37 55.9757 35.2913 56.1331 35.134C56.2905 34.9768 56.3691 34.7577 56.3691 34.4769V34.0472C56.2473 34.1595 56.1141 34.2508 55.9694 34.3211C55.8247 34.3913 55.6331 34.4263 55.3946 34.4263C55.1357 34.4263 54.9059 34.3786 54.7055 34.283C54.505 34.1876 54.3337 34.0542 54.1915 33.8828C54.0494 33.7116 53.9416 33.5094 53.8679 33.2763C53.7943 33.0432 53.7574 32.7861 53.7574 32.5053C53.7574 32.2132 53.8045 31.938 53.8983 31.6796C53.9923 31.4213 54.1268 31.1966 54.302 31.0055C54.477 30.8146 54.6889 30.6643 54.9376 30.5548C55.1864 30.4453 55.4656 30.3905 55.7752 30.3905C56.0849 30.3905 56.3704 30.4186 56.6318 30.4747C56.8932 30.5309 57.1052 30.5899 57.2675 30.6517V34.4938C57.2675 34.769 57.2244 35.0132 57.1382 35.2268C57.0518 35.4402 56.9325 35.6199 56.7802 35.766C56.628 35.912 56.4478 36.023 56.2397 36.0988C56.0315 36.1746 55.8056 36.2126 55.562 36.2126C55.3742 36.2126 55.208 36.2027 55.0633 36.183C54.9186 36.1634 54.7892 36.1367 54.675 36.103C54.5608 36.0693 54.4567 36.0272 54.3628 35.9766C54.2689 35.9261 54.1814 35.8671 54.1001 35.7997L54.5037 35.0667V35.0667ZM56.3691 31.3342C56.2981 31.3061 56.2244 31.285 56.1483 31.2709C56.0722 31.2569 55.9528 31.2499 55.7904 31.2499C55.6077 31.2499 55.4478 31.2836 55.3107 31.3511C55.1737 31.4184 55.057 31.5082 54.9605 31.6206C54.8641 31.7329 54.7918 31.8636 54.7436 32.0124C54.6953 32.1613 54.6712 32.3171 54.6712 32.48C54.6712 32.7834 54.7398 33.0388 54.8768 33.2467C55.0138 33.4546 55.2346 33.5585 55.5392 33.5585C55.8133 33.5585 56.0201 33.4939 56.1598 33.3647C56.2993 33.2355 56.3691 33.0305 56.3691 32.7496V31.3342V31.3342Z" fill="#ED3237"/>
</svg>
