<svg width="73" height="68" viewBox="0 0 73 68" fill="none" xmlns="http://www.w3.org/2000/svg">
<path fill-rule="evenodd" clip-rule="evenodd" d="M18.9818 62.3037H54.4706L50.1445 66.8456C49.2876 67.7505 48.9009 67.9966 47.7618 68H25.7281C24.7037 68.0001 24.2878 67.872 23.4515 66.9024L18.9818 62.3037Z" fill="#FFCC29"/>
<path fill-rule="evenodd" clip-rule="evenodd" d="M4.66341 33.5727H69.3019C71.3359 33.5727 73 35.4137 73 37.6639V58.5232C73 60.7734 71.3359 62.6145 69.3019 62.6145H4.66341C2.62943 62.6145 0.965302 60.7734 0.965302 58.5232V37.6639C0.965302 35.4137 2.62943 33.5727 4.66341 33.5727V33.5727Z" fill="#ED3237"/>
<path d="M5.12982 36.2472H68.9859C70.0369 36.2472 70.8969 37.1986 70.8969 38.3613V57.8257C70.8969 58.9885 70.0368 59.9398 68.9859 59.9398H5.12982C4.07881 59.9398 3.21889 58.9886 3.21889 57.8257V38.3613C3.21889 37.1986 4.07881 36.2472 5.12982 36.2472V36.2472Z" fill="#003F5D"/>
<path fill-rule="evenodd" clip-rule="evenodd" d="M36.1069 40.6254C39.7229 40.6254 42.6543 43.8692 42.6543 47.8707C42.6543 51.8721 39.7229 55.1159 36.1069 55.1159C32.4909 55.1159 29.5595 51.8721 29.5595 47.8707C29.5595 43.8692 32.4909 40.6254 36.1069 40.6254V40.6254ZM36.0949 51.0142C36.6318 51.0142 37.1177 50.8554 37.5528 50.5379C37.9879 50.1896 38.4276 49.8413 38.8719 49.493C39.0109 49.493 39.1357 49.5595 39.2468 49.6928C39.3578 49.8259 39.4134 49.9693 39.4134 50.1229C39.4134 50.6966 38.9968 51.2241 38.1637 51.7056C37.451 52.1153 36.7937 52.3202 36.192 52.3202C35.0812 52.3202 34.1301 51.9029 33.3386 51.0679C32.5473 50.233 32.1514 49.201 32.1514 47.9718C32.1514 46.7837 32.5448 45.7593 33.3317 44.8988C34.1185 44.0383 35.0535 43.6081 36.1365 43.6081C36.7383 43.6081 37.4094 43.8231 38.1499 44.2535C39.0015 44.7553 39.4273 45.3085 39.4273 45.9127C39.4273 46.0767 39.3672 46.2203 39.2468 46.3431C39.1265 46.466 38.9923 46.5275 38.8442 46.5275C38.7701 46.5275 38.4599 46.2663 37.9139 45.7438C37.3676 45.2214 36.7891 44.9602 36.1782 44.9602C35.3729 44.9602 34.704 45.2496 34.1717 45.8283C33.6395 46.4071 33.3733 47.1369 33.3733 48.0178C33.3733 48.8374 33.6395 49.5416 34.1717 50.1306C34.704 50.7196 35.3451 51.0142 36.0949 51.0142V51.0142ZM36.0949 45.4673C36.6965 45.4673 37.2428 45.7284 37.7334 46.2509C38.2239 46.7733 38.5897 47.0345 38.8303 47.0345C39.108 47.0345 39.3532 46.9219 39.5662 46.6965C39.7791 46.4711 39.8856 46.2049 39.8856 45.8974C39.8856 45.1395 39.4181 44.4634 38.4831 43.8693C37.6686 43.3571 36.8863 43.101 36.1365 43.101C34.9147 43.101 33.8686 43.5774 32.9984 44.53C32.1283 45.4827 31.6933 46.6299 31.6933 47.9718C31.6933 49.3343 32.1351 50.4841 33.0193 51.4213C33.9033 52.3586 34.9608 52.8273 36.192 52.8273C36.9326 52.8273 37.701 52.5815 38.4971 52.0896C39.4228 51.5161 39.8856 50.8554 39.8856 50.1075C39.8856 49.8106 39.7791 49.5442 39.5662 49.3085C39.3532 49.0731 39.108 48.9553 38.8303 48.9553C38.6267 48.9553 38.2541 49.2139 37.7125 49.7312C37.1709 50.2485 36.6318 50.5071 36.0949 50.5071C35.4932 50.5071 34.9655 50.2611 34.512 49.7696C34.0584 49.2779 33.8315 48.694 33.8315 48.0178C33.8315 47.3111 34.0514 46.7092 34.4911 46.2125C34.9308 45.7157 35.4654 45.4673 36.0949 45.4673V45.4673ZM36.0949 49.9846C36.4837 49.9846 36.8632 49.8259 37.2335 49.5084C38.0574 48.8015 38.5897 48.4482 38.8303 48.4482C39.2284 48.4482 39.5801 48.6121 39.8856 48.9399C40.191 49.2676 40.3439 49.657 40.3439 50.1075C40.3439 50.9988 39.8393 51.7824 38.8303 52.4585C37.9415 53.0526 37.0623 53.3497 36.192 53.3497C34.8221 53.3497 33.651 52.8323 32.679 51.7978C31.7071 50.7632 31.2211 49.4879 31.2211 47.9718C31.2211 46.4763 31.7025 45.206 32.6652 44.1612C33.6278 43.1163 34.785 42.594 36.1365 42.594C37.0252 42.594 37.9139 42.891 38.8025 43.4852C39.83 44.1715 40.3439 44.9755 40.3439 45.8974C40.3439 46.3585 40.1957 46.7477 39.8994 47.0652C39.6033 47.3828 39.2468 47.5416 38.8303 47.5416C38.4507 47.5416 38.1036 47.3777 37.7888 47.0499C37.1131 46.3329 36.5484 45.9743 36.0949 45.9743C35.5857 45.9743 35.1576 46.1715 34.8105 46.566C34.4633 46.9604 34.2898 47.4391 34.2898 48.0025C34.2898 48.5455 34.4657 49.0115 34.8173 49.4008C35.1692 49.7901 35.595 49.9846 36.0949 49.9846V49.9846Z" fill="#5DA3D8" fill-opacity="0.290196"/>
<path fill-rule="evenodd" clip-rule="evenodd" d="M43.7344 50.6652C43.6063 50.6175 43.478 50.5698 43.3499 50.522C42.1605 53.6823 40.2755 55.6901 37.4454 56.132C35.3838 56.4538 33.4646 56.094 31.7509 54.7644C29.1321 52.7324 27.3046 48.6944 29.2102 44.2045C29.8151 42.7793 30.4744 41.8646 31.6258 40.9291C33.6679 39.2698 35.9919 38.9726 38.5426 39.7892C38.5605 39.7472 38.5783 39.7051 38.5963 39.6631C39.4133 39.9306 40.1429 40.3908 40.8123 40.9829C40.8447 40.9236 40.8771 40.864 40.9096 40.8047C40.1865 40.1825 39.4406 39.7341 38.6675 39.491C38.6857 39.4424 38.7042 39.3938 38.7225 39.3454C36.2897 38.4514 33.4137 38.7451 31.1679 40.73C29.9044 41.8464 28.9025 43.4561 28.409 45.1594C27.3458 48.8289 28.462 53.0752 31.8693 55.3682C33.3887 56.3907 34.6683 56.7507 36.4461 56.7108C39.8652 56.6342 42.3638 54.5412 43.7344 50.6652V50.6652Z" fill="#5DA3D8" fill-opacity="0.290196"/>
<path fill-rule="evenodd" clip-rule="evenodd" d="M28.5095 39.6286C28.6348 39.7671 28.76 39.9057 28.8851 40.0442C26.2281 43.4261 25.1421 47.1318 26.32 51.0611C27.1781 53.9234 28.6208 56.2046 31.0268 57.6549C34.7034 59.8709 40.1835 59.8322 43.8328 54.7477C44.9911 53.1337 45.5768 51.7459 45.8985 49.7077C46.4689 46.0926 45.4318 42.904 43.0827 40.0691C43.1169 40.0216 43.151 39.9739 43.1851 39.9263C42.4263 39.0216 41.5143 38.3425 40.4974 37.8185C40.5414 37.7419 40.5855 37.6652 40.6296 37.5885C41.7097 38.1648 42.6187 38.8718 43.326 39.7336C43.3668 39.6817 43.4076 39.6295 43.4485 39.5776C45.8109 42.2143 47.1727 46.1172 46.3759 50.1861C45.9276 52.4749 44.8875 54.7117 43.3697 56.3428C40.0998 59.8571 34.781 60.8792 30.318 57.883C24.3919 53.9043 23.7012 44.7064 28.5095 39.6286V39.6286Z" fill="#5DA3D8" fill-opacity="0.290196"/>
<path fill-rule="evenodd" clip-rule="evenodd" d="M43.3623 52.9393L44.0512 53.4485C40.7489 59.2209 33.4836 60.0243 29.1696 55.2079C27.4098 53.2428 26.6544 50.9637 26.5533 48.2034C26.2377 39.5904 34.806 34.3839 41.1891 38.8318L41.0142 39.182C43.1323 40.5626 44.4693 42.6955 45.0366 45.5698L44.8118 45.6037C44.2714 42.8845 43.0132 40.7677 40.8643 39.3987L40.7141 39.6527C35.0336 35.6056 26.7787 40.2742 27.3434 48.5299C28.3107 58.2384 39.1316 60.2715 43.3623 52.9393V52.9393Z" fill="#5DA3D8" fill-opacity="0.290196"/>
<path fill-rule="evenodd" clip-rule="evenodd" d="M2.8498 60.6105C2.8498 60.2816 3.09078 60.0152 3.38794 60.0152C3.68511 60.0152 3.92608 60.2816 3.92608 60.6105C3.92608 60.9393 3.68511 61.2058 3.38794 61.2058C3.09078 61.2058 2.8498 60.9393 2.8498 60.6105ZM5.74533 60.7501C6.04249 60.7501 6.28347 61.0167 6.28347 61.3454C6.28347 61.6743 6.04249 61.9408 5.74533 61.9408C5.44806 61.9408 5.20719 61.6743 5.20719 61.3454C5.20719 61.0167 5.44806 60.7501 5.74533 60.7501ZM8.34712 60.7501C8.64438 60.7501 8.88526 61.0167 8.88526 61.3454C8.88526 61.6743 8.64438 61.9408 8.34712 61.9408C8.04996 61.9408 7.80898 61.6743 7.80898 61.3454C7.80898 61.0167 8.04996 60.7501 8.34712 60.7501ZM10.949 60.7501C11.2462 60.7501 11.4872 61.0167 11.4872 61.3454C11.4872 61.6743 11.2462 61.9408 10.949 61.9408C10.6518 61.9408 10.4109 61.6743 10.4109 61.3454C10.4109 61.0167 10.6518 60.7501 10.949 60.7501ZM13.5508 60.7501C13.848 60.7501 14.0889 61.0167 14.0889 61.3454C14.0889 61.6743 13.848 61.9408 13.5508 61.9408C13.2536 61.9408 13.0127 61.6743 13.0127 61.3454C13.0127 61.0167 13.2536 60.7501 13.5508 60.7501ZM16.1527 60.7501C16.4499 60.7501 16.6907 61.0167 16.6907 61.3454C16.6907 61.6743 16.4499 61.9408 16.1527 61.9408C15.8554 61.9408 15.6146 61.6743 15.6146 61.3454C15.6146 61.0167 15.8554 60.7501 16.1527 60.7501ZM18.7545 60.7501C19.0517 60.7501 19.2926 61.0167 19.2926 61.3454C19.2926 61.6743 19.0517 61.9408 18.7545 61.9408C18.4573 61.9408 18.2164 61.6743 18.2164 61.3454C18.2164 61.0167 18.4573 60.7501 18.7545 60.7501ZM21.3564 60.7501C21.6535 60.7501 21.8944 61.0167 21.8944 61.3454C21.8944 61.6743 21.6535 61.9408 21.3564 61.9408C21.0591 61.9408 20.8182 61.6743 20.8182 61.3454C20.8182 61.0167 21.0591 60.7501 21.3564 60.7501ZM23.9582 60.7501C24.2553 60.7501 24.4963 61.0167 24.4963 61.3454C24.4963 61.6743 24.2553 61.9408 23.9582 61.9408C23.661 61.9408 23.42 61.6743 23.42 61.3454C23.42 61.0167 23.661 60.7501 23.9582 60.7501ZM26.56 60.7501C26.8572 60.7501 27.0981 61.0167 27.0981 61.3454C27.0981 61.6743 26.8572 61.9408 26.56 61.9408C26.2628 61.9408 26.0219 61.6743 26.0219 61.3454C26.0219 61.0167 26.2628 60.7501 26.56 60.7501ZM29.1619 60.7501C29.459 60.7501 29.7 61.0167 29.7 61.3454C29.7 61.6743 29.459 61.9408 29.1619 61.9408C28.8647 61.9408 28.6237 61.6743 28.6237 61.3454C28.6237 61.0167 28.8647 60.7501 29.1619 60.7501ZM31.7637 60.7501C32.0609 60.7501 32.3018 61.0167 32.3018 61.3454C32.3018 61.6743 32.0609 61.9408 31.7637 61.9408C31.4665 61.9408 31.2255 61.6743 31.2255 61.3454C31.2255 61.0167 31.4665 60.7501 31.7637 60.7501ZM34.3655 60.7501C34.6627 60.7501 34.9037 61.0167 34.9037 61.3454C34.9037 61.6743 34.6627 61.9408 34.3655 61.9408C34.0683 61.9408 33.8274 61.6743 33.8274 61.3454C33.8274 61.0167 34.0683 60.7501 34.3655 60.7501ZM36.9673 60.7501C37.2646 60.7501 37.5055 61.0167 37.5055 61.3454C37.5055 61.6743 37.2646 61.9408 36.9673 61.9408C36.6702 61.9408 36.4292 61.6743 36.4292 61.3454C36.4292 61.0167 36.6702 60.7501 36.9673 60.7501ZM39.5692 60.7501C39.8664 60.7501 40.1074 61.0167 40.1074 61.3454C40.1074 61.6743 39.8664 61.9408 39.5692 61.9408C39.272 61.9408 39.0311 61.6743 39.0311 61.3454C39.0311 61.0167 39.272 60.7501 39.5692 60.7501ZM42.171 60.7501C42.4683 60.7501 42.7092 61.0167 42.7092 61.3454C42.7092 61.6743 42.4683 61.9408 42.171 61.9408C41.8739 61.9408 41.6329 61.6743 41.6329 61.3454C41.6329 61.0167 41.8739 60.7501 42.171 60.7501ZM44.7729 60.7501C45.0701 60.7501 45.3111 61.0167 45.3111 61.3454C45.3111 61.6743 45.0701 61.9408 44.7729 61.9408C44.4757 61.9408 44.2348 61.6743 44.2348 61.3454C44.2348 61.0167 44.4757 60.7501 44.7729 60.7501ZM47.3747 60.7501C47.6719 60.7501 47.9129 61.0167 47.9129 61.3454C47.9129 61.6743 47.6719 61.9408 47.3747 61.9408C47.0775 61.9408 46.8366 61.6743 46.8366 61.3454C46.8366 61.0167 47.0775 60.7501 47.3747 60.7501ZM49.9766 60.7501C50.2738 60.7501 50.5146 61.0167 50.5146 61.3454C50.5146 61.6743 50.2738 61.9408 49.9766 61.9408C49.6793 61.9408 49.4385 61.6743 49.4385 61.3454C49.4385 61.0167 49.6793 60.7501 49.9766 60.7501ZM52.5784 60.7501C52.8756 60.7501 53.1165 61.0167 53.1165 61.3454C53.1165 61.6743 52.8756 61.9408 52.5784 61.9408C52.2812 61.9408 52.0403 61.6743 52.0403 61.3454C52.0403 61.0167 52.2812 60.7501 52.5784 60.7501ZM55.1802 60.7501C55.4775 60.7501 55.7183 61.0167 55.7183 61.3454C55.7183 61.6743 55.4775 61.9408 55.1802 61.9408C54.883 61.9408 54.6421 61.6743 54.6421 61.3454C54.6421 61.0167 54.883 60.7501 55.1802 60.7501ZM57.7821 60.7501C58.0792 60.7501 58.3202 61.0167 58.3202 61.3454C58.3202 61.6743 58.0792 61.9408 57.7821 61.9408C57.4849 61.9408 57.2439 61.6743 57.2439 61.3454C57.2439 61.0167 57.4849 60.7501 57.7821 60.7501ZM60.3839 60.7501C60.6811 60.7501 60.922 61.0167 60.922 61.3454C60.922 61.6743 60.6811 61.9408 60.3839 61.9408C60.0867 61.9408 59.8457 61.6743 59.8457 61.3454C59.8457 61.0167 60.0867 60.7501 60.3839 60.7501ZM62.9858 60.7501C63.2829 60.7501 63.5239 61.0167 63.5239 61.3454C63.5239 61.6743 63.2829 61.9408 62.9858 61.9408C62.6885 61.9408 62.4476 61.6743 62.4476 61.3454C62.4476 61.0167 62.6885 60.7501 62.9858 60.7501ZM65.5876 60.7501C65.8848 60.7501 66.1257 61.0167 66.1257 61.3454C66.1257 61.6743 65.8848 61.9408 65.5876 61.9408C65.2904 61.9408 65.0494 61.6743 65.0494 61.3454C65.0494 61.0167 65.2904 60.7501 65.5876 60.7501ZM68.1896 60.7501C68.4868 60.7501 68.7278 61.0167 68.7278 61.3454C68.7278 61.6743 68.4868 61.9408 68.1896 61.9408C67.8924 61.9408 67.6516 61.6743 67.6516 61.3454C67.6516 61.0167 67.8924 60.7501 68.1896 60.7501ZM70.2783 60.6274C70.2783 60.2985 70.5193 60.032 70.8164 60.032C71.1136 60.032 71.3546 60.2985 71.3546 60.6274C71.3546 60.9561 71.1136 61.2226 70.8164 61.2226C70.5193 61.2226 70.2783 60.9561 70.2783 60.6274ZM1.59589 58.0636C1.59589 57.7347 1.83686 57.4683 2.13403 57.4683C2.43129 57.4683 2.67217 57.7347 2.67217 58.0636C2.67217 58.3923 2.43129 58.6589 2.13403 58.6589C1.83686 58.6589 1.59589 58.3923 1.59589 58.0636ZM1.59589 55.2337C1.59589 54.905 1.83686 54.6385 2.13403 54.6385C2.43129 54.6385 2.67217 54.905 2.67217 55.2337C2.67217 55.5625 2.43129 55.8291 2.13403 55.8291C1.83686 55.8291 1.59589 55.5625 1.59589 55.2337ZM1.59589 52.4039C1.59589 52.0751 1.83686 51.8086 2.13403 51.8086C2.43129 51.8086 2.67217 52.0751 2.67217 52.4039C2.67217 52.7327 2.43129 52.9991 2.13403 52.9991C1.83686 52.9991 1.59589 52.7327 1.59589 52.4039ZM1.59589 49.5741C1.59589 49.2452 1.83686 48.9787 2.13403 48.9787C2.43129 48.9787 2.67217 49.2452 2.67217 49.5741C2.67217 49.9028 2.43129 50.1693 2.13403 50.1693C1.83686 50.1693 1.59589 49.9028 1.59589 49.5741ZM1.59589 46.7441C1.59589 46.4153 1.83686 46.1488 2.13403 46.1488C2.43129 46.1488 2.67217 46.4153 2.67217 46.7441C2.67217 47.0729 2.43129 47.3394 2.13403 47.3394C1.83686 47.3394 1.59589 47.0729 1.59589 46.7441ZM1.59589 43.9142C1.59589 43.5854 1.83686 43.3189 2.13403 43.3189C2.43129 43.3189 2.67217 43.5854 2.67217 43.9142C2.67217 44.2431 2.43129 44.5095 2.13403 44.5095C1.83686 44.5095 1.59589 44.2431 1.59589 43.9142ZM1.59589 41.0843C1.59589 40.7556 1.83686 40.4891 2.13403 40.4891C2.43129 40.4891 2.67217 40.7556 2.67217 41.0843C2.67217 41.4132 2.43129 41.6797 2.13403 41.6797C1.83686 41.6797 1.59589 41.4132 1.59589 41.0843ZM71.5137 58.0636C71.5137 57.7347 71.7547 57.4683 72.0518 57.4683C72.3489 57.4683 72.5899 57.7347 72.5899 58.0636C72.5899 58.3923 72.3489 58.6589 72.0518 58.6589C71.7547 58.6589 71.5137 58.3923 71.5137 58.0636V58.0636ZM71.5137 55.2337C71.5137 54.905 71.7547 54.6385 72.0518 54.6385C72.3489 54.6385 72.5899 54.905 72.5899 55.2337C72.5899 55.5625 72.3489 55.8291 72.0518 55.8291C71.7547 55.8291 71.5137 55.5625 71.5137 55.2337V55.2337ZM71.5137 52.4039C71.5137 52.0751 71.7547 51.8086 72.0518 51.8086C72.3489 51.8086 72.5899 52.0751 72.5899 52.4039C72.5899 52.7327 72.3489 52.9991 72.0518 52.9991C71.7547 52.9991 71.5137 52.7327 71.5137 52.4039V52.4039ZM71.5137 49.5741C71.5137 49.2452 71.7547 48.9787 72.0518 48.9787C72.3489 48.9787 72.5899 49.2452 72.5899 49.5741C72.5899 49.9028 72.3489 50.1693 72.0518 50.1693C71.7547 50.1693 71.5137 49.9028 71.5137 49.5741V49.5741ZM71.5137 46.7441C71.5137 46.4153 71.7547 46.1488 72.0518 46.1488C72.3489 46.1488 72.5899 46.4153 72.5899 46.7441C72.5899 47.0729 72.3489 47.3394 72.0518 47.3394C71.7547 47.3394 71.5137 47.0729 71.5137 46.7441V46.7441ZM71.5137 43.9142C71.5137 43.5854 71.7547 43.3189 72.0518 43.3189C72.3489 43.3189 72.5899 43.5854 72.5899 43.9142C72.5899 44.2431 72.3489 44.5095 72.0518 44.5095C71.7547 44.5095 71.5137 44.2431 71.5137 43.9142V43.9142ZM71.5137 41.0843C71.5137 40.7556 71.7547 40.4891 72.0518 40.4891C72.3489 40.4891 72.5899 40.7556 72.5899 41.0843C72.5899 41.4132 72.3489 41.6797 72.0518 41.6797C71.7547 41.6797 71.5137 41.4132 71.5137 41.0843V41.0843ZM5.74533 34.3798C6.04249 34.3798 6.28347 34.6464 6.28347 34.9751C6.28347 35.3039 6.04249 35.5705 5.74533 35.5705C5.44806 35.5705 5.20719 35.3039 5.20719 34.9751C5.20719 34.6464 5.44806 34.3798 5.74533 34.3798ZM8.34712 34.3798C8.64438 34.3798 8.88526 34.6464 8.88526 34.9751C8.88526 35.3039 8.64438 35.5705 8.34712 35.5705C8.04996 35.5705 7.80898 35.3039 7.80898 34.9751C7.80898 34.6464 8.04996 34.3798 8.34712 34.3798ZM10.949 34.3798C11.2462 34.3798 11.4872 34.6464 11.4872 34.9751C11.4872 35.3039 11.2462 35.5705 10.949 35.5705C10.6518 35.5705 10.4109 35.3039 10.4109 34.9751C10.4109 34.6464 10.6518 34.3798 10.949 34.3798ZM13.5508 34.3798C13.848 34.3798 14.0889 34.6464 14.0889 34.9751C14.0889 35.3039 13.848 35.5705 13.5508 35.5705C13.2536 35.5705 13.0127 35.3039 13.0127 34.9751C13.0127 34.6464 13.2536 34.3798 13.5508 34.3798ZM16.1527 34.3798C16.4499 34.3798 16.6907 34.6464 16.6907 34.9751C16.6907 35.3039 16.4499 35.5705 16.1527 35.5705C15.8554 35.5705 15.6146 35.3039 15.6146 34.9751C15.6146 34.6464 15.8554 34.3798 16.1527 34.3798ZM18.7545 34.3798C19.0517 34.3798 19.2926 34.6464 19.2926 34.9751C19.2926 35.3039 19.0517 35.5705 18.7545 35.5705C18.4573 35.5705 18.2164 35.3039 18.2164 34.9751C18.2164 34.6464 18.4573 34.3798 18.7545 34.3798ZM21.3564 34.3798C21.6535 34.3798 21.8944 34.6464 21.8944 34.9751C21.8944 35.3039 21.6535 35.5705 21.3564 35.5705C21.0591 35.5705 20.8182 35.3039 20.8182 34.9751C20.8182 34.6464 21.0591 34.3798 21.3564 34.3798ZM23.9582 34.3798C24.2553 34.3798 24.4963 34.6464 24.4963 34.9751C24.4963 35.3039 24.2553 35.5705 23.9582 35.5705C23.661 35.5705 23.42 35.3039 23.42 34.9751C23.42 34.6464 23.661 34.3798 23.9582 34.3798ZM26.56 34.3798C26.8572 34.3798 27.0981 34.6464 27.0981 34.9751C27.0981 35.3039 26.8572 35.5705 26.56 35.5705C26.2628 35.5705 26.0219 35.3039 26.0219 34.9751C26.0219 34.6464 26.2628 34.3798 26.56 34.3798ZM29.1619 34.3798C29.459 34.3798 29.7 34.6464 29.7 34.9751C29.7 35.3039 29.459 35.5705 29.1619 35.5705C28.8647 35.5705 28.6237 35.3039 28.6237 34.9751C28.6237 34.6464 28.8647 34.3798 29.1619 34.3798ZM31.7637 34.3798C32.0609 34.3798 32.3018 34.6464 32.3018 34.9751C32.3018 35.3039 32.0609 35.5705 31.7637 35.5705C31.4665 35.5705 31.2255 35.3039 31.2255 34.9751C31.2255 34.6464 31.4665 34.3798 31.7637 34.3798ZM34.3655 34.3798C34.6627 34.3798 34.9037 34.6464 34.9037 34.9751C34.9037 35.3039 34.6627 35.5705 34.3655 35.5705C34.0683 35.5705 33.8274 35.3039 33.8274 34.9751C33.8274 34.6464 34.0683 34.3798 34.3655 34.3798ZM36.9673 34.3798C37.2646 34.3798 37.5055 34.6464 37.5055 34.9751C37.5055 35.3039 37.2646 35.5705 36.9673 35.5705C36.6702 35.5705 36.4292 35.3039 36.4292 34.9751C36.4292 34.6464 36.6702 34.3798 36.9673 34.3798ZM39.5692 34.3798C39.8664 34.3798 40.1074 34.6464 40.1074 34.9751C40.1074 35.3039 39.8664 35.5705 39.5692 35.5705C39.272 35.5705 39.0311 35.3039 39.0311 34.9751C39.0311 34.6464 39.272 34.3798 39.5692 34.3798ZM42.171 34.3798C42.4683 34.3798 42.7092 34.6464 42.7092 34.9751C42.7092 35.3039 42.4683 35.5705 42.171 35.5705C41.8739 35.5705 41.6329 35.3039 41.6329 34.9751C41.6329 34.6464 41.8739 34.3798 42.171 34.3798ZM44.7729 34.3798C45.0701 34.3798 45.3111 34.6464 45.3111 34.9751C45.3111 35.3039 45.0701 35.5705 44.7729 35.5705C44.4757 35.5705 44.2348 35.3039 44.2348 34.9751C44.2348 34.6464 44.4757 34.3798 44.7729 34.3798ZM47.3747 34.3798C47.6719 34.3798 47.9129 34.6464 47.9129 34.9751C47.9129 35.3039 47.6719 35.5705 47.3747 35.5705C47.0775 35.5705 46.8366 35.3039 46.8366 34.9751C46.8366 34.6464 47.0775 34.3798 47.3747 34.3798ZM49.9766 34.3798C50.2738 34.3798 50.5146 34.6464 50.5146 34.9751C50.5146 35.3039 50.2738 35.5705 49.9766 35.5705C49.6793 35.5705 49.4385 35.3039 49.4385 34.9751C49.4385 34.6464 49.6793 34.3798 49.9766 34.3798ZM52.5784 34.3798C52.8756 34.3798 53.1165 34.6464 53.1165 34.9751C53.1165 35.3039 52.8756 35.5705 52.5784 35.5705C52.2812 35.5705 52.0403 35.3039 52.0403 34.9751C52.0403 34.6464 52.2812 34.3798 52.5784 34.3798ZM55.1802 34.3798C55.4775 34.3798 55.7183 34.6464 55.7183 34.9751C55.7183 35.3039 55.4775 35.5705 55.1802 35.5705C54.883 35.5705 54.6421 35.3039 54.6421 34.9751C54.6421 34.6464 54.883 34.3798 55.1802 34.3798ZM57.7821 34.3798C58.0792 34.3798 58.3202 34.6464 58.3202 34.9751C58.3202 35.3039 58.0792 35.5705 57.7821 35.5705C57.4849 35.5705 57.2439 35.3039 57.2439 34.9751C57.2439 34.6464 57.4849 34.3798 57.7821 34.3798ZM60.3839 34.3798C60.6811 34.3798 60.922 34.6464 60.922 34.9751C60.922 35.3039 60.6811 35.5705 60.3839 35.5705C60.0867 35.5705 59.8457 35.3039 59.8457 34.9751C59.8457 34.6464 60.0867 34.3798 60.3839 34.3798ZM62.9858 34.3798C63.2829 34.3798 63.5239 34.6464 63.5239 34.9751C63.5239 35.3039 63.2829 35.5705 62.9858 35.5705C62.6885 35.5705 62.4476 35.3039 62.4476 34.9751C62.4476 34.6464 62.6885 34.3798 62.9858 34.3798ZM65.5876 34.3798C65.8848 34.3798 66.1257 34.6464 66.1257 34.9751C66.1257 35.3039 65.8848 35.5705 65.5876 35.5705C65.2904 35.5705 65.0494 35.3039 65.0494 34.9751C65.0494 34.6464 65.2904 34.3798 65.5876 34.3798ZM68.1896 34.3798C68.4868 34.3798 68.7278 34.6464 68.7278 34.9751C68.7278 35.3039 68.4868 35.5705 68.1896 35.5705C67.8924 35.5705 67.6516 35.3039 67.6516 34.9751C67.6516 34.6464 67.8924 34.3798 68.1896 34.3798ZM1.59589 38.2544C1.59589 37.9258 1.83686 37.6592 2.13403 37.6592C2.43129 37.6592 2.67217 37.9258 2.67217 38.2544C2.67217 38.5833 2.43129 38.8498 2.13403 38.8498C1.83686 38.8498 1.59589 38.5833 1.59589 38.2544ZM71.5137 38.2544C71.5137 37.9258 71.7547 37.6592 72.0518 37.6592C72.3489 37.6592 72.5899 37.9258 72.5899 38.2544C72.5899 38.5833 72.3489 38.8498 72.0518 38.8498C71.7547 38.8498 71.5137 38.5833 71.5137 38.2544ZM70.2783 35.7724C70.2783 35.4436 70.5193 35.1772 70.8164 35.1772C71.1136 35.1772 71.3546 35.4436 71.3546 35.7724C71.3546 36.1012 71.1136 36.3677 70.8164 36.3677C70.5193 36.3677 70.2783 36.1012 70.2783 35.7724ZM2.76881 35.7724C2.76881 35.4436 3.00978 35.1772 3.30695 35.1772C3.60421 35.1772 3.84509 35.4436 3.84509 35.7724C3.84509 36.1012 3.60421 36.3677 3.30695 36.3677C3.00978 36.3677 2.76881 36.1012 2.76881 35.7724V35.7724Z" fill="#FEFEFE"/>
<path d="M7.61703 39.9945H9.06146L10.819 43.4922L12.5362 39.9945H13.9908L14.3039 47.4481H12.7786L12.5867 42.5759L11.1927 45.4814H10.405L8.93009 42.6094L8.75838 47.4481H7.30384L7.61703 39.9945V39.9945ZM16.686 39.9945H18.3728L20.8374 47.4481H19.1708L18.6557 45.7383H16.2819L15.7667 47.4481H14.1708L16.686 39.9945V39.9945ZM18.292 44.4309L17.4738 41.6148L16.6354 44.4309H18.292ZM21.472 41.4808H19.2901V39.9945H25.179V41.4808H23.0073V47.4481H21.472V41.4808V41.4808ZM25.2984 39.9945H26.8236V42.8552H29.7428V39.9945H31.2681V47.4481H29.7428V44.3863H26.8236V47.4481H25.2984V39.9945V39.9945ZM31.832 39.9945H36.438V41.4696H33.3572V42.9224H35.7511V44.3526H33.3572V45.9617H36.6602V47.4481H31.832V39.9945V39.9945ZM37.1432 39.9945H38.5877L40.3453 43.4922L42.0625 39.9945H43.517L43.8301 47.4481H42.3048L42.1129 42.5759L40.719 45.4814H39.9312L38.4564 42.6094L38.2847 47.4481H36.8302L37.1432 39.9945V39.9945ZM46.2122 39.9945H47.899L50.3636 47.4481H48.697L48.1819 45.7383H45.8081L45.2929 47.4481H43.697L46.2122 39.9945V39.9945ZM47.8182 44.4309L47 41.6148L46.1616 44.4309H47.8182V44.4309ZM50.9982 41.4808H48.8164V39.9945H54.7052V41.4808H52.5336V47.4481H50.9982V41.4808V41.4808ZM54.8246 39.9945H56.3499V47.4481H54.8246V39.9945V39.9945ZM62.9946 46.0735C62.8532 46.2895 62.6814 46.4926 62.4795 46.6826C62.2773 46.8726 62.0534 47.0384 61.8077 47.1799C61.5619 47.3214 61.296 47.4331 61.0097 47.5151C60.7235 47.5971 60.4256 47.638 60.1158 47.638C59.604 47.638 59.136 47.5412 58.7118 47.3475C58.2876 47.1538 57.9222 46.8836 57.6158 46.5374C57.3094 46.1909 57.072 45.7812 56.9037 45.3082C56.7354 44.835 56.6511 44.3154 56.6511 43.7493C56.6511 43.198 56.7354 42.682 56.9037 42.2015C57.072 41.721 57.3094 41.3038 57.6158 40.95C57.9222 40.5961 58.2892 40.3167 58.7168 40.1118C59.1444 39.907 59.6174 39.8045 60.1359 39.8045C60.7622 39.8045 61.3093 39.9313 61.7774 40.1845C62.2455 40.4378 62.6343 40.8028 62.9441 41.2796L61.9037 42.3859C61.7016 42.0731 61.4625 41.8215 61.1865 41.6316C60.9104 41.4416 60.5804 41.3467 60.1966 41.3467C59.8935 41.3467 59.6208 41.4081 59.3784 41.531C59.136 41.654 58.9307 41.8235 58.7622 42.0395C58.5939 42.2556 58.4643 42.507 58.3734 42.7938C58.2824 43.0806 58.237 43.3842 58.237 43.7045C58.237 44.0323 58.2824 44.3378 58.3734 44.6209C58.4643 44.904 58.5939 45.1498 58.7622 45.3584C58.9307 45.567 59.1326 45.7309 59.3683 45.8501C59.604 45.9692 59.8701 46.0289 60.1664 46.0289C60.4087 46.0289 60.6192 46.0009 60.7975 45.945C60.976 45.8891 61.1344 45.8147 61.2723 45.7216C61.4104 45.6285 61.5333 45.5204 61.641 45.3975C61.7488 45.2745 61.8531 45.1498 61.9541 45.0231L62.9946 46.0735V46.0735ZM63.4776 45.2242C63.5652 45.3287 63.6679 45.4347 63.7857 45.5428C63.9035 45.6507 64.0349 45.7495 64.1797 45.8388C64.3245 45.9283 64.4827 46.0009 64.6544 46.0568C64.8261 46.1127 65.0096 46.1407 65.2049 46.1407C65.3194 46.1407 65.4339 46.122 65.5483 46.0847C65.6628 46.0476 65.7671 45.9935 65.8614 45.9228C65.9557 45.8519 66.0315 45.7662 66.0887 45.6657C66.1459 45.5651 66.1746 45.4515 66.1746 45.3248C66.1746 45.0492 66.0534 44.835 65.8109 44.6824C65.5685 44.5296 65.1847 44.3788 64.6594 44.2297C64.4036 44.1627 64.1661 44.0658 63.9473 43.9392C63.7284 43.8126 63.5399 43.6599 63.3817 43.481C63.2234 43.3023 63.1005 43.0974 63.013 42.8664C62.9255 42.6356 62.8817 42.3785 62.8817 42.0954C62.8817 41.7826 62.9322 41.4883 63.0332 41.2126C63.1342 40.937 63.2874 40.6929 63.4928 40.4806C63.6981 40.2683 63.9541 40.1007 64.2605 39.9777C64.5669 39.8548 64.9288 39.7934 65.3463 39.7934C65.6897 39.7934 65.9927 39.8325 66.2553 39.9108C66.5181 39.9889 66.7419 40.0821 66.9271 40.1901C67.1122 40.2982 67.2638 40.4099 67.3816 40.5254C67.4994 40.6408 67.5887 40.7321 67.6493 40.7991L66.7706 41.8719C66.6965 41.8049 66.6106 41.7322 66.5129 41.654C66.4153 41.5758 66.3059 41.5031 66.1848 41.4361C66.0634 41.369 65.9305 41.3132 65.7857 41.2685C65.6409 41.2237 65.4878 41.2014 65.3262 41.2014C65.2184 41.2014 65.1123 41.2201 65.0079 41.2573C64.9036 41.2945 64.8092 41.3448 64.7251 41.4081C64.6409 41.4715 64.5736 41.5459 64.5231 41.6316C64.4725 41.7173 64.4473 41.8086 64.4473 41.9055C64.4473 42.1587 64.5685 42.3635 64.811 42.5201C65.0533 42.6765 65.3867 42.8069 65.8109 42.9112C66.0602 42.9781 66.3042 43.0694 66.5433 43.1849C66.7823 43.3004 66.9961 43.4512 67.1846 43.6375C67.3732 43.8238 67.5247 44.0528 67.6393 44.3247C67.7537 44.5967 67.811 44.9262 67.811 45.3137C67.811 45.6489 67.7436 45.958 67.6089 46.2412C67.4742 46.5243 67.2907 46.77 67.0584 46.9788C66.8261 47.1873 66.5534 47.3494 66.2403 47.4648C65.9271 47.5803 65.5888 47.638 65.225 47.638C64.8884 47.638 64.582 47.6027 64.306 47.5319C64.0298 47.4611 63.7807 47.368 63.5584 47.2525C63.3362 47.137 63.1358 47.0047 62.9574 46.8559C62.779 46.7068 62.6258 46.5541 62.4979 46.3976L63.4776 45.2242V45.2242ZM23.573 54.8138C23.4316 55.0298 23.2598 55.2329 23.0578 55.4228C22.8558 55.6128 22.6318 55.7785 22.3861 55.9201C22.1404 56.0616 21.8743 56.1732 21.5881 56.2553C21.3019 56.3372 21.004 56.3781 20.6942 56.3781C20.1824 56.3781 19.7144 56.2813 19.2901 56.0876C18.8659 55.8939 18.5006 55.6239 18.1942 55.2775C17.8878 54.931 17.6504 54.5213 17.4821 54.0483C17.3137 53.5753 17.2295 53.0556 17.2295 52.4894C17.2295 51.9381 17.3137 51.4222 17.4821 50.9417C17.6504 50.4612 17.8878 50.044 18.1942 49.6902C18.5006 49.3363 18.8675 49.0569 19.2952 48.852C19.7228 48.6472 20.1958 48.5447 20.7143 48.5447C21.3406 48.5447 21.8877 48.6714 22.3558 48.9247C22.8238 49.178 23.2126 49.543 23.5225 50.0198L22.482 51.1261C22.28 50.8132 22.041 50.5618 21.7649 50.3718C21.4888 50.1818 21.1588 50.0868 20.7749 50.0868C20.4719 50.0868 20.1992 50.1483 19.9568 50.2712C19.7144 50.3941 19.509 50.5637 19.3406 50.7797C19.1722 50.9958 19.0427 51.2471 18.9518 51.5339C18.8609 51.8208 18.8154 52.1244 18.8154 52.4446C18.8154 52.7724 18.8609 53.0779 18.9518 53.3611C19.0427 53.6441 19.1722 53.89 19.3406 54.0986C19.509 54.3072 19.711 54.471 19.9467 54.5903C20.1824 54.7094 20.4484 54.769 20.7447 54.769C20.9871 54.769 21.1975 54.7411 21.3759 54.6852C21.5544 54.6293 21.7127 54.5548 21.8507 54.4617C21.9888 54.3686 22.1116 54.2606 22.2193 54.1377C22.3271 54.0147 22.4315 53.89 22.5325 53.7633L23.573 54.8138V54.8138ZM26.6823 56.3781C26.184 56.3781 25.721 56.2776 25.2935 56.0764C24.8658 55.8753 24.4954 55.5996 24.1824 55.2495C23.8692 54.8994 23.6234 54.484 23.4449 54.0036C23.2664 53.5231 23.1772 53.0071 23.1772 52.4558C23.1772 51.8972 23.2664 51.3794 23.4449 50.9026C23.6234 50.4258 23.8692 50.0123 24.1824 49.6622C24.4954 49.3121 24.8658 49.0364 25.2935 48.8352C25.721 48.6341 26.184 48.5336 26.6823 48.5336C27.1805 48.5336 27.6436 48.6341 28.0712 48.8352C28.4987 49.0364 28.8691 49.3121 29.1823 49.6622C29.4955 50.0123 29.7412 50.4258 29.9197 50.9026C30.0981 51.3794 30.1873 51.8972 30.1873 52.4558C30.1873 53.0071 30.0981 53.5231 29.9197 54.0036C29.7412 54.484 29.4955 54.8994 29.1823 55.2495C28.8691 55.5996 28.4987 55.8753 28.0712 56.0764C27.6436 56.2776 27.1805 56.3781 26.6823 56.3781ZM26.6823 54.7914C26.9786 54.7914 27.2446 54.728 27.4803 54.6015C27.716 54.4748 27.9163 54.3035 28.0813 54.0874C28.2462 53.8714 28.3724 53.6217 28.46 53.3387C28.5476 53.0556 28.5914 52.754 28.5914 52.4335C28.5914 52.1132 28.5476 51.8115 28.46 51.5283C28.3724 51.2452 28.2462 50.9975 28.0813 50.7853C27.9163 50.573 27.716 50.4053 27.4803 50.2823C27.2446 50.1595 26.9786 50.098 26.6823 50.098C26.3861 50.098 26.1184 50.1595 25.8792 50.2823C25.6402 50.4053 25.4382 50.573 25.2731 50.7853C25.1082 50.9975 24.982 51.2452 24.8944 51.5283C24.8069 51.8115 24.7631 52.1132 24.7631 52.4335C24.7631 52.754 24.8069 53.0556 24.8944 53.3387C24.982 53.6217 25.1082 53.8714 25.2731 54.0874C25.4382 54.3035 25.6402 54.4748 25.8792 54.6015C26.1184 54.728 26.3861 54.7914 26.6823 54.7914ZM30.4887 48.7346H31.9432L34.8623 53.5734V48.7346H36.3673V56.1882H34.9835L31.9936 51.2602V56.1882H30.4887V48.7346V48.7346ZM38.6686 50.2209H36.4868V48.7346H42.3756V50.2209H40.2039V56.1882H38.6686V50.2209V50.2209ZM42.4951 48.7346H47.101V50.2097H44.0202V51.6625H46.4141V53.0928H44.0202V54.702H47.3233V56.1882H42.4951V48.7346V48.7346ZM48.1296 53.9645C48.2172 54.0688 48.3198 54.1749 48.4376 54.283C48.5554 54.3909 48.6868 54.4897 48.8316 54.5791C48.9764 54.6684 49.1346 54.7411 49.3063 54.797C49.478 54.8528 49.6616 54.8808 49.8569 54.8808C49.9713 54.8808 50.0858 54.8621 50.2002 54.825C50.3148 54.7877 50.4192 54.7336 50.5134 54.6629C50.6077 54.5921 50.6835 54.5065 50.7406 54.4059C50.798 54.3053 50.8266 54.1917 50.8266 54.0651C50.8266 53.7895 50.7053 53.5753 50.4628 53.4225C50.2205 53.2698 49.8366 53.1189 49.3114 52.9699C49.0555 52.9028 48.8181 52.806 48.5992 52.6793C48.3804 52.5527 48.1919 52.4 48.0337 52.2213C47.8754 52.0424 47.7525 51.8375 47.665 51.6067C47.5774 51.3757 47.5336 51.1186 47.5336 50.8355C47.5336 50.5227 47.5842 50.2284 47.6851 49.9528C47.7862 49.6771 47.9394 49.4331 48.1448 49.2209C48.3502 49.0085 48.606 48.8409 48.9124 48.718C49.2188 48.5951 49.5808 48.5336 49.9983 48.5336C50.3417 48.5336 50.6448 48.5726 50.9074 48.6509C51.17 48.7291 51.3938 48.8223 51.5791 48.9302C51.7643 49.0383 51.9158 49.15 52.0336 49.2655C52.1514 49.3809 52.2407 49.4722 52.3013 49.5393L51.4225 50.6121C51.3484 50.545 51.2626 50.4724 51.1649 50.3941C51.0673 50.316 50.9579 50.2434 50.8367 50.1762C50.7154 50.1091 50.5825 50.0534 50.4377 50.0087C50.2929 49.9638 50.1397 49.9416 49.9781 49.9416C49.8703 49.9416 49.7642 49.9603 49.66 49.9975C49.5555 50.0347 49.4613 50.0849 49.377 50.1483C49.2929 50.2116 49.2255 50.2861 49.1751 50.3718C49.1245 50.4575 49.0993 50.5487 49.0993 50.6456C49.0993 50.8988 49.2205 51.1037 49.463 51.2602C49.7054 51.4166 50.0387 51.547 50.4628 51.6513C50.7121 51.7184 50.9561 51.8096 51.1952 51.9252C51.4343 52.0405 51.6482 52.1914 51.8367 52.3776C52.0252 52.5639 52.1767 52.7929 52.2912 53.0648C52.4056 53.3368 52.463 53.6665 52.463 54.0538C52.463 54.3891 52.3955 54.6982 52.2608 54.9813C52.1262 55.2645 51.9427 55.5103 51.7105 55.7189C51.4781 55.9275 51.2053 56.0895 50.8922 56.2049C50.579 56.3205 50.2408 56.3781 49.8771 56.3781C49.5403 56.3781 49.2339 56.3428 48.9579 56.2721C48.6818 56.2012 48.4327 56.1081 48.2104 55.9927C47.9882 55.8771 47.7878 55.745 47.6095 55.596C47.431 55.4469 47.2778 55.2943 47.1499 55.1377L48.1296 53.9645V53.9645ZM54.2894 50.2209H52.1076V48.7346H57.9963V50.2209H55.8247V56.1882H54.2894V50.2209V50.2209Z" fill="#FEFEFE"/>
<path d="M29.0848 64.0692H29.8087L30.8663 67.2677H30.1511L29.9301 66.5341H28.9114L28.6904 67.2677H28.0055L29.0848 64.0692ZM29.774 65.9729L29.423 64.7645L29.0632 65.9729H29.774ZM31.927 64.0692H33.8689V64.707H32.5815V65.4311H33.5611V66.0497H32.5815V67.2677H31.927V64.0692V64.0692ZM35.0076 64.0692H36.0826C36.2501 64.0692 36.3976 64.0957 36.5247 64.1483C36.6519 64.2011 36.758 64.273 36.8432 64.3641C36.9285 64.4552 36.9921 64.5615 37.034 64.683C37.0759 64.8044 37.0969 64.9341 37.0969 65.0714C37.0969 65.2793 37.0557 65.4606 36.9733 65.6157C36.8909 65.7708 36.7746 65.8947 36.6244 65.9874L37.2659 67.2677H36.5463L36.0089 66.0929H35.6447V67.2677H35.0076V64.0692ZM36.0479 65.5126C36.1692 65.5126 36.2646 65.4727 36.3339 65.3928C36.4033 65.3128 36.438 65.2121 36.438 65.0906C36.438 64.9595 36.4033 64.8556 36.3339 64.779C36.2646 64.7021 36.1692 64.6638 36.0479 64.6638H35.6447V65.5126H36.0479V65.5126ZM38.383 64.0692H39.0375V67.2677H38.383V64.0692ZM42.9545 66.6779C42.8939 66.7707 42.8201 66.8577 42.7335 66.9393C42.6468 67.0208 42.5507 67.0919 42.4453 67.1526C42.3398 67.2133 42.2257 67.2614 42.1028 67.2965C41.9799 67.3317 41.8521 67.3492 41.7192 67.3492C41.4996 67.3492 41.2988 67.3077 41.1167 67.2245C40.9347 67.1415 40.7779 67.0257 40.6464 66.8769C40.5149 66.7283 40.413 66.5525 40.3408 66.3495C40.2686 66.1464 40.2324 65.9234 40.2324 65.6805C40.2324 65.444 40.2686 65.2226 40.3408 65.0163C40.413 64.8101 40.5149 64.6311 40.6464 64.4792C40.7779 64.3274 40.9353 64.2076 41.1189 64.1195C41.3023 64.0317 41.5053 63.9877 41.7278 63.9877C41.9965 63.9877 42.2314 64.042 42.4322 64.1508C42.6331 64.2595 42.8 64.4161 42.9329 64.6206L42.4864 65.0955C42.3998 64.9612 42.2971 64.8533 42.1787 64.7718C42.0602 64.6903 41.9186 64.6496 41.7539 64.6496C41.6239 64.6496 41.5068 64.6759 41.4028 64.7286C41.2988 64.7814 41.2106 64.8542 41.1383 64.9468C41.0661 65.0394 41.0105 65.1474 40.9715 65.2705C40.9325 65.3936 40.9129 65.5238 40.9129 65.6613C40.9129 65.8019 40.9325 65.933 40.9715 66.0544C41.0105 66.1761 41.0661 66.2815 41.1383 66.371C41.2106 66.4606 41.2973 66.5309 41.3985 66.5821C41.4996 66.6332 41.6138 66.6587 41.7409 66.6587C41.845 66.6587 41.9352 66.6468 42.0118 66.6228C42.0883 66.5987 42.1562 66.5668 42.2156 66.5268C42.2747 66.4868 42.3276 66.4406 42.3737 66.3878C42.42 66.335 42.4648 66.2815 42.5081 66.2271L42.9545 66.6779V66.6779ZM44.8908 64.0692H45.6147L46.6724 67.2677H45.9571L45.7361 66.5341H44.7174L44.4964 67.2677H43.8115L44.8908 64.0692V64.0692ZM45.58 65.9729L45.2289 64.7645L44.8692 65.9729H45.58Z" fill="#ED3237"/>
<path d="M20.6045 30.3984C20.5283 30.5276 20.423 30.6596 20.2885 30.7945C20.154 30.9292 19.9953 31.0542 19.8126 31.1694C19.6299 31.2845 19.4293 31.3786 19.2112 31.4516C18.9928 31.5246 18.7618 31.5611 18.5183 31.5611C18.1376 31.5611 17.7898 31.4882 17.4751 31.3421C17.1604 31.1961 16.8889 30.9924 16.6604 30.7313C16.432 30.47 16.2543 30.1625 16.1274 29.8086C16.0005 29.4548 15.9371 29.0671 15.9371 28.6459C15.9371 28.2359 16.0005 27.8511 16.1274 27.4917C16.2543 27.1321 16.4333 26.8176 16.6642 26.548C16.8952 26.2784 17.1705 26.0649 17.4904 25.9076C17.8101 25.7503 18.1629 25.6717 18.5487 25.6717C18.7974 25.6717 19.0258 25.7013 19.234 25.7602C19.442 25.8192 19.6311 25.8992 19.8012 26.0003C19.9712 26.1015 20.1222 26.2207 20.2542 26.3584C20.3862 26.496 20.5029 26.6434 20.6045 26.8007L19.9268 27.4663C19.7644 27.208 19.5753 27.0001 19.3596 26.8428C19.1438 26.6856 18.8735 26.6069 18.5487 26.6069C18.2999 26.6069 18.0766 26.6617 17.8786 26.7713C17.6807 26.8807 17.5119 27.0268 17.3723 27.2094C17.2327 27.392 17.1261 27.6053 17.0526 27.8497C16.9789 28.094 16.9421 28.3511 16.9421 28.6206C16.9421 28.8903 16.9789 29.143 17.0526 29.379C17.1261 29.6149 17.2315 29.8199 17.3685 29.994C17.5055 30.1682 17.6692 30.3057 17.8597 30.4069C18.05 30.508 18.2644 30.5586 18.503 30.5586C18.7213 30.5586 18.9078 30.5305 19.0626 30.4743C19.2175 30.4181 19.3495 30.3478 19.4585 30.2636C19.5677 30.1794 19.6591 30.0909 19.7326 29.9982C19.8063 29.9055 19.8735 29.8255 19.9345 29.7581L20.6045 30.3984V30.3984ZM21.0537 27.4748H21.9141L21.937 27.9719C21.9775 27.9157 22.0296 27.854 22.093 27.7865C22.1565 27.719 22.2313 27.6574 22.3176 27.6011C22.4039 27.545 22.5042 27.4972 22.6184 27.4579C22.7326 27.4186 22.8633 27.399 23.0105 27.399C23.0968 27.399 23.1742 27.4046 23.2428 27.4157C23.3113 27.427 23.3811 27.4467 23.4521 27.4748L23.2694 28.41C23.2084 28.3819 23.1462 28.3623 23.0828 28.3511C23.0194 28.3398 22.9445 28.3342 22.8582 28.3342C22.7364 28.3342 22.6196 28.3567 22.5079 28.4015C22.3963 28.4465 22.2999 28.5111 22.2186 28.5953C22.1375 28.6796 22.0727 28.7807 22.0246 28.8986C21.9763 29.0167 21.9521 29.1486 21.9521 29.2947V31.4263H21.0537V27.4748V27.4748ZM23.9471 27.4748H24.8455V29.8676C24.8455 30.1204 24.9077 30.3155 25.032 30.4532C25.1564 30.5908 25.3176 30.6596 25.5156 30.6596C25.6374 30.6596 25.7516 30.6329 25.8581 30.5796C25.9648 30.5262 26.0562 30.4518 26.1323 30.3563C26.2084 30.2608 26.2681 30.1498 26.3112 30.0234C26.3544 29.8971 26.3759 29.7609 26.3759 29.6149V27.4748H27.2744V31.4263H26.4139L26.3911 30.9798C26.3454 31.0359 26.2896 31.0949 26.2236 31.1567C26.1577 31.2185 26.0815 31.2761 25.9952 31.3294C25.9089 31.3828 25.8099 31.4263 25.6982 31.4601C25.5866 31.4938 25.4596 31.5106 25.3176 31.5106C24.8709 31.5106 24.5308 31.3632 24.2973 31.0682C24.0638 30.7734 23.9471 30.3759 23.9471 29.8761V27.4748V27.4748ZM29.1094 29.4295L27.815 27.4748H28.9494L29.6652 28.6206L30.3885 27.4748H31.4011L30.1448 29.3284L31.5382 31.4263H30.4038L29.5891 30.1372L28.7667 31.4263H27.7541L29.1094 29.4295V29.4295Z" fill="#FEFEFE"/>
<path d="M32.0179 25.8065H32.9163V31.4263H32.0179V25.8065ZM37.1573 30.8534C37.142 30.8702 37.1002 30.9166 37.0316 30.9924C36.9631 31.0682 36.8641 31.1482 36.7348 31.2325C36.6053 31.3167 36.4403 31.3926 36.2397 31.4601C36.0393 31.5274 35.7995 31.5611 35.5203 31.5611C35.236 31.5611 34.9771 31.5078 34.7436 31.4011C34.5102 31.2943 34.311 31.1469 34.1459 30.9587C33.981 30.7705 33.8541 30.5445 33.7653 30.2805C33.6764 30.0165 33.632 29.7244 33.632 29.4042C33.632 29.1121 33.6764 28.8411 33.7653 28.5911C33.8541 28.3411 33.9784 28.1236 34.1384 27.9382C34.2983 27.7528 34.4886 27.6067 34.7094 27.5001C34.9302 27.3934 35.1751 27.3399 35.4441 27.3399C35.769 27.3399 36.0444 27.406 36.2703 27.5379C36.4962 27.6699 36.6776 27.8426 36.8147 28.0561C36.9517 28.2696 37.0507 28.5111 37.1117 28.7807C37.1725 29.0503 37.203 29.3255 37.203 29.6064V29.7496H34.5381C34.5381 29.8957 34.5673 30.0277 34.6257 30.1457C34.684 30.2636 34.7601 30.3647 34.8541 30.449C34.9479 30.5332 35.0546 30.5978 35.1739 30.6428C35.2932 30.6877 35.4111 30.7101 35.5279 30.7101C35.7004 30.7101 35.8515 30.6919 35.9809 30.6555C36.1104 30.6188 36.2208 30.5767 36.3121 30.529C36.4034 30.4813 36.4783 30.4307 36.5368 30.3774C36.5951 30.324 36.6396 30.2805 36.67 30.2467L37.1573 30.8534V30.8534ZM36.2817 29.0334C36.2817 28.9324 36.2639 28.8313 36.2284 28.7301C36.1929 28.6291 36.1408 28.5378 36.0723 28.4563C36.0037 28.3749 35.9162 28.3075 35.8096 28.2541C35.703 28.2007 35.5812 28.174 35.4441 28.174C35.2969 28.174 35.1662 28.2007 35.052 28.2541C34.9378 28.3075 34.8426 28.3749 34.7665 28.4563C34.6904 28.5378 34.632 28.6291 34.5914 28.7301C34.5508 28.8313 34.5305 28.9324 34.5305 29.0334H36.2817V29.0334ZM40.0049 31.0556C39.9085 31.1848 39.7613 31.2999 39.5633 31.4011C39.3654 31.5022 39.1446 31.5527 38.9009 31.5527C38.7537 31.5527 38.6078 31.5274 38.4631 31.4769C38.3185 31.4263 38.1864 31.3491 38.0672 31.2451C37.9478 31.1413 37.8515 31.0078 37.7778 30.8449C37.7043 30.6821 37.6675 30.4911 37.6675 30.272C37.6675 30.0474 37.7055 29.8465 37.7817 29.6697C37.8578 29.4926 37.9644 29.3438 38.1014 29.223C38.2385 29.1023 38.4035 29.0109 38.5964 28.9492C38.7892 28.8874 39.0024 28.8565 39.2359 28.8565C39.307 28.8565 39.3857 28.8579 39.472 28.8607C39.5583 28.8636 39.642 28.8678 39.7232 28.8734C39.8146 28.879 39.9085 28.8846 40.0049 28.8903V28.7976C40.0049 28.601 39.9338 28.4465 39.7917 28.3342C39.6496 28.2218 39.4643 28.1657 39.2359 28.1657C38.9822 28.1657 38.779 28.2022 38.6268 28.2752C38.4745 28.3482 38.34 28.4268 38.2233 28.5111L37.8121 27.8371C37.8832 27.7809 37.9644 27.7234 38.0557 27.6643C38.1471 27.6053 38.2537 27.5519 38.3755 27.5043C38.4973 27.4565 38.6382 27.4172 38.7981 27.3863C38.958 27.3554 39.1446 27.3399 39.3577 27.3399C39.5862 27.3399 39.7929 27.3751 39.9783 27.4453C40.1636 27.5155 40.3222 27.6138 40.4541 27.7401C40.5861 27.8665 40.6877 28.0182 40.7587 28.1951C40.8298 28.3721 40.8653 28.5644 40.8653 28.7723V31.4263H40.0278L40.0049 31.0556V31.0556ZM40.0049 29.6401C39.9136 29.6345 39.8247 29.6289 39.7385 29.6232C39.6674 29.6176 39.5925 29.6134 39.5138 29.6107C39.4352 29.6078 39.3678 29.6064 39.312 29.6064C39.0227 29.6064 38.8197 29.6697 38.7029 29.796C38.5862 29.9224 38.5278 30.067 38.5278 30.2299C38.5278 30.3984 38.5824 30.5305 38.6916 30.6259C38.8006 30.7213 38.9618 30.7692 39.175 30.7692C39.2816 30.7692 39.3844 30.7495 39.4834 30.7101C39.5824 30.6709 39.6699 30.6175 39.7461 30.5501C39.8222 30.4826 39.8844 30.404 39.9326 30.3142C39.9808 30.2243 40.0049 30.1288 40.0049 30.0277V29.6401V29.6401ZM41.7333 27.4747H42.5936L42.6165 27.9719C42.6572 27.9157 42.7092 27.8539 42.7726 27.7865C42.8361 27.719 42.9109 27.6574 42.9973 27.6011C43.0835 27.545 43.1838 27.4972 43.298 27.4579C43.4123 27.4186 43.5429 27.399 43.6901 27.399C43.7764 27.399 43.8539 27.4045 43.9223 27.4157C43.9908 27.427 44.0607 27.4467 44.1317 27.4747L43.949 28.41C43.8881 28.3819 43.8259 28.3622 43.7625 28.3511C43.699 28.3398 43.6241 28.3342 43.5378 28.3342C43.416 28.3342 43.2993 28.3566 43.1876 28.4015C43.076 28.4465 42.9794 28.5111 42.8982 28.5953C42.8171 28.6796 42.7523 28.7807 42.7041 28.8986C42.6558 29.0166 42.6317 29.1486 42.6317 29.2947V31.4263H41.7333V27.4747V27.4747ZM44.6418 27.4747H45.5022L45.5251 27.9213C45.5707 27.8651 45.6254 27.8061 45.6888 27.7444C45.7523 27.6826 45.8284 27.625 45.9172 27.5717C46.006 27.5183 46.1063 27.4747 46.218 27.4411C46.3296 27.4074 46.4565 27.3905 46.5986 27.3905C47.0454 27.3905 47.3855 27.5379 47.6189 27.8328C47.8524 28.1278 47.9691 28.5251 47.9691 29.025V31.4263H47.0708V29.0334C47.0708 28.7807 47.0086 28.5855 46.8842 28.448C46.7598 28.3103 46.5986 28.2415 46.4007 28.2415C46.2789 28.2415 46.1647 28.2682 46.058 28.3215C45.9515 28.3749 45.8601 28.4493 45.7839 28.5449C45.7078 28.6403 45.6482 28.7513 45.6051 28.8776C45.562 29.004 45.5403 29.1403 45.5403 29.2863V31.4263H44.6418V27.4747V27.4747ZM48.8448 25.8065H49.8042V26.8513H48.8448V25.8065ZM48.8752 27.4747H49.7737V31.4263H48.8752V27.4747ZM50.695 27.4747H51.5553L51.5782 27.9213C51.6239 27.8651 51.6785 27.8061 51.7419 27.7444C51.8054 27.6826 51.8815 27.625 51.9703 27.5717C52.0591 27.5183 52.1594 27.4747 52.2711 27.4411C52.3827 27.4074 52.5096 27.3905 52.6518 27.3905C53.0985 27.3905 53.4386 27.5379 53.672 27.8328C53.9056 28.1278 54.0223 28.5251 54.0223 29.025V31.4263H53.1239V29.0334C53.1239 28.7807 53.0617 28.5855 52.9373 28.448C52.8129 28.3103 52.6518 28.2415 52.4539 28.2415C52.332 28.2415 52.2178 28.2682 52.1112 28.3215C52.0046 28.3749 51.9133 28.4493 51.8371 28.5449C51.7609 28.6403 51.7013 28.7513 51.6582 28.8776C51.6151 29.004 51.5934 29.1403 51.5934 29.2863V31.4263H50.695V27.4747V27.4747ZM55.4691 32.0667C55.6111 32.1734 55.7646 32.2507 55.9296 32.2984C56.0946 32.3461 56.2887 32.37 56.5121 32.37C56.7456 32.37 56.941 32.2913 57.0984 32.134C57.2558 31.9768 57.3344 31.7577 57.3344 31.4769V31.0472C57.2126 31.1595 57.0794 31.2508 56.9347 31.3211C56.79 31.3913 56.5984 31.4263 56.3599 31.4263C56.101 31.4263 55.8713 31.3786 55.6708 31.283C55.4703 31.1876 55.299 31.0542 55.1568 30.8828C55.0147 30.7116 54.9069 30.5094 54.8332 30.2763C54.7596 30.0432 54.7228 29.7861 54.7228 29.5053C54.7228 29.2132 54.7698 28.938 54.8637 28.6796C54.9576 28.4213 55.0921 28.1966 55.2673 28.0055C55.4423 27.8146 55.6542 27.6643 55.9029 27.5548C56.1517 27.4453 56.4309 27.3905 56.7405 27.3905C57.0502 27.3905 57.3357 27.4186 57.5971 27.4747C57.8585 27.5309 58.0705 27.5899 58.2328 27.6517V31.4938C58.2328 31.769 58.1897 32.0132 58.1035 32.2268C58.0171 32.4402 57.8978 32.6199 57.7455 32.766C57.5933 32.912 57.4131 33.023 57.205 33.0988C56.9969 33.1746 56.771 33.2126 56.5273 33.2126C56.3395 33.2126 56.1733 33.2027 56.0286 33.183C55.8839 33.1634 55.7545 33.1367 55.6403 33.103C55.5261 33.0693 55.422 33.0272 55.3282 32.9766C55.2342 32.9261 55.1467 32.8671 55.0654 32.7997L55.4691 32.0667V32.0667ZM57.3344 28.3342C57.2634 28.3061 57.1898 28.285 57.1136 28.2709C57.0375 28.2569 56.9182 28.2499 56.7557 28.2499C56.573 28.2499 56.4131 28.2836 56.276 28.3511C56.139 28.4184 56.0223 28.5082 55.9258 28.6206C55.8294 28.7329 55.7571 28.8636 55.7089 29.0124C55.6606 29.1613 55.6365 29.3171 55.6365 29.48C55.6365 29.7834 55.7051 30.0388 55.8421 30.2467C55.9791 30.4546 56.1999 30.5585 56.5045 30.5585C56.7786 30.5585 56.9854 30.4939 57.1251 30.3647C57.2646 30.2355 57.3344 30.0305 57.3344 29.7496V28.3342V28.3342Z" fill="#ED3237"/>
<path d="M39.6787 24H36.9541V5.93848L31.4902 7.94531V5.48438L39.2539 2.56934H39.6787V24Z" fill="#F3F4F4"/>
</svg>
