<svg width="73" height="43" viewBox="0 0 73 43" fill="none" xmlns="http://www.w3.org/2000/svg">
<path fill-rule="evenodd" clip-rule="evenodd" d="M18.9818 37.3037H54.4706L50.1445 41.8456C49.2876 42.7505 48.9009 42.9966 47.7618 43H25.7281C24.7037 43.0001 24.2878 42.872 23.4515 41.9024L18.9818 37.3037Z" fill="#FFCC29"/>
<path fill-rule="evenodd" clip-rule="evenodd" d="M4.66341 8.57269H69.3019C71.3359 8.57269 73 10.4137 73 12.6639V33.5232C73 35.7734 71.3359 37.6145 69.3019 37.6145H4.66341C2.62943 37.6145 0.965302 35.7734 0.965302 33.5232V12.6639C0.965302 10.4137 2.62943 8.57269 4.66341 8.57269V8.57269Z" fill="#ED3237"/>
<path d="M5.12982 11.2472H68.9859C70.0369 11.2472 70.8969 12.1986 70.8969 13.3613V32.8257C70.8969 33.9885 70.0368 34.9398 68.9859 34.9398H5.12982C4.07881 34.9398 3.21889 33.9886 3.21889 32.8257V13.3613C3.21889 12.1986 4.07881 11.2472 5.12982 11.2472V11.2472Z" fill="#003F5D"/>
<path fill-rule="evenodd" clip-rule="evenodd" d="M36.1069 15.6254C39.7229 15.6254 42.6543 18.8692 42.6543 22.8707C42.6543 26.8721 39.7229 30.1159 36.1069 30.1159C32.4909 30.1159 29.5595 26.8721 29.5595 22.8707C29.5595 18.8692 32.4909 15.6254 36.1069 15.6254V15.6254ZM36.0949 26.0142C36.6318 26.0142 37.1177 25.8554 37.5528 25.5379C37.9879 25.1896 38.4276 24.8413 38.8719 24.493C39.0109 24.493 39.1357 24.5595 39.2468 24.6928C39.3578 24.8259 39.4134 24.9693 39.4134 25.1229C39.4134 25.6966 38.9968 26.2241 38.1637 26.7056C37.451 27.1153 36.7937 27.3202 36.192 27.3202C35.0812 27.3202 34.1301 26.9029 33.3386 26.0679C32.5473 25.233 32.1514 24.201 32.1514 22.9718C32.1514 21.7837 32.5448 20.7593 33.3317 19.8988C34.1185 19.0383 35.0535 18.6081 36.1365 18.6081C36.7383 18.6081 37.4094 18.8231 38.1499 19.2535C39.0015 19.7553 39.4273 20.3085 39.4273 20.9127C39.4273 21.0767 39.3672 21.2203 39.2468 21.3431C39.1265 21.466 38.9923 21.5275 38.8442 21.5275C38.7701 21.5275 38.4599 21.2663 37.9139 20.7438C37.3676 20.2214 36.7891 19.9602 36.1782 19.9602C35.3729 19.9602 34.704 20.2496 34.1717 20.8283C33.6395 21.4071 33.3733 22.1369 33.3733 23.0178C33.3733 23.8374 33.6395 24.5416 34.1717 25.1306C34.704 25.7196 35.3451 26.0142 36.0949 26.0142V26.0142ZM36.0949 20.4673C36.6965 20.4673 37.2428 20.7284 37.7334 21.2509C38.2239 21.7733 38.5897 22.0345 38.8303 22.0345C39.108 22.0345 39.3532 21.9219 39.5662 21.6965C39.7791 21.4711 39.8856 21.2049 39.8856 20.8974C39.8856 20.1395 39.4181 19.4634 38.4831 18.8693C37.6686 18.3571 36.8863 18.101 36.1365 18.101C34.9147 18.101 33.8686 18.5774 32.9984 19.53C32.1283 20.4827 31.6933 21.6299 31.6933 22.9718C31.6933 24.3343 32.1351 25.4841 33.0193 26.4213C33.9033 27.3586 34.9608 27.8273 36.192 27.8273C36.9326 27.8273 37.701 27.5815 38.4971 27.0896C39.4228 26.5161 39.8856 25.8554 39.8856 25.1075C39.8856 24.8106 39.7791 24.5442 39.5662 24.3085C39.3532 24.0731 39.108 23.9553 38.8303 23.9553C38.6267 23.9553 38.2541 24.2139 37.7125 24.7312C37.1709 25.2485 36.6318 25.5071 36.0949 25.5071C35.4932 25.5071 34.9655 25.2611 34.512 24.7696C34.0584 24.2779 33.8315 23.694 33.8315 23.0178C33.8315 22.3111 34.0514 21.7092 34.4911 21.2125C34.9308 20.7157 35.4654 20.4673 36.0949 20.4673V20.4673ZM36.0949 24.9846C36.4837 24.9846 36.8632 24.8259 37.2335 24.5084C38.0574 23.8015 38.5897 23.4482 38.8303 23.4482C39.2284 23.4482 39.5801 23.6121 39.8856 23.9399C40.191 24.2676 40.3439 24.657 40.3439 25.1075C40.3439 25.9988 39.8393 26.7824 38.8303 27.4585C37.9415 28.0526 37.0623 28.3497 36.192 28.3497C34.8221 28.3497 33.651 27.8323 32.679 26.7978C31.7071 25.7632 31.2211 24.4879 31.2211 22.9718C31.2211 21.4763 31.7025 20.206 32.6652 19.1612C33.6278 18.1163 34.785 17.594 36.1365 17.594C37.0252 17.594 37.9139 17.891 38.8025 18.4852C39.83 19.1715 40.3439 19.9755 40.3439 20.8974C40.3439 21.3585 40.1957 21.7477 39.8994 22.0652C39.6033 22.3828 39.2468 22.5416 38.8303 22.5416C38.4507 22.5416 38.1036 22.3777 37.7888 22.0499C37.1131 21.3329 36.5484 20.9743 36.0949 20.9743C35.5857 20.9743 35.1576 21.1715 34.8105 21.566C34.4633 21.9604 34.2898 22.4391 34.2898 23.0025C34.2898 23.5455 34.4657 24.0115 34.8173 24.4008C35.1692 24.7901 35.595 24.9846 36.0949 24.9846V24.9846Z" fill="#5DA3D8" fill-opacity="0.290196"/>
<path fill-rule="evenodd" clip-rule="evenodd" d="M43.7344 25.6652C43.6063 25.6175 43.478 25.5698 43.3499 25.522C42.1605 28.6823 40.2755 30.6901 37.4454 31.132C35.3838 31.4538 33.4646 31.094 31.7509 29.7644C29.1321 27.7324 27.3046 23.6944 29.2102 19.2045C29.8151 17.7793 30.4744 16.8646 31.6258 15.9291C33.6679 14.2698 35.9919 13.9726 38.5426 14.7892C38.5605 14.7472 38.5783 14.7051 38.5963 14.6631C39.4133 14.9306 40.1429 15.3908 40.8123 15.9829C40.8447 15.9236 40.8771 15.864 40.9096 15.8047C40.1865 15.1825 39.4406 14.7341 38.6675 14.491C38.6857 14.4424 38.7042 14.3938 38.7225 14.3454C36.2897 13.4514 33.4137 13.7451 31.1679 15.73C29.9044 16.8464 28.9025 18.4561 28.409 20.1594C27.3458 23.8289 28.462 28.0752 31.8693 30.3682C33.3887 31.3907 34.6683 31.7507 36.4461 31.7108C39.8652 31.6342 42.3638 29.5412 43.7344 25.6652V25.6652Z" fill="#5DA3D8" fill-opacity="0.290196"/>
<path fill-rule="evenodd" clip-rule="evenodd" d="M28.5095 14.6286C28.6348 14.7671 28.76 14.9057 28.8851 15.0442C26.2281 18.4261 25.1421 22.1318 26.32 26.0611C27.1781 28.9234 28.6208 31.2046 31.0268 32.6549C34.7034 34.8709 40.1835 34.8322 43.8328 29.7477C44.9911 28.1337 45.5768 26.7459 45.8985 24.7077C46.4689 21.0926 45.4318 17.904 43.0827 15.0691C43.1169 15.0216 43.151 14.9739 43.1851 14.9263C42.4263 14.0216 41.5143 13.3425 40.4974 12.8185C40.5414 12.7419 40.5855 12.6652 40.6296 12.5885C41.7097 13.1648 42.6187 13.8718 43.326 14.7336C43.3668 14.6817 43.4076 14.6295 43.4485 14.5776C45.8109 17.2143 47.1727 21.1172 46.3759 25.1861C45.9276 27.4749 44.8875 29.7117 43.3697 31.3428C40.0998 34.8571 34.781 35.8792 30.318 32.883C24.3919 28.9043 23.7012 19.7064 28.5095 14.6286V14.6286Z" fill="#5DA3D8" fill-opacity="0.290196"/>
<path fill-rule="evenodd" clip-rule="evenodd" d="M43.3623 27.9393L44.0512 28.4485C40.7489 34.2209 33.4836 35.0243 29.1696 30.2079C27.4098 28.2428 26.6544 25.9637 26.5533 23.2034C26.2377 14.5904 34.806 9.38385 41.1891 13.8318L41.0142 14.182C43.1323 15.5626 44.4693 17.6955 45.0366 20.5698L44.8118 20.6037C44.2714 17.8845 43.0132 15.7677 40.8643 14.3987L40.7141 14.6527C35.0336 10.6056 26.7787 15.2742 27.3434 23.5299C28.3107 33.2384 39.1316 35.2715 43.3623 27.9393V27.9393Z" fill="#5DA3D8" fill-opacity="0.290196"/>
<path fill-rule="evenodd" clip-rule="evenodd" d="M2.8498 35.6105C2.8498 35.2816 3.09077 35.0152 3.38794 35.0152C3.6851 35.0152 3.92608 35.2816 3.92608 35.6105C3.92608 35.9393 3.6851 36.2058 3.38794 36.2058C3.09077 36.2058 2.8498 35.9393 2.8498 35.6105ZM5.74532 35.7501C6.04249 35.7501 6.28346 36.0167 6.28346 36.3454C6.28346 36.6743 6.04249 36.9408 5.74532 36.9408C5.44806 36.9408 5.20718 36.6743 5.20718 36.3454C5.20718 36.0167 5.44806 35.7501 5.74532 35.7501ZM8.34712 35.7501C8.64438 35.7501 8.88526 36.0167 8.88526 36.3454C8.88526 36.6743 8.64438 36.9408 8.34712 36.9408C8.04995 36.9408 7.80898 36.6743 7.80898 36.3454C7.80898 36.0167 8.04995 35.7501 8.34712 35.7501ZM10.949 35.7501C11.2462 35.7501 11.4871 36.0167 11.4871 36.3454C11.4871 36.6743 11.2462 36.9408 10.949 36.9408C10.6517 36.9408 10.4109 36.6743 10.4109 36.3454C10.4109 36.0167 10.6517 35.7501 10.949 35.7501ZM13.5508 35.7501C13.848 35.7501 14.0889 36.0167 14.0889 36.3454C14.0889 36.6743 13.848 36.9408 13.5508 36.9408C13.2536 36.9408 13.0127 36.6743 13.0127 36.3454C13.0127 36.0167 13.2536 35.7501 13.5508 35.7501ZM16.1527 35.7501C16.4499 35.7501 16.6907 36.0167 16.6907 36.3454C16.6907 36.6743 16.4499 36.9408 16.1527 36.9408C15.8554 36.9408 15.6146 36.6743 15.6146 36.3454C15.6146 36.0167 15.8554 35.7501 16.1527 35.7501ZM18.7545 35.7501C19.0517 35.7501 19.2926 36.0167 19.2926 36.3454C19.2926 36.6743 19.0517 36.9408 18.7545 36.9408C18.4573 36.9408 18.2163 36.6743 18.2163 36.3454C18.2163 36.0167 18.4573 35.7501 18.7545 35.7501ZM21.3564 35.7501C21.6535 35.7501 21.8944 36.0167 21.8944 36.3454C21.8944 36.6743 21.6535 36.9408 21.3564 36.9408C21.0591 36.9408 20.8182 36.6743 20.8182 36.3454C20.8182 36.0167 21.0591 35.7501 21.3564 35.7501ZM23.9582 35.7501C24.2553 35.7501 24.4963 36.0167 24.4963 36.3454C24.4963 36.6743 24.2553 36.9408 23.9582 36.9408C23.661 36.9408 23.42 36.6743 23.42 36.3454C23.42 36.0167 23.661 35.7501 23.9582 35.7501ZM26.56 35.7501C26.8572 35.7501 27.0981 36.0167 27.0981 36.3454C27.0981 36.6743 26.8572 36.9408 26.56 36.9408C26.2628 36.9408 26.0219 36.6743 26.0219 36.3454C26.0219 36.0167 26.2628 35.7501 26.56 35.7501ZM29.1619 35.7501C29.459 35.7501 29.7 36.0167 29.7 36.3454C29.7 36.6743 29.459 36.9408 29.1619 36.9408C28.8647 36.9408 28.6237 36.6743 28.6237 36.3454C28.6237 36.0167 28.8647 35.7501 29.1619 35.7501ZM31.7637 35.7501C32.0609 35.7501 32.3018 36.0167 32.3018 36.3454C32.3018 36.6743 32.0609 36.9408 31.7637 36.9408C31.4665 36.9408 31.2255 36.6743 31.2255 36.3454C31.2255 36.0167 31.4665 35.7501 31.7637 35.7501ZM34.3655 35.7501C34.6627 35.7501 34.9037 36.0167 34.9037 36.3454C34.9037 36.6743 34.6627 36.9408 34.3655 36.9408C34.0683 36.9408 33.8274 36.6743 33.8274 36.3454C33.8274 36.0167 34.0683 35.7501 34.3655 35.7501ZM36.9673 35.7501C37.2646 35.7501 37.5055 36.0167 37.5055 36.3454C37.5055 36.6743 37.2646 36.9408 36.9673 36.9408C36.6702 36.9408 36.4292 36.6743 36.4292 36.3454C36.4292 36.0167 36.6702 35.7501 36.9673 35.7501ZM39.5692 35.7501C39.8664 35.7501 40.1074 36.0167 40.1074 36.3454C40.1074 36.6743 39.8664 36.9408 39.5692 36.9408C39.272 36.9408 39.0311 36.6743 39.0311 36.3454C39.0311 36.0167 39.272 35.7501 39.5692 35.7501ZM42.171 35.7501C42.4683 35.7501 42.7092 36.0167 42.7092 36.3454C42.7092 36.6743 42.4683 36.9408 42.171 36.9408C41.8739 36.9408 41.6329 36.6743 41.6329 36.3454C41.6329 36.0167 41.8739 35.7501 42.171 35.7501ZM44.7729 35.7501C45.0701 35.7501 45.3111 36.0167 45.3111 36.3454C45.3111 36.6743 45.0701 36.9408 44.7729 36.9408C44.4757 36.9408 44.2348 36.6743 44.2348 36.3454C44.2348 36.0167 44.4757 35.7501 44.7729 35.7501ZM47.3747 35.7501C47.6719 35.7501 47.9129 36.0167 47.9129 36.3454C47.9129 36.6743 47.6719 36.9408 47.3747 36.9408C47.0775 36.9408 46.8366 36.6743 46.8366 36.3454C46.8366 36.0167 47.0775 35.7501 47.3747 35.7501ZM49.9766 35.7501C50.2738 35.7501 50.5146 36.0167 50.5146 36.3454C50.5146 36.6743 50.2738 36.9408 49.9766 36.9408C49.6793 36.9408 49.4385 36.6743 49.4385 36.3454C49.4385 36.0167 49.6793 35.7501 49.9766 35.7501ZM52.5784 35.7501C52.8756 35.7501 53.1165 36.0167 53.1165 36.3454C53.1165 36.6743 52.8756 36.9408 52.5784 36.9408C52.2812 36.9408 52.0403 36.6743 52.0403 36.3454C52.0403 36.0167 52.2812 35.7501 52.5784 35.7501ZM55.1802 35.7501C55.4775 35.7501 55.7183 36.0167 55.7183 36.3454C55.7183 36.6743 55.4775 36.9408 55.1802 36.9408C54.883 36.9408 54.6421 36.6743 54.6421 36.3454C54.6421 36.0167 54.883 35.7501 55.1802 35.7501ZM57.7821 35.7501C58.0792 35.7501 58.3202 36.0167 58.3202 36.3454C58.3202 36.6743 58.0792 36.9408 57.7821 36.9408C57.4849 36.9408 57.2439 36.6743 57.2439 36.3454C57.2439 36.0167 57.4849 35.7501 57.7821 35.7501ZM60.3839 35.7501C60.6811 35.7501 60.922 36.0167 60.922 36.3454C60.922 36.6743 60.6811 36.9408 60.3839 36.9408C60.0867 36.9408 59.8457 36.6743 59.8457 36.3454C59.8457 36.0167 60.0867 35.7501 60.3839 35.7501ZM62.9858 35.7501C63.2829 35.7501 63.5239 36.0167 63.5239 36.3454C63.5239 36.6743 63.2829 36.9408 62.9858 36.9408C62.6885 36.9408 62.4476 36.6743 62.4476 36.3454C62.4476 36.0167 62.6885 35.7501 62.9858 35.7501ZM65.5876 35.7501C65.8848 35.7501 66.1257 36.0167 66.1257 36.3454C66.1257 36.6743 65.8848 36.9408 65.5876 36.9408C65.2904 36.9408 65.0494 36.6743 65.0494 36.3454C65.0494 36.0167 65.2904 35.7501 65.5876 35.7501ZM68.1896 35.7501C68.4868 35.7501 68.7278 36.0167 68.7278 36.3454C68.7278 36.6743 68.4868 36.9408 68.1896 36.9408C67.8924 36.9408 67.6516 36.6743 67.6516 36.3454C67.6516 36.0167 67.8924 35.7501 68.1896 35.7501ZM70.2783 35.6274C70.2783 35.2985 70.5193 35.032 70.8164 35.032C71.1136 35.032 71.3546 35.2985 71.3546 35.6274C71.3546 35.9561 71.1136 36.2226 70.8164 36.2226C70.5193 36.2226 70.2783 35.9561 70.2783 35.6274ZM1.59588 33.0636C1.59588 32.7347 1.83686 32.4683 2.13402 32.4683C2.43128 32.4683 2.67216 32.7347 2.67216 33.0636C2.67216 33.3923 2.43128 33.6589 2.13402 33.6589C1.83686 33.6589 1.59588 33.3923 1.59588 33.0636ZM1.59588 30.2337C1.59588 29.905 1.83686 29.6385 2.13402 29.6385C2.43128 29.6385 2.67216 29.905 2.67216 30.2337C2.67216 30.5625 2.43128 30.8291 2.13402 30.8291C1.83686 30.8291 1.59588 30.5625 1.59588 30.2337ZM1.59588 27.4039C1.59588 27.0751 1.83686 26.8086 2.13402 26.8086C2.43128 26.8086 2.67216 27.0751 2.67216 27.4039C2.67216 27.7327 2.43128 27.9991 2.13402 27.9991C1.83686 27.9991 1.59588 27.7327 1.59588 27.4039ZM1.59588 24.5741C1.59588 24.2452 1.83686 23.9787 2.13402 23.9787C2.43128 23.9787 2.67216 24.2452 2.67216 24.5741C2.67216 24.9028 2.43128 25.1693 2.13402 25.1693C1.83686 25.1693 1.59588 24.9028 1.59588 24.5741ZM1.59588 21.7441C1.59588 21.4153 1.83686 21.1488 2.13402 21.1488C2.43128 21.1488 2.67216 21.4153 2.67216 21.7441C2.67216 22.0729 2.43128 22.3394 2.13402 22.3394C1.83686 22.3394 1.59588 22.0729 1.59588 21.7441ZM1.59588 18.9142C1.59588 18.5854 1.83686 18.3189 2.13402 18.3189C2.43128 18.3189 2.67216 18.5854 2.67216 18.9142C2.67216 19.2431 2.43128 19.5095 2.13402 19.5095C1.83686 19.5095 1.59588 19.2431 1.59588 18.9142ZM1.59588 16.0843C1.59588 15.7556 1.83686 15.4891 2.13402 15.4891C2.43128 15.4891 2.67216 15.7556 2.67216 16.0843C2.67216 16.4132 2.43128 16.6797 2.13402 16.6797C1.83686 16.6797 1.59588 16.4132 1.59588 16.0843ZM71.5137 33.0636C71.5137 32.7347 71.7547 32.4683 72.0518 32.4683C72.3489 32.4683 72.5899 32.7347 72.5899 33.0636C72.5899 33.3923 72.3489 33.6589 72.0518 33.6589C71.7547 33.6589 71.5137 33.3923 71.5137 33.0636V33.0636ZM71.5137 30.2337C71.5137 29.905 71.7547 29.6385 72.0518 29.6385C72.3489 29.6385 72.5899 29.905 72.5899 30.2337C72.5899 30.5625 72.3489 30.8291 72.0518 30.8291C71.7547 30.8291 71.5137 30.5625 71.5137 30.2337V30.2337ZM71.5137 27.4039C71.5137 27.0751 71.7547 26.8086 72.0518 26.8086C72.3489 26.8086 72.5899 27.0751 72.5899 27.4039C72.5899 27.7327 72.3489 27.9991 72.0518 27.9991C71.7547 27.9991 71.5137 27.7327 71.5137 27.4039V27.4039ZM71.5137 24.5741C71.5137 24.2452 71.7547 23.9787 72.0518 23.9787C72.3489 23.9787 72.5899 24.2452 72.5899 24.5741C72.5899 24.9028 72.3489 25.1693 72.0518 25.1693C71.7547 25.1693 71.5137 24.9028 71.5137 24.5741V24.5741ZM71.5137 21.7441C71.5137 21.4153 71.7547 21.1488 72.0518 21.1488C72.3489 21.1488 72.5899 21.4153 72.5899 21.7441C72.5899 22.0729 72.3489 22.3394 72.0518 22.3394C71.7547 22.3394 71.5137 22.0729 71.5137 21.7441V21.7441ZM71.5137 18.9142C71.5137 18.5854 71.7547 18.3189 72.0518 18.3189C72.3489 18.3189 72.5899 18.5854 72.5899 18.9142C72.5899 19.2431 72.3489 19.5095 72.0518 19.5095C71.7547 19.5095 71.5137 19.2431 71.5137 18.9142V18.9142ZM71.5137 16.0843C71.5137 15.7556 71.7547 15.4891 72.0518 15.4891C72.3489 15.4891 72.5899 15.7556 72.5899 16.0843C72.5899 16.4132 72.3489 16.6797 72.0518 16.6797C71.7547 16.6797 71.5137 16.4132 71.5137 16.0843V16.0843ZM5.74532 9.37982C6.04249 9.37982 6.28346 9.64638 6.28346 9.97511C6.28346 10.3039 6.04249 10.5705 5.74532 10.5705C5.44806 10.5705 5.20718 10.3039 5.20718 9.97511C5.20718 9.64638 5.44806 9.37982 5.74532 9.37982ZM8.34712 9.37982C8.64438 9.37982 8.88526 9.64638 8.88526 9.97511C8.88526 10.3039 8.64438 10.5705 8.34712 10.5705C8.04995 10.5705 7.80898 10.3039 7.80898 9.97511C7.80898 9.64638 8.04995 9.37982 8.34712 9.37982ZM10.949 9.37982C11.2462 9.37982 11.4871 9.64638 11.4871 9.97511C11.4871 10.3039 11.2462 10.5705 10.949 10.5705C10.6517 10.5705 10.4109 10.3039 10.4109 9.97511C10.4109 9.64638 10.6517 9.37982 10.949 9.37982ZM13.5508 9.37982C13.848 9.37982 14.0889 9.64638 14.0889 9.97511C14.0889 10.3039 13.848 10.5705 13.5508 10.5705C13.2536 10.5705 13.0127 10.3039 13.0127 9.97511C13.0127 9.64638 13.2536 9.37982 13.5508 9.37982ZM16.1527 9.37982C16.4499 9.37982 16.6907 9.64638 16.6907 9.97511C16.6907 10.3039 16.4499 10.5705 16.1527 10.5705C15.8554 10.5705 15.6146 10.3039 15.6146 9.97511C15.6146 9.64638 15.8554 9.37982 16.1527 9.37982ZM18.7545 9.37982C19.0517 9.37982 19.2926 9.64638 19.2926 9.97511C19.2926 10.3039 19.0517 10.5705 18.7545 10.5705C18.4573 10.5705 18.2163 10.3039 18.2163 9.97511C18.2163 9.64638 18.4573 9.37982 18.7545 9.37982ZM21.3564 9.37982C21.6535 9.37982 21.8944 9.64638 21.8944 9.97511C21.8944 10.3039 21.6535 10.5705 21.3564 10.5705C21.0591 10.5705 20.8182 10.3039 20.8182 9.97511C20.8182 9.64638 21.0591 9.37982 21.3564 9.37982ZM23.9582 9.37982C24.2553 9.37982 24.4963 9.64638 24.4963 9.97511C24.4963 10.3039 24.2553 10.5705 23.9582 10.5705C23.661 10.5705 23.42 10.3039 23.42 9.97511C23.42 9.64638 23.661 9.37982 23.9582 9.37982ZM26.56 9.37982C26.8572 9.37982 27.0981 9.64638 27.0981 9.97511C27.0981 10.3039 26.8572 10.5705 26.56 10.5705C26.2628 10.5705 26.0219 10.3039 26.0219 9.97511C26.0219 9.64638 26.2628 9.37982 26.56 9.37982ZM29.1619 9.37982C29.459 9.37982 29.7 9.64638 29.7 9.97511C29.7 10.3039 29.459 10.5705 29.1619 10.5705C28.8647 10.5705 28.6237 10.3039 28.6237 9.97511C28.6237 9.64638 28.8647 9.37982 29.1619 9.37982ZM31.7637 9.37982C32.0609 9.37982 32.3018 9.64638 32.3018 9.97511C32.3018 10.3039 32.0609 10.5705 31.7637 10.5705C31.4665 10.5705 31.2255 10.3039 31.2255 9.97511C31.2255 9.64638 31.4665 9.37982 31.7637 9.37982ZM34.3655 9.37982C34.6627 9.37982 34.9037 9.64638 34.9037 9.97511C34.9037 10.3039 34.6627 10.5705 34.3655 10.5705C34.0683 10.5705 33.8274 10.3039 33.8274 9.97511C33.8274 9.64638 34.0683 9.37982 34.3655 9.37982ZM36.9673 9.37982C37.2646 9.37982 37.5055 9.64638 37.5055 9.97511C37.5055 10.3039 37.2646 10.5705 36.9673 10.5705C36.6702 10.5705 36.4292 10.3039 36.4292 9.97511C36.4292 9.64638 36.6702 9.37982 36.9673 9.37982ZM39.5692 9.37982C39.8664 9.37982 40.1074 9.64638 40.1074 9.97511C40.1074 10.3039 39.8664 10.5705 39.5692 10.5705C39.272 10.5705 39.0311 10.3039 39.0311 9.97511C39.0311 9.64638 39.272 9.37982 39.5692 9.37982ZM42.171 9.37982C42.4683 9.37982 42.7092 9.64638 42.7092 9.97511C42.7092 10.3039 42.4683 10.5705 42.171 10.5705C41.8739 10.5705 41.6329 10.3039 41.6329 9.97511C41.6329 9.64638 41.8739 9.37982 42.171 9.37982ZM44.7729 9.37982C45.0701 9.37982 45.3111 9.64638 45.3111 9.97511C45.3111 10.3039 45.0701 10.5705 44.7729 10.5705C44.4757 10.5705 44.2348 10.3039 44.2348 9.97511C44.2348 9.64638 44.4757 9.37982 44.7729 9.37982ZM47.3747 9.37982C47.6719 9.37982 47.9129 9.64638 47.9129 9.97511C47.9129 10.3039 47.6719 10.5705 47.3747 10.5705C47.0775 10.5705 46.8366 10.3039 46.8366 9.97511C46.8366 9.64638 47.0775 9.37982 47.3747 9.37982ZM49.9766 9.37982C50.2738 9.37982 50.5146 9.64638 50.5146 9.97511C50.5146 10.3039 50.2738 10.5705 49.9766 10.5705C49.6793 10.5705 49.4385 10.3039 49.4385 9.97511C49.4385 9.64638 49.6793 9.37982 49.9766 9.37982ZM52.5784 9.37982C52.8756 9.37982 53.1165 9.64638 53.1165 9.97511C53.1165 10.3039 52.8756 10.5705 52.5784 10.5705C52.2812 10.5705 52.0403 10.3039 52.0403 9.97511C52.0403 9.64638 52.2812 9.37982 52.5784 9.37982ZM55.1802 9.37982C55.4775 9.37982 55.7183 9.64638 55.7183 9.97511C55.7183 10.3039 55.4775 10.5705 55.1802 10.5705C54.883 10.5705 54.6421 10.3039 54.6421 9.97511C54.6421 9.64638 54.883 9.37982 55.1802 9.37982ZM57.7821 9.37982C58.0792 9.37982 58.3202 9.64638 58.3202 9.97511C58.3202 10.3039 58.0792 10.5705 57.7821 10.5705C57.4849 10.5705 57.2439 10.3039 57.2439 9.97511C57.2439 9.64638 57.4849 9.37982 57.7821 9.37982ZM60.3839 9.37982C60.6811 9.37982 60.922 9.64638 60.922 9.97511C60.922 10.3039 60.6811 10.5705 60.3839 10.5705C60.0867 10.5705 59.8457 10.3039 59.8457 9.97511C59.8457 9.64638 60.0867 9.37982 60.3839 9.37982ZM62.9858 9.37982C63.2829 9.37982 63.5239 9.64638 63.5239 9.97511C63.5239 10.3039 63.2829 10.5705 62.9858 10.5705C62.6885 10.5705 62.4476 10.3039 62.4476 9.97511C62.4476 9.64638 62.6885 9.37982 62.9858 9.37982ZM65.5876 9.37982C65.8848 9.37982 66.1257 9.64638 66.1257 9.97511C66.1257 10.3039 65.8848 10.5705 65.5876 10.5705C65.2904 10.5705 65.0494 10.3039 65.0494 9.97511C65.0494 9.64638 65.2904 9.37982 65.5876 9.37982ZM68.1896 9.37982C68.4868 9.37982 68.7278 9.64638 68.7278 9.97511C68.7278 10.3039 68.4868 10.5705 68.1896 10.5705C67.8924 10.5705 67.6516 10.3039 67.6516 9.97511C67.6516 9.64638 67.8924 9.37982 68.1896 9.37982ZM1.59588 13.2544C1.59588 12.9258 1.83686 12.6592 2.13402 12.6592C2.43128 12.6592 2.67216 12.9258 2.67216 13.2544C2.67216 13.5833 2.43128 13.8498 2.13402 13.8498C1.83686 13.8498 1.59588 13.5833 1.59588 13.2544ZM71.5137 13.2544C71.5137 12.9258 71.7547 12.6592 72.0518 12.6592C72.3489 12.6592 72.5899 12.9258 72.5899 13.2544C72.5899 13.5833 72.3489 13.8498 72.0518 13.8498C71.7547 13.8498 71.5137 13.5833 71.5137 13.2544ZM70.2783 10.7724C70.2783 10.4436 70.5193 10.1772 70.8164 10.1772C71.1136 10.1772 71.3546 10.4436 71.3546 10.7724C71.3546 11.1012 71.1136 11.3677 70.8164 11.3677C70.5193 11.3677 70.2783 11.1012 70.2783 10.7724ZM2.7688 10.7724C2.7688 10.4436 3.00978 10.1772 3.30694 10.1772C3.60421 10.1772 3.84509 10.4436 3.84509 10.7724C3.84509 11.1012 3.60421 11.3677 3.30694 11.3677C3.00978 11.3677 2.7688 11.1012 2.7688 10.7724V10.7724Z" fill="#FEFEFE"/>
<path d="M7.61703 14.9945H9.06146L10.819 18.4922L12.5362 14.9945H13.9908L14.3039 22.4481H12.7786L12.5867 17.5759L11.1927 20.4814H10.405L8.93009 17.6094L8.75838 22.4481H7.30384L7.61703 14.9945V14.9945ZM16.686 14.9945H18.3728L20.8374 22.4481H19.1708L18.6557 20.7383H16.2819L15.7667 22.4481H14.1708L16.686 14.9945V14.9945ZM18.292 19.4309L17.4738 16.6148L16.6354 19.4309H18.292ZM21.472 16.4808H19.2901V14.9945H25.179V16.4808H23.0073V22.4481H21.472V16.4808V16.4808ZM25.2984 14.9945H26.8236V17.8552H29.7428V14.9945H31.2681V22.4481H29.7428V19.3863H26.8236V22.4481H25.2984V14.9945V14.9945ZM31.832 14.9945H36.438V16.4696H33.3572V17.9224H35.7511V19.3526H33.3572V20.9617H36.6602V22.4481H31.832V14.9945V14.9945ZM37.1432 14.9945H38.5877L40.3453 18.4922L42.0625 14.9945H43.517L43.8301 22.4481H42.3048L42.1129 17.5759L40.719 20.4814H39.9312L38.4564 17.6094L38.2847 22.4481H36.8302L37.1432 14.9945V14.9945ZM46.2122 14.9945H47.899L50.3636 22.4481H48.697L48.1819 20.7383H45.8081L45.2929 22.4481H43.697L46.2122 14.9945V14.9945ZM47.8182 19.4309L47 16.6148L46.1616 19.4309H47.8182V19.4309ZM50.9982 16.4808H48.8164V14.9945H54.7052V16.4808H52.5336V22.4481H50.9982V16.4808V16.4808ZM54.8246 14.9945H56.3499V22.4481H54.8246V14.9945V14.9945ZM62.9946 21.0735C62.8532 21.2895 62.6814 21.4926 62.4795 21.6826C62.2773 21.8726 62.0534 22.0384 61.8077 22.1799C61.5619 22.3214 61.296 22.4331 61.0097 22.5151C60.7235 22.5971 60.4256 22.638 60.1158 22.638C59.604 22.638 59.136 22.5412 58.7118 22.3475C58.2876 22.1538 57.9222 21.8836 57.6158 21.5374C57.3094 21.1909 57.072 20.7812 56.9037 20.3082C56.7354 19.835 56.6511 19.3154 56.6511 18.7493C56.6511 18.198 56.7354 17.682 56.9037 17.2015C57.072 16.721 57.3094 16.3038 57.6158 15.95C57.9222 15.5961 58.2892 15.3167 58.7168 15.1118C59.1444 14.907 59.6174 14.8045 60.1359 14.8045C60.7622 14.8045 61.3093 14.9313 61.7774 15.1845C62.2455 15.4378 62.6343 15.8028 62.9441 16.2796L61.9037 17.3859C61.7016 17.0731 61.4625 16.8215 61.1865 16.6316C60.9104 16.4416 60.5804 16.3467 60.1966 16.3467C59.8935 16.3467 59.6208 16.4081 59.3784 16.531C59.136 16.654 58.9307 16.8235 58.7622 17.0395C58.5939 17.2556 58.4643 17.507 58.3734 17.7938C58.2824 18.0806 58.237 18.3842 58.237 18.7045C58.237 19.0323 58.2824 19.3378 58.3734 19.6209C58.4643 19.904 58.5939 20.1498 58.7622 20.3584C58.9307 20.567 59.1326 20.7309 59.3683 20.8501C59.604 20.9692 59.8701 21.0289 60.1664 21.0289C60.4087 21.0289 60.6192 21.0009 60.7975 20.945C60.976 20.8891 61.1344 20.8147 61.2723 20.7216C61.4104 20.6285 61.5333 20.5204 61.641 20.3975C61.7488 20.2745 61.8531 20.1498 61.9541 20.0231L62.9946 21.0735V21.0735ZM63.4776 20.2242C63.5652 20.3287 63.6679 20.4347 63.7857 20.5428C63.9035 20.6507 64.0349 20.7495 64.1797 20.8388C64.3245 20.9283 64.4827 21.0009 64.6544 21.0568C64.8261 21.1127 65.0096 21.1407 65.2049 21.1407C65.3194 21.1407 65.4339 21.122 65.5483 21.0847C65.6628 21.0476 65.7671 20.9935 65.8614 20.9228C65.9557 20.8519 66.0315 20.7662 66.0887 20.6657C66.1459 20.5651 66.1746 20.4515 66.1746 20.3248C66.1746 20.0492 66.0534 19.835 65.8109 19.6824C65.5685 19.5296 65.1847 19.3788 64.6594 19.2297C64.4036 19.1627 64.1661 19.0658 63.9473 18.9392C63.7284 18.8126 63.5399 18.6599 63.3817 18.481C63.2234 18.3023 63.1005 18.0974 63.013 17.8664C62.9255 17.6356 62.8817 17.3785 62.8817 17.0954C62.8817 16.7826 62.9322 16.4883 63.0332 16.2126C63.1342 15.937 63.2874 15.6929 63.4928 15.4806C63.6981 15.2683 63.9541 15.1007 64.2605 14.9777C64.5669 14.8548 64.9288 14.7934 65.3463 14.7934C65.6897 14.7934 65.9927 14.8325 66.2553 14.9108C66.5181 14.9889 66.7419 15.0821 66.9271 15.1901C67.1122 15.2982 67.2638 15.4099 67.3816 15.5254C67.4994 15.6408 67.5887 15.7321 67.6493 15.7991L66.7706 16.8719C66.6965 16.8049 66.6106 16.7322 66.5129 16.654C66.4153 16.5758 66.3059 16.5031 66.1848 16.4361C66.0634 16.369 65.9305 16.3132 65.7857 16.2685C65.6409 16.2237 65.4878 16.2014 65.3262 16.2014C65.2184 16.2014 65.1123 16.2201 65.0079 16.2573C64.9036 16.2945 64.8092 16.3448 64.7251 16.4081C64.6409 16.4715 64.5736 16.5459 64.5231 16.6316C64.4725 16.7173 64.4473 16.8086 64.4473 16.9055C64.4473 17.1587 64.5685 17.3635 64.811 17.5201C65.0533 17.6765 65.3867 17.8069 65.8109 17.9112C66.0602 17.9781 66.3042 18.0694 66.5433 18.1849C66.7823 18.3004 66.9961 18.4512 67.1846 18.6375C67.3732 18.8238 67.5247 19.0528 67.6393 19.3247C67.7537 19.5967 67.811 19.9262 67.811 20.3137C67.811 20.6489 67.7436 20.958 67.6089 21.2412C67.4742 21.5243 67.2907 21.77 67.0584 21.9788C66.8261 22.1873 66.5534 22.3494 66.2403 22.4648C65.9271 22.5803 65.5888 22.638 65.225 22.638C64.8884 22.638 64.582 22.6027 64.306 22.5319C64.0298 22.4611 63.7807 22.368 63.5584 22.2525C63.3362 22.137 63.1358 22.0047 62.9574 21.8559C62.779 21.7068 62.6258 21.5541 62.4979 21.3976L63.4776 20.2242V20.2242ZM23.573 29.8138C23.4316 30.0298 23.2598 30.2329 23.0578 30.4228C22.8558 30.6128 22.6318 30.7785 22.3861 30.9201C22.1404 31.0616 21.8743 31.1732 21.5881 31.2553C21.3019 31.3372 21.004 31.3781 20.6942 31.3781C20.1824 31.3781 19.7144 31.2813 19.2901 31.0876C18.8659 30.8939 18.5006 30.6239 18.1942 30.2775C17.8878 29.931 17.6504 29.5213 17.4821 29.0483C17.3137 28.5753 17.2295 28.0556 17.2295 27.4894C17.2295 26.9381 17.3137 26.4222 17.4821 25.9417C17.6504 25.4612 17.8878 25.044 18.1942 24.6902C18.5006 24.3363 18.8675 24.0569 19.2952 23.852C19.7228 23.6472 20.1958 23.5447 20.7143 23.5447C21.3406 23.5447 21.8877 23.6714 22.3558 23.9247C22.8238 24.178 23.2126 24.543 23.5225 25.0198L22.482 26.1261C22.28 25.8132 22.041 25.5618 21.7649 25.3718C21.4888 25.1818 21.1588 25.0868 20.7749 25.0868C20.4719 25.0868 20.1992 25.1483 19.9568 25.2712C19.7144 25.3941 19.509 25.5637 19.3406 25.7797C19.1722 25.9958 19.0427 26.2471 18.9518 26.5339C18.8609 26.8208 18.8154 27.1244 18.8154 27.4446C18.8154 27.7724 18.8609 28.0779 18.9518 28.3611C19.0427 28.6441 19.1722 28.89 19.3406 29.0986C19.509 29.3072 19.711 29.471 19.9467 29.5903C20.1824 29.7094 20.4484 29.769 20.7447 29.769C20.9871 29.769 21.1975 29.7411 21.3759 29.6852C21.5544 29.6293 21.7127 29.5548 21.8507 29.4617C21.9888 29.3686 22.1116 29.2606 22.2193 29.1377C22.3271 29.0147 22.4315 28.89 22.5325 28.7633L23.573 29.8138V29.8138ZM26.6823 31.3781C26.184 31.3781 25.721 31.2776 25.2935 31.0764C24.8658 30.8753 24.4954 30.5996 24.1824 30.2495C23.8692 29.8994 23.6234 29.484 23.4449 29.0036C23.2664 28.5231 23.1772 28.0071 23.1772 27.4558C23.1772 26.8972 23.2664 26.3794 23.4449 25.9026C23.6234 25.4258 23.8692 25.0123 24.1824 24.6622C24.4954 24.3121 24.8658 24.0364 25.2935 23.8352C25.721 23.6341 26.184 23.5336 26.6823 23.5336C27.1805 23.5336 27.6436 23.6341 28.0712 23.8352C28.4987 24.0364 28.8691 24.3121 29.1823 24.6622C29.4955 25.0123 29.7412 25.4258 29.9197 25.9026C30.0981 26.3794 30.1873 26.8972 30.1873 27.4558C30.1873 28.0071 30.0981 28.5231 29.9197 29.0036C29.7412 29.484 29.4955 29.8994 29.1823 30.2495C28.8691 30.5996 28.4987 30.8753 28.0712 31.0764C27.6436 31.2776 27.1805 31.3781 26.6823 31.3781ZM26.6823 29.7914C26.9786 29.7914 27.2446 29.728 27.4803 29.6015C27.716 29.4748 27.9163 29.3035 28.0813 29.0874C28.2462 28.8714 28.3724 28.6217 28.46 28.3387C28.5476 28.0556 28.5914 27.754 28.5914 27.4335C28.5914 27.1132 28.5476 26.8115 28.46 26.5283C28.3724 26.2452 28.2462 25.9975 28.0813 25.7853C27.9163 25.573 27.716 25.4053 27.4803 25.2823C27.2446 25.1595 26.9786 25.098 26.6823 25.098C26.3861 25.098 26.1184 25.1595 25.8792 25.2823C25.6402 25.4053 25.4382 25.573 25.2731 25.7853C25.1082 25.9975 24.982 26.2452 24.8944 26.5283C24.8069 26.8115 24.7631 27.1132 24.7631 27.4335C24.7631 27.754 24.8069 28.0556 24.8944 28.3387C24.982 28.6217 25.1082 28.8714 25.2731 29.0874C25.4382 29.3035 25.6402 29.4748 25.8792 29.6015C26.1184 29.728 26.3861 29.7914 26.6823 29.7914ZM30.4887 23.7346H31.9432L34.8623 28.5734V23.7346H36.3673V31.1882H34.9835L31.9936 26.2602V31.1882H30.4887V23.7346V23.7346ZM38.6686 25.2209H36.4868V23.7346H42.3756V25.2209H40.2039V31.1882H38.6686V25.2209V25.2209ZM42.4951 23.7346H47.101V25.2097H44.0202V26.6625H46.4141V28.0928H44.0202V29.702H47.3233V31.1882H42.4951V23.7346V23.7346ZM48.1296 28.9645C48.2172 29.0688 48.3198 29.1749 48.4376 29.283C48.5554 29.3909 48.6868 29.4897 48.8316 29.5791C48.9764 29.6684 49.1346 29.7411 49.3063 29.797C49.478 29.8528 49.6616 29.8808 49.8569 29.8808C49.9713 29.8808 50.0858 29.8621 50.2002 29.825C50.3148 29.7877 50.4192 29.7336 50.5134 29.6629C50.6077 29.5921 50.6835 29.5065 50.7406 29.4059C50.798 29.3053 50.8266 29.1917 50.8266 29.0651C50.8266 28.7895 50.7053 28.5753 50.4628 28.4225C50.2205 28.2698 49.8366 28.1189 49.3114 27.9699C49.0555 27.9028 48.8181 27.806 48.5992 27.6793C48.3804 27.5527 48.1919 27.4 48.0337 27.2213C47.8754 27.0424 47.7525 26.8375 47.665 26.6067C47.5774 26.3757 47.5336 26.1186 47.5336 25.8355C47.5336 25.5227 47.5842 25.2284 47.6851 24.9528C47.7862 24.6771 47.9394 24.4331 48.1448 24.2209C48.3502 24.0085 48.606 23.8409 48.9124 23.718C49.2188 23.5951 49.5808 23.5336 49.9983 23.5336C50.3417 23.5336 50.6448 23.5726 50.9074 23.6509C51.17 23.7291 51.3938 23.8223 51.5791 23.9302C51.7643 24.0383 51.9158 24.15 52.0336 24.2655C52.1514 24.3809 52.2407 24.4722 52.3013 24.5393L51.4225 25.6121C51.3484 25.545 51.2626 25.4724 51.1649 25.3941C51.0673 25.316 50.9579 25.2434 50.8367 25.1762C50.7154 25.1091 50.5825 25.0534 50.4377 25.0087C50.2929 24.9638 50.1397 24.9416 49.9781 24.9416C49.8703 24.9416 49.7642 24.9603 49.66 24.9975C49.5555 25.0347 49.4613 25.0849 49.377 25.1483C49.2929 25.2116 49.2255 25.2861 49.1751 25.3718C49.1245 25.4575 49.0993 25.5487 49.0993 25.6456C49.0993 25.8988 49.2205 26.1037 49.463 26.2602C49.7054 26.4166 50.0387 26.547 50.4628 26.6513C50.7121 26.7184 50.9561 26.8096 51.1952 26.9252C51.4343 27.0405 51.6482 27.1914 51.8367 27.3776C52.0252 27.5639 52.1767 27.7929 52.2912 28.0648C52.4056 28.3368 52.463 28.6665 52.463 29.0538C52.463 29.3891 52.3955 29.6982 52.2608 29.9813C52.1262 30.2645 51.9427 30.5103 51.7105 30.7189C51.4781 30.9275 51.2053 31.0895 50.8922 31.2049C50.579 31.3205 50.2408 31.3781 49.8771 31.3781C49.5403 31.3781 49.2339 31.3428 48.9579 31.2721C48.6818 31.2012 48.4327 31.1081 48.2104 30.9927C47.9882 30.8771 47.7878 30.745 47.6095 30.596C47.431 30.4469 47.2778 30.2943 47.1499 30.1377L48.1296 28.9645V28.9645ZM54.2894 25.2209H52.1076V23.7346H57.9963V25.2209H55.8247V31.1882H54.2894V25.2209V25.2209Z" fill="#FEFEFE"/>
<path d="M29.0848 39.0692H29.8087L30.8663 42.2677H30.1511L29.9301 41.5341H28.9114L28.6904 42.2677H28.0055L29.0848 39.0692ZM29.774 40.9729L29.423 39.7645L29.0632 40.9729H29.774ZM31.927 39.0692H33.8689V39.707H32.5815V40.4311H33.5611V41.0497H32.5815V42.2677H31.927V39.0692V39.0692ZM35.0076 39.0692H36.0826C36.2501 39.0692 36.3976 39.0957 36.5247 39.1483C36.6519 39.2011 36.758 39.273 36.8432 39.3641C36.9285 39.4552 36.9921 39.5615 37.034 39.683C37.0759 39.8044 37.0969 39.9341 37.0969 40.0714C37.0969 40.2793 37.0557 40.4606 36.9733 40.6157C36.8909 40.7708 36.7746 40.8947 36.6244 40.9874L37.2659 42.2677H36.5463L36.0089 41.0929H35.6447V42.2677H35.0076V39.0692ZM36.0479 40.5126C36.1692 40.5126 36.2646 40.4727 36.3339 40.3928C36.4033 40.3128 36.438 40.2121 36.438 40.0906C36.438 39.9595 36.4033 39.8556 36.3339 39.779C36.2646 39.7021 36.1692 39.6638 36.0479 39.6638H35.6447V40.5126H36.0479V40.5126ZM38.383 39.0692H39.0375V42.2677H38.383V39.0692ZM42.9545 41.6779C42.8939 41.7707 42.8201 41.8577 42.7335 41.9393C42.6468 42.0208 42.5507 42.0919 42.4453 42.1526C42.3398 42.2133 42.2257 42.2614 42.1028 42.2965C41.9799 42.3317 41.8521 42.3492 41.7192 42.3492C41.4996 42.3492 41.2988 42.3077 41.1167 42.2245C40.9347 42.1415 40.7779 42.0257 40.6464 41.8769C40.5149 41.7283 40.413 41.5525 40.3408 41.3495C40.2686 41.1464 40.2324 40.9234 40.2324 40.6805C40.2324 40.444 40.2686 40.2226 40.3408 40.0163C40.413 39.8101 40.5149 39.6311 40.6464 39.4792C40.7779 39.3274 40.9353 39.2076 41.1189 39.1195C41.3023 39.0317 41.5053 38.9877 41.7278 38.9877C41.9965 38.9877 42.2314 39.042 42.4322 39.1508C42.6331 39.2595 42.8 39.4161 42.9329 39.6206L42.4864 40.0955C42.3998 39.9612 42.2971 39.8533 42.1787 39.7718C42.0602 39.6903 41.9186 39.6496 41.7539 39.6496C41.6239 39.6496 41.5068 39.6759 41.4028 39.7286C41.2988 39.7814 41.2106 39.8542 41.1383 39.9468C41.0661 40.0394 41.0105 40.1474 40.9715 40.2705C40.9325 40.3936 40.9129 40.5238 40.9129 40.6613C40.9129 40.8019 40.9325 40.933 40.9715 41.0544C41.0105 41.1761 41.0661 41.2815 41.1383 41.371C41.2106 41.4606 41.2973 41.5309 41.3985 41.5821C41.4996 41.6332 41.6138 41.6587 41.7409 41.6587C41.845 41.6587 41.9352 41.6468 42.0118 41.6228C42.0883 41.5987 42.1562 41.5668 42.2156 41.5268C42.2747 41.4868 42.3276 41.4406 42.3737 41.3878C42.42 41.335 42.4648 41.2815 42.5081 41.2271L42.9545 41.6779V41.6779ZM44.8908 39.0692H45.6147L46.6724 42.2677H45.9571L45.7361 41.5341H44.7174L44.4964 42.2677H43.8115L44.8908 39.0692V39.0692ZM45.58 40.9729L45.2289 39.7645L44.8692 40.9729H45.58Z" fill="#ED3237"/>
<path d="M20.6045 5.39841C20.5283 5.52763 20.423 5.65958 20.2885 5.7945C20.154 5.9292 19.9953 6.05419 19.8126 6.16936C19.6299 6.28454 19.4293 6.3786 19.2112 6.45165C18.9928 6.52459 18.7618 6.56112 18.5183 6.56112C18.1376 6.56112 17.7898 6.48817 17.4751 6.34207C17.1604 6.19607 16.8889 5.99243 16.6604 5.73126C16.432 5.46999 16.2543 5.16248 16.1274 4.80862C16.0005 4.45476 15.9371 4.06712 15.9371 3.64591C15.9371 3.23589 16.0005 2.85111 16.1274 2.49165C16.2543 2.13209 16.4333 1.81761 16.6642 1.548C16.8952 1.27838 17.1705 1.06493 17.4904 0.907633C17.8101 0.75034 18.1629 0.671692 18.5487 0.671692C18.7974 0.671692 19.0258 0.701252 19.234 0.760158C19.442 0.819169 19.6311 0.899188 19.8012 1.00032C19.9712 1.10145 20.1222 1.22074 20.2542 1.3584C20.3862 1.49595 20.5029 1.64343 20.6045 1.80072L19.9268 2.46632C19.7644 2.208 19.5753 2.00014 19.3596 1.84284C19.1438 1.68555 18.8735 1.6069 18.5487 1.6069C18.2999 1.6069 18.0766 1.66169 17.8786 1.77127C17.6807 1.88074 17.5119 2.02685 17.3723 2.20937C17.2327 2.392 17.1261 2.60535 17.0526 2.84973C16.9789 3.09401 16.9421 3.35107 16.9421 3.62058C16.9421 3.8903 16.9789 4.14302 17.0526 4.37896C17.1261 4.6149 17.2315 4.81991 17.3685 4.99399C17.5055 5.16818 17.6692 5.30573 17.8597 5.40686C18.05 5.50799 18.2644 5.55856 18.503 5.55856C18.7213 5.55856 18.9078 5.53048 19.0626 5.47432C19.2175 5.41805 19.3495 5.34785 19.4585 5.26361C19.5677 5.17936 19.6591 5.0909 19.7326 4.99821C19.8063 4.90553 19.8735 4.82551 19.9345 4.75805L20.6045 5.39841V5.39841ZM21.0537 2.47476H21.9141L21.937 2.97187C21.9775 2.91571 22.0296 2.85396 22.093 2.7865C22.1565 2.71904 22.2313 2.65739 22.3176 2.60112C22.4039 2.54496 22.5042 2.49725 22.6184 2.45787C22.7326 2.4186 22.8633 2.39897 23.0105 2.39897C23.0968 2.39897 23.1742 2.40456 23.2428 2.41575C23.3113 2.42704 23.3811 2.44668 23.4521 2.47476L23.2694 3.40997C23.2084 3.38189 23.1462 3.36226 23.0828 3.35107C23.0194 3.33977 22.9445 3.33417 22.8582 3.33417C22.7364 3.33417 22.6196 3.35666 22.5079 3.40153C22.3963 3.4465 22.2999 3.51111 22.2186 3.59535C22.1375 3.67959 22.0727 3.78072 22.0246 3.89864C21.9763 4.01666 21.9521 4.14862 21.9521 4.29472V6.42631H21.0537V2.47476V2.47476ZM23.9471 2.47476H24.8455V4.86763C24.8455 5.12035 24.9077 5.31555 25.032 5.4532C25.1564 5.59076 25.3176 5.65958 25.5156 5.65958C25.6374 5.65958 25.7516 5.63288 25.8581 5.57957C25.9648 5.52615 26.0562 5.45183 26.1323 5.35629C26.2084 5.26076 26.2681 5.14981 26.3112 5.02344C26.3544 4.89708 26.3759 4.7609 26.3759 4.6149V2.47476H27.2744V6.42631H26.4139L26.3911 5.97977C26.3454 6.03593 26.2896 6.09494 26.2236 6.1567C26.1577 6.21845 26.0815 6.27609 25.9952 6.3294C25.9089 6.38282 25.8099 6.42631 25.6982 6.46009C25.5866 6.49377 25.4596 6.51055 25.3176 6.51055C24.8709 6.51055 24.5308 6.36318 24.2973 6.06823C24.0638 5.77339 23.9471 5.37593 23.9471 4.87607V2.47476V2.47476ZM29.1094 4.42953L27.815 2.47476H28.9494L29.6652 3.62058L30.3885 2.47476H31.4011L30.1448 4.3284L31.5382 6.42631H30.4038L29.5891 5.13724L28.7667 6.42631H27.7541L29.1094 4.42953V4.42953Z" fill="#FEFEFE"/>
<path d="M32.0179 0.806488H32.9163V6.4263H32.0179V0.806488ZM37.1573 5.85339C37.142 5.87018 37.1002 5.91663 37.0316 5.99242C36.9631 6.06822 36.8641 6.14824 36.7348 6.23248C36.6053 6.31672 36.4403 6.39262 36.2397 6.46008C36.0393 6.52743 35.7995 6.56111 35.5203 6.56111C35.236 6.56111 34.9771 6.5078 34.7436 6.40107C34.5102 6.29434 34.311 6.14687 34.1459 5.95875C33.981 5.77052 33.8541 5.54451 33.7653 5.28049C33.6764 5.01646 33.632 4.72436 33.632 4.40418C33.632 4.11208 33.6764 3.84109 33.7653 3.59111C33.8541 3.34113 33.9784 3.12356 34.1384 2.93819C34.2983 2.75281 34.4886 2.60671 34.7094 2.50009C34.9302 2.39336 35.1751 2.33994 35.4441 2.33994C35.769 2.33994 36.0444 2.40603 36.2703 2.53788C36.4962 2.66994 36.6776 2.84265 36.8147 3.0561C36.9517 3.26956 37.0507 3.51109 37.1117 3.78071C37.1725 4.05032 37.203 4.32553 37.203 4.60644V4.74959H34.5381C34.5381 4.8957 34.5673 5.02765 34.6257 5.14568C34.684 5.26359 34.7601 5.36473 34.8541 5.44897C34.9479 5.53321 35.0546 5.59782 35.1739 5.64279C35.2932 5.68765 35.4111 5.71014 35.5279 5.71014C35.7004 5.71014 35.8515 5.69188 35.9809 5.65546C36.1104 5.61882 36.2208 5.5767 36.3121 5.52899C36.4034 5.48127 36.4783 5.43071 36.5368 5.37739C36.5951 5.32398 36.6396 5.28049 36.67 5.2467L37.1573 5.85339V5.85339ZM36.2817 4.03343C36.2817 3.93241 36.2639 3.83127 36.2284 3.73014C36.1929 3.62911 36.1408 3.5378 36.0723 3.4563C36.0037 3.37491 35.9162 3.30746 35.8096 3.25414C35.703 3.20073 35.5812 3.17402 35.4441 3.17402C35.2969 3.17402 35.1662 3.20073 35.052 3.25414C34.9378 3.30746 34.8426 3.37491 34.7665 3.4563C34.6904 3.5378 34.632 3.62911 34.5914 3.73014C34.5508 3.83127 34.5305 3.93241 34.5305 4.03343H36.2817V4.03343ZM40.0049 6.05555C39.9085 6.18476 39.7613 6.29994 39.5633 6.40107C39.3654 6.5022 39.1446 6.55266 38.9009 6.55266C38.7537 6.55266 38.6078 6.52743 38.4631 6.47687C38.3185 6.4263 38.1864 6.34913 38.0672 6.24515C37.9478 6.14127 37.8515 6.00784 37.7778 5.84495C37.7043 5.68206 37.6675 5.49109 37.6675 5.27204C37.6675 5.04739 37.7055 4.8465 37.7817 4.66968C37.8578 4.49264 37.9644 4.3438 38.1014 4.22303C38.2385 4.10226 38.4035 4.01095 38.5964 3.94919C38.7892 3.88743 39.0024 3.85651 39.2359 3.85651C39.307 3.85651 39.3857 3.85788 39.472 3.86073C39.5583 3.86358 39.642 3.8678 39.7232 3.87339C39.8146 3.87899 39.9085 3.88459 40.0049 3.89029V3.7976C40.0049 3.60103 39.9338 3.44648 39.7917 3.33416C39.6496 3.22184 39.4643 3.16568 39.2359 3.16568C38.9822 3.16568 38.779 3.20221 38.6268 3.27515C38.4745 3.3482 38.34 3.42685 38.2233 3.51109L37.8121 2.83705C37.8832 2.78089 37.9644 2.72336 38.0557 2.66435C38.1471 2.60533 38.2537 2.55192 38.3755 2.50431C38.4973 2.45649 38.6382 2.41722 38.7981 2.38629C38.958 2.35536 39.1446 2.33994 39.3577 2.33994C39.5862 2.33994 39.7929 2.37509 39.9783 2.4453C40.1636 2.5155 40.3222 2.61378 40.4541 2.74014C40.5861 2.86651 40.6877 3.0182 40.7587 3.19513C40.8298 3.37206 40.8653 3.5644 40.8653 3.77226V6.4263H40.0278L40.0049 6.05555V6.05555ZM40.0049 4.64012C39.9136 4.63453 39.8247 4.62893 39.7385 4.62323C39.6674 4.61764 39.5925 4.61341 39.5138 4.61067C39.4352 4.60782 39.3678 4.60644 39.312 4.60644C39.0227 4.60644 38.8197 4.66968 38.7029 4.79604C38.5862 4.92241 38.5278 5.06703 38.5278 5.22992C38.5278 5.3984 38.5824 5.53047 38.6916 5.6259C38.8006 5.72133 38.9618 5.76915 39.175 5.76915C39.2816 5.76915 39.3844 5.74951 39.4834 5.71014C39.5824 5.67087 39.6699 5.61745 39.7461 5.5501C39.8222 5.48264 39.8844 5.404 39.9326 5.31416C39.9808 5.22432 40.0049 5.12879 40.0049 5.02765V4.64012V4.64012ZM41.7333 2.47475H42.5936L42.6165 2.97186C42.6572 2.9157 42.7092 2.85394 42.7726 2.78649C42.8361 2.71903 42.9109 2.65738 42.9973 2.60111C43.0835 2.54495 43.1838 2.49724 43.298 2.45786C43.4123 2.41859 43.5429 2.39895 43.6901 2.39895C43.7764 2.39895 43.8539 2.40455 43.9223 2.41574C43.9908 2.42703 44.0607 2.44667 44.1317 2.47475L43.949 3.40996C43.8881 3.38188 43.8259 3.36224 43.7625 3.35105C43.699 3.33976 43.6241 3.33416 43.5378 3.33416C43.416 3.33416 43.2993 3.35665 43.1876 3.40151C43.076 3.44649 42.9794 3.51109 42.8982 3.59533C42.8171 3.67958 42.7523 3.78071 42.7041 3.89863C42.6558 4.01665 42.6317 4.14861 42.6317 4.29471V6.4263H41.7333V2.47475V2.47475ZM44.6418 2.47475H45.5022L45.5251 2.92129C45.5707 2.86513 45.6254 2.80612 45.6888 2.74437C45.7523 2.68261 45.8284 2.62497 45.9172 2.57166C46.006 2.51835 46.1063 2.47475 46.218 2.44107C46.3296 2.4074 46.4565 2.39051 46.5986 2.39051C47.0454 2.39051 47.3855 2.53788 47.6189 2.83283C47.8524 3.12778 47.9691 3.52513 47.9691 4.02499V6.4263H47.0708V4.03343C47.0708 3.78071 47.0086 3.58552 46.8842 3.44796C46.7598 3.3103 46.5986 3.24148 46.4007 3.24148C46.2789 3.24148 46.1647 3.26818 46.058 3.32149C45.9515 3.37491 45.8601 3.44934 45.7839 3.54487C45.7078 3.64031 45.6482 3.75126 45.6051 3.87762C45.562 4.00398 45.5403 4.14027 45.5403 4.28626V6.4263H44.6418V2.47475V2.47475ZM48.8448 0.806488H49.8042V1.85128H48.8448V0.806488ZM48.8752 2.47475H49.7737V6.4263H48.8752V2.47475ZM50.695 2.47475H51.5553L51.5782 2.92129C51.6239 2.86513 51.6785 2.80612 51.7419 2.74437C51.8054 2.68261 51.8815 2.62497 51.9703 2.57166C52.0591 2.51835 52.1594 2.47475 52.2711 2.44107C52.3827 2.4074 52.5096 2.39051 52.6518 2.39051C53.0985 2.39051 53.4386 2.53788 53.672 2.83283C53.9056 3.12778 54.0223 3.52513 54.0223 4.02499V6.4263H53.1239V4.03343C53.1239 3.78071 53.0617 3.58552 52.9373 3.44796C52.8129 3.3103 52.6518 3.24148 52.4539 3.24148C52.332 3.24148 52.2178 3.26818 52.1112 3.32149C52.0046 3.37491 51.9133 3.44934 51.8371 3.54487C51.7609 3.64031 51.7013 3.75126 51.6582 3.87762C51.6151 4.00398 51.5934 4.14027 51.5934 4.28626V6.4263H50.695V2.47475V2.47475ZM55.4691 7.06666C55.6111 7.17339 55.7646 7.25066 55.9296 7.29838C56.0946 7.3461 56.2887 7.36995 56.5121 7.36995C56.7456 7.36995 56.941 7.29131 57.0984 7.13402C57.2558 6.97683 57.3344 6.75767 57.3344 6.47687V6.04721C57.2126 6.15953 57.0794 6.25085 56.9347 6.32105C56.79 6.39125 56.5984 6.4263 56.3599 6.4263C56.101 6.4263 55.8713 6.37858 55.6708 6.28305C55.4703 6.18761 55.299 6.05418 55.1568 5.88285C55.0147 5.71162 54.9069 5.50935 54.8332 5.27626C54.7596 5.04317 54.7228 4.78612 54.7228 4.50531C54.7228 4.21321 54.7698 3.938 54.8637 3.67958C54.9576 3.42126 55.0921 3.19661 55.2673 3.00554C55.4423 2.81457 55.6542 2.66435 55.9029 2.55477C56.1517 2.4453 56.4309 2.39051 56.7405 2.39051C57.0502 2.39051 57.3357 2.41859 57.5971 2.47475C57.8585 2.53091 58.0705 2.58992 58.2328 2.65168V6.49376C58.2328 6.76897 58.1897 7.01325 58.1035 7.22681C58.0171 7.44016 57.8978 7.61993 57.7455 7.76604C57.5933 7.91204 57.4131 8.02299 57.205 8.09878C56.9969 8.17458 56.771 8.21258 56.5273 8.21258C56.3395 8.21258 56.1733 8.20266 56.0286 8.18302C55.8839 8.16339 55.7545 8.13668 55.6403 8.10301C55.5261 8.06933 55.422 8.02721 55.3282 7.97664C55.2342 7.92608 55.1467 7.86706 55.0654 7.79971L55.4691 7.06666V7.06666ZM57.3344 3.33416C57.2634 3.30608 57.1898 3.28497 57.1136 3.27093C57.0375 3.25689 56.9182 3.24992 56.7557 3.24992C56.573 3.24992 56.4131 3.2836 56.276 3.35105C56.139 3.4184 56.0223 3.50824 55.9258 3.62056C55.8294 3.73289 55.7571 3.86358 55.7089 4.01242C55.6606 4.16127 55.6365 4.31709 55.6365 4.47998C55.6365 4.78337 55.7051 5.03884 55.8421 5.2467C55.9791 5.45456 56.1999 5.55855 56.5045 5.55855C56.7786 5.55855 56.9854 5.49394 57.1251 5.36473C57.2646 5.23551 57.3344 5.0305 57.3344 4.74959V3.33416V3.33416Z" fill="#ED3237"/>
</svg>
